<svg xmlns="http://www.w3.org/2000/svg" xmlns:xlink="http://www.w3.org/1999/xlink" width="179" height="119" viewBox="0 0 179 119">
    <defs>
        <path id="a" d="M0 0h173v108H0z"/>
    </defs>
    <g fill="none" fill-rule="evenodd">
        <g transform="translate(3.814 10.608)">
            <mask id="b" fill="#fff">
                <use xlink:href="#a"/>
            </mask>
            <path fill="#D1D3D7" d="M171.804 13.525c-.8-1.037-1.797-1.921-2.531-3.004-.444-.661-.557-1.562-.81-2.358-.792-2.543-1.716-2.913-3.874-1.536-.4-.21-.798-.427-1.62-.867-.41 2.354-1.02 4.424-1.075 6.514-.062 2.897-1.5 5.207-4.25 5.94-1.97.525-3.921 1.188-5.928 1.484-1.825.266-2.83 1.397-3.73 2.756-.572.853-1.017 1.796-1.54 2.727.255.513.562 1.129.804 1.604-1.342 1.877-3.07 2.25-5.078 2.105-.722-.053-1.538.233-2.195.582-.344.18-.73 1.076-.591 1.25 1.078 1.4.082 2.195-.81 2.897-1.777 1.4-3.693 2.62-5.434 4.052-2.23 1.84-3.417 2.004-6.03.33.652-1.128 1.32-2.268 1.974-3.42.126-.225.296-.517.251-.732-.319-1.508-.566-3.052-1.083-4.495-.393-1.09-1.228-1.18-2.01-.203-.39.485-.784.966-1.181 1.45-.18-.109-.362-.215-.551-.323.327-.7.623-1.413.995-2.09 1.038-1.902.376-4.142-1.36-5.117-.236.01-.468.03-.714.03-2.962 0-5.195-1.13-6.728-2.83-1.398-.215-2.778-.526-4.096-1.025a19.344 19.344 0 0 1-4.043-2.093c-.963.66-1.928 1.313-2.884 1.986-1.477 1.04-2.005.923-2.899-.671-.95.425-1.896.845-2.846 1.271-.105-.175-.21-.362-.32-.541.943-.73 1.907-1.48 2.853-2.214-2.717-.164-5.396-1.49-7.285-4.423-.12-.183-.253-.351-.38-.526-.682.103-1.31-.02-1.82-.342a7.02 7.02 0 0 1-2.587-.483 83.452 83.452 0 0 0-2.343-.887C63.135 10.173 38.692 6.748 14.611 0v5.117c-.457-.641-.727-1.365-1.233-1.667-1.504-.881-3.1-1.598-4.98-2.538.058 1.265.129 2.427.156 3.583.126 5.272-1.645 10.069-3.837 14.697-1.31 2.758-3.21 5.26-2.75 8.578.255 1.84-.57 3.255-1.607 4.697-.446.614-.362 1.702-.336 2.569.023.9.666 1.986.343 2.66-1.289 2.715 1.332 4.694 1.083 7.157 0 .003.144.003.147.025.183.758.385 1.51.513 2.278.112.685-.124 1.682.254 2.026.922.858 1.645 1.458.352 2.57-.163.145-.067.77.08 1.086.633 1.355 1.426 2.633 1.965 4.02.33.84.633 1.938.375 2.723-.49 1.455.12 1.815 1.272 2.233.94.334 2.089.762 2.585 1.522.782 1.203 2.093 1.665 3.008 2.73 1.217 1.413 2.503 2.537 2.455 4.553-.025 1.046.29 1.519 1.503 1.653 2.899.317 5.821.21 8.353 2.502 2.094 1.899 4.994 2.857 7.348 4.508 4.064 2.845 8.808 2.347 13.29 3.335.172-.785.296-1.354.426-1.927 1.49.197 2.885.269 4.217.589.75.18 1.502.667 2.079 1.202 1.202 1.128 2.378 2.313 3.395 3.615.703.9 1.111 2.038 1.656 3.064.473.893.773 1.966 1.46 2.612 1.076 1.016 2.418 1.741 3.818 2.696.51-.583 1.165-1.026 1.384-1.636.39-1.093 1.025-1.922 2.13-1.884 1.062.037 2.385.183 3.098.83 1.166 1.054 1.966 2.534 2.86 3.87a185.27 185.27 0 0 1 3.088 4.824c.199.308.382.658.443 1.008.416 2.366 1.163 4.447 3.76 5.222 1.137.339 2.23.828 3.369 1.16.547.154 1.15.106 1.568.138-.357-1.794-.985-3.263-.86-4.675.298-3.435 2.283-5.687 5.528-6.865 1.012-.37 2.153-.864 2.813-1.658.875-1.06 1.541-1.948 3.07-2.278 2.121-.46 4.11-1.054 6.304-.304.697.237 1.627-.219 2.453-.362-.001-.18-.01-.359-.011-.541 1.982 1.157 3.69 3.06 6.502 2.293.747-1.587 1.914-2.957 3.502-3.87-.03-.281-.198-.593-.593-.963 1.64-.38 3.577-1.474 4.536-.903 1.668 1.001 2.719.012 3.938-.285 1.873-.456 3.403.225 4.928 1.026.4.21.592.84 1.07 1.562.97-.466 2.315-.763 3.13-1.59 1.504-1.526 2.395-.4 3.412.43.718.59 1.247 1.631 2.037 1.865 1.576.461 1.816 1.744 1.462 2.706-.728 1.97.388 3.276 1.212 4.64.773 1.27 1.893 2.308 2.826 3.479.525.662.856 1.806 1.483 1.992 1.342.384 1.802 1.345 2.39 2.361.146.25.655.472.94.42 1.467-.277 2.183-.888 2.329-2.727.187-2.398.383-4.545-1.123-6.625-.83-1.142-1.338-2.529-1.936-3.83-.294-.639-.273-1.542-.723-1.977-1.574-1.509-2.276-3.494-3.303-5.33-1.939-3.475.263-8.71 2.424-10.741 1.368-1.283 2.965-2.392 3.424-4.533.169-.78 1.426-1.311 2.162-1.98.495-.45.953-.938 1.419-1.42.989-1.03 1.95-2.09 2.965-3.098.429-.43.946-.756 1.397-1.103-.487-.653-.79-1.061-1.143-1.527 1.46-.493 2.529-1.149 2.245-2.75-.144-.109-.278-.23-.412-.35-.401-.138-.803-.279-1.338-.462.239-.119.42-.202.588-.284-1.535-1.74-2.33-4.067-2.392-6.421-.132-.825-.275-1.714-.437-2.737.22.194.416.364.593.523.107-.615.277-1.213.489-1.795-.003-.049-.016-.092-.016-.138 0-3.425 1.864-6.455 4.59-8.164-.049-.16-.08-.324-.154-.489 1.813-1.302 3.404-2.44 5.005-3.589l-.809-1.07c.153-.134.224-.21.308-.275 1.045-.762 2.057-1.575 3.138-2.274 2.353-1.51-.244-2.173-.513-3.231-.067-.27-.254-.518-.273-.787-.116-2.14-.028-4.178 1.846-5.717.966-.796 1.64-1.957 2.589-2.778 1.29-1.108 2.723-2.047 4.289-3.202-.404-.718-.72-1.463-1.197-2.074" mask="url(#b)"/>
        </g>
        <path fill="#0000BC" stroke="#FFF" stroke-width=".96" d="M23.583 1.208c-3.085 0-5.58 2.55-5.58 5.702 0 4.277 5.58 10.59 5.58 10.59s5.58-6.313 5.58-10.59c0-3.152-2.495-5.702-5.58-5.702"/>
        <path fill="#FFF" d="M23.583 8.947c-1.1 0-1.993-.912-1.993-2.037 0-1.124.893-2.036 1.993-2.036s1.993.912 1.993 2.036c0 1.125-.893 2.037-1.993 2.037"/>
        <path fill="#0000BC" stroke="#FFF" stroke-width=".96" d="M24.562 39.404c-3.085 0-5.58 2.55-5.58 5.702 0 4.277 5.58 10.59 5.58 10.59s5.581-6.313 5.581-10.59c0-3.152-2.495-5.702-5.58-5.702"/>
        <path fill="#FFF" d="M24.562 47.143c-1.1 0-1.993-.913-1.993-2.037 0-1.124.893-2.036 1.993-2.036s1.994.912 1.994 2.036-.893 2.037-1.994 2.037"/>
        <path fill="#0000BC" stroke="#FFF" stroke-width=".96" d="M21.624 15.9c-3.085 0-5.58 2.549-5.58 5.701 0 4.277 5.58 10.59 5.58 10.59s5.58-6.313 5.58-10.59c0-3.152-2.494-5.702-5.58-5.702"/>
        <path fill="#FFF" d="M21.624 23.638c-1.1 0-1.993-.913-1.993-2.037 0-1.124.893-2.036 1.993-2.036s1.993.912 1.993 2.036-.893 2.037-1.993 2.037"/>
        <path fill="#0000BC" stroke="#FFF" stroke-width=".96" d="M15.748 7.085c-3.085 0-5.58 2.55-5.58 5.702 0 4.276 5.58 10.59 5.58 10.59s5.58-6.314 5.58-10.59c0-3.153-2.495-5.702-5.58-5.702"/>
        <path fill="#FFF" d="M15.748 14.823c-1.1 0-1.993-.912-1.993-2.036s.893-2.037 1.993-2.037 1.993.913 1.993 2.037c0 1.124-.893 2.036-1.993 2.036"/>
        <path fill="#0000BC" stroke="#FFF" stroke-width=".96" d="M125.439 20.796c-3.086 0-5.58 2.55-5.58 5.702 0 4.277 5.58 10.59 5.58 10.59s5.58-6.313 5.58-10.59c0-3.152-2.495-5.702-5.58-5.702"/>
        <path fill="#FFF" d="M125.439 28.535c-1.1 0-1.993-.913-1.993-2.037 0-1.124.893-2.036 1.993-2.036s1.993.912 1.993 2.036-.893 2.037-1.993 2.037"/>
        <path fill="#0000BC" stroke="#FFF" stroke-width=".96" d="M11.83 17.858c-3.085 0-5.58 2.55-5.58 5.702 0 4.276 5.58 10.59 5.58 10.59s5.581-6.314 5.581-10.59c0-3.153-2.495-5.702-5.58-5.702"/>
        <path fill="#FFF" d="M11.83 25.596c-1.1 0-1.993-.912-1.993-2.036s.893-2.037 1.993-2.037 1.994.913 1.994 2.037c0 1.124-.893 2.036-1.994 2.036"/>
        <path fill="#0000BC" stroke="#FFF" stroke-width=".96" d="M105.851 21.775c-3.085 0-5.58 2.55-5.58 5.702 0 4.277 5.58 10.59 5.58 10.59s5.58-6.313 5.58-10.59c0-3.152-2.495-5.702-5.58-5.702"/>
        <path fill="#FFF" d="M105.851 29.514c-1.1 0-1.993-.912-1.993-2.037 0-1.124.893-2.036 1.993-2.036s1.993.912 1.993 2.036c0 1.125-.893 2.037-1.993 2.037"/>
        <path fill="#0000BC" stroke="#FFF" stroke-width=".96" d="M98.016 36.466c-3.085 0-5.58 2.55-5.58 5.702 0 4.277 5.58 10.59 5.58 10.59s5.58-6.313 5.58-10.59c0-3.152-2.495-5.702-5.58-5.702"/>
        <path fill="#FFF" d="M98.016 44.205c-1.1 0-1.993-.913-1.993-2.037 0-1.124.893-2.036 1.993-2.036s1.993.912 1.993 2.036-.893 2.037-1.993 2.037"/>
        <path fill="#0000BC" stroke="#FFF" stroke-width=".96" d="M83.325 42.342c-3.085 0-5.58 2.55-5.58 5.702 0 4.277 5.58 10.59 5.58 10.59s5.58-6.313 5.58-10.59c0-3.152-2.494-5.702-5.58-5.702"/>
        <path fill="#FFF" d="M83.325 50.08c-1.1 0-1.993-.911-1.993-2.036 0-1.124.893-2.036 1.993-2.036s1.993.912 1.993 2.036c0 1.125-.893 2.037-1.993 2.037"/>
        <path fill="#0000BC" stroke="#FFF" stroke-width=".96" d="M116.624 32.549c-3.085 0-5.58 2.55-5.58 5.702 0 4.276 5.58 10.59 5.58 10.59s5.58-6.314 5.58-10.59c0-3.153-2.494-5.702-5.58-5.702"/>
        <path fill="#FFF" d="M116.624 40.287c-1.1 0-1.993-.912-1.993-2.036 0-1.125.893-2.037 1.993-2.037s1.993.912 1.993 2.037c0 1.124-.893 2.036-1.993 2.036"/>
        <path fill="#0000BC" stroke="#FFF" stroke-width=".96" d="M172.449 10.023c-3.085 0-5.58 2.55-5.58 5.702 0 4.276 5.58 10.59 5.58 10.59s5.58-6.314 5.58-10.59c0-3.153-2.495-5.702-5.58-5.702"/>
        <path fill="#FFF" d="M172.449 17.761c-1.1 0-1.993-.912-1.993-2.036s.893-2.037 1.993-2.037 1.993.913 1.993 2.037c0 1.124-.893 2.036-1.993 2.036"/>
        <path fill="#0000BC" stroke="#FFF" stroke-width=".96" d="M167.552 18.837c-3.085 0-5.58 2.55-5.58 5.702 0 4.277 5.58 10.59 5.58 10.59s5.58-6.313 5.58-10.59c0-3.152-2.495-5.702-5.58-5.702"/>
        <path fill="#FFF" d="M167.552 26.576c-1.1 0-1.993-.913-1.993-2.037 0-1.124.893-2.036 1.993-2.036s1.993.912 1.993 2.036-.893 2.037-1.993 2.037"/>
        <path fill="#0000BC" stroke="#FFF" stroke-width=".96" d="M154.82 20.796c-3.085 0-5.58 2.55-5.58 5.702 0 4.277 5.58 10.59 5.58 10.59s5.58-6.313 5.58-10.59c0-3.152-2.495-5.702-5.58-5.702"/>
        <path fill="#FFF" d="M154.82 28.535c-1.1 0-1.993-.913-1.993-2.037 0-1.124.893-2.036 1.993-2.036s1.993.912 1.993 2.036-.893 2.037-1.993 2.037"/>
        <path fill="#0000BC" stroke="#FFF" stroke-width=".96" d="M163.635 26.672c-3.086 0-5.581 2.55-5.581 5.702 0 4.277 5.58 10.59 5.58 10.59s5.581-6.313 5.581-10.59c0-3.152-2.495-5.702-5.58-5.702"/>
        <path fill="#FFF" d="M163.635 34.41c-1.1 0-1.993-.912-1.993-2.036s.892-2.036 1.993-2.036c1.1 0 1.993.912 1.993 2.036s-.893 2.037-1.993 2.037"/>
        <path fill="#0000BC" stroke="#FFF" stroke-width=".96" d="M161.676 36.466c-3.085 0-5.58 2.55-5.58 5.702 0 4.277 5.58 10.59 5.58 10.59s5.58-6.313 5.58-10.59c0-3.152-2.495-5.702-5.58-5.702"/>
        <path fill="#FFF" d="M161.676 44.205c-1.1 0-1.993-.913-1.993-2.037 0-1.124.893-2.036 1.993-2.036s1.993.912 1.993 2.036-.893 2.037-1.993 2.037"/>
        <path fill="#0000BC" stroke="#FFF" stroke-width=".96" d="M151.882 38.425c-3.085 0-5.58 2.55-5.58 5.702 0 4.276 5.58 10.59 5.58 10.59s5.58-6.314 5.58-10.59c0-3.153-2.495-5.702-5.58-5.702"/>
        <path fill="#FFF" d="M151.882 46.163c-1.1 0-1.993-.912-1.993-2.036s.893-2.037 1.993-2.037 1.993.913 1.993 2.037c0 1.124-.893 2.036-1.993 2.036"/>
        <path fill="#0000BC" stroke="#FFF" stroke-width=".96" d="M143.068 36.466c-3.086 0-5.581 2.55-5.581 5.702 0 4.277 5.58 10.59 5.58 10.59s5.581-6.313 5.581-10.59c0-3.152-2.495-5.702-5.58-5.702"/>
        <path fill="#FFF" d="M143.068 44.205c-1.1 0-1.993-.913-1.993-2.037 0-1.124.892-2.036 1.993-2.036 1.1 0 1.993.912 1.993 2.036s-.893 2.037-1.993 2.037"/>
        <path fill="#0000BC" stroke="#FFF" stroke-width=".96" d="M137.191 44.301c-3.085 0-5.58 2.55-5.58 5.702 0 4.277 5.58 10.59 5.58 10.59s5.58-6.313 5.58-10.59c0-3.152-2.494-5.702-5.58-5.702"/>
        <path fill="#FFF" d="M137.191 52.04c-1.1 0-1.993-.913-1.993-2.037 0-1.124.893-2.036 1.993-2.036s1.993.912 1.993 2.036-.893 2.037-1.993 2.037"/>
        <path fill="#0000BC" stroke="#FFF" stroke-width=".96" d="M124.46 44.301c-3.086 0-5.581 2.55-5.581 5.702 0 4.277 5.58 10.59 5.58 10.59s5.581-6.313 5.581-10.59c0-3.152-2.495-5.702-5.58-5.702"/>
        <path fill="#FFF" d="M124.46 52.04c-1.1 0-1.994-.913-1.994-2.037 0-1.124.893-2.036 1.993-2.036s1.993.912 1.993 2.036-.892 2.037-1.993 2.037"/>
        <path fill="#0000BC" stroke="#FFF" stroke-width=".96" d="M131.315 50.177c-3.085 0-5.58 2.55-5.58 5.702 0 4.277 5.58 10.59 5.58 10.59s5.58-6.313 5.58-10.59c0-3.152-2.495-5.702-5.58-5.702"/>
        <path fill="#FFF" d="M131.315 57.916c-1.1 0-1.993-.912-1.993-2.037 0-1.124.893-2.036 1.993-2.036s1.993.912 1.993 2.036c0 1.125-.893 2.037-1.993 2.037"/>
        <path fill="#0000BC" stroke="#FFF" stroke-width=".96" d="M113.686 50.177c-3.085 0-5.58 2.55-5.58 5.702 0 4.277 5.58 10.59 5.58 10.59s5.58-6.313 5.58-10.59c0-3.152-2.495-5.702-5.58-5.702"/>
        <path fill="#FFF" d="M113.686 57.916c-1.1 0-1.993-.912-1.993-2.037 0-1.124.893-2.036 1.993-2.036s1.993.912 1.993 2.036c0 1.125-.893 2.037-1.993 2.037"/>
        <path fill="#0000BC" stroke="#FFF" stroke-width=".96" d="M103.892 58.012c-3.085 0-5.58 2.55-5.58 5.703 0 4.276 5.58 10.59 5.58 10.59s5.58-6.314 5.58-10.59c0-3.153-2.494-5.703-5.58-5.703"/>
        <path fill="#FFF" d="M103.892 65.751c-1.1 0-1.993-.912-1.993-2.036 0-1.125.893-2.037 1.993-2.037s1.993.912 1.993 2.037c0 1.124-.892 2.036-1.993 2.036"/>
        <path fill="#0000BC" stroke="#FFF" stroke-width=".96" d="M113.686 67.806c-3.085 0-5.58 2.55-5.58 5.702 0 4.277 5.58 10.59 5.58 10.59s5.58-6.313 5.58-10.59c0-3.152-2.495-5.702-5.58-5.702"/>
        <path fill="#FFF" d="M113.686 75.545c-1.1 0-1.993-.913-1.993-2.037 0-1.124.893-2.036 1.993-2.036s1.993.912 1.993 2.036-.893 2.037-1.993 2.037"/>
        <path fill="#0000BC" stroke="#FFF" stroke-width=".96" d="M155.8 48.219c-3.086 0-5.581 2.55-5.581 5.702 0 4.276 5.58 10.59 5.58 10.59s5.581-6.314 5.581-10.59c0-3.153-2.495-5.702-5.58-5.702"/>
        <path fill="#FFF" d="M155.8 55.957c-1.1 0-1.994-.912-1.994-2.036s.893-2.037 1.994-2.037c1.1 0 1.993.913 1.993 2.037 0 1.124-.893 2.036-1.993 2.036"/>
        <path fill="#0000BC" stroke="#FFF" stroke-width=".96" d="M151.882 54.095c-3.085 0-5.58 2.55-5.58 5.702 0 4.277 5.58 10.59 5.58 10.59s5.58-6.313 5.58-10.59c0-3.152-2.495-5.702-5.58-5.702"/>
        <path fill="#FFF" d="M151.882 61.833c-1.1 0-1.993-.912-1.993-2.036s.893-2.036 1.993-2.036 1.993.912 1.993 2.036-.893 2.036-1.993 2.036"/>
        <path fill="#0000BC" stroke="#FFF" stroke-width=".96" d="M145.026 53.116c-3.085 0-5.58 2.55-5.58 5.702 0 4.276 5.58 10.59 5.58 10.59s5.581-6.314 5.581-10.59c0-3.153-2.495-5.702-5.58-5.702"/>
        <path fill="#FFF" d="M145.026 60.854c-1.1 0-1.993-.912-1.993-2.036s.893-2.037 1.993-2.037 1.993.913 1.993 2.037c0 1.124-.892 2.036-1.993 2.036"/>
        <path fill="#0000BC" stroke="#FFF" stroke-width=".96" d="M157.758 58.012c-3.085 0-5.58 2.55-5.58 5.703 0 4.276 5.58 10.59 5.58 10.59s5.58-6.314 5.58-10.59c0-3.153-2.494-5.703-5.58-5.703"/>
        <path fill="#FFF" d="M157.758 65.751c-1.1 0-1.993-.912-1.993-2.036 0-1.125.893-2.037 1.993-2.037s1.993.912 1.993 2.037c0 1.124-.893 2.036-1.993 2.036"/>
        <path fill="#0000BC" stroke="#FFF" stroke-width=".96" d="M148.944 61.93c-3.085 0-5.58 2.55-5.58 5.702 0 4.277 5.58 10.59 5.58 10.59s5.58-6.313 5.58-10.59c0-3.152-2.495-5.702-5.58-5.702"/>
        <path fill="#FFF" d="M148.944 69.669c-1.1 0-1.993-.913-1.993-2.037 0-1.124.893-2.036 1.993-2.036s1.993.912 1.993 2.036-.893 2.037-1.993 2.037"/>
        <g>
            <path fill="#0000BC" stroke="#FFF" stroke-width=".96" d="M136.212 61.93c-3.085 0-5.58 2.55-5.58 5.702 0 4.277 5.58 10.59 5.58 10.59s5.58-6.313 5.58-10.59c0-3.152-2.495-5.702-5.58-5.702"/>
            <path fill="#FFF" d="M136.212 69.669c-1.1 0-1.993-.913-1.993-2.037 0-1.124.893-2.036 1.993-2.036s1.993.912 1.993 2.036-.893 2.037-1.993 2.037"/>
        </g>
        <g>
            <path fill="#0000BC" stroke="#FFF" stroke-width=".96" d="M143.068 68.786c-3.086 0-5.581 2.55-5.581 5.702 0 4.276 5.58 10.59 5.58 10.59s5.581-6.314 5.581-10.59c0-3.153-2.495-5.702-5.58-5.702"/>
            <path fill="#FFF" d="M143.068 76.524c-1.1 0-1.993-.912-1.993-2.036s.892-2.037 1.993-2.037c1.1 0 1.993.913 1.993 2.037 0 1.124-.893 2.036-1.993 2.036"/>
        </g>
        <g>
            <path fill="#0000BC" stroke="#FFF" stroke-width=".96" d="M125.439 69.765c-3.086 0-5.58 2.55-5.58 5.702 0 4.277 5.58 10.59 5.58 10.59s5.58-6.313 5.58-10.59c0-3.152-2.495-5.702-5.58-5.702"/>
            <path fill="#FFF" d="M125.439 77.504c-1.1 0-1.993-.913-1.993-2.037 0-1.124.893-2.036 1.993-2.036s1.993.912 1.993 2.036-.893 2.037-1.993 2.037"/>
        </g>
        <g>
            <path fill="#0000BC" stroke="#FFF" stroke-width=".96" d="M136.212 77.6c-3.085 0-5.58 2.55-5.58 5.702 0 4.277 5.58 10.59 5.58 10.59s5.58-6.313 5.58-10.59c0-3.152-2.495-5.702-5.58-5.702"/>
            <path fill="#FFF" d="M136.212 85.339c-1.1 0-1.993-.913-1.993-2.037 0-1.124.893-2.036 1.993-2.036s1.993.912 1.993 2.036-.893 2.037-1.993 2.037"/>
        </g>
        <g>
            <path fill="#0000BC" stroke="#FFF" stroke-width=".96" d="M146.985 92.29c-3.085 0-5.58 2.55-5.58 5.703 0 4.276 5.58 10.59 5.58 10.59s5.58-6.314 5.58-10.59c0-3.153-2.495-5.702-5.58-5.702"/>
            <path fill="#FFF" d="M146.985 100.03c-1.1 0-1.993-.913-1.993-2.037 0-1.124.893-2.037 1.993-2.037s1.993.913 1.993 2.037c0 1.124-.893 2.036-1.993 2.036"/>
        </g>
        <g>
            <path fill="#0000BC" stroke="#FFF" stroke-width=".96" d="M34.356 26.672c-3.085 0-5.58 2.55-5.58 5.702 0 4.277 5.58 10.59 5.58 10.59s5.58-6.313 5.58-10.59c0-3.152-2.494-5.702-5.58-5.702"/>
            <path fill="#FFF" d="M34.356 34.41c-1.1 0-1.993-.912-1.993-2.036s.893-2.036 1.993-2.036 1.993.912 1.993 2.036-.893 2.037-1.993 2.037"/>
        </g>
        <g>
            <path fill="#0000BC" stroke="#FFF" stroke-width=".96" d="M18.686 27.652c-3.085 0-5.58 2.55-5.58 5.702 0 4.276 5.58 10.59 5.58 10.59s5.58-6.314 5.58-10.59c0-3.153-2.495-5.702-5.58-5.702"/>
            <path fill="#FFF" d="M18.686 35.39c-1.1 0-1.993-.912-1.993-2.036s.893-2.037 1.993-2.037 1.993.913 1.993 2.037c0 1.124-.893 2.036-1.993 2.036"/>
        </g>
        <g>
            <path fill="#0000BC" stroke="#FFF" stroke-width=".96" d="M53.944 19.817c-3.085 0-5.58 2.55-5.58 5.702 0 4.276 5.58 10.59 5.58 10.59s5.58-6.314 5.58-10.59c0-3.153-2.495-5.702-5.58-5.702"/>
            <path fill="#FFF" d="M53.944 27.555c-1.1 0-1.993-.912-1.993-2.036s.893-2.037 1.993-2.037 1.993.913 1.993 2.037c0 1.124-.893 2.036-1.993 2.036"/>
        </g>
        <g>
            <path fill="#0000BC" stroke="#FFF" stroke-width=".96" d="M68.635 32.549c-3.086 0-5.581 2.55-5.581 5.702 0 4.276 5.58 10.59 5.58 10.59s5.581-6.314 5.581-10.59c0-3.153-2.495-5.702-5.58-5.702"/>
            <path fill="#FFF" d="M68.635 40.287c-1.1 0-1.993-.912-1.993-2.036 0-1.125.892-2.037 1.993-2.037 1.1 0 1.993.912 1.993 2.037 0 1.124-.893 2.036-1.993 2.036"/>
        </g>
        <g>
            <path fill="#0000BC" stroke="#FFF" stroke-width=".96" d="M24.562 54.095c-3.085 0-5.58 2.55-5.58 5.702 0 4.277 5.58 10.59 5.58 10.59s5.581-6.313 5.581-10.59c0-3.152-2.495-5.702-5.58-5.702"/>
            <path fill="#FFF" d="M24.562 61.833c-1.1 0-1.993-.912-1.993-2.036s.893-2.036 1.993-2.036 1.994.912 1.994 2.036-.893 2.036-1.994 2.036"/>
        </g>
        <g>
            <path fill="#0000BC" stroke="#FFF" stroke-width=".96" d="M65.696 56.054c-3.085 0-5.58 2.55-5.58 5.702 0 4.276 5.58 10.59 5.58 10.59s5.581-6.314 5.581-10.59c0-3.153-2.495-5.702-5.58-5.702"/>
            <path fill="#FFF" d="M65.696 63.792c-1.1 0-1.993-.912-1.993-2.036s.893-2.037 1.993-2.037 1.994.913 1.994 2.037c0 1.124-.893 2.036-1.994 2.036"/>
        </g>
        <g>
            <path fill="#0000BC" stroke="#FFF" stroke-width=".96" d="M43.17 48.219c-3.085 0-5.58 2.55-5.58 5.702 0 4.276 5.58 10.59 5.58 10.59s5.581-6.314 5.581-10.59c0-3.153-2.495-5.702-5.58-5.702"/>
            <path fill="#FFF" d="M43.17 55.957c-1.1 0-1.992-.912-1.992-2.036s.892-2.037 1.993-2.037c1.1 0 1.993.913 1.993 2.037 0 1.124-.893 2.036-1.993 2.036"/>
        </g>
        <g>
            <path fill="#0000BC" stroke="#FFF" stroke-width=".96" d="M8.892 29.61c-3.085 0-5.58 2.55-5.58 5.702 0 4.277 5.58 10.59 5.58 10.59s5.58-6.313 5.58-10.59c0-3.152-2.494-5.702-5.58-5.702"/>
            <path fill="#FFF" d="M8.892 37.349c-1.1 0-1.993-.912-1.993-2.037 0-1.124.893-2.036 1.993-2.036s1.993.912 1.993 2.036c0 1.125-.892 2.037-1.993 2.037"/>
        </g>
        <g>
            <path fill="#0000BC" stroke="#FFF" stroke-width=".96" d="M15.748 37.445c-3.085 0-5.58 2.55-5.58 5.703 0 4.276 5.58 10.59 5.58 10.59s5.58-6.314 5.58-10.59c0-3.153-2.495-5.703-5.58-5.703"/>
            <path fill="#FFF" d="M15.748 45.184c-1.1 0-1.993-.912-1.993-2.036 0-1.125.893-2.037 1.993-2.037s1.993.912 1.993 2.037c0 1.124-.893 2.036-1.993 2.036"/>
        </g>
        <g>
            <path fill="#0000BC" stroke="#FFF" stroke-width=".96" d="M6.934 42.342c-3.086 0-5.581 2.55-5.581 5.702 0 4.277 5.58 10.59 5.58 10.59s5.581-6.313 5.581-10.59c0-3.152-2.495-5.702-5.58-5.702"/>
            <path fill="#FFF" d="M6.934 50.08c-1.1 0-1.994-.911-1.994-2.036 0-1.124.893-2.036 1.994-2.036 1.1 0 1.993.912 1.993 2.036 0 1.125-.893 2.037-1.993 2.037"/>
        </g>
        <g>
            <path fill="#0000BC" stroke="#FFF" stroke-width=".96" d="M15.748 49.198c-3.085 0-5.58 2.55-5.58 5.702 0 4.277 5.58 10.59 5.58 10.59s5.58-6.313 5.58-10.59c0-3.152-2.495-5.702-5.58-5.702"/>
            <path fill="#FFF" d="M15.748 56.937c-1.1 0-1.993-.913-1.993-2.037 0-1.124.893-2.036 1.993-2.036s1.993.912 1.993 2.036-.893 2.037-1.993 2.037"/>
        </g>
        <g>
            <path fill="#0000BC" stroke="#FFF" stroke-width=".96" d="M56.882 39.404c-3.085 0-5.58 2.55-5.58 5.702 0 4.277 5.58 10.59 5.58 10.59s5.58-6.313 5.58-10.59c0-3.152-2.495-5.702-5.58-5.702"/>
            <path fill="#FFF" d="M56.882 47.143c-1.1 0-1.993-.913-1.993-2.037 0-1.124.893-2.036 1.993-2.036s1.993.912 1.993 2.036-.893 2.037-1.993 2.037"/>
        </g>
        <g>
            <path fill="#0000BC" stroke="#FFF" stroke-width=".96" d="M8.892 56.054c-3.085 0-5.58 2.55-5.58 5.702 0 4.276 5.58 10.59 5.58 10.59s5.58-6.314 5.58-10.59c0-3.153-2.494-5.702-5.58-5.702"/>
            <path fill="#FFF" d="M8.892 63.792c-1.1 0-1.993-.912-1.993-2.036s.893-2.037 1.993-2.037 1.993.913 1.993 2.037c0 1.124-.892 2.036-1.993 2.036"/>
        </g>
        <g>
            <path fill="#0000BC" stroke="#FFF" stroke-width=".96" d="M99.975 78.58c-3.085 0-5.58 2.55-5.58 5.702 0 4.276 5.58 10.59 5.58 10.59s5.58-6.314 5.58-10.59c0-3.153-2.495-5.703-5.58-5.703"/>
            <path fill="#FFF" d="M99.975 86.318c-1.1 0-1.993-.912-1.993-2.036 0-1.125.893-2.037 1.993-2.037s1.993.912 1.993 2.037c0 1.124-.893 2.036-1.993 2.036"/>
        </g>
        <g>
            <path fill="#0000BC" stroke="#FFF" stroke-width=".96" d="M93.12 71.724c-3.086 0-5.581 2.55-5.581 5.702 0 4.276 5.58 10.59 5.58 10.59s5.58-6.314 5.58-10.59c0-3.153-2.495-5.702-5.58-5.702"/>
            <path fill="#FFF" d="M93.12 79.462c-1.101 0-1.994-.912-1.994-2.036s.893-2.037 1.993-2.037 1.993.913 1.993 2.037c0 1.124-.893 2.036-1.993 2.036"/>
        </g>
        <g>
            <path fill="#0000BC" stroke="#FFF" stroke-width=".96" d="M93.12 84.456c-3.086 0-5.581 2.55-5.581 5.702 0 4.276 5.58 10.59 5.58 10.59s5.58-6.314 5.58-10.59c0-3.153-2.495-5.702-5.58-5.702"/>
            <path fill="#FFF" d="M93.12 92.194c-1.101 0-1.994-.912-1.994-2.036s.893-2.037 1.993-2.037 1.993.913 1.993 2.037c0 1.124-.893 2.036-1.993 2.036"/>
        </g>
        <g>
            <path fill="#0000BC" stroke="#FFF" stroke-width=".96" d="M81.367 58.012c-3.086 0-5.581 2.55-5.581 5.703 0 4.276 5.58 10.59 5.58 10.59s5.581-6.314 5.581-10.59c0-3.153-2.495-5.703-5.58-5.703"/>
            <path fill="#FFF" d="M81.367 65.751c-1.1 0-1.994-.912-1.994-2.036 0-1.125.893-2.037 1.994-2.037 1.1 0 1.993.912 1.993 2.037 0 1.124-.893 2.036-1.993 2.036"/>
        </g>
        <g>
            <path fill="#0000BC" stroke="#FFF" stroke-width=".96" d="M79.408 72.703c-3.085 0-5.58 2.55-5.58 5.702 0 4.277 5.58 10.59 5.58 10.59s5.58-6.313 5.58-10.59c0-3.152-2.495-5.702-5.58-5.702"/>
            <path fill="#FFF" d="M79.408 80.442c-1.1 0-1.993-.913-1.993-2.037 0-1.124.893-2.036 1.993-2.036s1.993.912 1.993 2.036-.893 2.037-1.993 2.037"/>
        </g>
        <g>
            <path fill="#0000BC" stroke="#FFF" stroke-width=".96" d="M81.367 90.332c-3.086 0-5.581 2.55-5.581 5.702 0 4.277 5.58 10.59 5.58 10.59s5.581-6.313 5.581-10.59c0-3.152-2.495-5.702-5.58-5.702"/>
            <path fill="#FFF" d="M81.367 98.07c-1.1 0-1.994-.912-1.994-2.036s.893-2.036 1.994-2.036c1.1 0 1.993.912 1.993 2.036s-.893 2.037-1.993 2.037"/>
        </g>
        <g>
            <path fill="#0000BC" stroke="#FFF" stroke-width=".96" d="M46.109 69.765c-3.085 0-5.58 2.55-5.58 5.702 0 4.277 5.58 10.59 5.58 10.59s5.58-6.313 5.58-10.59c0-3.152-2.495-5.702-5.58-5.702"/>
            <path fill="#FFF" d="M46.109 77.504c-1.1 0-1.993-.913-1.993-2.037 0-1.124.893-2.036 1.993-2.036s1.993.912 1.993 2.036-.893 2.037-1.993 2.037"/>
        </g>
        <g>
            <path fill="#0000BC" stroke="#FFF" stroke-width=".96" d="M16.727 61.93c-3.085 0-5.58 2.55-5.58 5.702 0 4.277 5.58 10.59 5.58 10.59s5.581-6.313 5.581-10.59c0-3.152-2.495-5.702-5.58-5.702"/>
            <path fill="#FFF" d="M16.727 69.669c-1.1 0-1.993-.913-1.993-2.037 0-1.124.893-2.036 1.993-2.036s1.993.912 1.993 2.036-.892 2.037-1.993 2.037"/>
        </g>
        <g>
            <path fill="#0000BC" stroke="#FFF" stroke-width=".96" d="M24.562 67.806c-3.085 0-5.58 2.55-5.58 5.702 0 4.277 5.58 10.59 5.58 10.59s5.581-6.313 5.581-10.59c0-3.152-2.495-5.702-5.58-5.702"/>
            <path fill="#FFF" d="M24.562 75.545c-1.1 0-1.993-.913-1.993-2.037 0-1.124.893-2.036 1.993-2.036s1.994.912 1.994 2.036-.893 2.037-1.994 2.037"/>
        </g>
    </g>
</svg>
