<?xml version="1.0" encoding="UTF-8"?>
<svg width="60px" height="60px" viewBox="0 0 60 60" version="1.1" xmlns="http://www.w3.org/2000/svg" xmlns:xlink="http://www.w3.org/1999/xlink">
    <!-- Generator: Sketch 62 (91390) - https://sketch.com -->
    <title>prior-authorizations-mobile</title>
    <desc>Created with Sketch.</desc>
    <g id="prior-authorizations-mobile" stroke="none" stroke-width="1" fill="none" fill-rule="evenodd">
        <g id="Group-19" transform="translate(3.000000, 10.000000)">
            <line x1="18" y1="14.4995" x2="2" y2="14.5005" id="Stroke-1" stroke="#1F1FFF" stroke-linecap="round" stroke-linejoin="round"></line>
            <g id="Group-18">
                <line x1="16.8008264" y1="19.8852789" x2="0.51014717" y2="19.8873316" id="Stroke-2" stroke="#1F1FFF" stroke-linecap="round" stroke-linejoin="round"></line>
                <path d="M40.4756491,34.9603184 L15.1527057,34.9603184 C14.3518755,34.9603184 13.7588943,34.2090553 13.9412717,33.4228974 L21.3973472,1.17502895 C21.5287811,0.607476316 22.031083,0.206186842 22.6098,0.206186842 L47.9317245,0.206186842 C48.7335736,0.206186842 49.3265547,0.95745 49.1441774,1.74360789 L41.687083,33.9914763 C41.5566679,34.5590289 41.0533472,34.9603184 40.4756491,34.9603184 Z" id="Stroke-4" stroke="#292A2E" fill="#F7F7F7" stroke-linecap="round" stroke-linejoin="round"></path>
                <path d="M44.7391019,38.4872526 L19.2011774,38.4872526 C18.4675925,38.4872526 17.9245358,37.7985947 18.0916302,37.0791474 L25.5966113,4.61883158 C25.7168377,4.09951579 26.1763472,3.73209474 26.7071774,3.73209474 L52.2451019,3.73209474 C52.9786868,3.73209474 53.5207245,4.42075263 53.3546491,5.1402 L45.8486491,37.5994895 C45.7284226,38.1198316 45.2689132,38.4872526 44.7391019,38.4872526" id="Fill-6" fill="#F7F7F7"></path>
                <path d="M44.7391019,38.4872526 L19.2011774,38.4872526 C18.4675925,38.4872526 17.9245358,37.7985947 18.0916302,37.0791474 L25.5966113,4.61883158 C25.7168377,4.09951579 26.1763472,3.73209474 26.7071774,3.73209474 L52.2451019,3.73209474 C52.9786868,3.73209474 53.5207245,4.42075263 53.3546491,5.1402 L45.8486491,37.5994895 C45.7284226,38.1198316 45.2689132,38.4872526 44.7391019,38.4872526 Z" id="Stroke-8" stroke="#231F20"></path>
                <path d="M40.8497774,19.9384421 C40.8497774,22.7679947 38.5736264,25.0607842 35.7646075,25.0607842 C32.9555887,25.0607842 30.6784189,22.7679947 30.6784189,19.9384421 C30.6784189,17.1088895 32.9555887,14.8150737 35.7646075,14.8150737 C38.5736264,14.8150737 40.8497774,17.1088895 40.8497774,19.9384421 Z" id="Stroke-12" stroke="#292A2E" fill="#F7F7F7" stroke-linecap="round" stroke-linejoin="round"></path>
                <polyline id="Stroke-10" stroke="#1F1FFF" stroke-linecap="round" stroke-linejoin="round" points="38.5622151 18.0601816 34.2228566 21.9581289 32.777083 20.3663132"></polyline>
                <line x1="8.66282264" y1="8.83134474" x2="22.5897283" y2="8.83237105" id="Stroke-14" stroke="#1F1FFF" stroke-linecap="round" stroke-linejoin="round"></line>
                <line x1="6.81215094" y1="25.5420237" x2="24.9938491" y2="25.54305" id="Stroke-16" stroke="#1F1FFF" stroke-linecap="round" stroke-linejoin="round"></line>
            </g>
        </g>
    </g>
</svg>