<svg xmlns="http://www.w3.org/2000/svg" width="60" height="60" viewBox="0 0 60 60">
    <g fill="none" fill-rule="evenodd">
        <g stroke="#2A2A2E" stroke-linecap="round">
            <g stroke-linejoin="round">
                <path d="M42.297 27.62s.528-.821.717-2.87c.008-.03.809-9.563-9.332-9.563-10.14 0-9.623 9.2-9.456 10.464.168 1.265.687 3.42.687 3.42-1.449.725-.725 4.351 1.449 4.351 0 4.351 5.07 7.252 7.243 7.252.9 0 2.444-.506 3.817-1.487"/>
                <path d="M28.399 38.082v4.67l-10.192 3.225c-2.442.767-4.032 2.807-4.032 5.093v2.13h38.76m.033 0v-2.13c0-2.286-1.59-4.326-4.032-5.093l-10.192-3.225V38.7M44.47 31.972l.05 2.478c.028 2.17-1.94 1.936-3.321 1.936h-5.795M45.657 29.723c0 1.162-.903 2.103-2.016 2.103h-1.344v-4.205h1.344c1.113 0 2.016.942 2.016 2.102z"/>
                <path stroke-width="3" d="M36.18 35.773h-3.574"/>
            </g>
            <path d="M35.382 28.301c.984.984 2.58.983 3.566-.002M28.895 28.301c.984.984 2.58.983 3.566-.002M25.911 23.473s6.348 3.627 10.764-1.701m.037-.042s2.068 2.164 4.875 1.249"/>
        </g>
        <path stroke="#1F1FFF" stroke-linejoin="round" d="M22.926 21.225h-2.839v3.828l-3.785-3.828h-3.785C7.814 21.225 4 17.37 4 12.612 4 7.856 7.814 4 12.517 4h11.356c4.703 0 8.502 3.856 8.502 8.612"/>
        <path fill="#1F1FFF" d="M23.325 12.07h1.518v1.52h-1.518zM17.603 12.07h1.519v1.52h-1.519zM11.94 12.07h1.518v1.52H11.94z"/>
    </g>
</svg>
