<svg><defs><font id="FontFontMarkOTBold" horiz-adv-x="1200"><font-face font-family="FontFontMarkOTBold" font-weight="700" units-per-em="2000" panose-1="2 11 8 4 2 1 1 1 1 2" ascent="1580" descent="-420" x-height="969" cap-height="1400" bbox="-1361 -473 3105 2001" underline-thickness="136" underline-position="-396" unicode-range="U+000D-U+FEFF"/><glyph glyph-name=".notdef" horiz-adv-x="1182" d="M137 0v1400h908V0H137zm212 212h484v976H349V212z"/><glyph glyph-name=".null" horiz-adv-x="0"/><glyph glyph-name=".null" horiz-adv-x="0"/><glyph glyph-name="nonmarkingreturn" horiz-adv-x="666"/><glyph glyph-name="CR" horiz-adv-x="495"/><glyph glyph-name="space" horiz-adv-x="495"/><glyph glyph-name="exclam" unicode="!" horiz-adv-x="555" d="M433 1400l-36-919H157l-36 919h312zM278 355q76 0 132.5-56.5T467 166q0-77-56.5-134T278-25 144.5 32.5 87 166t57 132.5T278 355z"/><glyph glyph-name="quotedbl" unicode="&quot;" horiz-adv-x="1123" d="M223 1440h261V843H223v597zm416 0h261V843H639v597z"/><glyph glyph-name="numbersign" unicode="#" horiz-adv-x="1470" d="M251 1070h202l71 330h240l-71-330h239l71 330h240l-71-330h203l-48-224h-202l-61-285h202l-47-224h-203L945 0H705l71 337H537L466 0H226l71 337H95l48 224h202l61 285H203zm395-224l-61-285h239l61 285H646z"/><glyph glyph-name="dollar" unicode="$" horiz-adv-x="1400" d="M608 1564h222v-185q219-21 417-141l-125-214q-141 86-292 109V814q96-15 172-43t136-72 92-110 30-149q-2-90-36-164t-93-124-134.5-82T831 25v-198H609V20Q472 32 346.5 75T132 188l137 212q143-109 339-136v322l-11 2q-96 15-170 43t-131.5 73T208 816.5 180 971q3 165 120.5 272.5T608 1377v187zM985 417q1 48-38 79.5T830 548V271q71 17 112.5 54t42.5 92zM455 984q-1-50 37.5-81T608 852v276q-71-17-111.5-54T455 984z"/><glyph glyph-name="percent" unicode="%" horiz-adv-x="1979" d="M464 1425q168 0 279.5-108.5T855 1044q0-165-111.5-274T464 661q-167 0-278.5 109T74 1044q0 163 111.5 272T464 1425zm0-209q-72 0-120-48.5T296 1044q0-76 48-125t120-49q74 0 121.5 49t47.5 125q0 75-47.5 123.5T464 1216zm1124 184L650 0H388l939 1400h261zm-73-661q168 0 279.5-109T1906 357 1794.5 84 1515-25q-167 0-278.5 109T1125 357q0 162 111.5 272T1515 739zm0-209q-73 0-120.5-48.5T1347 357t47.5-124.5T1515 184q74 0 121.5 48.5T1684 357t-47.5 124.5T1515 530z"/><glyph glyph-name="ampersand" unicode="&amp;" horiz-adv-x="1473" d="M1452 0h-359L942 144Q762-25 528-25q-206 0-323 99.5T88 347q0 113 65 205.5T330 731q-93 95-133.5 171T156 1074q0 154 113.5 252.5T567 1425q182 0 295-95.5T975 1079q0-54-20.5-105T894 877.5 812.5 796 712 718l219-212 201 282 197-136-224-315zM549 212q120 0 222 97L502 567Q368 459 368 366q0-70 49.5-112T549 212zm-125 850q0-40 24-76t96-106q81 57 123 101.5t42 89.5q0 55-38 87t-104 32q-68 0-105.5-33.5T424 1062z"/><glyph glyph-name="quotesingle" unicode="'" horiz-adv-x="707" d="M223 1440h261V843H223v597z"/><glyph glyph-name="parenleft" unicode="(" horiz-adv-x="844" d="M697 1449l83-233q-191-90-293-262T385 568t102-386T780-80l-83-233Q431-209 270.5 27T110 568t160.5 541T697 1449z"/><glyph glyph-name="parenright" unicode=")" horiz-adv-x="844" d="M147-312L64-79q191 90 293 262t102 386-102 386-293 262l83 233q266-104 426.5-340T734 569 573.5 28 147-312z"/><glyph glyph-name="asterisk" unicode="*" horiz-adv-x="950" d="M143 1271l236-82-4 251h201l-5-251 237 82 62-192-239-73 151-199-163-119-144 205-143-205-163 119 150 199-239 73z"/><glyph glyph-name="plus" unicode="+" d="M714 72H486v349H140v223h346v349h228V644h346V421H714V72z"/><glyph glyph-name="comma" unicode="," horiz-adv-x="534" d="M151 316h293L304-280H84z"/><glyph glyph-name="hyphen" unicode="-" horiz-adv-x="813" d="M702 646V418H111v228h591z"/><glyph glyph-name="period" unicode="." horiz-adv-x="554" d="M278 363q77 0 135-57.5T471 170q0-79-58-137T278-25q-78 0-136.5 58T83 170q0 78 58.5 135.5T278 363z"/><glyph glyph-name="slash" unicode="/" horiz-adv-x="1036" d="M1085 1540L236-200H-40l849 1740h276z"/><glyph glyph-name="zero" unicode="0" horiz-adv-x="1412" d="M706 1425q125 0 235-50t192-141.5 129.5-229.5 47.5-304-47.5-304T1133 166.5 941 25 706-25q-126 0-235.5 50T279 166.5 150 396t-47 304 47 304 129 229.5T470.5 1375t235.5 50zm0-259q-140 0-231-122.5T384 700t91-343.5T706 234q141 0 231.5 122t90.5 344-90.5 344T706 1166z"/><glyph glyph-name="one" unicode="1" horiz-adv-x="821" d="M657 1422V0H387v1042L52 906v272z"/><glyph glyph-name="two" unicode="2" horiz-adv-x="1126" d="M241 1013L67 1184q185 241 478 241 218 0 346.5-124.5T1020 973q0-118-51.5-212.5T818 564L519 253h535V0H129v211l495 507q115 117 115 240 0 92-59 150.5T525 1167q-91 0-155-40t-129-114z"/><glyph glyph-name="three" unicode="3" horiz-adv-x="1144" d="M530 1425q222 0 359-110.5t137-291.5q0-109-54.5-190T817 705q113-44 176.5-127t63.5-194q0-80-28-148t-77-115.5T837 40 696.5-9 541-25q-156 0-282.5 53T52 178l161 177q61-64 144.5-99T531 221q108 0 176.5 47T776 403q0 87-77.5 135T502 586H339v240h164q107 0 176 46.5t69 131.5q0 82-65.5 128.5T516 1179q-91 0-163.5-40T233 1037L63 1208q74 100 191 158.5t276 58.5z"/><glyph glyph-name="four" unicode="4" horiz-adv-x="1168" d="M932 881V508h195V256H932V0H662v256H41v196l491 947h300L364 508h298v373h270z"/><glyph glyph-name="five" unicode="5" horiz-adv-x="1166" d="M996 1400v-251H429l-6-280h161q235 0 362.5-118.5T1074 448q0-146-69-255T821 29.5 563-25q-154 0-280.5 54.5T67 184l152 189q59-64 153.5-106T561 225q112 0 172.5 57.5T794 428t-66 142.5T509 625H176l15 775h805z"/><glyph glyph-name="six" unicode="6" horiz-adv-x="1180" d="M909 1400L564 913q38 4 65 4 211 0 348-133.5T1114 452q0-205-150.5-341T587-25q-148 0-268 61T130.5 205.5 62 447q0 172 133 372l388 581h326zM587 680q-105 0-174.5-64.5T343 450t69.5-165.5T587 220q107 0 176.5 64.5T833 450t-70 165.5T587 680z"/><glyph glyph-name="seven" unicode="7" horiz-adv-x="1100" d="M1049 1400v-211L469 0H151l576 1148H62v252h987z"/><glyph glyph-name="eight" unicode="8" horiz-adv-x="1269" d="M635 1425q143 0 258.5-47t185-139.5T1148 1023q0-218-214-317 248-97 248-325 0-124-74.5-217.5T910 22.5 635-25 360 22.5t-197.5 141T88 381q0 228 247 325-213 99-213 317 0 123 69.5 215.5t185 139.5 258.5 47zm0-829q-110 0-183-51t-73-141q0-89 73-138.5T635 216t183 49.5T891 404q0 90-73.5 141T635 596zm0 585q-98 0-162-47.5T409 1002q0-87 64-135.5T635 818t162 48.5 64 135.5q0 84-64 131.5T635 1181z"/><glyph glyph-name="nine" unicode="9" horiz-adv-x="1180" d="M271 0l343 487q-25-4-63-4-211 0-348 133.5T66 948q0 205 150 341t376 136q148 0 268.5-61t189-169.5T1118 953q0-173-133-372L597 0H271zm321 720q106 0 175.5 64.5T837 950t-69.5 165.5T592 1180t-175.5-64.5T347 950t69.5-165.5T592 720z"/><glyph glyph-name="colon" unicode=":" horiz-adv-x="554" d="M278 995q77 0 135-57.5T471 802q0-79-58-137t-135-58q-78 0-136.5 58T83 802q0 78 58.5 135.5T278 995zm0-632q77 0 135-57.5T471 170q0-79-58-137T278-25q-78 0-136.5 58T83 170q0 78 58.5 135.5T278 363z"/><glyph glyph-name="semicolon" unicode=";" horiz-adv-x="534" d="M284 995q77 0 135-57.5T477 802q0-79-58-137t-135-58q-78 0-136.5 58T89 802q0 78 58.5 135.5T284 995zM151 316h293L304-280H84z"/><glyph glyph-name="less" unicode="&lt;" d="M1010 290V30L191 411v243l819 381V775L439 533z"/><glyph glyph-name="equal" unicode="=" d="M1060 432V209H140v223h920zm0 424V633H140v223h920z"/><glyph glyph-name="greater" unicode="&gt;" d="M191 775v260l819-381V411L191 30v260l571 242z"/><glyph glyph-name="question" unicode="?" horiz-adv-x="891" d="M413 478H172v340h96q145 0 221 45t76 133q0 81-75.5 123.5T271 1162q-68 0-152-8l-19 263q91 13 202 13 260 0 405.5-111.5T853 1016q0-173-111.5-281.5T421 593zM293 356q76 0 132.5-56.5T482 167q0-77-56.5-134.5T293-25q-77 0-134 57.5T102 166q0 77 57 133.5T293 356z"/><glyph glyph-name="at" unicode="@" horiz-adv-x="1934" d="M1344 878V447q0-86 21-125t70-39q68 0 107.5 63.5T1582 543q0 166-78 298t-218 206.5-317 74.5-317-78-218-220-78-324q0-183 77.5-326T649-47t313-78q218 0 380 114l119-161q-211-154-499-154-180 0-335.5 62.5T362-91.5 191 171t-62 329q0 175 62.5 327.5t172.5 261 266.5 171T969 1322q181 0 337.5-60.5t266-164.5T1744 849.5t62-305.5q0-202-103-329.5T1424 87q-186 0-258 133-88-119-246-119-162 0-265 113.5T552 500q0 170 102.5 284.5T912 899q139 0 222-100v79h210zM955 698q-82 0-132-56.5T773 500t50-141.5T955 302q81 0 132 56t51 142-51 142-132 56z"/><glyph glyph-name="A" unicode="A" horiz-adv-x="1472" d="M906 1400L1451 0h-298l-122 326H434L312 0H21l545 1400h340zm-173-276L530 583h405z"/><glyph glyph-name="B" unicode="B" horiz-adv-x="1384" d="M159 1400h572q252 0 391.5-96.5T1262 1012q0-103-56.5-183.5T1059 715q100-34 166.5-119t66.5-195q0-199-136-300T765 0H159v1400zm592-818H438V246l313-1q125 0 188 37.5t63 132.5q0 93-63.5 130T751 582zm-28 572H438V827h286q118 0 182.5 35.5T971 992q0 39-13 67.5t-34.5 46.5-54 29-67.5 15-79 4z"/><glyph glyph-name="C" unicode="C" horiz-adv-x="1510" d="M827 1426q194 0 354.5-83.5T1427 1112l-240-147q-60 92-153 142.5T825 1158q-192 0-317-128T383 700q1-207 127-332.5T825 242q115 0 208 49.5T1190 434l228-164q-95-139-248.5-217.5T827-26q-159 0-296 54.5t-233.5 150-151 230.5T92 700t54.5 291 151 230.5 233.5 150 296 54.5z"/><glyph glyph-name="D" unicode="D" horiz-adv-x="1555" d="M159 1400h577q329 0 528-192t199-508-199-508T736 0H159v1400zm574-261H438V261h295q214 0 326 120.5T1171 700q0 200-112 319.5T733 1139z"/><glyph glyph-name="E" unicode="E" horiz-adv-x="1332" d="M1205 256V0H159v1400h1038v-256H438V834h724V578H438V256h767z"/><glyph glyph-name="F" unicode="F" horiz-adv-x="1282" d="M1140 824V567H438V0H159v1400h1028v-257H438V824h702z"/><glyph glyph-name="G" unicode="G" horiz-adv-x="1600" d="M831 1426q164 0 300.5-56t230.5-159l-201-197q-128 147-338 147-193 0-317.5-128.5T381 700q0-210 125.5-337.5T818 235q169 0 269.5 79T1216 544H860v233h644q4-36 4-79 0-209-88-374.5t-244-257T824-25Q708-25 599 6.5t-200.5 94T238 249 130.5 451.5 92 700q0 156 55.5 291.5T300 1222t234.5 149.5T831 1426z"/><glyph glyph-name="H" unicode="H" horiz-adv-x="1550" d="M438 1400V836h674v564h279V0h-279v576H438V0H159v1400h279z"/><glyph glyph-name="I" unicode="I" horiz-adv-x="597" d="M438 1400V0H159v1400h279z"/><glyph glyph-name="J" unicode="J" horiz-adv-x="1129" d="M978 1400V510q0-256-138-395.5T476-25Q188-25 29 169l162 203q106-130 272-130 114 0 175 73t61 221v864h279z"/><glyph glyph-name="K" unicode="K" horiz-adv-x="1424" d="M1065 0L567 576H438V0H159v1400h279V833h132l463 567h350L796 717 1427 0h-362z"/><glyph glyph-name="L" unicode="L" horiz-adv-x="1210" d="M1178 261V0H159v1400h279V261h740z"/><glyph glyph-name="M" unicode="M" horiz-adv-x="1863" d="M1704 1400V0h-279v1057l-346-922H784l-346 914V0H159v1400h409l364-945 363 945h409z"/><glyph glyph-name="N" unicode="N" horiz-adv-x="1570" d="M1411 1400V0h-262L439 935 438 0H159v1400h261l711-935v935h280z"/><glyph glyph-name="O" unicode="O" horiz-adv-x="1655" d="M827 1426q212 0 380.5-94t262-259.5T1563 700t-93.5-372.5-262-259.5T827-26q-159 0-296 55T297.5 180t-151 230.5T92 700t54.5 289.5 151 230.5T531 1371t296 55zm0-268q-194 0-319-127.5T383 700t125-330.5T827 242q195 0 319.5 127.5T1271 700t-124.5 330.5T827 1158z"/><glyph glyph-name="P" unicode="P" horiz-adv-x="1321" d="M732 512H438V0H159v1400h571q247 0 379.5-119T1242 955q0-205-132.5-324T732 512zm-7 631H438V767h287q231 0 231 188t-231 188z"/><glyph glyph-name="Q" unicode="Q" horiz-adv-x="1665" d="M827 1426q212 0 380.5-94t262-259.5T1563 700q0-247-141-434L1619 0h-328l-65 86Q1049-26 827-26q-159 0-296 55T297.5 180t-151 230.5T92 700t54.5 289.5 151 230.5T531 1371t296 55zm0-268q-194 0-319-127.5T383 700t125-330.5T827 242q132 0 236 62L808 644h334l96-130q33 88 33 186 0 203-124.5 330.5T827 1158z"/><glyph glyph-name="R" unicode="R" horiz-adv-x="1360" d="M159 1400h592q248 0 380.5-111.5T1264 974q0-173-114-283.5T835 561L1266 0H928L520 557h-82V0H159v1400zm587-257H438V800h308q231 0 231 174 0 169-231 169z"/><glyph glyph-name="S" unicode="S" horiz-adv-x="1353" d="M1241 1275l-132-228q-193 119-397 119-120 0-194-45t-74-123q0-37 20-64t63-45.5 88.5-29.5T733 836l79-13q446-73 446-392 0-112-47-201T1084 86.5t-182-83T685-25q-164 0-322.5 47.5T95 158l145 225q82-65 200-108t246-43q120 0 197.5 45T961 401q0 69-70 104t-227 60l-89 14q-427 67-427 401 0 106 45 192t122.5 140 177.5 83 213 29q148 0 276-35.5t259-113.5z"/><glyph glyph-name="T" unicode="T" horiz-adv-x="1211" d="M1179 1400v-261H745V0H466v1139H32v261h1147z"/><glyph glyph-name="U" unicode="U" horiz-adv-x="1492" d="M1349 1400V559q0-189-77-322T1060.5 39.5 746-25 431.5 39.5 220 237t-77 322v841h280V573q0-167 86-249t237-82 237 82 86 249v827h280z"/><glyph glyph-name="V" unicode="V" horiz-adv-x="1433" d="M1412 1400L886 0H547L21 1400h297L719 283l403 1117h290z"/><glyph glyph-name="W" unicode="W" horiz-adv-x="2180" d="M2146 1400L1728 0h-338l-300 1000L790 0H452L34 1400h290L625 326l313 1074h309l313-1074 301 1074h285z"/><glyph glyph-name="X" unicode="X" horiz-adv-x="1356" d="M1312 1400L846 711 1325 0H998L676 499 353 0H31l478 711-465 689h328l308-480 310 480h322z"/><glyph glyph-name="Y" unicode="Y" horiz-adv-x="1362" d="M1356 1400L824 552V0H545v553L6 1400h328l352-594 352 594h318z"/><glyph glyph-name="Z" unicode="Z" horiz-adv-x="1288" d="M1193 1400v-218L466 257h727V0H95v218l727 925H97v257h1096z"/><glyph glyph-name="bracketleft" unicode="[" horiz-adv-x="766" d="M702-27v-236H159v1663h543v-236H424V-27h278z"/><glyph glyph-name="backslash" unicode="\" horiz-adv-x="1036" d="M800-200L-49 1540h276l849-1740H800z"/><glyph glyph-name="bracketright" unicode="]" horiz-adv-x="766" d="M64 1164v236h543V-263H64v236h278v1191H64z"/><glyph glyph-name="asciicircum" unicode="^" d="M382 635H121l357 765h244l357-765H812l-215 506z"/><glyph glyph-name="underscore" unicode="_" horiz-adv-x="940" d="M945-103v-212H-5v212h950z"/><glyph glyph-name="grave" unicode="`" horiz-adv-x="1000" d="M757 1108H508l-264 315h312z"/><glyph glyph-name="a" unicode="a" horiz-adv-x="1228" d="M1091 969V0H836v107Q729-25 546-25q-200 0-334.5 146T77 485t134.5 364T546 995q182 0 290-133v107h255zM594 752q-112 0-181-76.5T344 485t69-190.5T594 218q111 0 180.5 75.5T844 485t-69.5 191.5T594 752z"/><glyph glyph-name="b" unicode="b" horiz-adv-x="1227" d="M681 995q201 0 335.5-146T1151 485t-134.5-364T682-25q-183 0-290 132V0H137v1440h260V868q105 127 284 127zm-48-243q-110 0-179.5-75.5T384 485t69.5-191.5T633 218q113 0 181.5 76.5T883 485t-68.5 190.5T633 752z"/><glyph glyph-name="c" unicode="c" horiz-adv-x="1033" d="M593 995q121 0 221-47.5T981 812L793 655q-91 97-207 97-103 0-173-74t-70-193 69.5-193T585 218q121 0 211 98l186-159Q840-25 593-25q-230 0-373 143.5T77 485q0 222 143 366t373 144z"/><glyph glyph-name="d" unicode="d" horiz-adv-x="1228" d="M546 995q180 0 285-127v572h260V0H836v107Q729-25 546-25q-200 0-334.5 146T77 485t134.5 364T546 995zm48-243q-112 0-181-76.5T344 485t69-190.5T594 218q111 0 180.5 75.5T844 485t-69.5 191.5T594 752z"/><glyph glyph-name="e" unicode="e" horiz-adv-x="1114" d="M567 995q209 0 339.5-141T1038 486q0-51-5-88H346q20-101 86-151t163-50q63 0 128 24.5T840 290l153-168Q833-25 580-25q-224 0-363.5 139.5T77 482q0 229 136 371t354 142zm-2-225q-90 0-145-51t-73-143h429q-18 93-72.5 143.5T565 770z"/><glyph glyph-name="f" unicode="f" horiz-adv-x="849" d="M784 969V737H483V0H222v737H41v232h181v120q0 174 90 275t257 101 298-87l-104-203q-87 47-166 47-114 0-114-136V969h301z"/><glyph glyph-name="g" unicode="g" horiz-adv-x="1216" d="M523 995q192 0 300-134v108h256V80q0-232-141-365.5T556-419q-118 0-231 30.5T132-302l93 213q150-99 320-99 125 0 200.5 67.5T821 69v68Q714 6 523 6q-88 0-169 36t-142.5 99-98 157T77 500q0 109 36.5 202.5t98 157T354 959t169 36zm66-240q-109 0-176.5-73.5T345 500t67.5-181T589 246q107 0 175 72.5T832 500q0 110-67.5 182.5T589 755z"/><glyph glyph-name="h" unicode="h" horiz-adv-x="1182" d="M398 1441V865q93 130 278 130 166 0 271.5-105T1053 617V0H792v533q0 104-49.5 160.5T603 750q-89 0-147-57t-58-162V0H137v1441h261z"/><glyph glyph-name="i" unicode="i" horiz-adv-x="535" d="M398 969V0H137v969h261zm-132 485q70 0 118.5-48.5T433 1286q0-70-48-118t-119-48q-70 0-118 48t-48 118q0 71 48 119.5t118 48.5z"/><glyph glyph-name="j" unicode="j" horiz-adv-x="539" d="M402 969V-92q0-156-82-242.5T101-421q-87 0-147 26l39 229q33-12 70-12 78 0 78 101V969h261zm-133 485q70 0 118.5-48.5T436 1286q0-70-48-118t-119-48-118.5 48-47.5 118q0 71 48 119.5t118 48.5z"/><glyph glyph-name="k" unicode="k" horiz-adv-x="1095" d="M398 1440V624h92l273 345h320L701 513 1086 0H765L486 392h-88V0H137v1440h261z"/><glyph glyph-name="l" unicode="l" horiz-adv-x="535" d="M398 1440V0H137v1440h261z"/><glyph glyph-name="m" unicode="m" horiz-adv-x="1836" d="M1325 995q171 0 276.5-104.5T1707 617V0h-260v533q0 104-50 160.5T1258 750t-147-57-58-162V0H792v533q0 104-49.5 160.5T603 750q-89 0-147-57t-58-162V0H137v969h254V855q94 140 285 140 104 0 187.5-44T996 829q101 166 329 166z"/><glyph glyph-name="n" unicode="n" horiz-adv-x="1182" d="M676 995q166 0 271.5-105T1053 617V0H792v533q0 104-49.5 160.5T603 750q-89 0-147-57t-58-162V0H137v969h254V855q94 140 285 140z"/><glyph glyph-name="o" unicode="o" horiz-adv-x="1201" d="M600 995q226 0 375.5-145.5T1125 485 975.5 120.5 600-25q-225 0-374 145.5T77 485t149 364.5T600 995zm0-243q-111 0-184-75t-73-192 73-192 184-75 184.5 75T858 485t-73.5 192T600 752z"/><glyph glyph-name="p" unicode="p" horiz-adv-x="1227" d="M681 995q201 0 335.5-146T1151 485t-134.5-364T682-25q-179 0-285 126v-501H137V969h255V862q106 133 289 133zm-48-243q-110 0-179.5-75.5T384 485t69.5-191.5T633 218q113 0 181.5 76.5T883 485t-68.5 190.5T633 752z"/><glyph glyph-name="q" unicode="q" horiz-adv-x="1228" d="M546 995q182 0 290-133v107h255V-400H831v501Q725-25 546-25q-200 0-334.5 146T77 485t134.5 364T546 995zm48-243q-112 0-181-76.5T344 485t69-190.5T594 218q111 0 180.5 75.5T844 485t-69.5 191.5T594 752z"/><glyph glyph-name="r" unicode="r" horiz-adv-x="840" d="M663 995q78 0 136-21l-39-259q-70 31-158 31-93 0-148.5-56.5T398 528V0H137v969h253V863q88 132 273 132z"/><glyph glyph-name="s" unicode="s" horiz-adv-x="1014" d="M920 902l-88-203q-65 32-149 55t-160 24q-73 0-111-23.5T374 690q0-38 39-54.5T532 607l86-13q327-50 327-290 0-151-118-240T500-25Q230-25 69 89l103 198q143-95 330-95 179 0 179 91 0 35-38 56t-123 33l-79 11q-335 46-335 294 0 149 108.5 233T515 994q217 0 405-92z"/><glyph glyph-name="t" unicode="t" horiz-adv-x="933" d="M840 969V737H489V383q0-86 39.5-125.5T634 218q78 0 182 63l96-204Q763-25 591-25q-179 0-271 99t-92 288v375H41v232h187v288h261V969h351z"/><glyph glyph-name="u" unicode="u" horiz-adv-x="1175" d="M1046 969V413q0-111-37-197T907.5 78.5 762 1 588-25q-74 0-141 16T321.5 41.5t-101 85-67 124T129 413v556h261V436q0-111 54-164.5T588 218t144 53.5T786 436v533h260z"/><glyph glyph-name="v" unicode="v" horiz-adv-x="1099" d="M1081 969L702 0H401L18 969h284l251-694 253 694h275z"/><glyph glyph-name="w" unicode="w" horiz-adv-x="1732" d="M1004 969l220-680 208 680h273L1377 0h-298L864 655 651 0H355L27 969h278l207-677 217 677h275z"/><glyph glyph-name="x" unicode="x" horiz-adv-x="1098" d="M1065 969L718 493 1071 0H761L543 308 329 0H27l356 492L36 969h310l209-301 208 301h302z"/><glyph glyph-name="y" unicode="y" horiz-adv-x="1128" d="M1119 969L378-404H92l339 610L13 969h296l266-498 258 498h286z"/><glyph glyph-name="z" unicode="z" horiz-adv-x="1040" d="M933 969V778L455 233h489V0H96v188l489 549H113v232h820z"/><glyph glyph-name="braceleft" unicode="{" horiz-adv-x="881" d="M817 1168h-65q-87 0-136.5-48T570 985l4-94q11-245-210-322 221-77 210-322l-4-94q-4-87 45.5-135T752-30h65v-232h-86q-214 0-324 115.5T306 170l4 98q4 89-53.5 137.5T95 454v229q104 0 161.5 49T310 870l-4 98q-9 201 101 316.5T731 1400h86v-232z"/><glyph glyph-name="bar" unicode="|" horiz-adv-x="707" d="M484 1400V-265H223v1665h261z"/><glyph glyph-name="braceright" unicode="}" horiz-adv-x="881" d="M64-30h65q87 0 136.5 48T311 153l-4 94q-11 245 210 322-221 77-210 322l4 94q4 87-45.5 135T129 1168H64v232h86q214 0 324-115.5T575 968l-4-98q-4-89 53.5-137.5T786 684V455q-104 0-161.5-49T571 268l4-98q9-201-101-316.5T150-262H64v232z"/><glyph glyph-name="asciitilde" unicode="~" d="M957 682l126-159Q964 380 786 380q-63 0-120.5 14t-94 30.5T490 455t-86 14q-70 0-160-87L118 541q117 143 296 143 63 0 121-14t94.5-30.5T711 609t86-14q70 0 160 87z"/><glyph glyph-name="uni00A0" horiz-adv-x="495"/><glyph glyph-name="exclamdown" unicode="¡" horiz-adv-x="555" d="M122-430l36 919h240l36-919H122zM277 615q-76 0-132.5 56.5T88 804q0 77 56.5 134T277 995q77 0 134-57.5T468 804t-57-132.5T277 615z"/><glyph glyph-name="cent" unicode="¢" horiz-adv-x="1400" d="M638 1400h222v-198q191-31 307-174L989 876q-62 60-129 83V441q76 26 134 84l173-154q-118-144-307-173V0H638v204q-184 38-293.5 173T235 700t109.5 322.5T638 1195v205zM493 700q0-85 39-149.5T638 454v492q-67-33-106-97.5T493 700z"/><glyph glyph-name="sterling" unicode="£" horiz-adv-x="1400" d="M1223 253V0H159v253h160v338H159v218h160v64q0 135 42 242t115 174 167.5 101.5T847 1425q243 0 388-147l-180-191q-80 80-208 80-117 0-188-76t-71-230v-52h483V591H588V253h635z"/><glyph glyph-name="currency" unicode="¤" horiz-adv-x="1400" d="M141 1111l147 148 153-154q119 76 260 76 138 0 258-75l152 153 147-148-152-152q76-119 76-259 0-141-76-260l153-151-147-148-153 152q-118-75-258-75-142 0-261 76L289 141 142 289l152 151q-75 117-75 260 0 141 75 258zm560-685q114 0 193.5 79.5T974 700q0 114-79.5 193.5T701 973q-115 0-194.5-79.5T427 700q0-115 79.5-194.5T701 426z"/><glyph glyph-name="yen" unicode="¥" horiz-adv-x="1400" d="M1206 454V269H842V0H572v269H207v185h365v135H207v185h279L62 1400h315l330-512 324 512h308L923 774h283V589H842V454h364z"/><glyph glyph-name="brokenbar" unicode="¦" horiz-adv-x="707" d="M484 1400V706H223v694h261zm0-971v-694H223v694h261z"/><glyph glyph-name="section" unicode="§" horiz-adv-x="1303" d="M1162 1299l-118-213q-176 101-355 101-107 0-174-35.5t-67-97.5q0-31 19-53.5t58-38 83.5-25T719 919l69-10q186-28 293.5-109T1189 580q0-166-141-262 117-88 117-233 0-101-43-180t-117-127-166-72.5T643-319q-149 0-290 39.5T114-167L245 44Q425-82 646-82q108 0 176 35.5T891 54q0 30-17 51t-55 36-82.5 25T622 186l-75 11q-395 58-395 340 0 156 140 251-117 87-117 244 0 178 142.5 285.5T682 1425q132 0 246-29.5t234-96.5zM568 688q-28 4-41 7-102-40-102-130 0-60 65.5-87.5T696 430l68-10q36-6 54-10 97 41 97 133 0 58-64.5 87T646 678z"/><glyph glyph-name="dieresis" unicode="¨" horiz-adv-x="1070" d="M317 1424q71 0 119.5-49t48.5-119-48.5-118-119.5-48-118.5 48-47.5 118q0 71 48 119.5t118 48.5zm431 0q70 0 119-49t49-119-48.5-118-119.5-48q-70 0-118 48t-48 118q0 71 48 119.5t118 48.5z"/><glyph glyph-name="copyright" unicode="©" horiz-adv-x="1865" d="M933 1519q168 0 320-64t262-172.5 175-258 65-313.5-65-314-175-258.5-262-173T933-99 612.5-34.5 350 138.5 175 397t-65 314q0 131 41.5 254.5T269 1188t177 174 227 116 260 41zm0-221q-161 0-297.5-78.5t-216-213.5T340 711t79.5-296 216-214.5T933 122q120 0 230 46.5T1352 294t126 188 47 229-47 228.5-126 187-189 125-230 46.5zm377-371l-189-106q-60 102-176 102-83 0-137.5-59.5T753 711q0-102 56.5-157T946 499q112 0 180 102l176-125q-58-87-148-135t-206-48q-185 0-303 117T527 711t118 301 303 117q117 0 213.5-53.5T1310 927z"/><glyph glyph-name="ordfeminine" unicode="ª" horiz-adv-x="794" d="M377 1287q150 0 236.5-77T700 984V578H513v68q-84-86-208-86-113 0-178.5 61T61 782q0 98 77 155t212 57h154q-11 123-148 123-97 0-188-64l-75 147q115 87 284 87zm-24-573q90 0 156 75v77H379q-60 0-88.5-22T262 790t23-54 68-22z"/><glyph glyph-name="guillemotleft" unicode="«" horiz-adv-x="1087" d="M800 532l193-390H730L537 532l193 390h263zm-449 0l193-390H281L88 532l193 390h263z"/><glyph glyph-name="logicalnot" unicode="¬" d="M140 644h920V108H832v313H140v223z"/><glyph glyph-name="uni00AD" unicode="­" horiz-adv-x="813" d="M702 646V418H111v228h591z"/><glyph glyph-name="registered" unicode="®" horiz-adv-x="1008" d="M505 1443q194 0 330-133t136-321q0-123-62-227.5T739.5 596 505 535q-129 0-237 61T98.5 761.5 37 989t61.5 227.5 169 165.5 237.5 61zm0-775q132 0 225.5 94T824 989t-93.5 227-225.5 94q-135 0-228.5-94T183 989t93.5-227T505 668zm-176 524h200q82 0 126.5-37t44.5-100q0-49-31-82t-88-43l124-144H567L456 926h-10V786H329v406zm198-101h-81v-71h81q54 0 54 35 0 36-54 36z"/><glyph glyph-name="macron" unicode="¯" horiz-adv-x="1054" d="M196 1151v209h662v-209H196z"/><glyph glyph-name="degree" unicode="°" horiz-adv-x="858" d="M429 652q-163 0-277.5 112.5T37 1037q0 161 114.5 274.5T429 1425q162 0 277-113.5T821 1037q0-160-115-272.5T429 652zm0 204q72 0 124.5 53t52.5 128q0 74-52.5 127T429 1217q-73 0-125.5-52.5T251 1037t52.5-128T429 856z"/><glyph glyph-name="plusminus" unicode="±" d="M714 317H486v259H140v223h346v322h228V799h346V576H714V317zm346-94V0H140v223h920z"/><glyph glyph-name="twosuperior" unicode="²" horiz-adv-x="725" d="M172 1140L53 1269q118 145 306 145 133 0 212-72.5t79-192.5q0-71-30.5-128T519 897L375 760h294V578H96v154l289 275q61 58 61 120 0 44-30.5 71.5T338 1226q-49 0-87.5-22.5T172 1140z"/><glyph glyph-name="threesuperior" unicode="³" horiz-adv-x="730" d="M333 1414q138 0 224-65t86-172q0-128-121-185 66-26 102.5-74T661 806q0-116-94.5-179.5T338 563q-193 0-297 121l110 128q73-75 177-75 56 0 92 22t36 64q0 41-41 63.5T312 909h-94v167h96q55 0 90.5 22.5T440 1160t-31 59.5-84 20.5q-102 0-171-77L44 1290q108 124 289 124z"/><glyph glyph-name="acute" unicode="´" horiz-adv-x="1000" d="M493 1108H244l201 315h312z"/><glyph glyph-name="mu" unicode="µ" horiz-adv-x="1182" d="M382-400H129V969h261V436q0-104 49.5-160.5T579 219q89 0 147 57t58 162v531h261V0H791v114Q697-26 506-26q-67 0-124 18v-392z"/><glyph glyph-name="paragraph" unicode="¶" horiz-adv-x="1289" d="M559 0v595q-216 4-332 111.5T111 999q0 183 116 289.5T559 1399v1h202V0H559zm305 0v1400h202V0H864z"/><glyph glyph-name="periodcentered" unicode="·" horiz-adv-x="670" d="M336 726q77 0 135-57.5T529 533q0-79-58-137t-135-58q-78 0-136.5 58T141 533q0 78 58.5 135.5T336 726z"/><glyph glyph-name="cedilla" unicode="¸" horiz-adv-x="871" d="M613 7L510-321H258L369 7h244z"/><glyph glyph-name="onesuperior" unicode="¹" horiz-adv-x="553" d="M423 1413V578H226v565l-185-68v192z"/><glyph glyph-name="ordmasculine" unicode="º" horiz-adv-x="869" d="M435 1287q161 0 267-103.5T808 924 702 664 435 560 167.5 664 61 924t106.5 259.5T435 1287zm0-181q-76 0-126-51t-50-131 50-131.5T435 741t126 51.5T611 924t-50 131-126 51z"/><glyph glyph-name="guillemotright" unicode="»" horiz-adv-x="1087" d="M287 533L94 923h263l193-390-193-390H94zm449 0L543 923h263l193-390-193-390H543z"/><glyph glyph-name="onequarter" unicode="¼" horiz-adv-x="1709" d="M1380 1400L497 0H256l883 1400h241zm193-864V315h104V138h-104V0h-197v138h-368v138l271 545h216l-255-506h136v101l60 120h137zM423 1413V578H226v565l-185-68v192z"/><glyph glyph-name="onehalf" unicode="½" horiz-adv-x="1782" d="M1380 1400L497 0H256l883 1400h241zm-152-838l-119 129q118 145 306 145 133 0 212-72.5t79-192.5q0-71-30.5-128T1575 319l-144-137h294V0h-573v154l289 275q61 58 61 120 0 44-30.5 71.5T1394 648q-49 0-87.5-22.5T1228 562zm-805 851V578H226v565l-185-68v192z"/><glyph glyph-name="threequarters" unicode="¾" horiz-adv-x="1859" d="M1530 1400L647 0H406l883 1400h241zm193-864V315h104V138h-104V0h-197v138h-368v138l271 545h216l-255-506h136v101l60 120h137zM333 1414q138 0 224-65t86-172q0-128-121-185 66-26 102.5-74T661 806q0-116-94.5-179.5T338 563q-193 0-297 121l110 128q73-75 177-75 56 0 92 22t36 64q0 41-41 63.5T312 909h-94v167h96q55 0 90.5 22.5T440 1160t-31 59.5-84 20.5q-102 0-171-77L44 1290q108 124 289 124z"/><glyph glyph-name="questiondown" unicode="¿" horiz-adv-x="891" d="M478 492h241V152h-96q-145 0-221-45T326-26q0-81 75.5-123.5T620-192q68 0 152 8l19-263q-91-13-202-13-260 0-405.5 111.5T38-46q0 173 111 281t321 142zm120 122q-76 0-132.5 56.5T409 803q0 77 56.5 134.5T598 995t133.5-57.5T789 804q0-77-57-133.5T598 614z"/><glyph glyph-name="Agrave" unicode="À" horiz-adv-x="1472" d="M906 1400L1451 0h-298l-122 326H434L312 0H21l545 1400h340zm-173-276L530 583h405zm-77 394l-264 315h312l201-315H656z"/><glyph glyph-name="Aacute" unicode="Á" horiz-adv-x="1472" d="M906 1400L1451 0h-298l-122 326H434L312 0H21l545 1400h340zm-173-276L530 583h405zm69 394H553l201 315h312z"/><glyph glyph-name="Acircumflex" unicode="Â" horiz-adv-x="1472" d="M906 1400L1451 0h-298l-122 326H434L312 0H21l545 1400h340zm-173-276L530 583h405zm379 384H859l-123 153-122-153H361l218 315h315z"/><glyph glyph-name="Atilde" unicode="Ã" horiz-adv-x="1472" d="M906 1400L1451 0h-298l-122 326H434L312 0H21l545 1400h340zm-173-276L530 583h405zm-251 407l-138 149q101 131 262 131 61 0 112.5-17.5t88-35T866 1741q52 0 124 67l139-149q-103-132-263-132-60 0-111 17.5t-88 35-61 17.5q-52 0-124-66z"/><glyph glyph-name="Adieresis" unicode="Ä" horiz-adv-x="1472" d="M906 1400L1451 0h-298l-122 326H434L312 0H21l545 1400h340zm-173-276L530 583h405zm-213 710q70 0 119-49t49-119-48.5-118-119.5-48q-70 0-118 48t-48 118q0 71 48 119.5t118 48.5zm431 0q71 0 119.5-49t48.5-119-48.5-118-119.5-48-118.5 48-47.5 118q0 71 48 119.5t118 48.5z"/><glyph glyph-name="Aring" unicode="Å" horiz-adv-x="1472" d="M906 1400L1451 0h-298l-122 326H434L312 0H21l545 1400h340zm-173-276L530 583h405zm2 362q-108 0-184.5 75.5T474 1744q0 106 77 181.5t184 75.5q109 0 186-75.5t77-181.5q0-107-77-182.5T735 1486zm0 149q44 0 75.5 31.5T842 1744q0 45-31.5 76.5T735 1852q-42 0-73.5-31.5T630 1744q0-46 31-77.5t74-31.5z"/><glyph glyph-name="AE" unicode="Æ" horiz-adv-x="2303" d="M2176 256V0H1130v294H559L350 0H17l1013 1400h1138v-256h-759V834h724V578h-724V256h767zM742 551h388v543z"/><glyph glyph-name="Ccedilla" unicode="Ç" horiz-adv-x="1510" d="M827 1426q194 0 354.5-83.5T1427 1112l-240-147q-60 92-153 142.5T825 1158q-192 0-317-128T383 700q1-207 127-332.5T825 242q115 0 208 49.5T1190 434l228-164q-79-115-199.5-190T950-17l-95-304H588L692-15Q423 27 257.5 223T92 700q0 156 54.5 291t151 230.5 233.5 150 296 54.5z"/><glyph glyph-name="Egrave" unicode="È" horiz-adv-x="1332" d="M1205 256V0H159v1400h1038v-256H438V834h724V578H438V256h767zM596 1518l-264 315h312l201-315H596z"/><glyph glyph-name="Eacute" unicode="É" horiz-adv-x="1332" d="M1205 256V0H159v1400h1038v-256H438V834h724V578H438V256h767zM742 1518H493l201 315h312z"/><glyph glyph-name="Ecircumflex" unicode="Ê" horiz-adv-x="1332" d="M1205 256V0H159v1400h1038v-256H438V834h724V578H438V256h767zm-153 1252H799l-123 153-122-153H301l218 315h315z"/><glyph glyph-name="Edieresis" unicode="Ë" horiz-adv-x="1332" d="M1205 256V0H159v1400h1038v-256H438V834h724V578H438V256h767zM460 1834q70 0 119-49t49-119-48.5-118-119.5-48q-70 0-118 48t-48 118q0 71 48 119.5t118 48.5zm431 0q71 0 119.5-49t48.5-119-48.5-118-119.5-48-118.5 48-47.5 118q0 71 48 119.5t118 48.5z"/><glyph glyph-name="Igrave" unicode="Ì" horiz-adv-x="597" d="M438 1400V0H159v1400h279zm-219 118l-264 315h312l201-315H219z"/><glyph glyph-name="Iacute" unicode="Í" horiz-adv-x="597" d="M438 1400V0H159v1400h279zm-73 118H116l201 315h312z"/><glyph glyph-name="Icircumflex" unicode="Î" horiz-adv-x="597" d="M438 1400V0H159v1400h279zm237 108H422l-123 153-122-153H-76l218 315h315z"/><glyph glyph-name="Idieresis" unicode="Ï" horiz-adv-x="597" d="M438 1400V0H159v1400h279zM83 1834q71 0 119.5-49t48.5-119-48.5-118T83 1500t-118.5 48-47.5 118q0 71 48 119.5T83 1834zm431 0q70 0 119-49t49-119-48.5-118-119.5-48q-70 0-118 48t-48 118q0 71 48 119.5t118 48.5z"/><glyph glyph-name="Eth" unicode="Ð" horiz-adv-x="1661" d="M265 1400h577q329 0 528-192t199-508-199-508T842 0H265v581H95v250h170v569zm627-569V581H544V261h295q214 0 326 120.5T1277 700q0 200-112 319.5T839 1139H544V831h348z"/><glyph glyph-name="Ntilde" unicode="Ñ" horiz-adv-x="1570" d="M1411 1400V0h-262L439 935 438 0H159v1400h261l711-935v935h280zm-875 131l-138 149q101 131 262 131 61 0 112.5-17.5t88-35T920 1741q52 0 124 67l139-149q-103-132-263-132-60 0-111 17.5t-88 35-61 17.5q-52 0-124-66z"/><glyph glyph-name="Ograve" unicode="Ò" horiz-adv-x="1655" d="M827 1426q212 0 380.5-94t262-259.5T1563 700t-93.5-372.5-262-259.5T827-26q-159 0-296 55T297.5 180t-151 230.5T92 700t54.5 289.5 151 230.5T531 1371t296 55zm0-268q-194 0-319-127.5T383 700t125-330.5T827 242q195 0 319.5 127.5T1271 700t-124.5 330.5T827 1158zm-80 360l-264 315h312l201-315H747z"/><glyph glyph-name="Oacute" unicode="Ó" horiz-adv-x="1655" d="M827 1426q212 0 380.5-94t262-259.5T1563 700t-93.5-372.5-262-259.5T827-26q-159 0-296 55T297.5 180t-151 230.5T92 700t54.5 289.5 151 230.5T531 1371t296 55zm0-268q-194 0-319-127.5T383 700t125-330.5T827 242q195 0 319.5 127.5T1271 700t-124.5 330.5T827 1158zm66 360H644l201 315h312z"/><glyph glyph-name="Ocircumflex" unicode="Ô" horiz-adv-x="1655" d="M827 1426q212 0 380.5-94t262-259.5T1563 700t-93.5-372.5-262-259.5T827-26q-159 0-296 55T297.5 180t-151 230.5T92 700t54.5 289.5 151 230.5T531 1371t296 55zm0-268q-194 0-319-127.5T383 700t125-330.5T827 242q195 0 319.5 127.5T1271 700t-124.5 330.5T827 1158zm376 350H950l-123 153-122-153H452l218 315h315z"/><glyph glyph-name="Otilde" unicode="Õ" horiz-adv-x="1655" d="M827 1426q212 0 380.5-94t262-259.5T1563 700t-93.5-372.5-262-259.5T827-26q-159 0-296 55T297.5 180t-151 230.5T92 700t54.5 289.5 151 230.5T531 1371t296 55zm0-268q-194 0-319-127.5T383 700t125-330.5T827 242q195 0 319.5 127.5T1271 700t-124.5 330.5T827 1158zm-254 373l-138 149q101 131 262 131 61 0 112.5-17.5t88-35T957 1741q52 0 124 67l139-149q-103-132-263-132-60 0-111 17.5t-88 35-61 17.5q-52 0-124-66z"/><glyph glyph-name="Odieresis" unicode="Ö" horiz-adv-x="1655" d="M827 1426q212 0 380.5-94t262-259.5T1563 700t-93.5-372.5-262-259.5T827-26q-159 0-296 55T297.5 180t-151 230.5T92 700t54.5 289.5 151 230.5T531 1371t296 55zm0-268q-194 0-319-127.5T383 700t125-330.5T827 242q195 0 319.5 127.5T1271 700t-124.5 330.5T827 1158zm-216 676q71 0 119.5-49t48.5-119-48.5-118-119.5-48-118.5 48-47.5 118q0 71 48 119.5t118 48.5zm431 0q70 0 119-49t49-119-48.5-118-119.5-48q-70 0-118 48t-48 118q0 71 48 119.5t118 48.5z"/><glyph glyph-name="multiply" unicode="×" d="M321 94L162 253l277 277-279 279 163 163 279-279 277 277 159-159-277-277 279-279L877 92 598 371z"/><glyph glyph-name="Oslash" unicode="Ø" horiz-adv-x="1655" d="M827 1426q246 0 434-128l127 127 168-168-125-125q132-187 132-432 0-207-93.5-372.5T1207.5 68 827-26Q581-26 397 99L273-25 105 142l121 121Q92 450 92 700q0 155 54.5 289.5t151 230.5T531 1371t296 55zm0-268q-194 0-319-127.5T383 700q0-129 52-228l625 625q-103 61-233 61zm444-458q0 120-49 223L598 300q99-58 229-58 195 0 319.5 127.5T1271 700z"/><glyph glyph-name="Ugrave" unicode="Ù" horiz-adv-x="1492" d="M1349 1400V559q0-189-77-322T1060.5 39.5 746-25 431.5 39.5 220 237t-77 322v841h280V573q0-167 86-249t237-82 237 82 86 249v827h280zm-683 118l-264 315h312l201-315H666z"/><glyph glyph-name="Uacute" unicode="Ú" horiz-adv-x="1492" d="M1349 1400V559q0-189-77-322T1060.5 39.5 746-25 431.5 39.5 220 237t-77 322v841h280V573q0-167 86-249t237-82 237 82 86 249v827h280zm-537 118H563l201 315h312z"/><glyph glyph-name="Ucircumflex" unicode="Û" horiz-adv-x="1492" d="M1349 1400V559q0-189-77-322T1060.5 39.5 746-25 431.5 39.5 220 237t-77 322v841h280V573q0-167 86-249t237-82 237 82 86 249v827h280zm-227 108H869l-123 153-122-153H371l218 315h315z"/><glyph glyph-name="Udieresis" unicode="Ü" horiz-adv-x="1492" d="M1349 1400V559q0-189-77-322T1060.5 39.5 746-25 431.5 39.5 220 237t-77 322v841h280V573q0-167 86-249t237-82 237 82 86 249v827h280zm-819 434q70 0 119-49t49-119-48.5-118-119.5-48q-70 0-118 48t-48 118q0 71 48 119.5t118 48.5zm431 0q71 0 119.5-49t48.5-119-48.5-118-119.5-48-118.5 48-47.5 118q0 71 48 119.5t118 48.5z"/><glyph glyph-name="Yacute" unicode="Ý" horiz-adv-x="1362" d="M1356 1400L824 552V0H545v553L6 1400h328l352-594 352 594h318zm-605 118H502l201 315h312z"/><glyph glyph-name="Thorn" unicode="Þ" horiz-adv-x="1321" d="M438 1400v-240h292q246 0 379-119.5T1242 714q0-205-132.5-323.5T732 272H438V0H159v1400h279zm287-498H438V527h287q231 0 231 187 0 188-231 188z"/><glyph glyph-name="germandbls" unicode="ß" horiz-adv-x="1233" d="M130 0v1005q0 72 16.5 137t54 125 93.5 103 141.5 69 191.5 26q217 0 353-116t136-291q0-121-59-209.5T904 726q107-28 180-121t73-209q0-192-126.5-306.5T702-25Q576-25 494 1l36 225q63-23 132-23 108 0 168 52.5T890 406q0 198-278 198h-37v225h10q265 0 265 197 0 95-64.5 147T621 1225q-110 0-170.5-63.5T390 993V0H130z"/><glyph glyph-name="agrave" unicode="à" horiz-adv-x="1228" d="M1091 969V0H836v107Q729-25 546-25q-200 0-334.5 146T77 485t134.5 364T546 995q182 0 290-133v107h255zM594 752q-112 0-181-76.5T344 485t69-190.5T594 218q111 0 180.5 75.5T844 485t-69.5 191.5T594 752zm-56 356l-264 315h312l201-315H538z"/><glyph glyph-name="aacute" unicode="á" horiz-adv-x="1228" d="M1091 969V0H836v107Q729-25 546-25q-200 0-334.5 146T77 485t134.5 364T546 995q182 0 290-133v107h255zM594 752q-112 0-181-76.5T344 485t69-190.5T594 218q111 0 180.5 75.5T844 485t-69.5 191.5T594 752zm98 356H443l201 315h312z"/><glyph glyph-name="acircumflex" unicode="â" horiz-adv-x="1228" d="M1091 969V0H836v107Q729-25 546-25q-200 0-334.5 146T77 485t134.5 364T546 995q182 0 290-133v107h255zM594 752q-112 0-181-76.5T344 485t69-190.5T594 218q111 0 180.5 75.5T844 485t-69.5 191.5T594 752zm399 346H740l-123 153-122-153H242l218 315h315z"/><glyph glyph-name="atilde" unicode="ã" horiz-adv-x="1228" d="M1091 969V0H836v107Q729-25 546-25q-200 0-334.5 146T77 485t134.5 364T546 995q182 0 290-133v107h255zM594 752q-112 0-181-76.5T344 485t69-190.5T594 218q111 0 180.5 75.5T844 485t-69.5 191.5T594 752zm-233 369l-138 149q101 131 262 131 61 0 112.5-17.5t88-35T745 1331q52 0 124 67l139-149q-103-132-263-132-60 0-111 17.5t-88 35-61 17.5q-52 0-124-66z"/><glyph glyph-name="adieresis" unicode="ä" horiz-adv-x="1228" d="M1091 969V0H836v107Q729-25 546-25q-200 0-334.5 146T77 485t134.5 364T546 995q182 0 290-133v107h255zM594 752q-112 0-181-76.5T344 485t69-190.5T594 218q111 0 180.5 75.5T844 485t-69.5 191.5T594 752zm-195 672q71 0 119.5-49t48.5-119-48.5-118-119.5-48-118.5 48-47.5 118q0 71 48 119.5t118 48.5zm431 0q70 0 119-49t49-119-48.5-118-119.5-48q-70 0-118 48t-48 118q0 71 48 119.5t118 48.5z"/><glyph glyph-name="aring" unicode="å" horiz-adv-x="1228" d="M1091 969V0H836v107Q729-25 546-25q-200 0-334.5 146T77 485t134.5 364T546 995q182 0 290-133v107h255zM594 752q-112 0-181-76.5T344 485t69-190.5T594 218q111 0 180.5 75.5T844 485t-69.5 191.5T594 752zm22 324q-108 0-184.5 75.5T355 1334q0 106 77 181.5t184 75.5q109 0 186-75.5t77-181.5q0-107-77-182.5T616 1076zm0 149q44 0 75.5 31.5T723 1334q0 45-31.5 76.5T616 1442q-42 0-73.5-31.5T511 1334q0-46 31-77.5t74-31.5z"/><glyph glyph-name="ae" unicode="æ" horiz-adv-x="1747" d="M1207 995q207 0 335-140.5T1671 486q0-51-5-88H979q20-101 86-151t162-50q136 0 246 93l153-168Q1464-25 1209-25q-238 0-375 149-72-68-159.5-108.5T459-25q-180 0-281 84.5T77 284q0 138 108 216t297 78h229q-14 187-217 187-134 0-267-89l-95 204q78 55 182.5 85T529 995q229 0 335-143 122 143 343 143zM499 185q65 0 129 28t110 79q-17 53-23 110H520q-89 0-130.5-30.5T348 294q0-46 38.5-77.5T499 185zm699 585q-90 0-146-50.5T979 573h431q-18 95-72.5 146T1198 770z"/><glyph glyph-name="ccedilla" unicode="ç" horiz-adv-x="1033" d="M593 995q121 0 221-47.5T981 812L793 655q-91 97-207 97-103 0-173-74t-70-193 69.5-193T585 218q121 0 211 98l186-159Q873 18 696-16l-96-305H348L453-9Q281 32 179 166T77 485q0 222 143 366t373 144z"/><glyph glyph-name="egrave" unicode="è" horiz-adv-x="1114" d="M567 995q209 0 339.5-141T1038 486q0-51-5-88H346q20-101 86-151t163-50q63 0 128 24.5T840 290l153-168Q833-25 580-25q-224 0-363.5 139.5T77 482q0 229 136 371t354 142zm-2-225q-90 0-145-51t-73-143h429q-18 93-72.5 143.5T565 770zm-80 338l-264 315h312l201-315H485z"/><glyph glyph-name="eacute" unicode="é" horiz-adv-x="1114" d="M567 995q209 0 339.5-141T1038 486q0-51-5-88H346q20-101 86-151t163-50q63 0 128 24.5T840 290l153-168Q833-25 580-25q-224 0-363.5 139.5T77 482q0 229 136 371t354 142zm-2-225q-90 0-145-51t-73-143h429q-18 93-72.5 143.5T565 770zm74 338H390l201 315h312z"/><glyph glyph-name="ecircumflex" unicode="ê" horiz-adv-x="1114" d="M567 995q209 0 339.5-141T1038 486q0-51-5-88H346q20-101 86-151t163-50q63 0 128 24.5T840 290l153-168Q833-25 580-25q-224 0-363.5 139.5T77 482q0 229 136 371t354 142zm-2-225q-90 0-145-51t-73-143h429q-18 93-72.5 143.5T565 770zm375 328H687l-123 153-122-153H189l218 315h315z"/><glyph glyph-name="edieresis" unicode="ë" horiz-adv-x="1114" d="M567 995q209 0 339.5-141T1038 486q0-51-5-88H346q20-101 86-151t163-50q63 0 128 24.5T840 290l153-168Q833-25 580-25q-224 0-363.5 139.5T77 482q0 229 136 371t354 142zm-2-225q-90 0-145-51t-73-143h429q-18 93-72.5 143.5T565 770zm-219 654q70 0 119-49t49-119-48.5-118-119.5-48q-70 0-118 48t-48 118q0 71 48 119.5t118 48.5zm431 0q71 0 119.5-49t48.5-119-48.5-118-119.5-48-118.5 48-47.5 118q0 71 48 119.5t118 48.5z"/><glyph glyph-name="igrave" unicode="ì" horiz-adv-x="535" d="M398 969V0H137v969h261zm-210 139l-264 315h312l201-315H188z"/><glyph glyph-name="iacute" unicode="í" horiz-adv-x="535" d="M398 969V0H137v969h261zm-56 139H93l201 315h312z"/><glyph glyph-name="icircumflex" unicode="î" horiz-adv-x="535" d="M398 969V0H137v969h261zm245 129H390l-123 153-122-153h-253l218 315h315z"/><glyph glyph-name="idieresis" unicode="ï" horiz-adv-x="535" d="M398 969V0H137v969h261zM49 1424q71 0 119.5-49t48.5-119-48.5-118T49 1090t-118.5 48-47.5 118q0 71 48 119.5T49 1424zm431 0q70 0 119-49t49-119-48.5-118-119.5-48q-70 0-118 48t-48 118q0 71 48 119.5t118 48.5z"/><glyph glyph-name="eth" unicode="ð" horiz-adv-x="1194" d="M848 1449l88-140-144-89q165-151 245.5-342.5T1118 489q0-221-147.5-367.5T597-25q-223 0-371.5 138.5T77 459q0 208 134.5 346T544 943q144 0 247-87-70 131-210 237L356 955l-87 139 158 98q-67 38-159 78l138 185q140-56 246-127zM600 713q-111 0-184-70.5T343 460q0-110 73-181t184-71 184.5 71T858 460q0 112-73.5 182.5T600 713z"/><glyph glyph-name="ntilde" unicode="ñ" horiz-adv-x="1182" d="M676 995q166 0 271.5-105T1053 617V0H792v533q0 104-49.5 160.5T603 750q-89 0-147-57t-58-162V0H137v969h254V855q94 140 285 140zm-326 126l-138 149q101 131 262 131 61 0 112.5-17.5t88-35T734 1331q52 0 124 67l139-149q-103-132-263-132-60 0-111 17.5t-88 35-61 17.5q-52 0-124-66z"/><glyph glyph-name="ograve" unicode="ò" horiz-adv-x="1201" d="M600 995q226 0 375.5-145.5T1125 485 975.5 120.5 600-25q-225 0-374 145.5T77 485t149 364.5T600 995zm0-243q-111 0-184-75t-73-192 73-192 184-75 184.5 75T858 485t-73.5 192T600 752zm-79 356l-264 315h312l201-315H521z"/><glyph glyph-name="oacute" unicode="ó" horiz-adv-x="1201" d="M600 995q226 0 375.5-145.5T1125 485 975.5 120.5 600-25q-225 0-374 145.5T77 485t149 364.5T600 995zm0-243q-111 0-184-75t-73-192 73-192 184-75 184.5 75T858 485t-73.5 192T600 752zm75 356H426l201 315h312z"/><glyph glyph-name="ocircumflex" unicode="ô" horiz-adv-x="1201" d="M600 995q226 0 375.5-145.5T1125 485 975.5 120.5 600-25q-225 0-374 145.5T77 485t149 364.5T600 995zm0-243q-111 0-184-75t-73-192 73-192 184-75 184.5 75T858 485t-73.5 192T600 752zm376 346H723l-123 153-122-153H225l218 315h315z"/><glyph glyph-name="otilde" unicode="õ" horiz-adv-x="1201" d="M600 995q226 0 375.5-145.5T1125 485 975.5 120.5 600-25q-225 0-374 145.5T77 485t149 364.5T600 995zm0-243q-111 0-184-75t-73-192 73-192 184-75 184.5 75T858 485t-73.5 192T600 752zm-256 369l-138 149q101 131 262 131 61 0 112.5-17.5t88-35T728 1331q52 0 124 67l139-149q-103-132-263-132-60 0-111 17.5t-88 35-61 17.5q-52 0-124-66z"/><glyph glyph-name="odieresis" unicode="ö" horiz-adv-x="1201" d="M600 995q226 0 375.5-145.5T1125 485 975.5 120.5 600-25q-225 0-374 145.5T77 485t149 364.5T600 995zm0-243q-111 0-184-75t-73-192 73-192 184-75 184.5 75T858 485t-73.5 192T600 752zm-218 672q70 0 119-49t49-119-48.5-118-119.5-48q-70 0-118 48t-48 118q0 71 48 119.5t118 48.5zm431 0q71 0 119.5-49t48.5-119-48.5-118-119.5-48-118.5 48-47.5 118q0 71 48 119.5t118 48.5z"/><glyph glyph-name="divide" unicode="÷" d="M1060 654V431H140v223h920zm-459 404q66 0 114.5-48T764 896t-48.5-115T601 732t-115 49-49 115 49 114 115 48zm0-704q66 0 114.5-48.5T764 191 715.5 76 601 27 486 76t-49 115 49 114.5T601 354z"/><glyph glyph-name="oslash" unicode="ø" horiz-adv-x="1201" d="M601 995q158 0 285-77l102 101 149-148-98-98q86-127 86-288 0-219-149-364.5T601-25q-157 0-284 75L216-51 66 97l97 98Q77 322 77 485q0 219 149 364.5T601 995zm0-237q-113 0-188-77t-75-196q0-57 19-108l357 357q-54 24-113 24zm264-273q0 55-19 106L489 235q52-23 112-23 113 0 188.5 77T865 485z"/><glyph glyph-name="ugrave" unicode="ù" horiz-adv-x="1175" d="M1046 969V413q0-111-37-197T907.5 78.5 762 1 588-25q-74 0-141 16T321.5 41.5t-101 85-67 124T129 413v556h261V436q0-111 54-164.5T588 218t144 53.5T786 436v533h260zm-537 139l-264 315h312l201-315H509z"/><glyph glyph-name="uacute" unicode="ú" horiz-adv-x="1175" d="M1046 969V413q0-111-37-197T907.5 78.5 762 1 588-25q-74 0-141 16T321.5 41.5t-101 85-67 124T129 413v556h261V436q0-111 54-164.5T588 218t144 53.5T786 436v533h260zm-383 139H414l201 315h312z"/><glyph glyph-name="ucircumflex" unicode="û" horiz-adv-x="1175" d="M1046 969V413q0-111-37-197T907.5 78.5 762 1 588-25q-74 0-141 16T321.5 41.5t-101 85-67 124T129 413v556h261V436q0-111 54-164.5T588 218t144 53.5T786 436v533h260zm-82 129H711l-123 153-122-153H213l218 315h315z"/><glyph glyph-name="udieresis" unicode="ü" horiz-adv-x="1175" d="M1046 969V413q0-111-37-197T907.5 78.5 762 1 588-25q-74 0-141 16T321.5 41.5t-101 85-67 124T129 413v556h261V436q0-111 54-164.5T588 218t144 53.5T786 436v533h260zm-676 455q70 0 119-49t49-119-48.5-118-119.5-48q-70 0-118 48t-48 118q0 71 48 119.5t118 48.5zm431 0q71 0 119.5-49t48.5-119-48.5-118-119.5-48-118.5 48-47.5 118q0 71 48 119.5t118 48.5z"/><glyph glyph-name="yacute" unicode="ý" horiz-adv-x="1128" d="M1119 969L378-404H92l339 610L13 969h296l266-498 258 498h286zm-473 139H397l201 315h312z"/><glyph glyph-name="thorn" unicode="þ" horiz-adv-x="1227" d="M681 995q201 0 335.5-146T1151 485t-134.5-364T682-25Q504-25 398 99v-499H137v1840h261V870q106 125 283 125zm-48-243q-110 0-179.5-75.5T384 485t69.5-191.5T633 218q113 0 181.5 76.5T883 485t-68.5 190.5T633 752z"/><glyph glyph-name="ydieresis" unicode="ÿ" horiz-adv-x="1128" d="M1119 969L378-404H92l339 610L13 969h296l266-498 258 498h286zm-766 455q71 0 119.5-49t48.5-119-48.5-118-119.5-48-118.5 48-47.5 118q0 71 48 119.5t118 48.5zm431 0q70 0 119-49t49-119-48.5-118-119.5-48q-70 0-118 48t-48 118q0 71 48 119.5t118 48.5z"/><glyph glyph-name="dotlessi" unicode="ı" horiz-adv-x="535" d="M398 969V0H137v969h261z"/><glyph glyph-name="IJ" unicode="Ĳ" horiz-adv-x="1726" d="M438 1400V0H159v1400h279zm1137 0V510q0-256-138-395.5T1073-25q-288 0-447 194l162 203q106-130 272-130 114 0 175 73t61 221v864h279z"/><glyph glyph-name="ij" unicode="ĳ" horiz-adv-x="1074" d="M937 969V-92q0-156-82-242.5T636-421q-87 0-147 26l39 229q33-12 70-12 78 0 78 101V969h261zm-133 485q70 0 118.5-48.5T971 1286q0-70-48-118t-119-48q-70 0-118 48t-48 118q0 71 48 119.5t118 48.5zM398 969V0H137v969h261zm-132 485q70 0 118.5-48.5T433 1286q0-70-48-118t-119-48q-70 0-118 48t-48 118q0 71 48 119.5t118 48.5z"/><glyph glyph-name="Lslash" unicode="Ł" horiz-adv-x="1316" d="M1284 261V0H265v425L95 331v281l170 94v694h279V862l449 250V831L544 581V261h740z"/><glyph glyph-name="lslash" unicode="ł" horiz-adv-x="717" d="M489 1440V954l187 118V811L489 693V0H228v529L41 411v261l187 118v650h261z"/><glyph glyph-name="OE" unicode="Œ" horiz-adv-x="2219" d="M2092 256V0H819Q490 0 291 192T92 700t199 508 528 192h1265v-256h-759V834h724V578h-724V256h767zM383 700q0-200 112-319.5T822 261h224v878H822q-214 0-326.5-120.5T383 700z"/><glyph glyph-name="oe" unicode="œ" horiz-adv-x="1895" d="M1348 995q209 0 339.5-141T1819 486q0-51-5-88h-687q20-101 86-151t162-50q136 0 246 93l153-168Q1612-25 1357-25q-119 0-215.5 44.5T981 147Q912 66 813.5 20.5T600-25q-225 0-374 145.5T77 485t149 364.5T600 995q116 0 214-45.5T981 822q63 83 157.5 128t209.5 45zM600 752q-111 0-184-75t-73-192 73-192 184-75 184.5 75T858 485t-73.5 192T600 752zm746 18q-90 0-145-51t-73-143h429q-19 93-73 143.5T1346 770z"/><glyph glyph-name="Scaron" unicode="Š" horiz-adv-x="1353" d="M1241 1275l-132-228q-193 119-397 119-120 0-194-45t-74-123q0-37 20-64t63-45.5 88.5-29.5T733 836l79-13q446-73 446-392 0-112-47-201T1084 86.5t-182-83T685-25q-164 0-322.5 47.5T95 158l145 225q82-65 200-108t246-43q120 0 197.5 45T961 401q0 69-70 104t-227 60l-89 14q-427 67-427 401 0 106 45 192t122.5 140 177.5 83 213 29q148 0 276-35.5t259-113.5zm-893 548h253l122-153 123 153h253l-218-315H566z"/><glyph glyph-name="scaron" unicode="š" horiz-adv-x="1014" d="M920 902l-88-203q-65 32-149 55t-160 24q-73 0-111-23.5T374 690q0-38 39-54.5T532 607l86-13q327-50 327-290 0-151-118-240T500-25Q230-25 69 89l103 198q143-95 330-95 179 0 179 91 0 35-38 56t-123 33l-79 11q-335 46-335 294 0 149 108.5 233T515 994q217 0 405-92zm-764 511h253l122-153 123 153h253l-218-315H374z"/><glyph glyph-name="Ydieresis" unicode="Ÿ" horiz-adv-x="1362" d="M1356 1400L824 552V0H545v553L6 1400h328l352-594 352 594h318zm-887 434q71 0 119.5-49t48.5-119-48.5-118-119.5-48-118.5 48-47.5 118q0 71 48 119.5t118 48.5zm431 0q70 0 119-49t49-119-48.5-118-119.5-48q-70 0-118 48t-48 118q0 71 48 119.5t118 48.5z"/><glyph glyph-name="Zcaron" unicode="Ž" horiz-adv-x="1288" d="M1193 1400v-218L466 257h727V0H95v218l727 925H97v257h1096zm-923 423h253l122-153 123 153h253l-218-315H488z"/><glyph glyph-name="zcaron" unicode="ž" horiz-adv-x="1040" d="M933 969V778L455 233h489V0H96v188l489 549H113v232h820zm-785 444h253l122-153 123 153h253l-218-315H366z"/><glyph glyph-name="longs" unicode="ſ" horiz-adv-x="656" d="M476 1465q168 0 299-87l-105-203q-85 47-166 47-114 0-114-136V0H130v1089q0 174 90 275t256 101z"/><glyph glyph-name="florin" unicode="ƒ" horiz-adv-x="1400" d="M1088 835V615H819l-27-278q-17-178-98-270T454-25q-154 0-276 76l101 197q76-38 149-38 55 0 79 34t31 107l26 264H336v220h250l23 231q18 177 98.5 268t238.5 91q154 0 276-76l-101-197q-76 38-149 38-55 0-79-34t-31-107l-21-214h247z"/><glyph glyph-name="uni0237" unicode="ȷ" horiz-adv-x="539" d="M402 969V-92q0-156-82-242.5T101-421q-87 0-147 26l39 229q33-12 70-12 78 0 78 101V969h261z"/><glyph glyph-name="uni02BB" unicode="ʻ" horiz-adv-x="534" d="M383 844H90l140 596h220z"/><glyph glyph-name="afii57929" unicode="ʼ" horiz-adv-x="534" d="M151 1440h293L304 844H84z"/><glyph glyph-name="uni02BE" unicode="ʾ" horiz-adv-x="543" d="M112 667v223q67 0 115.5 51t48.5 121q0 72-48.5 123T112 1236v220q164 0 279-115t115-279-115.5-279.5T112 667z"/><glyph glyph-name="uni02BF" unicode="ʿ" horiz-adv-x="543" d="M431 1455v-223q-67 0-115.5-51T267 1060q0-72 48.5-123T431 886V666q-163 0-278.5 115T37 1060t115.5 279.5T431 1455z"/><glyph glyph-name="circumflex" unicode="ˆ" horiz-adv-x="1069" d="M911 1098H659l-123 153-122-153H161l218 315h315z"/><glyph glyph-name="caron" unicode="ˇ" horiz-adv-x="1069" d="M161 1413h252l123-153 122 153h253l-218-315H378z"/><glyph glyph-name="breve" unicode="˘" horiz-adv-x="1069" d="M152 1399l199 58q50-164 184-164 133 0 183 164l199-58q-40-153-139-234t-243-81-243 81-140 234z"/><glyph glyph-name="dotaccent" unicode="˙" horiz-adv-x="607" d="M303 1454q70 0 118.5-48.5T470 1286q0-70-48-118t-119-48-118.5 48-47.5 118q0 71 48 119.5t118 48.5z"/><glyph glyph-name="ring" unicode="˚" horiz-adv-x="1000" d="M500 1076q-108 0-184.5 75.5T239 1334q0 106 76.5 181.5T500 1591q109 0 185.5-75.5T762 1334q0-107-76.5-182.5T500 1076zm0 149q44 0 75.5 31.5T607 1334q0 45-31.5 76.5T500 1442q-43 0-74.5-31.5T394 1334q0-46 31.5-77.5T500 1225z"/><glyph glyph-name="ogonek" unicode="˛" horiz-adv-x="1105" d="M810-167l136-148Q834-419 672-419q-128 0-208 65t-80 173q0 101 73 170t213 122l147-99Q708-28 662-65t-46-80q0-30 22-48.5t60-18.5q59 0 112 45z"/><glyph glyph-name="tilde" unicode="˜" horiz-adv-x="1069" d="M281 1121l-138 149q101 131 262 131 61 0 112.5-17.5t88-35T665 1331q52 0 124 67l139-149q-103-132-263-132-60 0-111 17.5t-88 35-61 17.5q-52 0-124-66z"/><glyph glyph-name="hungarumlaut" unicode="˝" horiz-adv-x="1069" d="M739 1108H490l201 315h312zm-424 0H66l201 315h312z"/><glyph glyph-name="gravecomb" unicode="̀" horiz-adv-x="1" d="M-680 1108l-264 315h312l201-315h-249z"/><glyph glyph-name="acutecomb" unicode="́" horiz-adv-x="1" d="M-526 1108h-249l201 315h312z"/><glyph glyph-name="uni0302" unicode="̂" horiz-adv-x="1" d="M-225 1098h-253l-123 153-122-153h-253l218 315h315z"/><glyph glyph-name="tildecomb" unicode="̃" horiz-adv-x="1" d="M-857 1121l-138 149q101 131 262 131 61 0 112.5-17.5t88-35 59.5-17.5q52 0 124 67l139-149q-103-132-263-132-60 0-111 17.5t-88 35-61 17.5q-52 0-124-66z"/><glyph glyph-name="uni0304" unicode="̄" horiz-adv-x="1" d="M-932 1151v209h661v-209h-661z"/><glyph glyph-name="uni0306" unicode="̆" horiz-adv-x="1" d="M-984 1399l199 58q50-164 184-164 132 0 184 164l199-58q-41-153-140-234t-243-81-243 81-140 234z"/><glyph glyph-name="uni0307" unicode="̇" horiz-adv-x="1" d="M-602 1454q70 0 118.5-48.5T-435 1286q0-70-48-118t-119-48q-70 0-118 48t-48 118q0 71 48 119.5t118 48.5z"/><glyph glyph-name="uni0308" unicode="̈" horiz-adv-x="1" d="M-819 1424q71 0 119.5-49t48.5-119-48.5-118-119.5-48-118.5 48-47.5 118q0 71 48 119.5t118 48.5zm431 0q70 0 119-49t49-119-48.5-118-119.5-48q-70 0-118 48t-48 118q0 71 48 119.5t118 48.5z"/><glyph glyph-name="uni030A" unicode="̊" horiz-adv-x="1" d="M-602 1076q-108 0-184.5 75.5T-863 1334q0 106 77 181.5t184 75.5q109 0 186-75.5t77-181.5q0-107-77-182.5t-186-75.5zm0 149q44 0 75.5 31.5t31.5 77.5q0 45-31.5 76.5T-602 1442q-42 0-73.5-31.5T-707 1334q0-46 31-77.5t74-31.5z"/><glyph glyph-name="uni030B" unicode="̋" horiz-adv-x="1" d="M-293 1108h-254l217 315h284zm-377 0h-252l193 315h277z"/><glyph glyph-name="uni030C" unicode="̌" horiz-adv-x="1" d="M-976 1413h253l122-153 123 153h253l-218-315h-315z"/><glyph glyph-name="uni0312" unicode="̒" horiz-adv-x="1" d="M-472 1108h-266l92 389h216z"/><glyph glyph-name="dotbelowcomb" unicode="̣" horiz-adv-x="1" d="M-600-103q70 0 118.5-48.5T-433-271q0-70-48-118t-119-48q-70 0-118 47.5T-766-271t48 119.5 118 48.5z"/><glyph glyph-name="uni0326" unicode="̦" horiz-adv-x="1" d="M-719-84h265l-92-389h-216z"/><glyph glyph-name="uni0327" unicode="̧" horiz-adv-x="1" d="M-422 7l-103-328h-252L-666 7h244z"/><glyph glyph-name="uni0328" unicode="̨" horiz-adv-x="1" d="M-451-167l136-148q-112-104-275-104-130 0-212.5 61T-885-200q0 105 84 172.5T-551 95l65-55q-89-47-124-91.5t-35-91.5q0-31 22.5-50t60.5-19q58 0 111 45z"/><glyph glyph-name="uni032E" unicode="̮" horiz-adv-x="1" d="M-983-133l199 58q50-164 184-164 132 0 184 164l199-58q-41-153-140-234t-243-81-243 81-140 234z"/><glyph glyph-name="uni0331" unicode="̱" horiz-adv-x="1" d="M-931-367v210h662v-210h-662z"/><glyph glyph-name="uni0335" unicode="̵" horiz-adv-x="1" d="M-231 636V418h-740v218h740z"/><glyph glyph-name="uni0336" unicode="̶" horiz-adv-x="1" d="M159 636V418h-1520v218H159z"/><glyph glyph-name="uni0394" unicode="Δ" horiz-adv-x="1387" d="M863 1400l460-1182V0H64v218l460 1182h339zm-170-275L369 261h648z"/><glyph glyph-name="uni03A9" unicode="Ω" horiz-adv-x="1702" d="M64 254h252q-96 90-148 210t-52 259q0 200 93 360.5T470.5 1335t380.5 91 380.5-91 261.5-251.5 93-360.5q0-139-52-259t-148-210h252V0H993v226q138 44 220 166t82 292q0 210-124.5 342T851 1158t-319.5-132T407 684q0-170 82-292t220-166V0H64v254z"/><glyph glyph-name="uni03BC" unicode="μ" horiz-adv-x="1182" d="M382-400H129V969h261V436q0-104 49.5-160.5T579 219q89 0 147 57t58 162v531h261V0H791v114Q697-26 506-26q-67 0-124 18v-392z"/><glyph glyph-name="pi" unicode="π" horiz-adv-x="1184" d="M1055 969V0H795v737H398V0H137v969h918z"/><glyph glyph-name="uni1E9E" unicode="ẞ" horiz-adv-x="1447" d="M662 572v198l280 339q-76 57-218 57-144 0-222.5-74T423 895V0H143v906q0 81 20 155t65 141 112 116 166.5 78 222.5 29q201 0 339.5-67.5T1305 1165L990 791q167-37 266-139t99-251q0-194-151.5-310T816-25Q662-25 558 0l50 254q78-21 165-21 142 0 216 42.5t74 125.5q0 84-76.5 127.5T766 572H662z"/><glyph glyph-name="uni2007" horiz-adv-x="1412"/><glyph glyph-name="uni2008" horiz-adv-x="554"/><glyph glyph-name="uni2009" horiz-adv-x="165"/><glyph glyph-name="uni200B" unicode="​" horiz-adv-x="0"/><glyph glyph-name="uni2010" unicode="‐" horiz-adv-x="813" d="M702 646V418H111v228h591z"/><glyph glyph-name="uni2011" unicode="‑" horiz-adv-x="813" d="M702 646V418H111v228h591z"/><glyph glyph-name="figuredash" unicode="‒" d="M1084 644V421H116v223h968z"/><glyph glyph-name="endash" unicode="–" horiz-adv-x="1158" d="M1063 644V421H95v223h968z"/><glyph glyph-name="emdash" unicode="—" horiz-adv-x="1596" d="M1548 644V421H48v223h1500z"/><glyph glyph-name="quoteleft" unicode="‘" horiz-adv-x="534" d="M383 844H90l140 596h220z"/><glyph glyph-name="quoteright" unicode="’" horiz-adv-x="534" d="M151 1440h293L304 844H84z"/><glyph glyph-name="quotesinglbase" unicode="‚" horiz-adv-x="534" d="M151 316h293L304-280H84z"/><glyph glyph-name="quotedblleft" unicode="“" horiz-adv-x="968" d="M383 844H90l140 596h220zm434 0H524l140 596h220z"/><glyph glyph-name="quotedblright" unicode="”" horiz-adv-x="967" d="M584 1440h293L737 844H517zm-433 0h293L304 844H84z"/><glyph glyph-name="quotedblbase" unicode="„" horiz-adv-x="967" d="M584 316h293L737-280H517zm-433 0h293L304-280H84z"/><glyph glyph-name="dagger" unicode="†" horiz-adv-x="796" d="M500 602H296v422H80v199h216v217h204v-217h216v-199H500V602z"/><glyph glyph-name="daggerdbl" unicode="‡" horiz-adv-x="796" d="M500 1440v-166h216v-191H500V952h216V761H500V595H296v166H80v191h216v131H80v191h216v166h204z"/><glyph glyph-name="bullet" unicode="•" horiz-adv-x="883" d="M442 849q131 0 224-92.5T759 532t-93-224.5T442 215q-132 0-224.5 92.5T125 532t92.5 224.5T442 849z"/><glyph glyph-name="uni2023" unicode="‣" horiz-adv-x="1005" d="M923 533L179 101v862z"/><glyph glyph-name="ellipsis" unicode="…" horiz-adv-x="1661" d="M278 363q77 0 135-57.5T471 170q0-79-58-137T278-25q-78 0-136.5 58T83 170q0 78 58.5 135.5T278 363zm553 0q77 0 135-57.5t58-135.5q0-79-58-137T831-25q-78 0-136.5 58T636 170q0 78 58.5 135.5T831 363zm554 0q77 0 135-57.5t58-135.5q0-79-58-137t-135-58q-79 0-137 58t-58 137q0 78 58 135.5t137 57.5z"/><glyph glyph-name="perthousand" unicode="‰" horiz-adv-x="2835" d="M464 1425q168 0 279.5-108.5T855 1044q0-165-111.5-274T464 661q-167 0-278.5 109T74 1044q0 163 111.5 272T464 1425zm0-209q-72 0-120-48.5T296 1044q0-76 48-125t120-49q74 0 121.5 49t47.5 125q0 75-47.5 123.5T464 1216zm1124 184L650 0H388l939 1400h261zm-73-661q167 0 279-110t112-272q0-164-111.5-273T1515-25q-167 0-278.5 109T1125 357q0 162 111.5 272T1515 739zm0-209q-73 0-120.5-48.5T1347 357t47.5-124.5T1515 184q74 0 121.5 48.5T1684 357t-47.5 124.5T1515 530zm855 209q169 0 280.5-109T2762 357 2650.5 84 2370-25q-167 0-278 109t-111 273q0 163 111 272.5T2370 739zm0-209q-72 0-119.5-49T2203 357t47.5-124 119.5-49q74 0 122 48.5t48 124.5-48 124.5-122 48.5z"/><glyph glyph-name="minute" unicode="′" horiz-adv-x="566" d="M229 1400h247L331 719H84z"/><glyph glyph-name="second" unicode="″" horiz-adv-x="944" d="M607 1400h247L709 719H462zm-378 0h247L331 719H84z"/><glyph glyph-name="uni2034" unicode="‴" horiz-adv-x="1282" d="M587 1400h247L689 719H442zm358 0h247l-145-681H800zm-716 0h247L331 719H84z"/><glyph glyph-name="guilsinglleft" unicode="‹" horiz-adv-x="638" d="M351 532l193-390H281L88 532l193 390h263z"/><glyph glyph-name="guilsinglright" unicode="›" horiz-adv-x="638" d="M287 533L94 923h263l193-390-193-390H94z"/><glyph glyph-name="fraction" unicode="⁄" horiz-adv-x="476" d="M800 1400L-83 0h-241l883 1400h241z"/><glyph glyph-name="uni2070" unicode="⁰" horiz-adv-x="901" d="M450 1414q159 0 264.5-115.5T820 989q0-195-105.5-310.5T450 563 186 678.5 81 989q0 194 105.5 309.5T450 1414zm0-188q-72 0-118-62t-46-175 46-175.5T450 751q73 0 119 62.5T615 989t-46 175-119 62z"/><glyph glyph-name="uni2071" unicode="ⁱ" horiz-adv-x="393" d="M293 1268V578H100v690h193zm-97 345q52 0 87-34.5t35-86.5-35-87-87-35-86.5 35-34.5 87 34.5 86.5T196 1613z"/><glyph glyph-name="uni2074" unicode="⁴" horiz-adv-x="733" d="M597 1114V893h104V716H597V578H400v138H32v138l271 545h216L264 893h136v101l60 120h137z"/><glyph glyph-name="uni2075" unicode="⁵" horiz-adv-x="747" d="M623 1400v-180H297l-3-125h71q147 0 228-67t81-178q0-130-89.5-208.5T355 563q-93 0-171 30.5T53 675l103 140q35-29 89.5-51T354 742q56 0 86 25t30 68q0 90-146 90H117l11 475h495z"/><glyph glyph-name="uni2076" unicode="⁶" horiz-adv-x="754" d="M590 1400l-201-276h12q138 0 219-78t81-195q0-125-93-206.5T375 563q-139 0-232.5 80T49 845q0 110 84 231l221 324h236zM375 961q-52 0-86-31.5T255 849t34-81 86-32 86 32 34 81-34 80.5-86 31.5z"/><glyph glyph-name="uni2077" unicode="⁷" horiz-adv-x="696" d="M655 1400v-154L327 578H93l329 639H49v183h606z"/><glyph glyph-name="uni2078" unicode="⁸" horiz-adv-x="810" d="M404 1414q135 0 225-64t90-173q0-126-126-184 147-57 147-191 0-109-96.5-174T404 563t-239 65-96 174q0 134 146 191-125 58-125 184 0 109 90 173t224 64zm0-496q-52 0-86-25t-34-68q0-45 34-70.5t86-25.5q53 0 87.5 25.5T526 825q0 43-34.5 68T404 918zm0 328q-46 0-75.5-23t-29.5-64q0-40 29.5-63t75.5-23 76 23 30 63q0 41-29.5 64t-76.5 23z"/><glyph glyph-name="uni2079" unicode="⁹" horiz-adv-x="754" d="M163 578l200 276h-11q-138 0-219 77.5T52 1127q0 124 93 205.5t233 81.5q139 0 232.5-79.5T704 1133q0-112-83-232L399 578H163zm215 439q52 0 86 31.5t34 80.5-34 80.5-86 31.5-86-31.5-34-80.5 34-80.5 86-31.5z"/><glyph glyph-name="uni207F" unicode="ⁿ" horiz-adv-x="848" d="M488 1287q117 0 191.5-74.5T754 1019V578H559v379q0 72-33.5 110t-94.5 38q-60 0-99-38.5T293 956V578H99v690h188v-80q66 99 201 99z"/><glyph glyph-name="uni2080" unicode="₀" horiz-adv-x="901" d="M450 451q159 0 264.5-115.5T820 26q0-195-105.5-310.5T450-400 186-284.5 81 26q0 194 105.5 309.5T450 451zm0-188q-72 0-118-62T286 26t46-175.5T450-212q73 0 119 62.5T615 26t-46 175-119 62z"/><glyph glyph-name="uni2081" unicode="₁" horiz-adv-x="553" d="M423 450v-835H226v565L41 112v192z"/><glyph glyph-name="uni2082" unicode="₂" horiz-adv-x="725" d="M172 177L53 306q118 145 306 145 133 0 212-72.5T650 186q0-71-30.5-128T519-66L375-203h294v-182H96v154L385 44q61 58 61 120 0 44-30.5 71.5T338 263q-49 0-87.5-22.5T172 177z"/><glyph glyph-name="uni2083" unicode="₃" horiz-adv-x="730" d="M333 451q138 0 224-65t86-172q0-128-121-185 66-26 102.5-74T661-157q0-116-94.5-179.5T338-400q-193 0-297 121l110 128q73-75 177-75 56 0 92 22t36 64q0 41-41 63.5T312-54h-94v167h96q55 0 90.5 22.5T440 197t-31 59.5-84 20.5q-102 0-171-77L44 327q108 124 289 124z"/><glyph glyph-name="uni2084" unicode="₄" horiz-adv-x="733" d="M597 151V-70h104v-177H597v-138H400v138H32v138l271 545h216L264-70h136V31l60 120h137z"/><glyph glyph-name="uni2085" unicode="₅" horiz-adv-x="747" d="M623 437V257H297l-3-125h71q147 0 228-67t81-178q0-130-89.5-208.5T355-400q-93 0-171 30.5T53-288l103 140q35-29 89.5-51T354-221q56 0 86 25t30 68q0 90-146 90H117l11 475h495z"/><glyph glyph-name="uni2086" unicode="₆" horiz-adv-x="754" d="M590 437L389 161h12q138 0 219-78t81-195q0-125-93-206.5T375-400q-139 0-232.5 80T49-118q0 110 84 231l221 324h236zM375-2q-52 0-86-31.5T255-114t34-81 86-32 86 32 34 81-34 80.5T375-2z"/><glyph glyph-name="uni2087" unicode="₇" horiz-adv-x="696" d="M655 437V283L327-385H93l329 639H49v183h606z"/><glyph glyph-name="uni2088" unicode="₈" horiz-adv-x="810" d="M404 451q135 0 225-64t90-173q0-126-126-184 147-57 147-191 0-109-96.5-174T404-400t-239 65-96 174Q69-27 215 30 90 88 90 214q0 109 90 173t224 64zm0-496q-52 0-86-25t-34-68q0-45 34-70.5t86-25.5q53 0 87.5 25.5T526-138q0 43-34.5 68T404-45zm0 328q-46 0-75.5-23T299 196q0-40 29.5-63t75.5-23 76 23 30 63q0 41-29.5 64T404 283z"/><glyph glyph-name="uni2089" unicode="₉" horiz-adv-x="754" d="M163-385l200 276h-11q-138 0-219 77.5T52 164q0 124 93 205.5T378 451q139 0 232.5-79.5T704 170q0-112-83-232L399-385H163zM378 54q52 0 86 31.5t34 80.5-34 80.5-86 31.5-86-31.5-34-80.5 34-80.5T378 54z"/><glyph glyph-name="Euro" unicode="€" horiz-adv-x="1400" d="M1043 633V448H536q47-109 134.5-168.5T871 220q177 0 304 142l148-194Q1140-25 873-25q-232 0-397 126T249 448H75v185h144q-2 22-2 67t2 67H75v185h174q62 221 227 347t397 126q270 0 454-190l-154-198q-126 143-303 143-114 0-201-60T535 952h508V767H491q-3-33-3-67 0-36 3-67h552z"/><glyph glyph-name="uni20BA" unicode="₺" horiz-adv-x="1400" d="M1001 859V662L580 472V256h164q111 0 194.5 55T1089 486l219-130q-101-181-241-268.5T725 0H310v350l-168-75v197l168 75v131l-168-75v197l168 75v527h270V997l421 190V990L580 800V669z"/><glyph glyph-name="uni2100" unicode="℀" horiz-adv-x="2000" d="M505 1425q150 0 236.5-77t86.5-226V716H641v68q-84-86-208-86-113 0-178.5 61T189 920q0 98 77 155t212 57h154q-11 123-148 123-97 0-188-64l-75 147q115 87 284 87zm-24-573q90 0 156 75v77H507q-60 0-88.5-22T390 928t23-54 68-22zm1120 548L718 0H477l883 1400h241zm-71-698q88 0 160.5-35T1811 567l-144-114q-59 68-142 68-71 0-118.5-50.5T1359 339q0-82 47-132.5t118-50.5q84 0 145 69l142-115Q1708-25 1530-25q-164 0-266.5 102.5T1161 339t102.5 261T1530 702z"/><glyph glyph-name="uni2101" unicode="℁" horiz-adv-x="2000" d="M510 1425q150 0 236.5-77t86.5-226V716H646v68q-84-86-208-86-113 0-178.5 61T194 920q0 98 77 155t212 57h154q-11 123-148 123-97 0-188-64l-75 147q115 87 284 87zm-24-573q90 0 156 75v77H512q-60 0-88.5-22T395 928t23-54 68-22zm1120 548L723 0H482l883 1400h241zm176-764l-62-150q-120 55-222 55-100 0-100-58 0-26 27-37t85-19l59-9q231-36 231-207 0-110-84-173t-234-63q-196 0-310 79l75 148q102-67 237-67 120 0 120 60 0 24-26.5 37.5T1490 255l-52 7q-240 34-240 211 0 108 78 168t216 60q150 0 290-65z"/><glyph glyph-name="afii61248" unicode="℅" horiz-adv-x="2000" d="M524 1425q88 0 160.5-35T805 1290l-144-114q-59 68-142 68-71 0-118.5-50.5T353 1062q0-82 47-132.5T518 879q84 0 145 69l142-115Q702 698 524 698q-164 0-266.5 102.5T155 1062t102.5 261T524 1425zm1023-25L664 0H423l883 1400h241zm-74-698q161 0 267-103.5T1846 339 1740 79 1473-25 1205.5 79 1099 339t106.5 259.5T1473 702zm0-181q-76 0-126-51t-50-131 50-131.5 126-51.5 126 51.5 50 131.5-50 131-126 51z"/><glyph glyph-name="uni2106" unicode="℆" horiz-adv-x="2000" d="M515 1425q88 0 160.5-35T796 1290l-144-114q-59 68-142 68-71 0-118.5-50.5T344 1062q0-82 47-132.5T509 879q84 0 145 69l142-115Q693 698 515 698q-164 0-266.5 102.5T146 1062t102.5 261T515 1425zm1024-25L656 0H415l883 1400h241zm315-717V288q0-155-93-234t-235-79q-67 0-125 18.5T1297 49t-72.5 98.5T1198 288v395h194V305q0-75 36.5-112t97.5-37q62 0 98.5 37t36.5 112v378h193z"/><glyph glyph-name="afii61289" unicode="ℓ" horiz-adv-x="1045" d="M178 366l-77 219q74 26 154 62l2 426q1 174 98 283t258 109q147 0 242-93.5t95-240.5q-1-366-450-619V361q0-72 37-108.5t97-36.5q86 0 186 64L922 82Q781-17 615-17q-172 0-266 93.5T255 352v43zm323 697l-1-273q205 155 205 330 0 55-24 86t-68 31q-50 0-81-45t-31-129z"/><glyph glyph-name="afii61352" unicode="№" horiz-adv-x="2441" d="M2360 582V365h-707v217h707zm-354 837q161 0 267.5-104t106.5-260-106.5-259.5T2006 692q-160 0-266 103.5T1634 1055t106 260 266 104zm0-186q-73 0-122-50t-49-128q0-77 49-127.5t122-50.5q74 0 123 50t49 128-49 128-123 50zm-595 167V0h-262L439 935 438 0H159v1400h261l711-935v935h280z"/><glyph glyph-name="uni2117" unicode="℗" horiz-adv-x="1865" d="M933 1519q168 0 320-64t262-172.5 175-258 65-313.5-65-314-175-258.5-262-173T933-99 612.5-34.5 350 138.5 175 397t-65 314q0 131 41.5 254.5T269 1188t177 174 227 116 260 41zm0-221q-161 0-297.5-78.5t-216-213.5T340 711t79.5-296 216-214.5T933 122q120 0 230 46.5T1352 294t126 188 47 229-47 228.5-126 187-189 125-230 46.5zm-309-181h375q167 0 258-75.5t91-203.5q0-125-90.5-199T1001 565H839V293H624v824zm371-188H839V748h156q134 0 134 90 0 44-34 67.5T995 929z"/><glyph glyph-name="uni2120" unicode="℠" horiz-adv-x="1643" d="M657 1350l-71-135q-109 50-193 50-52 0-84-14t-32-40q0-14 10-24t34.5-16.5 41.5-9.5 56-8l31-4q105-12 165-59t60-123q0-114-86-171t-211-57q-183 0-298 74l80 135q106-61 219-61 118 0 118 55 0 27-31.5 38.5T358 1000l-36 4q-108 11-166 59.5T98 1195q0 97 80.5 157t207.5 60q145 0 271-62zm922-597h-178v419l-131-359h-178l-133 360V753H782v647h249l150-388 149 388h249V753z"/><glyph glyph-name="trademark" unicode="™" horiz-adv-x="1620" d="M1556 753h-178v419l-131-359h-178l-134 360V753H759v647h249l150-388 149 388h249V753zm-1111 0H268v485H64v162h585v-162H445V753z"/><glyph glyph-name="Omega" unicode="Ω" horiz-adv-x="1702" d="M64 254h252q-96 90-148 210t-52 259q0 200 93 360.5T470.5 1335t380.5 91 380.5-91 261.5-251.5 93-360.5q0-139-52-259t-148-210h252V0H993v226q138 44 220 166t82 292q0 210-124.5 342T851 1158t-319.5-132T407 684q0-170 82-292t220-166V0H64v254z"/><glyph glyph-name="estimated" unicode="℮" horiz-adv-x="2000" d="M503 650V344q0-93 31-158.5T639 78q166-95 361-95 185 0 340 80t251 224l81-62Q1562 63 1385-27.5T1000-118q-166 0-315 59.5t-258.5 165-174 259.5T188 700t64.5 334 174 259.5 258.5 165 315 59.5 315-59.5 258.5-165 174-259.5 64.5-334q0-34-2-50H503zm0 100h1006v296q0 92-30 157t-102 109q-173 105-377 105-195 0-361-95-74-42-105-107.5T503 1056V750z"/><glyph glyph-name="uni214D" unicode="⅍" horiz-adv-x="2053" d="M635 1400l265-743H695l-42 133H384l-41-133H140l265 743h230zm1239-714l-80-158q-106 57-213 57-54 0-87.5-15t-33.5-43q0-8 2.5-14t8.5-11 11.5-9 16.5-7.5 19-5.5 23-4.5l24-4 26.5-4.5 27.5-4 30-5q246-38 246-211 0-89-49-149.5T1725.5 12 1566-13q-203 0-330 85l90 156q123-71 243-71 55 0 88 15.5t33 46.5q0 29-32.5 41T1540 283l-37 5q-247 30-247 221 0 111 87.5 179t227.5 68q95 0 162.5-17t140.5-53zM519 1218l-80-254h160zm1140 182L776 0H535l883 1400h241z"/><glyph glyph-name="uni2150" unicode="⅐" horiz-adv-x="1786" d="M1380 1400L497 0H256l883 1400h241zm365-578V668L1417 0h-234l329 639h-373v183h606zM423 1413V578H226v565l-185-68v192z"/><glyph glyph-name="uni2151" unicode="⅑" horiz-adv-x="1810" d="M1380 1400L497 0H256l883 1400h241zM1219 0l200 276h-11q-138 0-219 77.5T1108 549q0 124 93 205.5t233 81.5q139 0 232.5-79.5T1760 555q0-112-83-232L1455 0h-236zm215 439q52 0 86 31.5t34 80.5-34 80.5-86 31.5-86-31.5-34-80.5 34-80.5 86-31.5zM423 1413V578H226v565l-185-68v192z"/><glyph glyph-name="uni2152" unicode="⅒" horiz-adv-x="2530" d="M1380 1400L497 0H256l883 1400h241zm119-565V0h-197v565l-185-68v192zm580 1q159 0 264.5-115.5T2449 411q0-195-105.5-310.5T2079-15t-264 115.5T1710 411q0 194 105.5 309.5T2079 836zm0-188q-72 0-118-62t-46-175 46-175.5 118-62.5q73 0 119 62.5t46 175.5-46 175-119 62zM423 1413V578H226v565l-185-68v192z"/><glyph glyph-name="onethird" unicode="⅓" horiz-adv-x="1786" d="M1380 1400L497 0H256l883 1400h241zm9-564q138 0 224-65t86-172q0-128-121-185 66-26 102.5-74t36.5-112q0-116-94.5-179.5T1394-15q-193 0-297 121l110 128q73-75 177-75 56 0 92 22t36 64q0 41-41 63.5T1368 331h-94v167h96q55 0 90.5 22.5T1496 582t-31 59.5-84 20.5q-102 0-171-77l-110 127q108 124 289 124zm-966 577V578H226v565l-185-68v192z"/><glyph glyph-name="twothirds" unicode="⅔" horiz-adv-x="1962" d="M1555 1400L672 0H431l883 1400h241zm9-564q138 0 224-65t86-172q0-128-121-185 66-26 102.5-74t36.5-112q0-116-94.5-179.5T1569-15q-193 0-297 121l110 128q73-75 177-75 56 0 92 22t36 64q0 41-41 63.5T1543 331h-94v167h96q55 0 90.5 22.5T1671 582t-31 59.5-84 20.5q-102 0-171-77l-110 127q109 124 289 124zM172 1140L53 1269q118 145 306 145 133 0 212-72.5t79-192.5q0-71-30.5-128T519 897L375 760h294V578H96v154l289 275q61 58 61 120 0 44-30.5 71.5T338 1226q-49 0-87.5-22.5T172 1140z"/><glyph glyph-name="uni2155" unicode="⅕" horiz-adv-x="1803" d="M1380 1400L497 0H256l883 1400h241zm299-578V642h-326l-3-125h71q147 0 228-67t81-178q0-130-89.5-208.5T1411-15q-93 0-171 30.5T1109 97l103 140q35-29 89.5-51t108.5-22q56 0 86 25t30 68q0 90-146 90h-207l11 475h495zM423 1413V578H226v565l-185-68v192z"/><glyph glyph-name="uni2156" unicode="⅖" horiz-adv-x="1978" d="M1555 1400L672 0H431l883 1400h241zm299-578V642h-326l-3-125h71q147 0 228-67t81-178q0-130-89.5-208.5T1586-15q-93 0-171 30.5T1284 97l103 140q35-29 89.5-51t108.5-22q56 0 86 25t30 68q0 90-146 90h-207l11 475h495zM172 1140L53 1269q118 145 306 145 133 0 212-72.5t79-192.5q0-71-30.5-128T519 897L375 760h294V578H96v154l289 275q61 58 61 120 0 44-30.5 71.5T338 1226q-49 0-87.5-22.5T172 1140z"/><glyph glyph-name="uni2157" unicode="⅗" horiz-adv-x="1953" d="M1530 1400L647 0H406l883 1400h241zm299-578V642h-326l-3-125h71q147 0 228-67t81-178q0-130-89.5-208.5T1561-15q-93 0-171 30.5T1259 97l103 140q35-29 89.5-51t108.5-22q56 0 86 25t30 68q0 90-146 90h-207l11 475h495zM333 1414q138 0 224-65t86-172q0-128-121-185 66-26 102.5-74T661 806q0-116-94.5-179.5T338 563q-193 0-297 121l110 128q73-75 177-75 56 0 92 22t36 64q0 41-41 63.5T312 909h-94v167h96q55 0 90.5 22.5T440 1160t-31 59.5-84 20.5q-102 0-171-77L44 1290q108 124 289 124z"/><glyph glyph-name="uni2158" unicode="⅘" horiz-adv-x="1958" d="M1536 1400L653 0H412l883 1400h241zm299-578V642h-326l-3-125h71q147 0 228-67t81-178q0-130-89.5-208.5T1567-15q-93 0-171 30.5T1265 97l103 140q35-29 89.5-51t108.5-22q56 0 86 25t30 68q0 90-146 90h-207l11 475h495zM597 1114V893h104V716H597V578H400v138H32v138l271 545h216L264 893h136v101l60 120h137z"/><glyph glyph-name="uni2159" unicode="⅙" horiz-adv-x="1723" d="M1380 1400L497 0H256l883 1400h241zm179-578l-201-276h12q138 0 219-78t81-195q0-125-93-206.5T1344-15q-139 0-232.5 80T1018 267q0 110 84 231l221 324h236zm-215-439q-52 0-86-31.5t-34-80.5 34-81 86-32 86 32 34 81-34 80.5-86 31.5zM423 1413V578H226v565l-185-68v192z"/><glyph glyph-name="uni215A" unicode="⅚" horiz-adv-x="1883" d="M1540 1400L657 0H416l883 1400h241zm178-578l-201-276h12q138 0 219-78t81-195q0-125-93-206.5T1503-15q-139 0-232.5 80T1177 267q0 110 84 231l221 324h236zm-215-439q-52 0-86-31.5t-34-80.5 34-81 86-32 86 32 34 81-34 80.5-86 31.5zM623 1400v-180H297l-3-125h71q147 0 228-67t81-178q0-130-89.5-208.5T355 563q-93 0-171 30.5T53 675l103 140q35-29 89.5-51T354 742q56 0 86 25t30 68q0 90-146 90H117l11 475h495z"/><glyph glyph-name="oneeighth" unicode="⅛" horiz-adv-x="1846" d="M1380 1400L497 0H256l883 1400h241zm60-564q135 0 225-64t90-173q0-126-126-184 147-57 147-191 0-109-96.5-174T1440-15t-239 65-96 174q0 134 146 191-125 58-125 184 0 109 90 173t224 64zm0-496q-52 0-86-25t-34-68q0-45 34-70.5t86-25.5q53 0 87.5 25.5T1562 247q0 43-34.5 68t-87.5 25zm0 328q-46 0-75.5-23t-29.5-64q0-40 29.5-63t75.5-23 76 23 30 63q0 41-29.5 64t-76.5 23zM423 1413V578H226v565l-185-68v192z"/><glyph glyph-name="threeeighths" unicode="⅜" horiz-adv-x="1996" d="M1530 1400L647 0H406l883 1400h241zm60-564q135 0 225-64t90-173q0-126-126-184 147-57 147-191 0-109-96.5-174T1590-15t-239 65-96 174q0 134 146 191-125 58-125 184 0 109 90 173t224 64zm0-496q-52 0-86-25t-34-68q0-45 34-70.5t86-25.5q53 0 87.5 25.5T1712 247q0 43-34.5 68t-87.5 25zm0 328q-46 0-75.5-23t-29.5-64q0-40 29.5-63t75.5-23 76 23 30 63q0 41-29.5 64t-76.5 23zM333 1414q138 0 224-65t86-172q0-128-121-185 66-26 102.5-74T661 806q0-116-94.5-179.5T338 563q-193 0-297 121l110 128q73-75 177-75 56 0 92 22t36 64q0 41-41 63.5T312 909h-94v167h96q55 0 90.5 22.5T440 1160t-31 59.5-84 20.5q-102 0-171-77L44 1290q108 124 289 124z"/><glyph glyph-name="fiveeighths" unicode="⅝" horiz-adv-x="2005" d="M1540 1400L657 0H416l883 1400h241zm59-564q135 0 225-64t90-173q0-126-126-184 147-57 147-191 0-109-96.5-174T1599-15t-239 65-96 174q0 134 146 191-125 58-125 184 0 109 90 173t224 64zm0-496q-52 0-86-25t-34-68q0-45 34-70.5t86-25.5q53 0 87.5 25.5T1721 247q0 43-34.5 68t-87.5 25zm0 328q-46 0-75.5-23t-29.5-64q0-40 29.5-63t75.5-23 76 23 30 63q0 41-29.5 64t-76.5 23zm-976 732v-180H297l-3-125h71q147 0 228-67t81-178q0-130-89.5-208.5T355 563q-93 0-171 30.5T53 675l103 140q35-29 89.5-51T354 742q56 0 86 25t30 68q0 90-146 90H117l11 475h495z"/><glyph glyph-name="seveneighths" unicode="⅞" horiz-adv-x="1841" d="M1376 1400L493 0H252l883 1400h241zm60-564q135 0 225-64t90-173q0-126-126-184 147-57 147-191 0-109-96.5-174T1436-15t-239 65-96 174q0 134 146 191-125 58-125 184 0 109 90 173t224 64zm0-496q-52 0-86-25t-34-68q0-45 34-70.5t86-25.5q53 0 87.5 25.5T1558 247q0 43-34.5 68t-87.5 25zm0 328q-46 0-75.5-23t-29.5-64q0-40 29.5-63t75.5-23 76 23 30 63q0 41-29.5 64t-76.5 23zm-781 732v-154L327 578H93l329 639H49v183h606z"/><glyph glyph-name="uni215F" unicode="⅟" horiz-adv-x="1056" d="M1380 1400L497 0H256l883 1400h241zm-957 13V578H226v565l-185-68v192z"/><glyph glyph-name="uni2189" unicode="↉" horiz-adv-x="2051" d="M1645 1400L762 0H521l883 1400h241zm9-564q138 0 224-65t86-172q0-128-121-185 66-26 102.5-74t36.5-112q0-116-94.5-179.5T1659-15q-193 0-297 121l110 128q73-75 177-75 56 0 92 22t36 64q0 41-41 63.5T1633 331h-94v167h96q55 0 90.5 22.5T1761 582t-31 59.5-84 20.5q-102 0-171-77l-110 127q109 124 289 124zM450 1414q159 0 264.5-115.5T820 989q0-195-105.5-310.5T450 563 186 678.5 81 989q0 194 105.5 309.5T450 1414zm0-188q-72 0-118-62t-46-175 46-175.5T450 751q73 0 119 62.5T615 989t-46 175-119 62z"/><glyph glyph-name="arrowleft" unicode="←" horiz-adv-x="2000" d="M1829 548H859q-165 0-284 8 95-77 264-242l147-146L825 7 171 662l654 654 161-161-147-145Q682 855 575 767q119 9 284 9h970V548z"/><glyph glyph-name="arrowup" unicode="↑" horiz-adv-x="2000" d="M886-124v970q0 165 8 284-86-106-242-264L506 719 346 880l654 654 654-654-160-161-146 147q-156 158-242 264 8-119 8-284v-970H886z"/><glyph glyph-name="arrowright" unicode="→" horiz-adv-x="2000" d="M171 776h970q165 0 284-9-107 88-264 243l-147 145 161 161 654-654L1175 7l-161 161 147 146q169 165 264 242-119-8-284-8H171v228z"/><glyph glyph-name="arrowdown" unicode="↓" horiz-adv-x="2000" d="M1114 1534V564q0-165-8-284 86 106 242 264l146 147 160-161-654-654-654 654 160 161 146-147q156-158 242-264-8 119-8 284v970h228z"/><glyph glyph-name="uni2196" unicode="↖" horiz-adv-x="2000" d="M1465 11L779 698Q641 838 584 904q13-133 15-358l1-207H373v926h925v-228l-207 1q-225 2-358 16 104-91 206-195l687-687z"/><glyph glyph-name="uni2197" unicode="↗" horiz-adv-x="2000" d="M333 156l686 686q103 105 206 195-132-13-357-15l-207-1v227h926V323h-228l1 207q0 206 15 358-78-90-194-206L494-5z"/><glyph glyph-name="uni2198" unicode="↘" horiz-adv-x="2000" d="M495 1329l686-687q117-117 195-206-14 131-16 358l-1 207h228V75H661v228l207-1q225-2 358-16-104 91-206 195l-687 687z"/><glyph glyph-name="uni2199" unicode="↙" horiz-adv-x="2000" d="M1627 1150L941 464Q838 359 735 269q151 15 358 15l206 1V58H373v925h228l-1-206q0-205-15-358 64 74 194 206l687 687z"/><glyph glyph-name="partialdiff" unicode="∂" horiz-adv-x="1191" d="M263 1270l138 185q150-59 271.5-143.5t203-179.5 136-204.5 79-218T1115 489q0-222-147.5-368T590-25q-222 0-370 137.5T72 456q0 209 134.5 348T541 943q139 0 243-85-133 243-521 412zm333-557q-111 0-184-70.5T339 460q0-110 73-181t184-71 184 71 73 181q0 112-73 182.5T596 713z"/><glyph glyph-name="uni2300" unicode="∅" horiz-adv-x="1403" d="M1086 1062l158-157-115-114q79-125 79-271 0-137-68-253.5T955.5 82 701 14q-146 0-270 78L316-22 159 135l114 114q-79 123-79 271 0 137 68 254t184.5 185 254.5 68q146 0 271-79zM417 520q0-63 27-122l378 378q-58 28-121 28-118 0-201-83.5T417 520zm284-283q117 0 200.5 83T985 520q0 62-27 119L583 263q55-26 118-26z"/><glyph glyph-name="uni2300" unicode="⌀" horiz-adv-x="1403" d="M1086 1062l158-157-115-114q79-125 79-271 0-137-68-253.5T955.5 82 701 14q-146 0-270 78L316-22 159 135l114 114q-79 123-79 271 0 137 68 254t184.5 185 254.5 68q146 0 271-79zM417 520q0-63 27-122l378 378q-58 28-121 28-118 0-201-83.5T417 520zm284-283q117 0 200.5 83T985 520q0 62-27 119L583 263q55-26 118-26z"/><glyph glyph-name="Delta" unicode="∆" horiz-adv-x="1387" d="M863 1400l460-1182V0H64v218l460 1182h339zm-170-275L369 261h648z"/><glyph glyph-name="product" unicode="∏" horiz-adv-x="1474" d="M1315 1400V-265h-279v1404H438V-265H159v1665h1156z"/><glyph glyph-name="summation" unicode="∑" horiz-adv-x="1273" d="M1175 1400v-261H502l443-482V495L495-4h683v-261H95v218l560 618-556 611v218h1076z"/><glyph glyph-name="minus" unicode="−" d="M1060 644V421H140v223h920z"/><glyph glyph-name="uni2219" unicode="∙" d="M600 849q131 0 224-92.5T917 532t-93-224.5T600 215q-132 0-224.5 92.5T283 532t92.5 224.5T600 849z"/><glyph glyph-name="radical" unicode="√" horiz-adv-x="1308" d="M1287 1440L734-265H394L18 735h302L564 55l432 1385h291z"/><glyph glyph-name="infinity" unicode="∞" horiz-adv-x="1720" d="M41 524q0 188 120.5 304.5T453 945q48 0 93-13.5t81.5-33.5 79-56 75-69 78.5-84q60 65 99.5 103.5t91.5 78 105 57 112 17.5q111 0 204-50.5t150-148 57-222.5q0-126-57-223.5t-150-148-204-50.5q-59 0-112 17.5t-105 57-91.5 78T860 358q-46-51-78.5-84t-75-69-79-56-81.5-33.5-93-13.5q-171 0-291.5 116.5T41 524zm237 0q0-94 49.5-146.5T453 325q50 0 99 40.5T708 523v1Q601 641 552 681.5T453 722q-76 0-125.5-52.5T278 524zm1165 0q0 93-49.5 145.5T1268 722q-50 0-99-40.5T1012 524h1l-1-1q108-117 157-157.5t99-40.5q76 0 125.5 52.5T1443 524z"/><glyph glyph-name="integral" unicode="∫" horiz-adv-x="656" d="M670 1409l-60-233q-26 6-52 6-114 0-114-136V86q0-174-90-275T97-290q-79 0-139 16L17-41q25-6 52-6 114 0 114 136v960q0 174 90 275t257 101q79 0 140-16z"/><glyph glyph-name="congruent" unicode="≅" d="M1060 432V209H140v223h920zm0 424V633H140v223h920zm-103 465l126-159q-119-143-297-143-79 0-148.5 22.5T511 1086t-107 22q-70 0-160-87l-126 159q117 143 296 143 80 0 149.5-22.5T690 1256t107-22q70 0 160 87z"/><glyph glyph-name="approxequal" unicode="≈" d="M957 890l126-159Q964 588 786 588q-63 0-120.5 14t-94 30.5T490 663t-86 14q-70 0-160-87L118 749q117 143 296 143 63 0 121-14t94.5-30.5T711 817t86-14q70 0 160 87zm0-420l126-159Q964 168 786 168q-63 0-120.5 14t-94 30.5T490 243t-86 14q-70 0-160-87L118 329q117 143 296 143 63 0 121-14t94.5-30.5T711 397t86-14q70 0 160 87z"/><glyph glyph-name="uni2259" unicode="≙" d="M1060 432V209H140v223h920zm0 424V633H140v223h920zm-84 163H723l-123 153-122-153H225l218 315h315z"/><glyph glyph-name="notequal" unicode="≠" d="M1060 432V209H568L472 0H239l96 209H140v223h298l93 201H140v223h494l97 209h233l-97-209h193V633H764l-93-201h389z"/><glyph glyph-name="lessequal" unicode="≤" d="M1010 1167V909L465 714l545-194V262L191 592v244zM191 0v223h819V0H191z"/><glyph glyph-name="greaterequal" unicode="≥" d="M191 909v258l819-331V592L191 262v258l545 194zm819-686V0H191v223h819z"/><glyph glyph-name="dotmath" unicode="⋅" d="M601 726q77 0 135-57.5T794 533q0-79-58-137t-135-58q-78 0-136.5 58T406 533q0 78 58.5 135.5T601 726z"/><glyph glyph-name="uni2460" unicode="①" horiz-adv-x="2050" d="M1025 1604q187 0 357-71.5t293-192.5 195.5-288 72.5-351-72.5-351.5T1675 61t-293-193-357-72-357 72T375 61 179.5 349.5 107 701t72.5 351T375 1340t293 192.5 357 71.5zm0-236q-137 0-261-52.5t-214-142-143-213T354 701t53-260 143-213.5T764 85t261-53q183 0 337.5 89.5T1607 365t90 336q0 136-53 259.5t-143 213-214.5 142T1025 1368zm139-221V284H959v581l-208-74v201z"/><glyph glyph-name="uni2461" unicode="②" horiz-adv-x="2050" d="M1025 1604q187 0 357-71.5t293-192.5 195.5-288 72.5-351-72.5-351.5T1675 61t-293-193-357-72-357 72T375 61 179.5 349.5 107 701t72.5 351T375 1340t293 192.5 357 71.5zm0-236q-137 0-261-52.5t-214-142-143-213T354 701t53-260 143-213.5T764 85t261-53q183 0 337.5 89.5T1607 365t90 336q0 136-53 259.5t-143 213-214.5 142T1025 1368zM830 864L703 998q126 151 321 151 139 0 222.5-76t83.5-201q0-74-34-133.5T1190 612l-149-137h307V284H748v162l303 282q65 62 65 123 0 45-32 73t-82 28q-51 0-90.5-23T830 864z"/><glyph glyph-name="uni2462" unicode="③" horiz-adv-x="2050" d="M1025 1604q187 0 357-71.5t293-192.5 195.5-288 72.5-351-72.5-351.5T1675 61t-293-193-357-72-357 72T375 61 179.5 349.5 107 701t72.5 351T375 1340t293 192.5 357 71.5zm0-236q-137 0-261-52.5t-214-142-143-213T354 701t53-260 143-213.5T764 85t261-53q183 0 337.5 89.5T1607 365t90 336q0 136-53 259.5t-143 213-214.5 142T1025 1368zm-9-219q144 0 234-67.5t90-178.5q0-135-129-192 70-27 108.5-75.5T1358 520q0-81-49-140t-123.5-85.5T1021 268q-203 0-311 125l115 133q77-77 186-77 59 0 96.5 22.5T1145 536q0 43-42.5 66.5T995 626H895v173h101q58 0 95.5 22.5T1129 885q0 40-33 61t-89 21q-106 0-178-80l-116 134q114 128 303 128z"/><glyph glyph-name="uni2463" unicode="④" horiz-adv-x="2050" d="M1025 1604q187 0 357-71.5t293-192.5 195.5-288 72.5-351-72.5-351.5T1675 61t-293-193-357-72-357 72T375 61 179.5 349.5 107 701t72.5 351T375 1340t293 192.5 357 71.5zm0-236q-137 0-261-52.5t-214-142-143-213T354 701t53-260 143-213.5T764 85t261-53q183 0 337.5 89.5T1607 365t90 336q0 136-53 259.5t-143 213-214.5 142T1025 1368zm225-528V613h109V426h-109V284h-205v142H659v143l284 564h226L903 613h142v88l70 139h135z"/><glyph glyph-name="uni2464" unicode="⑤" horiz-adv-x="2050" d="M1025 1604q187 0 357-71.5t293-192.5 195.5-288 72.5-351-72.5-351.5T1675 61t-293-193-357-72-357 72T375 61 179.5 349.5 107 701t72.5 351T375 1340t293 192.5 357 71.5zm0-236q-137 0-261-52.5t-214-142-143-213T354 701t53-260 143-213.5T764 85t261-53q183 0 337.5 89.5T1607 365t90 336q0 136-53 259.5t-143 213-214.5 142T1025 1368zm283-234V945H967l-4-127h82q151 0 233.5-69t82.5-184q0-134-93.5-215.5T1028 268q-97 0-179 32t-138 85l101 152q36-32 96-57t119-25 90 26 31 69q0 92-154 92H779l11 492h518z"/><glyph glyph-name="uni2465" unicode="⑥" horiz-adv-x="2050" d="M1025 1604q187 0 357-71.5t293-192.5 195.5-288 72.5-351-72.5-351.5T1675 61t-293-193-357-72-357 72T375 61 179.5 349.5 107 701t72.5 351T375 1340t293 192.5 357 71.5zm0-236q-137 0-261-52.5t-214-142-143-213T354 701t53-260 143-213.5T764 85t261-53q183 0 337.5 89.5T1607 365t90 336q0 136-53 259.5t-143 213-214.5 142T1025 1368zm217-234l-210-285h12q142 0 227-80.5t85-201.5q0-129-97-214t-242-85-242.5 83T677 560q0 110 88 240l229 334h248zm-225-456q-53 0-88.5-32.5T893 564t35-81 89-32q53 0 88.5 32t35.5 81-35.5 81.5T1017 678z"/><glyph glyph-name="uni2466" unicode="⑦" horiz-adv-x="2050" d="M1025 1604q187 0 357-71.5t293-192.5 195.5-288 72.5-351-72.5-351.5T1675 61t-293-193-357-72-357 72T375 61 179.5 349.5 107 701t72.5 351T375 1340t293 192.5 357 71.5zm0-236q-137 0-261-52.5t-214-142-143-213T354 701t53-260 143-213.5T764 85t261-53q183 0 337.5 89.5T1607 365t90 336q0 136-53 259.5t-143 213-214.5 142T1025 1368zm344-234V972l-344-688H780l346 659H734v191h635z"/><glyph glyph-name="uni2467" unicode="⑧" horiz-adv-x="2050" d="M1025 1604q187 0 357-71.5t293-192.5 195.5-288 72.5-351-72.5-351.5T1675 61t-293-193-357-72-357 72T375 61 179.5 349.5 107 701t72.5 351T375 1340t293 192.5 357 71.5zm0-236q-137 0-261-52.5t-214-142-143-213T354 701t53-260 143-213.5T764 85t261-53q183 0 337.5 89.5T1607 365t90 336q0 136-53 259.5t-143 213-214.5 142T1025 1368zm0-219q140 0 234-67t94-179q0-130-133-190 155-61 155-198 0-112-100.5-179.5T1025 268q-148 0-248.5 67.5T676 515q0 139 155 198-133 60-133 190 0 112 94 179t233 67zm0-514q-53 0-88.5-25.5T901 539q0-44 35.5-69t88.5-25q54 0 90 25t36 69q0 45-36 70.5t-90 25.5zm0 336q-47 0-78-23t-31-64 31-64.5 78-23.5q48 0 79.5 23.5T1136 884t-31.5 64-79.5 23z"/><glyph glyph-name="uni2468" unicode="⑨" horiz-adv-x="2050" d="M1025 1604q187 0 357-71.5t293-192.5 195.5-288 72.5-351-72.5-351.5T1675 61t-293-193-357-72-357 72T375 61 179.5 349.5 107 701t72.5 351T375 1340t293 192.5 357 71.5zm0-236q-137 0-261-52.5t-214-142-143-213T354 701t53-260 143-213.5T764 85t261-53q183 0 337.5 89.5T1607 365t90 336q0 136-53 259.5t-143 213-214.5 142T1025 1368zM811 284l208 284h-10q-142 0-227 81t-85 202q0 129 97 213.5t242 84.5 242.5-83 97.5-209q0-110-88-240l-230-333H811zm225 456q53 0 88.5 32t35.5 81-35.5 81.5T1036 967t-88.5-32.5T912 853t35.5-81 88.5-32z"/><glyph glyph-name="uni24EA" unicode="⓪" horiz-adv-x="2050" d="M1025 1604q187 0 357-71.5t293-192.5 195.5-288 72.5-351-72.5-351.5T1675 61t-293-193-357-72-357 72T375 61 179.5 349.5 107 701t72.5 351T375 1340t293 192.5 357 71.5zm0-236q-137 0-261-52.5t-214-142-143-213T354 701t53-260 143-213.5T764 85t261-53q183 0 337.5 89.5T1607 365t90 336q0 136-53 259.5t-143 213-214.5 142T1025 1368zm0-219q167 0 277-119.5T1412 709q0-202-110-321.5T1025 268q-166 0-276 119.5T639 709q0 201 110 320.5t276 119.5zm0-197q-76 0-124-64t-48-180q0-115 48-179t124-64 124.5 63.5T1198 708t-48.5 180-124.5 64z"/><glyph glyph-name="uni24FF" unicode="⓿" horiz-adv-x="2050" d="M1025 1149q-166 0-276-119.5T639 709q0-202 110-321.5T1025 268q167 0 277 119.5T1412 709q0 201-110 320.5T1025 1149zm0-197q76 0 124.5-64t48.5-180-48.5-179.5T1025 465t-124 64-48 179q0 116 48 180t124 64zm0 631q183 0 349.5-70t286-188 190.5-281.5 71-342.5q0-144-45-278.5T1749 179 1556-12t-247-126.5-284-44.5q-183 0-349 70T390.5 75.5 200 358t-71 343 71 342.5T390.5 1325 676 1513t349 70z"/><glyph glyph-name="uni2715" unicode="╳" horiz-adv-x="2172" d="M1266 700l933-933-179-180-933 934-934-934-180 180 933 933-933 933 180 180 934-933 933 933 179-180z"/><glyph glyph-name="uni2715" unicode="✕" horiz-adv-x="2172" d="M1266 700l933-933-179-180-933 934-934-934-180 180 933 933-933 933 180 180 934-933 933 933 179-180z"/><glyph glyph-name="uni25AE" unicode="▌" horiz-adv-x="1800" d="M200 1400h700V0H200v1400z"/><glyph glyph-name="uni25AE" unicode="▮" horiz-adv-x="1800" d="M200 1400h700V0H200v1400z"/><glyph glyph-name="filledbox" unicode="■" horiz-adv-x="1800" d="M200 1400h1400V0H200v1400z"/><glyph glyph-name="H22073" unicode="□" horiz-adv-x="1800" d="M200 1400h1400V0H200v1400zm238-238V238h924v924H438z"/><glyph glyph-name="triagup" unicode="▲" horiz-adv-x="1800" d="M900 1420L1720 0H80z"/><glyph glyph-name="uni25B3" unicode="△" horiz-adv-x="1800" d="M900 1420L1720 0H80zm0-475L491 238h818z"/><glyph glyph-name="uni25B4" unicode="▴" d="M601 1046l444-767H156z"/><glyph glyph-name="uni25B8" unicode="▸" d="M1046 662L277 216v891z"/><glyph glyph-name="triagdn" unicode="▼" horiz-adv-x="1800" d="M900-20L80 1400h1640z"/><glyph glyph-name="uni25BD" unicode="▽" horiz-adv-x="1800" d="M900-20L80 1400h1640zm0 475l409 707H491z"/><glyph glyph-name="uni25BE" unicode="▾" d="M599 278l-444 767h889z"/><glyph glyph-name="uni25C2" unicode="◂" d="M154 662l769 445V216z"/><glyph glyph-name="uni25C6" unicode="◆" horiz-adv-x="1800" d="M900 1438l738-738L900-38 162 700z"/><glyph glyph-name="uni25C7" unicode="◇" horiz-adv-x="1800" d="M900 1438l738-738L900-38 162 700zm0-336L498 700l402-402 402 402z"/><glyph glyph-name="lozenge" unicode="◊" horiz-adv-x="1538" d="M1458 700L900 0H637L80 700l558 700h263zm-329-1l-364 451-354-448 364-453z"/><glyph glyph-name="circle" unicode="○" horiz-adv-x="1800" d="M900-39q-151 0-287.5 58.5T377 177 219.5 413 161 700t58.5 287T377 1223t235.5 157.5T900 1439q150 0 287-58.5t236-157.5 157.5-236 58.5-287-58.5-287T1423 177 1187 19.5 900-39zm0 238q136 0 251.5 67T1334 448.5t67 251.5-67 251.5-182.5 182.5-251.5 67q-137 0-252-67T466 951.5 399 700t67-251.5T648 266t252-67z"/><glyph glyph-name="H18533" unicode="●" horiz-adv-x="1800" d="M900-39q-151 0-287.5 58.5T377 177 219.5 413 161 700t58.5 287T377 1223t235.5 157.5T900 1439q150 0 287-58.5t236-157.5 157.5-236 58.5-287-58.5-287T1423 177 1187 19.5 900-39z"/><glyph glyph-name="uni25D0" unicode="◐" horiz-adv-x="1800" d="M900-39q-151 0-287.5 58.5T377 177 219.5 413 161 700t58.5 287T377 1223t235.5 157.5T900 1439q150 0 287-58.5t236-157.5 157.5-236 58.5-287-58.5-287T1423 177 1187 19.5 900-39zm0 1240V199q136 0 251.5 67T1334 448.5t67 251.5-67 251.5-182.5 182.5-251.5 67z"/><glyph glyph-name="uni25D6" unicode="◖" horiz-adv-x="1800" d="M900 1439V-39q-151 0-287.5 58.5T377 177 219.5 413 161 700t58.5 287T377 1223t235.5 157.5T900 1439z"/><glyph glyph-name="uni25E7" unicode="◧" horiz-adv-x="1800" d="M200 1400h1400V0H200v1400zm700-238V238h462v924H900z"/><glyph glyph-name="uni2610" unicode="☐" horiz-adv-x="2200" d="M253 1547h1694V-147H253v1694zm195-195V48h1304v1304H448z"/><glyph glyph-name="uni2611" unicode="☑" horiz-adv-x="2200" d="M253 1547h1694V-147H253v1694zm195-195V48h1304v1304H448zm1042-161l153-109-654-909-416 469 138 126 260-297z"/><glyph glyph-name="uni2612" unicode="☒" horiz-adv-x="2200" d="M1947 1547V-147H253v1694h1694zm-195-195H448V48h1304v1304zM626 360l341 340-341 340 134 134 340-341 340 341 134-134-341-340 341-340-134-134-340 341-340-341z"/><glyph glyph-name="heart" unicode="♥" horiz-adv-x="1800" d="M1212 1255q137 0 227.5-93t90.5-232q0-99-50.5-209.5t-139-217-199-206T900 106q-131 92-241.5 191.5t-199 206-139 217T270 930q0 139 90.5 232t227.5 93q124 0 218-73.5t94-172.5q0 99 94 172.5t218 73.5z"/><glyph glyph-name="uni2713" unicode="✓" horiz-adv-x="2200" d="M1564 1322l184-136L929 82 453 602l168 154 290-316z"/><glyph glyph-name="uni2717" unicode="✗" horiz-adv-x="2200" d="M1261 700l419-419-161-161-419 419-419-419-161 161 419 419-419 419 161 161 419-419 419 419 161-161z"/><glyph glyph-name="uni278A" unicode="❶" horiz-adv-x="2050" d="M1164 1147L751 992V791l208 74V284h205v863zm-139 436q183 0 349.5-70t286-188 190.5-281.5 71-342.5q0-144-45-278.5T1749 179 1556-12t-247-126.5-284-44.5q-183 0-349 70T390.5 75.5 200 358t-71 343 71 342.5T390.5 1325 676 1513t349 70z"/><glyph glyph-name="uni278A" unicode="➊" horiz-adv-x="2050" d="M1164 1147L751 992V791l208 74V284h205v863zm-139 436q183 0 349.5-70t286-188 190.5-281.5 71-342.5q0-144-45-278.5T1749 179 1556-12t-247-126.5-284-44.5q-183 0-349 70T390.5 75.5 200 358t-71 343 71 342.5T390.5 1325 676 1513t349 70z"/><glyph glyph-name="uni278B" unicode="❷" horiz-adv-x="2050" d="M703 998l127-134q42 42 81.5 65t90.5 23q50 0 82-28t32-73q0-61-65-123L748 446V284h600v191h-307l149 137q72 67 106 126.5t34 133.5q0 125-83.5 201t-222.5 76q-195 0-321-151zm322 585q183 0 349.5-70t286-188 190.5-281.5 71-342.5q0-144-45-278.5T1749 179 1556-12t-247-126.5-284-44.5q-183 0-349 70T390.5 75.5 200 358t-71 343 71 342.5T390.5 1325 676 1513t349 70z"/><glyph glyph-name="uni278B" unicode="➋" horiz-adv-x="2050" d="M703 998l127-134q42 42 81.5 65t90.5 23q50 0 82-28t32-73q0-61-65-123L748 446V284h600v191h-307l149 137q72 67 106 126.5t34 133.5q0 125-83.5 201t-222.5 76q-195 0-321-151zm322 585q183 0 349.5-70t286-188 190.5-281.5 71-342.5q0-144-45-278.5T1749 179 1556-12t-247-126.5-284-44.5q-183 0-349 70T390.5 75.5 200 358t-71 343 71 342.5T390.5 1325 676 1513t349 70z"/><glyph glyph-name="uni278C" unicode="❸" horiz-adv-x="2050" d="M1025 1583q183 0 349.5-70t286-188 190.5-281.5 71-342.5q0-144-45-278.5T1749 179 1556-12t-247-126.5-284-44.5q-183 0-349 70T390.5 75.5 200 358t-71 343 71 342.5T390.5 1325 676 1513t349 70zm-9-434q-189 0-303-128l116-134q72 80 178 80 56 0 89-21t33-61q0-41-37.5-63.5T996 799H895V626h100q65 0 107.5-23.5T1145 536q0-42-37.5-64.5T1011 449q-109 0-186 77L710 393q108-125 311-125 90 0 164.5 26.5T1309 380t49 140q0 67-38.5 115.5T1211 711q129 57 129 192 0 111-90 178.5t-234 67.5z"/><glyph glyph-name="uni278C" unicode="➌" horiz-adv-x="2050" d="M1025 1583q183 0 349.5-70t286-188 190.5-281.5 71-342.5q0-144-45-278.5T1749 179 1556-12t-247-126.5-284-44.5q-183 0-349 70T390.5 75.5 200 358t-71 343 71 342.5T390.5 1325 676 1513t349 70zm-9-434q-189 0-303-128l116-134q72 80 178 80 56 0 89-21t33-61q0-41-37.5-63.5T996 799H895V626h100q65 0 107.5-23.5T1145 536q0-42-37.5-64.5T1011 449q-109 0-186 77L710 393q108-125 311-125 90 0 164.5 26.5T1309 380t49 140q0 67-38.5 115.5T1211 711q129 57 129 192 0 111-90 178.5t-234 67.5z"/><glyph glyph-name="uni278D" unicode="❹" horiz-adv-x="2050" d="M1025 1583q183 0 349.5-70t286-188 190.5-281.5 71-342.5q0-144-45-278.5T1749 179 1556-12t-247-126.5-284-44.5q-183 0-349 70T390.5 75.5 200 358t-71 343 71 342.5T390.5 1325 676 1513t349 70zm225-743h-135l-70-139v-88H903l266 520H943L659 569V426h386V284h205v142h109v187h-109v227z"/><glyph glyph-name="uni278D" unicode="➍" horiz-adv-x="2050" d="M1025 1583q183 0 349.5-70t286-188 190.5-281.5 71-342.5q0-144-45-278.5T1749 179 1556-12t-247-126.5-284-44.5q-183 0-349 70T390.5 75.5 200 358t-71 343 71 342.5T390.5 1325 676 1513t349 70zm225-743h-135l-70-139v-88H903l266 520H943L659 569V426h386V284h205v142h109v187h-109v227z"/><glyph glyph-name="uni278E" unicode="❺" horiz-adv-x="2050" d="M1308 1134H790l-11-492h215q154 0 154-92 0-43-31-69t-90-26-119 25-96 57L711 385q56-53 138-85t179-32q146 0 239.5 81.5T1361 565q0 115-82.5 184T1045 818h-82l4 127h341v189zm-283 449q183 0 349.5-70t286-188 190.5-281.5 71-342.5q0-144-45-278.5T1749 179 1556-12t-247-126.5-284-44.5q-183 0-349 70T390.5 75.5 200 358t-71 343 71 342.5T390.5 1325 676 1513t349 70z"/><glyph glyph-name="uni278E" unicode="➎" horiz-adv-x="2050" d="M1308 1134H790l-11-492h215q154 0 154-92 0-43-31-69t-90-26-119 25-96 57L711 385q56-53 138-85t179-32q146 0 239.5 81.5T1361 565q0 115-82.5 184T1045 818h-82l4 127h341v189zm-283 449q183 0 349.5-70t286-188 190.5-281.5 71-342.5q0-144-45-278.5T1749 179 1556-12t-247-126.5-284-44.5q-183 0-349 70T390.5 75.5 200 358t-71 343 71 342.5T390.5 1325 676 1513t349 70z"/><glyph glyph-name="uni278F" unicode="❻" horiz-adv-x="2050" d="M1025 1583q183 0 349.5-70t286-188 190.5-281.5 71-342.5q0-144-45-278.5T1749 179 1556-12t-247-126.5-284-44.5q-183 0-349 70T390.5 75.5 200 358t-71 343 71 342.5T390.5 1325 676 1513t349 70zm217-449H994L765 800q-88-130-88-240 0-126 97.5-209t242.5-83 242 85 97 214q0 121-85 201.5T1044 849h-12zm-225-456q53 0 88.5-32.5T1141 564t-35.5-81-88.5-32q-54 0-89 32t-35 81 35.5 81.5T1017 678z"/><glyph glyph-name="uni278F" unicode="➏" horiz-adv-x="2050" d="M1025 1583q183 0 349.5-70t286-188 190.5-281.5 71-342.5q0-144-45-278.5T1749 179 1556-12t-247-126.5-284-44.5q-183 0-349 70T390.5 75.5 200 358t-71 343 71 342.5T390.5 1325 676 1513t349 70zm217-449H994L765 800q-88-130-88-240 0-126 97.5-209t242.5-83 242 85 97 214q0 121-85 201.5T1044 849h-12zm-225-456q53 0 88.5-32.5T1141 564t-35.5-81-88.5-32q-54 0-89 32t-35 81 35.5 81.5T1017 678z"/><glyph glyph-name="uni2790" unicode="❼" horiz-adv-x="2050" d="M1369 1134H734V943h392L780 284h245l344 688v162zm-344 449q183 0 349.5-70t286-188 190.5-281.5 71-342.5q0-144-45-278.5T1749 179 1556-12t-247-126.5-284-44.5q-183 0-349 70T390.5 75.5 200 358t-71 343 71 342.5T390.5 1325 676 1513t349 70z"/><glyph glyph-name="uni2790" unicode="➐" horiz-adv-x="2050" d="M1369 1134H734V943h392L780 284h245l344 688v162zm-344 449q183 0 349.5-70t286-188 190.5-281.5 71-342.5q0-144-45-278.5T1749 179 1556-12t-247-126.5-284-44.5q-183 0-349 70T390.5 75.5 200 358t-71 343 71 342.5T390.5 1325 676 1513t349 70z"/><glyph glyph-name="uni2791" unicode="❽" horiz-adv-x="2050" d="M1025 1583q183 0 349.5-70t286-188 190.5-281.5 71-342.5q0-144-45-278.5T1749 179 1556-12t-247-126.5-284-44.5q-183 0-349 70T390.5 75.5 200 358t-71 343 71 342.5T390.5 1325 676 1513t349 70zm0-434q-139 0-233-67t-94-179q0-131 133-190-155-59-155-198 0-112 100.5-179.5T1025 268q149 0 249.5 67.5T1375 515q0 137-155 198 133 60 133 190 0 112-94 179t-234 67zm0-514q54 0 90-25.5t36-70.5q0-44-36-69t-90-25q-53 0-88.5 25T901 539q0 45 35.5 70.5T1025 635zm0 336q48 0 79.5-23t31.5-64-31.5-64.5T1025 796q-47 0-78 23.5T916 884t31 64 78 23z"/><glyph glyph-name="uni2791" unicode="➑" horiz-adv-x="2050" d="M1025 1583q183 0 349.5-70t286-188 190.5-281.5 71-342.5q0-144-45-278.5T1749 179 1556-12t-247-126.5-284-44.5q-183 0-349 70T390.5 75.5 200 358t-71 343 71 342.5T390.5 1325 676 1513t349 70zm0-434q-139 0-233-67t-94-179q0-131 133-190-155-59-155-198 0-112 100.5-179.5T1025 268q149 0 249.5 67.5T1375 515q0 137-155 198 133 60 133 190 0 112-94 179t-234 67zm0-514q54 0 90-25.5t36-70.5q0-44-36-69t-90-25q-53 0-88.5 25T901 539q0 45 35.5 70.5T1025 635zm0 336q48 0 79.5-23t31.5-64-31.5-64.5T1025 796q-47 0-78 23.5T916 884t31 64 78 23z"/><glyph glyph-name="uni2792" unicode="❾" horiz-adv-x="2050" d="M1025 1583q183 0 349.5-70t286-188 190.5-281.5 71-342.5q0-144-45-278.5T1749 179 1556-12t-247-126.5-284-44.5q-183 0-349 70T390.5 75.5 200 358t-71 343 71 342.5T390.5 1325 676 1513t349 70zM811 284h247l230 333q88 130 88 240 0 126-97.5 209t-242.5 83-242-84.5T697 851q0-121 85-202t227-81h10zm225 456q-53 0-88.5 32T912 853t35.5 81.5T1036 967t88.5-32.5T1160 853t-35.5-81-88.5-32z"/><glyph glyph-name="uni2792" unicode="➒" horiz-adv-x="2050" d="M1025 1583q183 0 349.5-70t286-188 190.5-281.5 71-342.5q0-144-45-278.5T1749 179 1556-12t-247-126.5-284-44.5q-183 0-349 70T390.5 75.5 200 358t-71 343 71 342.5T390.5 1325 676 1513t349 70zM811 284h247l230 333q88 130 88 240 0 126-97.5 209t-242.5 83-242-84.5T697 851q0-121 85-202t227-81h10zm225 456q-53 0-88.5 32T912 853t35.5 81.5T1036 967t88.5-32.5T1160 853t-35.5-81-88.5-32z"/><glyph glyph-name="uni2B51" unicode="⭑" horiz-adv-x="1800" d="M1088 902h606l-490-356 188-579-491 358L411-33l187 579-492 356h608l187 579z"/><glyph glyph-name="uni2B52" unicode="⭒" horiz-adv-x="1800" d="M1088 902h606l-490-356 188-579-491 358L411-33l187 579-492 356h608l187 579zM987 763l-86 265-86-265H535l226-164-86-267 226 165 226-165-86 267 226 164H987z"/><glyph glyph-name="uni2E17" unicode="⸗" horiz-adv-x="877" d="M733 946V732L144 517v215zm0-352V380L144 165v214z"/><glyph glyph-name="uni2E38" unicode="⸸" horiz-adv-x="796" d="M296 1440h204v-422h216V819H500V602H296v217H80v199h216v422z"/><glyph glyph-name="uniEA00" unicode="" horiz-adv-x="1800" d="M1088 902h606l-490-356 188-579-491 358L411-33l187 579-492 356h608l187 579zM987 763l-86 265V497l226-165-86 267 226 164H987z"/><glyph glyph-name="uniEA01" unicode="" horiz-adv-x="1800" d="M901 325L411-33l187 579-492 356h608l187 579V325z"/><glyph glyph-name="uniFB00" unicode="ﬀ" horiz-adv-x="1675" d="M784 969V737H483V0H222v737H41v232h181v120q0 174 90 275t257 101 298-87l-104-203q-87 47-166 47-114 0-114-136V969h301zm826 0V737h-301V0h-261v737H867v232h181v120q0 174 90 275t257 101 298-87l-104-203q-87 47-166 47-114 0-114-136V969h301z"/><glyph glyph-name="fi" unicode="ﬁ" horiz-adv-x="1384" d="M784 969V737H483V0H222v737H41v232h181v120q0 174 90 275t257 101 298-87l-104-203q-87 47-166 47-114 0-114-136V969h301zm463 0V0H986v969h261zm-132 485q70 0 118.5-48.5T1282 1286q0-70-48-118t-119-48-118.5 48-47.5 118q0 71 48 119.5t118 48.5z"/><glyph glyph-name="fl" unicode="ﬂ" horiz-adv-x="1384" d="M784 969V737H483V0H222v737H41v232h181v120q0 174 90 275t257 101 298-87l-104-203q-87 47-166 47-114 0-114-136V969h301zm463 471V0H986v1440h261z"/><glyph glyph-name="uniFB03" unicode="ﬃ" horiz-adv-x="2210" d="M784 969V737H483V0H222v737H41v232h181v120q0 174 90 275t257 101 298-87l-104-203q-87 47-166 47-114 0-114-136V969h301zm826 0V737h-301V0h-261v737H867v232h181v120q0 174 90 275t257 101 298-87l-104-203q-87 47-166 47-114 0-114-136V969h301zm463 0V0h-261v969h261zm-132 485q70 0 118.5-48.5T2108 1286q0-70-48-118t-119-48-118.5 48-47.5 118q0 71 48 119.5t118 48.5z"/><glyph glyph-name="uniFB04" unicode="ﬄ" horiz-adv-x="2210" d="M784 969V737H483V0H222v737H41v232h181v120q0 174 90 275t257 101 298-87l-104-203q-87 47-166 47-114 0-114-136V969h301zm826 0V737h-301V0h-261v737H867v232h181v120q0 174 90 275t257 101 298-87l-104-203q-87 47-166 47-114 0-114-136V969h301zm463 471V0h-261v1440h261z"/><glyph glyph-name="uniFB05" unicode="ﬅ" horiz-adv-x="1451" d="M1359 969V737h-352V383q0-86 40-125.5t106-39.5q78 0 182 63l95-204Q1282-25 1109-25q-178 0-270 99t-92 288v375H585v232h162v54q0 104-48.5 154.5T569 1228t-129.5-50.5T391 1023V0H130v1034q0 110 35.5 194.5t97.5 135 139.5 76T569 1465q90 0 167-25.5t138.5-76.5 97-135.5T1007 1033v-64h352z"/><glyph glyph-name="uniFB06" unicode="ﬆ" horiz-adv-x="1940" d="M920 902l-88-203q-65 32-149 55t-160 24q-73 0-111-23.5T374 690q0-38 39-54.5T532 607l86-13q327-50 327-290 0-151-118-240T500-25Q230-25 69 89l103 198q143-95 330-95 179 0 179 91 0 35-38 56t-123 33l-79 11q-335 46-335 294 0 149 108.5 233T515 994q217 0 405-92zm927 67V737h-351V383q0-86 39.5-125.5T1641 218q78 0 182 63l96-204Q1770-25 1598-25q-179 0-271 99t-92 288v375h-187v232h187v288h261V969h351z"/><glyph glyph-name="uniFEFF" horiz-adv-x="0"/><glyph glyph-name="uni030C.alt001" horiz-adv-x="1" d="M-523 1012h-206v428h257z"/><glyph glyph-name="uni0328.alt001" horiz-adv-x="1" d="M-484-177l128-153q-97-89-240-89-108 0-178 53t-70 143q0 51 21 95t62.5 81 86.5 65.5T-566 79l72-76q-124-77-124-161 0-26 16-40t42-14q36 0 76 35z"/><glyph glyph-name="uni0328.alt002" horiz-adv-x="1" d="M-551 95l79-71q-96-43-134.5-83.5T-645-143q0-31 22.5-50t60.5-19q58 0 111 45l136-148q-112-104-275-104-130 0-212.5 61T-885-200q0 105 84 172.5T-551 95z"/><glyph glyph-name="uni0328.alt003" horiz-adv-x="1" d="M-484-177l128-153q-97-89-240-89-108 0-178 54t-70 146q0 50 24.5 93.5t72.5 80T-646.5 19-520 79l72-76q-170-79-170-161 0-26 15.5-40t42.5-14q36 0 76 35z"/><glyph glyph-name="uni0328.alt004" horiz-adv-x="1" d="M-451-167l136-148q-112-104-275-104-130 0-212.5 61T-885-200q0 105 84 172.5T-551 95l79-71q-96-43-134.5-83.5T-645-143q0-31 22.5-50t60.5-19q58 0 111 45z"/><glyph glyph-name="j.latn_NLD" horiz-adv-x="539" d="M402 969V-92q0-156-82-242.5T101-421q-87 0-147 26l39 229q33-12 70-12 78 0 78 101V969h261zm-57 139H96l201 315h312z"/><glyph glyph-name="zero.numr" horiz-adv-x="901" d="M450 1414q159 0 264.5-115.5T820 989q0-195-105.5-310.5T450 563 186 678.5 81 989q0 194 105.5 309.5T450 1414zm0-188q-72 0-118-62t-46-175 46-175.5T450 751q73 0 119 62.5T615 989t-46 175-119 62z"/><glyph glyph-name="one.numr" horiz-adv-x="553" d="M423 1413V578H226v565l-185-68v192z"/><glyph glyph-name="two.numr" horiz-adv-x="725" d="M172 1140L53 1269q118 145 306 145 133 0 212-72.5t79-192.5q0-71-30.5-128T519 897L375 760h294V578H96v154l289 275q61 58 61 120 0 44-30.5 71.5T338 1226q-49 0-87.5-22.5T172 1140z"/><glyph glyph-name="three.numr" horiz-adv-x="730" d="M333 1414q138 0 224-65t86-172q0-128-121-185 66-26 102.5-74T661 806q0-116-94.5-179.5T338 563q-193 0-297 121l110 128q73-75 177-75 56 0 92 22t36 64q0 41-41 63.5T312 909h-94v167h96q55 0 90.5 22.5T440 1160t-31 59.5-84 20.5q-102 0-171-77L44 1290q108 124 289 124z"/><glyph glyph-name="four.numr" horiz-adv-x="733" d="M597 1114V893h104V716H597V578H400v138H32v138l271 545h216L264 893h136v101l60 120h137z"/><glyph glyph-name="five.numr" horiz-adv-x="747" d="M623 1400v-180H297l-3-125h71q147 0 228-67t81-178q0-130-89.5-208.5T355 563q-93 0-171 30.5T53 675l103 140q35-29 89.5-51T354 742q56 0 86 25t30 68q0 90-146 90H117l11 475h495z"/><glyph glyph-name="six.numr" horiz-adv-x="754" d="M590 1400l-201-276h12q138 0 219-78t81-195q0-125-93-206.5T375 563q-139 0-232.5 80T49 845q0 110 84 231l221 324h236zM375 961q-52 0-86-31.5T255 849t34-81 86-32 86 32 34 81-34 80.5-86 31.5z"/><glyph glyph-name="seven.numr" horiz-adv-x="696" d="M655 1400v-154L327 578H93l329 639H49v183h606z"/><glyph glyph-name="eight.numr" horiz-adv-x="810" d="M404 1414q135 0 225-64t90-173q0-126-126-184 147-57 147-191 0-109-96.5-174T404 563t-239 65-96 174q0 134 146 191-125 58-125 184 0 109 90 173t224 64zm0-496q-52 0-86-25t-34-68q0-45 34-70.5t86-25.5q53 0 87.5 25.5T526 825q0 43-34.5 68T404 918zm0 328q-46 0-75.5-23t-29.5-64q0-40 29.5-63t75.5-23 76 23 30 63q0 41-29.5 64t-76.5 23z"/><glyph glyph-name="nine.numr" horiz-adv-x="754" d="M163 578l200 276h-11q-138 0-219 77.5T52 1127q0 124 93 205.5t233 81.5q139 0 232.5-79.5T704 1133q0-112-83-232L399 578H163zm215 439q52 0 86 31.5t34 80.5-34 80.5-86 31.5-86-31.5-34-80.5 34-80.5 86-31.5z"/><glyph glyph-name="zero.dnom" horiz-adv-x="901" d="M450 836q159 0 264.5-115.5T820 411q0-195-105.5-310.5T450-15 186 100.5 81 411q0 194 105.5 309.5T450 836zm0-188q-72 0-118-62t-46-175 46-175.5T450 173q73 0 119 62.5T615 411t-46 175-119 62z"/><glyph glyph-name="one.dnom" horiz-adv-x="552" d="M423 835V0H226v565L41 497v192z"/><glyph glyph-name="two.dnom" horiz-adv-x="725" d="M172 562L53 691q118 145 306 145 133 0 212-72.5T650 571q0-71-30.5-128T519 319L375 182h294V0H96v154l289 275q61 58 61 120 0 44-30.5 71.5T338 648q-49 0-87.5-22.5T172 562z"/><glyph glyph-name="three.dnom" horiz-adv-x="730" d="M333 836q138 0 224-65t86-172q0-128-121-185 66-26 102.5-74T661 228q0-116-94.5-179.5T338-15Q145-15 41 106l110 128q73-75 177-75 56 0 92 22t36 64q0 41-41 63.5T312 331h-94v167h96q55 0 90.5 22.5T440 582t-31 59.5-84 20.5q-102 0-171-77L44 712q109 124 289 124z"/><glyph glyph-name="four.dnom" horiz-adv-x="733" d="M597 536V315h104V138H597V0H400v138H32v138l271 545h216L264 315h136v101l60 120h137z"/><glyph glyph-name="five.dnom" horiz-adv-x="747" d="M623 822V642H297l-3-125h71q147 0 228-67t81-178q0-130-89.5-208.5T355-15q-93 0-171 30.5T53 97l103 140q35-29 89.5-51T354 164q56 0 86 25t30 68q0 90-146 90H117l11 475h495z"/><glyph glyph-name="six.dnom" horiz-adv-x="753" d="M590 822L389 546h12q138 0 219-78t81-195q0-125-93-206.5T375-15q-139 0-232.5 80T49 267q0 110 84 231l221 324h236zM375 383q-52 0-86-31.5T255 271t34-81 86-32 86 32 34 81-34 80.5-86 31.5z"/><glyph glyph-name="seven.dnom" horiz-adv-x="695" d="M655 822V668L327 0H93l329 639H49v183h606z"/><glyph glyph-name="eight.dnom" horiz-adv-x="809" d="M404 836q135 0 225-64t90-173q0-126-126-184 147-57 147-191 0-109-96.5-174T404-15 165 50 69 224q0 134 146 191Q90 473 90 599q0 109 90 173t224 64zm0-496q-52 0-86-25t-34-68q0-45 34-70.5t86-25.5q53 0 87.5 25.5T526 247q0 43-34.5 68T404 340zm0 328q-46 0-75.5-23T299 581q0-40 29.5-63t75.5-23 76 23 30 63q0 41-29.5 64T404 668z"/><glyph glyph-name="nine.dnom" horiz-adv-x="753" d="M163 0l200 276h-11q-138 0-219 77.5T52 549q0 124 93 205.5T378 836q139 0 232.5-79.5T704 555q0-112-83-232L399 0H163zm215 439q52 0 86 31.5t34 80.5-34 80.5-86 31.5-86-31.5-34-80.5 34-80.5 86-31.5z"/><glyph glyph-name="space.frac" horiz-adv-x="99"/><glyph glyph-name="b.ordn" horiz-adv-x="885" d="M492 1287q142 0 237-104t95-259-95-259.5T492 560q-130 0-204 92v-74H99v1023h193v-402q74 88 200 88zm-38-181q-76 0-123.5-51.5T283 924t47.5-131T454 741t123.5 52.5T625 924t-47 130-124 52z"/><glyph glyph-name="c.ordn" horiz-adv-x="772" d="M430 1287q88 0 160.5-35T711 1152l-144-114q-59 68-142 68-71 0-118.5-50.5T259 924q0-82 47-132.5T424 741q84 0 145 69l142-115Q608 560 430 560q-164 0-266.5 102.5T61 924t102.5 261T430 1287z"/><glyph glyph-name="d.ordn" horiz-adv-x="885" d="M393 1287q126 0 200-89v403h193V578H597v75q-76-93-205-93-142 0-236.5 104.5T61 924t95 259 237 104zm38-181q-77 0-124-52t-47-130 47.5-130.5T431 741q75 0 123 52t48 131-48 130.5-123 51.5z"/><glyph glyph-name="e.ordn" horiz-adv-x="811" d="M412 1287q150 0 243.5-100.5T749 924q0-40-3-64H261q14-67 59.5-101T432 725q95 0 169 65l116-123Q604 560 421 560q-160 0-260 99.5T61 921q0 163 97.5 264.5T412 1287zm-2-166q-60 0-98-34.5T261 990h294q-28 131-145 131z"/><glyph glyph-name="h.ordn" horiz-adv-x="848" d="M293 1602v-405q66 90 195 90 117 0 191.5-74.5T754 1019V578H559v379q0 72-33.5 110t-94.5 38q-60 0-99-38.5T293 956V578H99v1024h194z"/><glyph glyph-name="l.ordn" horiz-adv-x="392" d="M293 1601V578H99v1023h194z"/><glyph glyph-name="m.ordn" horiz-adv-x="1308" d="M943 1287q122 0 196.5-74t74.5-194V578h-193v379q0 71-34 109.5t-95 38.5q-60 0-99-38.5T754 956V578H559v379q0 72-33.5 110t-94.5 38q-60 0-99-38.5T293 956V578H99v690h188v-80q66 99 201 99 74 0 132.5-31t92.5-87q71 118 230 118z"/><glyph glyph-name="r.ordn" horiz-adv-x="606" d="M480 1287q55 0 92-14l-26-192q-54 21-112 21-65 0-103-38t-38-110V578H99v690h188v-74q61 93 193 93z"/><glyph glyph-name="s.ordn" horiz-adv-x="736" d="M663 1222l-62-150q-120 55-222 55-100 0-100-58 0-26 27-37t85-19l59-9q231-36 231-207 0-110-84-173t-234-63q-196 0-310 79l75 148q102-67 237-67 120 0 120 60 0 24-26.5 37.5T371 841l-52 7Q79 882 79 1059q0 108 78 168t216 60q150 0 290-65z"/><glyph glyph-name="t.ordn" horiz-adv-x="680" d="M607 1268v-171H360V856q0-60 28-87.5t74-27.5q52 0 128 44l69-151q-106-74-232-74-129 0-195 71.5T166 838v259H34v171h132v205h194v-205h247z"/><glyph glyph-name="u.ordn" horiz-adv-x="854" d="M755 1268V873q0-155-93-234t-235-79q-67 0-125 18.5T198 634t-72.5 98.5T99 873v395h194V890q0-75 36.5-112t97.5-37q62 0 98.5 37T562 890v378h193z"/><glyph glyph-name="egrave.ordn" horiz-adv-x="811" d="M412 1287q150 0 243.5-100.5T749 924q0-40-3-64H261q14-67 59.5-101T432 725q95 0 169 65l116-123Q604 560 421 560q-160 0-260 99.5T61 921q0 163 97.5 264.5T412 1287zm-58 78l-190 227h229l145-227H354zm56-244q-60 0-98-34.5T261 990h294q-28 131-145 131z"/><glyph glyph-name="zero.osf" horiz-adv-x="1344" d="M672 1095q160 0 290.5-68t208-197 77.5-296q0-166-77.5-294.5T962.5 43 672-25 381.5 43 174 239.5 97 534q0 167 77 296t207.5 197 290.5 68zm0-245q-133 0-221.5-86.5T362 535q0-143 88-229t222-86 222.5 86T983 535q0 142-88.5 228.5T672 850z"/><glyph glyph-name="one.osf" horiz-adv-x="775" d="M621 1098V0H357v746L53 652v257z"/><glyph glyph-name="two.osf" horiz-adv-x="1109" d="M228 702L63 870q33 41 72.5 76t97.5 71 136 57 166 21q198 0 325.5-103.5T988 723q0-69-23.5-129.5t-68-110.5-96-90T681 314l-121-70h482V0H117v210l397 248q109 68 154 124t45 111q0 68-55 112.5T513 850t-156.5-39.5T228 702z"/><glyph glyph-name="three.osf" horiz-adv-x="1123" d="M524 1095q217 0 351.5-111T1010 691q0-107-53.5-188T806 375q110-45 172.5-128T1041 54q0-100-42.5-180t-114-129.5-161-75T534-356q-155 0-280.5 53T49-153L209 20q59-64 142.5-100T525-116q106 0 172.5 47T764 68q0 89-76.5 139T495 257H335v237h160q105 0 173 46.5T736 674q0 84-64.5 131.5T509 853q-89 0-159.5-40.5T232 710L62 876q71 100 187.5 159.5T524 1095z"/><glyph glyph-name="four.osf" horiz-adv-x="1159" d="M903 564V248h217V0H903v-332H639V0H39v196l442 872h283L349 248h290v316h264z"/><glyph glyph-name="five.osf" horiz-adv-x="1154" d="M988 1068V821H420l-5-286h165q119 0 213-33t153-91 90-133.5 31-162.5q0-111-40.5-201.5T916.5-236t-161-90.5T559-358q-313 0-496 213L218 38q58-65 151.5-107T557-111q113 0 173 59t60 146q0 200-285 200H172l13 774h803z"/><glyph glyph-name="six.osf" horiz-adv-x="1170" d="M901 1400L555 910q33 5 68 5 210 0 347-133t137-332q0-135-68-243.5t-188-170T582-25q-147 0-267 61T126.5 205 58 446q0 171 133 370l388 584h322zM582 681q-107 0-177.5-65T334 449q0-103 70.5-168.5T582 215q108 0 178.5 65.5T831 449q0 102-70.5 167T582 681z"/><glyph glyph-name="seven.osf" horiz-adv-x="1100" d="M1042 1068V861L459-332H146L726 820H58v248h984z"/><glyph glyph-name="eight.osf" horiz-adv-x="1219" d="M610 1425q137 0 249-49t178.5-142 66.5-213q0-213-209-315 110-45 176-125.5t66-199.5q0-120-71.5-213.5t-191-143T610-25 345 24 153.5 167 82 381q0 119 66 199.5T324 706q-95 46-151.5 124.5T116 1021q0 180 142.5 292T610 1425zm0-830q-103 0-173-53t-70-139 70-138 173-52 172.5 52T852 403t-69.5 139T610 595zm0 589q-91 0-152-50t-61-131q0-84 61-135t152-51q90 0 151 51t61 135q0 81-61 131t-151 50z"/><glyph glyph-name="nine.osf" horiz-adv-x="1170" d="M269-331l345 489q-27-4-68-4-209 0-346 133T63 619q0 205 149.5 340.5T587 1095q148 0 268-61t188.5-169.5T1112 623q0-171-133-370L591-331H269zm318 719q107 0 177.5 65T835 620q0 103-70.5 168.5T587 854t-177.5-65.5T339 620q0-102 70.5-167T587 388z"/><glyph glyph-name="zero.tf" d="M604 1425q90 0 170-27t148.5-84.5 118-141.5 77.5-205 28-267q0-152-28-274.5T1040.5 220 922 81 774 0 604-25q-92 0-172.5 25t-151 81T160 220 81.5 425.5 53 700q0 189 43.5 331.5t120.5 227T391 1384t213 41zm0-259q-57 0-104-24t-86-76-60.5-145.5T332 700t21.5-220.5T414 334t86-76 104-24q55 0 100.5 24t83.5 76 59 145.5T868 700q0 235-75 350.5T604 1166z"/><glyph glyph-name="one.tf" d="M197 256h332v803L181 935v269l617 218V256h317V0H197v256z"/><glyph glyph-name="two.tf" d="M270 1013L96 1184q185 241 478 241 218 0 346.5-124.5T1049 973q0-118-51.5-212.5T847 564L548 253h535V0H158v211l495 507q115 117 115 240 0 92-59 150.5T554 1167q-91 0-155-40t-129-114z"/><glyph glyph-name="three.tf" d="M558 1425q222 0 359-110.5t137-291.5q0-109-54.5-190T845 705q113-44 176.5-127t63.5-194q0-80-28-148t-77-115.5T865 40 724.5-9 569-25q-156 0-282.5 53T80 178l161 177q61-64 144.5-99T559 221q108 0 176.5 47T804 403q0 87-77.5 135T530 586H367v240h164q107 0 176 46.5t69 131.5q0 82-65.5 128.5T544 1179q-91 0-163.5-40T261 1037L91 1208q74 100 191 158.5t276 58.5z"/><glyph glyph-name="four.tf" d="M948 881V508h195V256H948V0H678v256H57v196l491 947h300L380 508h298v373h270z"/><glyph glyph-name="five.tf" d="M1011 1400v-251H444l-6-280h161q235 0 362.5-118.5T1089 448q0-146-69-255T836 29.5 578-25q-154 0-280.5 54.5T82 184l152 189q59-64 153.5-106T576 225q112 0 172.5 57.5T809 428t-66 142.5T524 625H191l15 775h805z"/><glyph glyph-name="six.tf" d="M918 1400L573 913q38 4 65 4 211 0 348-133.5T1123 452q0-205-150.5-341T596-25q-148 0-268 61T139.5 205.5 71 447q0 172 133 372l388 581h326zM596 680q-105 0-174.5-64.5T352 450t69.5-165.5T596 220q107 0 176.5 64.5T842 450t-70 165.5T596 680z"/><glyph glyph-name="seven.tf" d="M1097 1400v-211L517 0H199l576 1148H110v252h987z"/><glyph glyph-name="eight.tf" d="M601 1425q143 0 258.5-47t185-139.5T1114 1023q0-218-214-317 248-97 248-325 0-124-74.5-217.5T876 22.5 601-25 326 22.5t-197.5 141T54 381q0 228 247 325-213 99-213 317 0 123 69.5 215.5t185 139.5 258.5 47zm0-829q-110 0-183-51t-73-141q0-89 73-138.5T601 216t183 49.5T857 404q0 90-73.5 141T601 596zm0 585q-98 0-162-47.5T375 1002q0-87 64-135.5T601 818t162 48.5 64 135.5q0 84-64 131.5T601 1181z"/><glyph glyph-name="nine.tf" d="M282 0l343 487q-25-4-63-4-211 0-348 133.5T77 948q0 205 150 341t376 136q148 0 268.5-61t189-169.5T1129 953q0-173-133-372L608 0H282zm321 720q106 0 175.5 64.5T848 950t-69.5 165.5T603 1180t-175.5-64.5T358 950t69.5-165.5T603 720z"/><glyph glyph-name="uni2007.tf"/><glyph glyph-name="zero.tosf" d="M599 1095q151 0 273.5-67.5T1068 831t73-297-73-297T872.5 40.5 599-27q-150 0-272.5 67.5T131 237 58 534t73 297 195.5 196.5T599 1095zm0-239q-119 0-198-87t-79-235 79-234.5T599 213q120 0 198.5 86.5T876 534t-78.5 235T599 856z"/><glyph glyph-name="one.tosf" d="M193 248h322v515l-337-98v261l601 172V248l312 1V0H193v248z"/><glyph glyph-name="two.tosf" d="M278 702L113 870q33 41 72.5 76t97.5 71 136 57 166 21q198 0 325.5-103.5T1038 723q0-69-23.5-129.5t-68-110.5-96-90T731 314l-121-70h482V0H167v210l397 248q109 68 154 124t45 111q0 68-55 112.5T563 850t-156.5-39.5T278 702z"/><glyph glyph-name="three.tosf" d="M564 1095q217 0 351.5-111T1050 691q0-107-53.5-188T846 375q110-45 172.5-128T1081 54q0-100-42.5-180t-114-129.5-161-75T574-356q-155 0-280.5 53T89-153L249 20q59-64 142.5-100T565-116q106 0 172.5 47T804 68q0 89-76.5 139T535 257H375v237h160q105 0 173 46.5T776 674q0 84-64.5 131.5T549 853q-89 0-159.5-40.5T272 710L102 876q71 100 187.5 159.5T564 1095z"/><glyph glyph-name="four.tosf" d="M937 564V248h217V0H937v-332H673V0H73v196l442 872h283L383 248h290v316h264z"/><glyph glyph-name="five.tosf" d="M1010 1068V821H442l-5-286h165q119 0 213-33t153-91 90-133.5 31-162.5q0-111-40.5-201.5T938.5-236t-161-90.5T581-358q-313 0-496 213L240 38q58-65 151.5-107T579-111q113 0 173 59t60 146q0 200-285 200H194l13 774h803z"/><glyph glyph-name="six.tosf" d="M921 1400L575 910q33 5 68 5 210 0 347-133t137-332q0-135-68-243.5t-188-170T602-25q-147 0-267 61T146.5 205 78 446q0 171 133 370l388 584h322zM602 681q-107 0-177.5-65T354 449q0-103 70.5-168.5T602 215q108 0 178.5 65.5T851 449q0 102-70.5 167T602 681z"/><glyph glyph-name="seven.tosf" d="M1106 1068V861L523-332H210L790 820H122v248h984z"/><glyph glyph-name="eight.tosf" d="M609 1425q137 0 249-49t178.5-142 66.5-213q0-213-209-315 110-45 176-125.5t66-199.5q0-120-71.5-213.5t-191-143T609-25 344 24 152.5 167 81 381q0 119 66 199.5T323 706q-95 46-151.5 124.5T115 1021q0 180 142.5 292T609 1425zm0-830q-103 0-173-53t-70-139 70-138 173-52 172.5 52T851 403t-69.5 139T609 595zm0 589q-91 0-152-50t-61-131q0-84 61-135t152-51q90 0 151 51t61 135q0 81-61 131t-151 50z"/><glyph glyph-name="nine.tosf" d="M279-331l345 489q-27-4-68-4-209 0-346 133T73 619q0 205 149.5 340.5T597 1095q148 0 268-61t188.5-169.5T1122 623q0-171-133-370L601-331H279zm318 719q107 0 177.5 65T845 620q0 103-70.5 168.5T597 854t-177.5-65.5T349 620q0-102 70.5-167T597 388z"/><glyph glyph-name="uni2007.tosf"/><glyph glyph-name="exclam.sc" horiz-adv-x="554" d="M418 1071l-30-665H166l-30 665h282zM278 308q67 0 116-49.5T443 142 394 25 278-25 161 25t-50 117 50 116.5T278 308z"/><glyph glyph-name="numbersign.sc" horiz-adv-x="1209" d="M218 837h150l52 234h216l-52-234h172l52 234h217l-52-234h148l-42-198H930l-45-201h148l-42-200H841L789 0H572l52 238H452L400 0H183l52 238H88l43 200h149l44 201H175zm323-198l-45-201h172l45 201H541z"/><glyph glyph-name="dollar.sc" d="M515 1191h193v-139q169-17 329-103L929 755q-109 62-221 80V640h2q162-27 253.5-99t88.5-192q-3-142-98.5-224T708 21v-146H515V18Q280 39 136 142l120 191q123-79 259-99v198l-3 1q-166 28-253 100.5T175 735q2 126 95 210.5T515 1051v140zm283-868q1 28-21.5 46.5T708 401V239q89 23 90 84zM427 749q0-52 88-76v157q-88-23-88-81z"/><glyph glyph-name="percent.sc" horiz-adv-x="1610" d="M380 1092q134 0 223-84t89-211-89-211-223-84-222.5 84T69 797t88.5 211 222.5 84zm0-178q-52 0-86-33.5T260 797t34-83.5 86-33.5 86 33.5 34 83.5-34 83.5-86 33.5zm928 157L529 0H296l779 1071h233zm-80-501q134 0 223.5-84t89.5-211-89.5-211T1228-20q-133 0-222 84t-89 211q0 125 89 210t222 85zm0-177q-52 0-85.5-33.5T1109 275q0-50 33.5-83.5T1228 158q53 0 87 33t34 84-34 84.5-87 33.5z"/><glyph glyph-name="ampersand.sc" d="M1180 0H869L758 101Q610-20 428-20q-164 0-257 78T78 267q0 151 186 289-69 70-99.5 127T134 811q0 124 93.5 201.5T472 1090q150 0 242-75t92-199q0-77-54.5-140.5T600 544l152-143 164 207 171-121-180-229-1-1zM447 184q82 0 160 62L419 421q-94-73-94-135 0-46 33.5-74t88.5-28zm-80 621q0-26 17.5-50.5T453 681q60 40 91 70t31 60q0 36-28 58.5T472 892q-50 0-77.5-23T367 805z"/><glyph glyph-name="parenleft.sc" horiz-adv-x="697" d="M566 1215l72-208q-151-69-227-191.5T335 536t76-279.5T638 65l-72-209Q350-68 218 114T86 536q0 239 132 421t348 258z"/><glyph glyph-name="parenright.sc" horiz-adv-x="697" d="M131-144L59 64q151 69 227 191.5T362 535t-76 279.5T59 1006l72 209q216-76 348-258t132-422q0-239-132-421T131-144z"/><glyph glyph-name="asterisk.sc" horiz-adv-x="794" d="M132 952l178-63-6 182h186l-6-182 178 63 58-176-181-50 115-142-151-109-106 152-107-152-150 109 114 142-180 50z"/><glyph glyph-name="slash.sc" horiz-adv-x="930" d="M871 1071L330 0H59l542 1071h270z"/><glyph glyph-name="zero.sc" horiz-adv-x="1157" d="M578 1089q102 0 190.5-38.5t154.5-108 104-175 38-232.5q0-169-65.5-296.5T824 45.5 578-20q-101 0-189.5 38.5T234 127 130 302.5 92 535q0 253 138.5 403.5T578 1089zm0-235q-100 0-164.5-84T349 535t64.5-234.5T578 217q102 0 166.5 83T809 535t-65 235.5T578 854z"/><glyph glyph-name="one.sc" horiz-adv-x="717" d="M569 1087V0H323v748L46 647v243z"/><glyph glyph-name="two.sc" horiz-adv-x="932" d="M213 741L60 901q153 188 398 188 175 0 279.5-96.5T842 737q0-94-45-168.5T669 417L466 229h401V0H114v193l387 364q85 79 85 162 0 60-42.5 97.5T434 854t-118-29.5T213 741z"/><glyph glyph-name="three.sc" horiz-adv-x="939" d="M432 1089q181 0 293.5-84.5T838 781q0-85-43.5-147.5T671 538q90-32 140-94t50-147q0-78-35-139.5T731 58 596.5 0 439-20q-125 0-226 41T46 137l140 160q98-100 241-100 78 0 128 30t50 86q0 58-56 90t-142 32H280v209h128q77 0 126.5 30t49.5 85q0 52-45 81t-118 29q-137 0-224-102L52 927q138 162 380 162z"/><glyph glyph-name="four.sc" horiz-adv-x="954" d="M774 694V412h143V183H774V0H527v183H37v173l369 714h271L332 412h195v282h247z"/><glyph glyph-name="five.sc" horiz-adv-x="959" d="M811 1071V844H373l-5-174h114q188 0 291-87t103-231q0-169-117.5-270.5T458-20q-122 0-225 40.5T60 130l125 180q46-42 121.5-73.5T457 205q80 0 122 35t42 94q0 123-204 123H146l13 614h652z"/><glyph glyph-name="six.sc" horiz-adv-x="965" d="M757 1071L489 708q5 0 13 .5t13 .5q174 0 282-102t108-254q0-161-122-267T480-20Q298-20 176.5 84.5T55 347q0 139 110 298l295 426h297zM480 501q-72 0-119.5-42.5T313 351q0-66 47.5-108.5T480 200t120 42.5T648 351q0 65-48 107.5T480 501z"/><glyph glyph-name="seven.sc" horiz-adv-x="908" d="M853 1071V877L410 0H117l445 842H55v229h798z"/><glyph glyph-name="eight.sc" horiz-adv-x="1034" d="M516 1089q175 0 293.5-83.5T928 781q0-163-173-241 201-76 201-249 0-142-126.5-226.5T516-20q-121 0-219.5 36.5T138 124.5 78 291q0 173 200 249-173 78-173 241 0 140 118.5 224t292.5 84zm0-644q-71 0-120.5-33.5T346 318q0-57 49.5-90T516 195q72 0 121.5 32.5T687 318q0 60-49.5 93.5T516 445zm0 429q-65 0-107.5-31T366 757t42.5-87T516 638t108.5 32 43.5 87-43 86-109 31z"/><glyph glyph-name="nine.sc" horiz-adv-x="965" d="M209 0l266 362q-8-1-25-1-174 0-282 102T60 717q0 161 121.5 267T485 1090q181 0 303-104.5T910 724q0-139-110-298L505 0H209zm276 569q72 0 119.5 42.5T652 719q0 66-47.5 108.5T485 870t-120-42.5T317 719q0-65 48-107.5T485 569z"/><glyph glyph-name="question.sc" horiz-adv-x="774" d="M393 394H171v263h80q213 0 213 104 0 47-54 72.5T252 859q-40 0-119-7l-17 231q74 12 174 12 203 0 319.5-86.5T726 783q0-129-84-207.5T399 470zm-110-86q67 0 116.5-49.5T449 142 399.5 25 283-25 166 25t-50 117 50 116.5T283 308z"/><glyph glyph-name="at.sc" horiz-adv-x="1504" d="M1041 822V496q0-112 63-112 47 0 74 48.5t27 147.5q0 180-126 298T757 996q-200 0-327-128T303 536t125-332T751 76q146 0 262 78l106-143Q971-100 755-100q-190 0-339 82.5T185 210t-82 326 83 326 232.5 227.5T757 1172q186 0 334-78.5T1319.5 880t80.5-300q0-160-83.5-261.5T1095 217q-147 0-206 98-61-81-174-81-124 0-199 86t-75 216q0 129 74 215.5T708 838q96 0 154-75v59h179zM747 661q-50 0-82.5-35.5T632 536t32.5-89.5T747 411t82.5 35 32.5 90q0 54-32.5 89.5T747 661z"/><glyph glyph-name="bracketleft.sc" horiz-adv-x="658" d="M599 112v-212H147v1272h452V959H388V112h211z"/><glyph glyph-name="backslash.sc" horiz-adv-x="930" d="M600 0L59 1071h270L871 0H600z"/><glyph glyph-name="bracketright.sc" horiz-adv-x="658" d="M59 960v212h452V-100H59v213h211v847H59z"/><glyph glyph-name="a.sc" d="M753 1071L1180 0H909l-85 225H370L285 0H20l428 1071h305zM597 825L454 448h285z"/><glyph glyph-name="b.sc" horiz-adv-x="1154" d="M147 1071h472q206 0 315.5-77.5T1044 768q0-78-42.5-138T889 542q77-26 128-91t51-145q0-148-107.5-227T646 0H147v1071zm483-636H402V210h228q87 0 131.5 26.5T806 324q0 111-176 111zm-21 424H402V641h207q82 0 127 25t45 85q0 108-172 108z"/><glyph glyph-name="c.sc" horiz-adv-x="1199" d="M656 1090q156 0 284-68t197-190L915 706q-41 68-108.5 104.5T653 847q-131 0-216.5-87T351 535q0-144 87.5-227.5T653 224q175 0 267 140l207-146q-76-113-197-175.5T656-20q-250 0-410 156T86 535t160 399 410 156z"/><glyph glyph-name="d.sc" horiz-adv-x="1257" d="M147 1071h462q254 0 408-147t154-389-154-388.5T609 0H147v1071zm457-235H401V235h203q148 0 225.5 82.5T907 535q0 137-77.5 219T604 836z"/><glyph glyph-name="e.sc" horiz-adv-x="1110" d="M993 223L992 0H147v1071h842V847H402V651h554V428H402V223h591z"/><glyph glyph-name="f.sc" horiz-adv-x="1069" d="M943 639V411H402V0H147v1071h834V842H402V639h541z"/><glyph glyph-name="g.sc" horiz-adv-x="1272" d="M662 1090q251 0 404-156L885 757q-92 95-235 95-132 0-217-88.5T348 535q0-149 87.5-235.5T651 213q229 0 277 192H663v197h518q5-47 5-80 0-162-74-287.5T919 45 659-19q-159 0-289 67.5t-207 195T86 535q0 244 162 399.5T662 1090z"/><glyph glyph-name="h.sc" horiz-adv-x="1278" d="M402 1071V658h474v413h255V0H876v423H402V0H147v1071h255z"/><glyph glyph-name="i.sc" horiz-adv-x="549" d="M402 1071V0H147v1071h255z"/><glyph glyph-name="j.sc" horiz-adv-x="927" d="M788 1071V402q0-205-110.5-313.5T381-20q-122 0-211.5 38T26 114l137 192q78-82 200-82 170 0 170 200v647h255z"/><glyph glyph-name="k.sc" horiz-adv-x="1179" d="M402 1071V654h105l323 417h315L710 549 1180 0H859L504 425H402V0H147v1071h255z"/><glyph glyph-name="l.sc" horiz-adv-x="996" d="M967 235V0H147v1071h255V235h565z"/><glyph glyph-name="m.sc" horiz-adv-x="1532" d="M1385 1071V0h-249v759L895 101H637L396 756V0H147v1071h359l260-694 260 694h359z"/><glyph glyph-name="n.sc" horiz-adv-x="1312" d="M1165 1071V0H923L402 654V0H147v1071h243l521-654v654h254z"/><glyph glyph-name="o.sc" horiz-adv-x="1313" d="M657 1090q165 0 295-71.5T1154.5 820t72.5-285-72.5-285T952 51.5 657-20q-250 0-410.5 157T86 535t160.5 398T657 1090zm0-243q-135 0-220.5-87T351 535t85.5-224.5T657 224t220.5 86.5T963 535t-85.5 225T657 847z"/><glyph glyph-name="p.sc" horiz-adv-x="1106" d="M620 363H402V0H147v1071h470q201 0 309-96t108-261q0-162-107.5-256.5T620 363zm-6 477H402V589h212q77 0 118.5 32t41.5 93q0 62-41.5 94T614 840z"/><glyph glyph-name="q.sc" horiz-adv-x="1321" d="M657 1090q165 0 295.5-71.5t203-198.5 72.5-285q0-174-98-308L1300 0h-299l-48 63Q816-20 657-20q-165 0-295.5 71.5T158.5 250 86 535t72.5 285 203 198.5T657 1090zm227-580l62-84q17 51 17 109 0 138-85.5 225T657 847t-220.5-87T351 535t85.5-224.5T657 224q81 0 147 34L613 510h271z"/><glyph glyph-name="r.sc" horiz-adv-x="1130" d="M147 1071h475q201 0 309-90.5T1039 730q0-127-80-211T733 412L1058 0H748L451 404h-50V0H147v1071zm471-228H401V616h217q164 0 164 114 0 113-164 113z"/><glyph glyph-name="s.sc" horiz-adv-x="1120" d="M1014 974L901 771q-152 91-317 91-85 0-136-27t-52-76q0-24 15.5-41.5t49-29.5 68-19 91.5-16l57-9q166-27 260.5-103.5T1032 338q0-90-38.5-160.5T889 65 741.5 1.5 568-20q-137 0-264 36T88 120l124 200q162-114 360-114 83 0 135.5 27t52.5 78q0 45-53 67.5T535 417l-57 8q-165 23-258 101.5T127 738q0 159 125.5 255.5T575 1090q229 0 439-116z"/><glyph glyph-name="t.sc" horiz-adv-x="978" d="M949 1071V835H616V0H362v835H29v236h920z"/><glyph glyph-name="u.sc" horiz-adv-x="1214" d="M1082 1071V438q0-219-126-338.5T607-20 258 99.5 132 438v633h255V447q0-110 58-166.5T607 224t162 56.5T827 447v624h255z"/><glyph glyph-name="v.sc" horiz-adv-x="1169" d="M1149 1071L737 0H432L20 1071h270l296-817 297 817h266z"/><glyph glyph-name="w.sc" horiz-adv-x="1741" d="M1709 1071L1389 0h-301L870 711 651 0H351L32 1071h260l214-781 230 781h272l230-782 214 782h257z"/><glyph glyph-name="x.sc" horiz-adv-x="1099" d="M1066 1071L706 544 1071 0H778L548 359 317 0H28l365 544-359 527h293l224-346 225 346h290z"/><glyph glyph-name="y.sc" horiz-adv-x="1107" d="M1101 1071L685 407V0H430v406L6 1071h295l257-431 256 431h287z"/><glyph glyph-name="z.sc" horiz-adv-x="1067" d="M979 1071V871L425 229h554V0H88v198l553 644H88v229h891z"/><glyph glyph-name="braceleft.sc" horiz-adv-x="746" d="M687 965h-62q-61 0-95.5-32.5T499 841l4-62q5-92-33.5-152.5T334 536q97-30 135.5-90.5T503 293l-4-62q-4-59 30.5-92t95.5-33h62v-207h-91q-170 0-256.5 91T260 239l3 67q3 62-41.5 95.5T95 435v202q82 0 126.5 33.5T263 767l-3 66q-7 158 79.5 248.5T596 1172h91V965z"/><glyph glyph-name="braceright.sc" horiz-adv-x="746" d="M121 965H59v207h91q170 0 256.5-90.5T486 833l-3-66q-3-63 41.5-96.5T651 637V435q-82 0-126.5-33.5T483 306l3-67q7-158-79.5-249T150-101H59v207h62q61 0 95.5 33t30.5 92l-4 62q-5 92 33.5 152.5T412 536q-97 30-135.5 90.5T243 779l4 62q4 59-30.5 91.5T121 965z"/><glyph glyph-name="exclamdown.sc" horiz-adv-x="554" d="M136 0l30 665h222L418 0H136zm140 763q-67 0-116 49.5T111 929t49 117 116 50 117-50 50-117-50-116.5T276 763z"/><glyph glyph-name="cent.sc" d="M546 1071h193V921q152-28 245-151L810 641q-34 37-71 54V375q38 17 73 55l173-130q-94-124-246-152V0H546v152q-145 31-231 134.5T229 535t86 248.5T546 917v154zm-81-536q0-102 81-152v303q-81-50-81-151z"/><glyph glyph-name="sterling.sc" d="M1024 229V0H173v229h123v212H173v189h123v35q0 104 34.5 186.5T425 985t138 77.5 168 26.5q199 0 315-112L882 802q-56 52-151 52-84 0-136-48t-52-145v-31h373V441H543V229h481z"/><glyph glyph-name="currency.sc" d="M138 853l132 132 126-125q96 56 204 56 110 0 203-55l125 124 133-132-124-122q56-91 56-196 0-107-56-196l125-122L929 86 804 209q-93-55-204-55t-204 55L271 86 139 217l124 123q-55 90-55 195t55 195zm462-514q86 0 146.5 57T807 535t-60.5 139T600 731t-146-57-60-139 60-139 146-57z"/><glyph glyph-name="yen.sc" d="M1012 348V197H729V0H482v197H199v151h283v87H199v150h214L78 1071h285l243-363 239 363h277L793 585h219V435H729v-87h283z"/><glyph glyph-name="section.sc" horiz-adv-x="1045" d="M928 997l-98-188q-148 72-282 72-79 0-128.5-21.5T370 798t52.5-57.5T588 707l49-7q150-22 235-85t85-165q0-130-103-205 88-68 88-176 0-83-35.5-147T810-179.5 674.5-236 515-255q-122 0-234.5 28T88-146L199 42q150-90 318-90 81 0 131 21.5T698 37q0 20-12 33.5T640 94t-61 15-91 15l-53 8q-322 49-322 265 0 118 104 192-90 68-90 188 0 140 115.5 225t297.5 85q120 0 209.5-22T928 997zM449 507l-21 3q-73-24-73-83 0-48 81-69 35-9 138-22 61-8 76-11 63 26 63 84 0 22-12.5 37t-42 25-62.5 16-90 13z"/><glyph glyph-name="copyright.sc" horiz-adv-x="1471" d="M736 1159q171 0 316.5-82.5t230-224.5 84.5-308q0-167-84.5-309.5T1053 9.5 736-73q-173 0-318.5 83t-230 225T103 544q0 166 84.5 308T418 1076.5t318 82.5zm0-191q-179 0-305.5-124T304 544q0-177 126.5-302T736 117q178 0 304 125t126 302q0 175-126 299.5T736 968zm289-276l-157-81q-39 76-123 76-58 0-95.5-40T612 544q0-71 39.5-107t93.5-36q82 0 127 76l146-98q-92-144-271-144-140 0-228.5 86.5T430 544t88.5 222T747 852q92 0 166.5-42.5T1025 692z"/><glyph glyph-name="ordfeminine.sc" horiz-adv-x="931" d="M585 1071l310-813H683l-60 167H304l-59-167H36l311 813h238zM464 872l-96-267h191z"/><glyph glyph-name="degree.sc" horiz-adv-x="710" d="M355 480q-132 0-226.5 89.5T34 786q0 129 94.5 220.5T355 1098t226-91.5T675 786q0-127-94-216.5T355 480zm0 181q54 0 92.5 37t38.5 90q0 52-38.5 89T355 914t-92-37-38-89q0-53 38-90t92-37z"/><glyph glyph-name="ordmasculine.sc" horiz-adv-x="1000" d="M500 1086q188 0 308.5-119.5T929 664q0-182-120.5-301.5T500 243q-187 0-307.5 119.5T72 664q0 183 120.5 302.5T500 1086zm0-192q-97 0-158.5-64T280 664q0-101 61.5-165T500 435q98 0 159.5 64T721 664q0 102-61.5 166T500 894z"/><glyph glyph-name="questiondown.sc" horiz-adv-x="774" d="M381 677h222V414h-80q-213 0-213-104 0-47 54-72.5T522 212q40 0 119 7l17-231q-74-12-174-12-203 0-319.5 86.5T48 288q0 129 84 207.5T375 601zm110 86q-67 0-116.5 49.5T325 929t49.5 117 116.5 50 117-50 50-117-50-116.5T491 763z"/><glyph glyph-name="germandbls.sc" horiz-adv-x="2219" d="M1014 974L901 771q-152 91-317 91-85 0-136-27t-52-76q0-24 15.5-41.5t49-29.5 68-19 91.5-16l57-9q166-27 260.5-103.5T1032 338q0-90-38.5-160.5T889 65 741.5 1.5 568-20q-137 0-264 36T88 120l124 200q162-114 360-114 83 0 135.5 27t52.5 78q0 45-53 67.5T535 417l-57 8q-165 23-258 101.5T127 738q0 159 125.5 255.5T575 1090q229 0 439-116zm1099 0l-113-203q-152 91-317 91-85 0-136-27t-52-76q0-24 15.5-41.5t49-29.5 68-19 91.5-16l57-9q166-27 260.5-103.5T2131 338q0-90-38.5-160.5T1988 65 1840.5 1.5 1667-20q-137 0-264 36t-216 104l124 200q162-114 360-114 83 0 135.5 27t52.5 78q0 45-53 67.5T1634 417l-57 8q-165 23-258 101.5T1226 738q0 159 125.5 255.5T1674 1090q229 0 439-116z"/><glyph glyph-name="agrave.sc" d="M753 1071L1180 0H909l-85 225H370L285 0H20l428 1071h305zM597 825L454 448h285zm-76 384l-264 316h312l201-316H521z"/><glyph glyph-name="aacute.sc" d="M753 1071L1180 0H909l-85 225H370L285 0H20l428 1071h305zM597 825L454 448h285zm78 384H426l201 316h312z"/><glyph glyph-name="acircumflex.sc" d="M753 1071L1180 0H909l-85 225H370L285 0H20l428 1071h305zM597 825L454 448h285zm379 374H723l-123 154-122-154H225l218 316h315z"/><glyph glyph-name="atilde.sc" d="M753 1071L1180 0H909l-85 225H370L285 0H20l428 1071h305zM597 825L454 448h285zm-253 397l-138 149q102 132 262 132 47 0 90.5-11t69.5-24.5 53-24.5 47-11q51 0 124 67l139-149q-103-131-263-131-60 0-111 17.5t-88 35-61 17.5q-52 0-124-67z"/><glyph glyph-name="adieresis.sc" d="M753 1071L1180 0H909l-85 225H370L285 0H20l428 1071h305zM597 825L454 448h285zm-215 708q71 0 119.5-48.5T550 1366t-48.5-118-119.5-48q-70 0-118 48t-48 118q0 71 48 119t118 48zm431 0q71 0 119.5-48.5T981 1366t-48.5-118-119.5-48-118.5 48-47.5 118q0 71 48 119t118 48z"/><glyph glyph-name="aring.sc" d="M753 1071L1180 0H909l-85 225H370L285 0H20l428 1071h305zM597 825L454 448h285zm2 352q-108 0-184.5 75.5T338 1435q0 106 77 182t184 76q109 0 186-75.5t77-182.5-77-182.5-186-75.5zm0 149q44 0 75.5 31.5T706 1435q0 45-31.5 76.5T599 1543q-42 0-73.5-31.5T494 1435q0-46 31-77.5t74-31.5z"/><glyph glyph-name="ae.sc" horiz-adv-x="1848" d="M1731 223l-1-223H885v205H458L314 0H16l773 1071h938V847h-587V651h554V428h-554V223h591zM613 425h272v386z"/><glyph glyph-name="ccedilla.sc" horiz-adv-x="1199" d="M656 1090q156 0 284-68t197-190L915 706q-41 68-108.5 104.5T653 847q-131 0-216.5-87T351 535q0-144 87.5-227.5T653 224q175 0 267 140l207-146q-63-94-159-154T752-13l-96-308H404L511-4Q319 38 202.5 184.5T86 535q0 243 160 399t410 156z"/><glyph glyph-name="egrave.sc" horiz-adv-x="1110" d="M993 223L992 0H147v1071h842V847H402V651h554V428H402V223h591zm-507 985l-264 316h312l201-316H486z"/><glyph glyph-name="eacute.sc" horiz-adv-x="1110" d="M993 223L992 0H147v1071h842V847H402V651h554V428H402V223h591zm-353 985H391l201 316h312z"/><glyph glyph-name="ecircumflex.sc" horiz-adv-x="1110" d="M993 223L992 0H147v1071h842V847H402V651h554V428H402V223h591zm-52 975H688l-123 154-122-154H190l218 316h315z"/><glyph glyph-name="edieresis.sc" horiz-adv-x="1110" d="M993 223L992 0H147v1071h842V847H402V651h554V428H402V223h591zM347 1532q71 0 119.5-48.5T515 1365t-48.5-118-119.5-48-118.5 47.5T181 1365t48 119 118 48zm431 0q71 0 119.5-48.5T946 1365t-48.5-118-119.5-48q-70 0-118 47.5T612 1365t48 119 118 48z"/><glyph glyph-name="igrave.sc" horiz-adv-x="549" d="M402 1071V0H147v1071h255zm-207 138l-264 316h312l201-316H195z"/><glyph glyph-name="iacute.sc" horiz-adv-x="549" d="M402 1071V0H147v1071h255zm-53 138H100l201 316h312z"/><glyph glyph-name="icircumflex.sc" horiz-adv-x="549" d="M402 1071V0H147v1071h255zm248 128H397l-123 154-122-154h-253l218 316h315z"/><glyph glyph-name="idieresis.sc" horiz-adv-x="549" d="M402 1071V0H147v1071h255zM56 1533q71 0 119.5-48.5T224 1366t-48.5-118T56 1200q-70 0-118 48t-48 118q0 71 48 119t118 48zm431 0q71 0 119.5-48.5T655 1366t-48.5-118-119.5-48-118.5 48-47.5 118q0 71 48 119t118 48z"/><glyph glyph-name="eth.sc" horiz-adv-x="1367" d="M257 1071h462q254 0 408-147t154-389-154-388.5T719 0H257v428H88v218h169v425zm501-425V428H511V235h203q148 0 225.5 82.5T1017 535q0 137-77.5 219T714 836H511V646h247z"/><glyph glyph-name="ntilde.sc" horiz-adv-x="1312" d="M1165 1071V0H923L402 654V0H147v1071h243l521-654v654h254zm-772 151l-138 149q102 132 262 132 47 0 90.5-11t69.5-24.5 53-24.5 47-11q51 0 124 67l139-149q-103-131-263-131-60 0-111 17.5t-88 35-61 17.5q-52 0-124-67z"/><glyph glyph-name="ograve.sc" horiz-adv-x="1313" d="M657 1090q165 0 295-71.5T1154.5 820t72.5-285-72.5-285T952 51.5 657-20q-250 0-410.5 157T86 535t160.5 398T657 1090zm0-243q-135 0-220.5-87T351 535t85.5-224.5T657 224t220.5 86.5T963 535t-85.5 225T657 847zm-79 362l-264 316h312l201-316H578z"/><glyph glyph-name="oacute.sc" horiz-adv-x="1313" d="M657 1090q165 0 295-71.5T1154.5 820t72.5-285-72.5-285T952 51.5 657-20q-250 0-410.5 157T86 535t160.5 398T657 1090zm0-243q-135 0-220.5-87T351 535t85.5-224.5T657 224t220.5 86.5T963 535t-85.5 225T657 847zm75 362H483l201 316h312z"/><glyph glyph-name="ocircumflex.sc" horiz-adv-x="1313" d="M657 1090q165 0 295-71.5T1154.5 820t72.5-285-72.5-285T952 51.5 657-20q-250 0-410.5 157T86 535t160.5 398T657 1090zm0-243q-135 0-220.5-87T351 535t85.5-224.5T657 224t220.5 86.5T963 535t-85.5 225T657 847zm376 352H780l-123 154-122-154H282l218 316h315z"/><glyph glyph-name="otilde.sc" horiz-adv-x="1313" d="M657 1090q165 0 295-71.5T1154.5 820t72.5-285-72.5-285T952 51.5 657-20q-250 0-410.5 157T86 535t160.5 398T657 1090zm0-243q-135 0-220.5-87T351 535t85.5-224.5T657 224t220.5 86.5T963 535t-85.5 225T657 847zm-256 375l-138 149q102 132 262 132 47 0 90.5-11t69.5-24.5 53-24.5 47-11q51 0 124 67l139-149q-103-131-263-131-60 0-111 17.5t-88 35-61 17.5q-52 0-124-67z"/><glyph glyph-name="odieresis.sc" horiz-adv-x="1313" d="M657 1090q165 0 295-71.5T1154.5 820t72.5-285-72.5-285T952 51.5 657-20q-250 0-410.5 157T86 535t160.5 398T657 1090zm0-243q-135 0-220.5-87T351 535t85.5-224.5T657 224t220.5 86.5T963 535t-85.5 225T657 847zm-218 686q71 0 119.5-48.5T607 1366t-48.5-118-119.5-48-118.5 48-47.5 118q0 71 48 119t118 48zm431 0q71 0 119.5-48.5T1038 1366t-48.5-118-119.5-48q-70 0-118 48t-48 118q0 71 48 119t118 48z"/><glyph glyph-name="oslash.sc" horiz-adv-x="1313" d="M657 1090q180 0 319-86l97 97 149-148-94-94q99-140 99-324 0-158-72.5-285T952 51.5 657-20q-182 0-322 87l-96-96L89 118l94 94Q86 351 86 535q0 241 160.5 398T657 1090zm306-555q0 73-26 133L520 252q62-28 137-28 135 0 220.5 86.5T963 535zM657 847q-135 0-220.5-87T351 535q0-72 24-131l416 415q-62 28-134 28z"/><glyph glyph-name="ugrave.sc" horiz-adv-x="1214" d="M1082 1071V438q0-219-126-338.5T607-20 258 99.5 132 438v633h255V447q0-110 58-166.5T607 224t162 56.5T827 447v624h255zm-554 138l-264 316h312l201-316H528z"/><glyph glyph-name="uacute.sc" horiz-adv-x="1214" d="M1082 1071V438q0-219-126-338.5T607-20 258 99.5 132 438v633h255V447q0-110 58-166.5T607 224t162 56.5T827 447v624h255zm-400 138H433l201 316h312z"/><glyph glyph-name="ucircumflex.sc" horiz-adv-x="1214" d="M1082 1071V438q0-219-126-338.5T607-20 258 99.5 132 438v633h255V447q0-110 58-166.5T607 224t162 56.5T827 447v624h255zm-99 128H730l-123 154-122-154H232l218 316h315z"/><glyph glyph-name="udieresis.sc" horiz-adv-x="1214" d="M1082 1071V438q0-219-126-338.5T607-20 258 99.5 132 438v633h255V447q0-110 58-166.5T607 224t162 56.5T827 447v624h255zm-693 462q71 0 119.5-48.5T557 1366t-48.5-118-119.5-48-118.5 48-47.5 118q0 71 48 119t118 48zm431 0q71 0 119.5-48.5T988 1366t-48.5-118-119.5-48q-70 0-118 48t-48 118q0 71 48 119t118 48z"/><glyph glyph-name="yacute.sc" horiz-adv-x="1107" d="M1101 1071L685 407V0H430v406L6 1071h295l257-431 256 431h287zm-468 138H384l201 316h312z"/><glyph glyph-name="thorn.sc" horiz-adv-x="1110" d="M406 1071V903h214q201 0 309.5-96.5T1038 546q0-162-108.5-258T622 192H406V0H147v1071h259zm210-402H406V423h210q75 0 116.5 31.5T774 546q0 59-41.5 91T616 669z"/><glyph glyph-name="ydieresis.sc" horiz-adv-x="1107" d="M1101 1071L685 407V0H430v406L6 1071h295l257-431 256 431h287zm-761 462q71 0 119.5-48.5T508 1366t-48.5-118-119.5-48q-70 0-118 48t-48 118q0 71 48 119t118 48zm431 0q71 0 119.5-48.5T939 1366t-48.5-118-119.5-48-118.5 48-47.5 118q0 71 48 119t118 48z"/><glyph glyph-name="dotlessi.sc" horiz-adv-x="549" d="M402 1071V0H147v1071h255z"/><glyph glyph-name="ij.sc" horiz-adv-x="1476" d="M402 1071V0H147v1071h255zm935 0V402q0-205-110.5-313.5T930-20q-122 0-211.5 38T575 114l137 192q78-82 200-82 170 0 170 200v647h255z"/><glyph glyph-name="lslash.sc" horiz-adv-x="1086" d="M1057 235V0H237v319L88 239v249l149 80v503h255V704l307 165V621L492 456V235h565z"/><glyph glyph-name="oe.sc" horiz-adv-x="1808" d="M1691 223l-1-223H662Q402 0 244 146.5T86 535t158 389 418 147h1025V847h-587V651h554V428h-554V223h591zM356 535q0-135 79.5-215.5T667 239h178v592H667q-152 0-231.5-81T356 535z"/><glyph glyph-name="scaron.sc" horiz-adv-x="1120" d="M1014 974L901 771q-152 91-317 91-85 0-136-27t-52-76q0-24 15.5-41.5t49-29.5 68-19 91.5-16l57-9q166-27 260.5-103.5T1032 338q0-90-38.5-160.5T889 65 741.5 1.5 568-20q-137 0-264 36T88 120l124 200q162-114 360-114 83 0 135.5 27t52.5 78q0 45-53 67.5T535 417l-57 8q-165 23-258 101.5T127 738q0 159 125.5 255.5T575 1090q229 0 439-116zm-811 540h253l122-154 123 154h253l-218-316H421z"/><glyph glyph-name="zcaron.sc" horiz-adv-x="1067" d="M979 1071V871L425 229h554V0H88v198l553 644H88v229h891zm-823 444h253l122-154 123 154h253l-218-316H374z"/><glyph glyph-name="longs.sc" horiz-adv-x="1120" d="M1014 974L901 771q-152 91-317 91-85 0-136-27t-52-76q0-24 15.5-41.5t49-29.5 68-19 91.5-16l57-9q166-27 260.5-103.5T1032 338q0-90-38.5-160.5T889 65 741.5 1.5 568-20q-137 0-264 36T88 120l124 200q162-114 360-114 83 0 135.5 27t52.5 78q0 45-53 67.5T535 417l-57 8q-165 23-258 101.5T127 738q0 159 125.5 255.5T575 1090q229 0 439-116z"/><glyph glyph-name="florin.sc" d="M911 649V460H709l-19-188q-15-146-84.5-219T406-20q-132 0-236 69l98 171q57-25 109-25 41 0 59 23t23 75l16 167H301v189h193l16 155q30 285 284 285 136 0 236-67l-99-172q-55 25-108 25-41 0-58.5-22.5T742 778l-13-129h182z"/><glyph glyph-name="uni02BB.sc" horiz-adv-x="445" d="M326 534H63l126 536h197z"/><glyph glyph-name="afii57929.sc" horiz-adv-x="445" d="M119 1071h263L256 535H59z"/><glyph glyph-name="gravecomb.sc" horiz-adv-x="1" d="M-735 1209l-264 316h312l201-316h-249z"/><glyph glyph-name="acutecomb.sc" horiz-adv-x="1" d="M-581 1209h-249l201 316h312z"/><glyph glyph-name="uni0302.sc" horiz-adv-x="1" d="M-280 1199h-253l-123 154-122-154h-253l218 316h315z"/><glyph glyph-name="tildecomb.sc" horiz-adv-x="1" d="M-912 1222l-138 149q102 132 262 132 47 0 90.5-11t69.5-24.5 53-24.5 47-11q51 0 124 67l139-149q-103-131-263-131-60 0-111 17.5t-88 35-61 17.5q-52 0-124-67z"/><glyph glyph-name="uni0304.sc" horiz-adv-x="1" d="M-987 1252v210h661v-210h-661z"/><glyph glyph-name="uni0306.sc" horiz-adv-x="1" d="M-1039 1500l199 58q50-164 184-164 132 0 184 164l199-58q-41-152-140.5-233.5T-656 1185t-242.5 81.5T-1039 1500z"/><glyph glyph-name="uni0307.sc" horiz-adv-x="1" d="M-657 1529q71 0 119-48.5t48-118.5-48-118-119-48-118.5 48-47.5 118q0 71 48 119t118 48z"/><glyph glyph-name="uni0308.sc" horiz-adv-x="1" d="M-874 1533q71 0 119.5-48.5T-706 1366t-48.5-118-119.5-48q-70 0-118 48t-48 118q0 71 48 119t118 48zm431 0q71 0 119.5-48.5T-275 1366t-48.5-118-119.5-48-118.5 48-47.5 118q0 71 48 119t118 48z"/><glyph glyph-name="uni030A.sc" horiz-adv-x="1" d="M-657 1177q-108 0-184.5 75.5T-918 1435q0 106 77 182t184 76q109 0 186-75.5t77-182.5-77-182.5-186-75.5zm0 149q44 0 75.5 31.5t31.5 77.5q0 45-31.5 76.5T-657 1543q-42 0-73.5-31.5T-762 1435q0-46 31-77.5t74-31.5z"/><glyph glyph-name="uni030B.sc" horiz-adv-x="1" d="M-348 1209h-254l217 316h284zm-377 0h-252l193 316h277z"/><glyph glyph-name="uni030C.sc" horiz-adv-x="1" d="M-1031 1515h253l122-154 123 154h253l-218-316h-315z"/><glyph glyph-name="dotbelowcomb.sc" horiz-adv-x="1" d="M-657-103q70 0 118.5-48.5T-490-271q0-70-48-118t-119-48-118.5 47.5T-823-271t48 119.5 118 48.5z"/><glyph glyph-name="uni0326.sc" horiz-adv-x="1" d="M-779-84h265l-92-389h-216z"/><glyph glyph-name="uni0327.sc" horiz-adv-x="1" d="M-479 7l-103-328h-252L-723 7h244z"/><glyph glyph-name="uni0328.sc" horiz-adv-x="1" d="M-541-177l128-153q-97-89-240-89-108 0-178 53t-70 143q0 51 21 95t62.5 81 86.5 65.5T-623 79l72-76q-124-77-124-161 0-26 16-40t42-14q36 0 76 35z"/><glyph glyph-name="uni032E.sc" horiz-adv-x="1" d="M-1040-133l199 58q50-164 184-164 132 0 184 164l199-58q-41-153-140-234t-243-81-243 81-140 234z"/><glyph glyph-name="uni0331.sc" horiz-adv-x="1" d="M-987-366v209h661v-209h-661z"/><glyph glyph-name="uni0335.sc" horiz-adv-x="1" d="M-321 636V418h-670v218h670z"/><glyph glyph-name="uni0336.sc" horiz-adv-x="1" d="M-45 493V303h-1221v190H-45z"/><glyph glyph-name="uni1E9E.sc" horiz-adv-x="1204" d="M572 419v185l184 218q-56 37-153 37-102 0-156.5-49T392 678V0H132v682q0 63 15.5 120t51 110.5 89.5 92 136 62 184 23.5q299 0 469-205L842 607q129-30 202.5-107.5T1118 312q0-152-120-242T681-20Q563-20 488-3l37 225q57-12 120-12 204 0 204 104 0 52-54 78.5T642 419h-70z"/><glyph glyph-name="quoteleft.sc" horiz-adv-x="445" d="M326 534H63l126 536h197z"/><glyph glyph-name="quoteright.sc" horiz-adv-x="445" d="M119 1071h263L256 535H59z"/><glyph glyph-name="quotesinglbase.sc" horiz-adv-x="445" d="M119 349h263L256-187H59z"/><glyph glyph-name="quotedblleft.sc" horiz-adv-x="805" d="M686 534H423l126 536h197zm-360 0H63l126 536h197z"/><glyph glyph-name="quotedblright.sc" horiz-adv-x="805" d="M479 1071h263L616 535H419zm-360 0h263L256 535H59z"/><glyph glyph-name="quotedblbase.sc" horiz-adv-x="805" d="M479 349h263L616-187H419zm-360 0h263L256-187H59z"/><glyph glyph-name="dagger.sc" horiz-adv-x="640" d="M410 434H230v304H74v176h156v157h180V914h156V738H410V434z"/><glyph glyph-name="daggerdbl.sc" horiz-adv-x="640" d="M407 434H233v116H74v151h159v103H74v152h159v115h174V956h159V804H407V701h159V550H407V434z"/><glyph glyph-name="perthousand.sc" horiz-adv-x="2291" d="M380 1092q134 0 223-84t89-211-89-211-223-84-222.5 84T69 797t88.5 211 222.5 84zm0-178q-52 0-86-33.5T260 797t34-83.5 86-33.5 86 33.5 34 83.5-34 83.5-86 33.5zm928 157L529 0H296l779 1071h233zm-80-501q134 0 223.5-84t89.5-211-89.5-211T1228-20q-133 0-222 84t-89 211q0 125 89 210t222 85zm0-177q-52 0-85.5-33.5T1109 275q0-50 33.5-83.5T1228 158q53 0 87 33t34 84-34 84.5-87 33.5zm682 177q134 0 223-84t89-211-89-211-223-84-222.5 84-88.5 211q0 126 89 210.5t222 84.5zm0-177q-52 0-86-34t-34-84 34-83.5 86-33.5q53 0 87 33t34 84-34 84.5-87 33.5z"/><glyph glyph-name="minute.sc" horiz-adv-x="465" d="M177 1071h225L284 533H59z"/><glyph glyph-name="second.sc" horiz-adv-x="789" d="M501 1071h225L608 533H383zm-324 0h225L284 533H59z"/><glyph glyph-name="uni2034.sc" horiz-adv-x="1080" d="M485 1071h225L592 533H367zm307 0h225L899 533H674zm-615 0h225L284 533H59z"/><glyph glyph-name="uni2071.sc" horiz-adv-x="400" d="M300 1071V258H100v813h200z"/><glyph glyph-name="uni207F.sc" horiz-adv-x="954" d="M855 1071V258H662L300 744V258H100v813h193l361-487v487h201z"/><glyph glyph-name="Euro.sc" d="M880 492V341H511q38-67 101-103.5T752 201q128 0 224 87l125-184Q958-20 754-20q-190 0-324.5 95.5T245 341H112v151h108q-1 14-1 43t1 44H112v150h133q50 170 184.5 265t324.5 95q205 0 349-122L974 782q-93 88-223 88-79 0-141.5-37T510 729h370V579H465q-1-15-1-44 0-15 2-43h414z"/><glyph glyph-name="uni20BA.sc" d="M842 678V518L536 386V232h112q82 0 143.5 37.5T902 387l194-120Q940 0 633 0H288v279l-123-53v159l123 53v85l-123-53v159l123 53v391h248V789l306 133V763L536 630v-85z"/><glyph glyph-name="afii61352.sc" horiz-adv-x="2143" d="M2052 269V52h-707v217h707zm-353 821q161 0 267-104t106-260-106-259.5T1699 363q-160 0-266.5 104T1326 726q0 156 106.5 260t266.5 104zm-1-185q-73 0-121.5-50.5T1528 726t48.5-128 121.5-50q74 0 123 50t49 128-49 128.5-123 50.5zm-533 166V0H923L402 654V0H147v1071h243l521-654v654h254z"/><glyph glyph-name="uni2117.sc" horiz-adv-x="1471" d="M736 1159q171 0 316.5-82.5t230-224.5 84.5-308q0-167-84.5-309.5T1053 9.5 736-73q-173 0-318.5 83t-230 225T103 544q0 166 84.5 308T418 1076.5t318 82.5zm0-191q-179 0-305.5-124T304 544q0-177 126.5-302T736 117q178 0 304 125t126 302q0 175-126 299.5T736 968zm48-125q127 0 194.5-56.5T1046 634q0-93-67.5-149T787 429H683V238H507v605h277zm0-149H683V574h101q40 0 61.5 16t21.5 44-21.5 44-61.5 16z"/><glyph glyph-name="uni2E38.sc" horiz-adv-x="640" d="M230 1071h180V767h156V591H410V434H230v157H74v176h156v304z"/><glyph glyph-name="uniFB00.sc" horiz-adv-x="2138" d="M943 639V411H402V0H147v1071h834V842H402V639h541zm1069 0V411h-541V0h-255v1071h834V842h-579V639h541z"/><glyph glyph-name="fi.sc" horiz-adv-x="1618" d="M943 639V411H402V0H147v1071h834V842H402V639h541zm528 432V0h-255v1071h255z"/><glyph glyph-name="fl.sc" horiz-adv-x="2065" d="M943 639V411H402V0H147v1071h834V842H402V639h541zm1093-404V0h-820v1071h255V235h565z"/><glyph glyph-name="uniFB03.sc" horiz-adv-x="2687" d="M943 639V411H402V0H147v1071h834V842H402V639h541zm1069 0V411h-541V0h-255v1071h834V842h-579V639h541zm528 432V0h-255v1071h255z"/><glyph glyph-name="uniFB04.sc" horiz-adv-x="3134" d="M943 639V411H402V0H147v1071h834V842H402V639h541zm1069 0V411h-541V0h-255v1071h834V842h-579V639h541zm1093-404V0h-820v1071h255V235h565z"/><glyph glyph-name="uniFB05.sc" horiz-adv-x="2095" d="M2066 1071V835h-333V0h-254v835h-333v236h920zm-1052-97L901 771q-152 91-317 91-85 0-136-27t-52-76q0-24 15.5-41.5t49-29.5 68-19 91.5-16l57-9q166-27 260.5-103.5T1032 338q0-90-38.5-160.5T889 65 741.5 1.5 568-20q-137 0-264 36T88 120l124 200q162-114 360-114 83 0 135.5 27t52.5 78q0 45-53 67.5T535 417l-57 8q-165 23-258 101.5T127 738q0 159 125.5 255.5T575 1090q229 0 439-116z"/><glyph glyph-name="uniFB06.sc" horiz-adv-x="2095" d="M1014 974L901 771q-152 91-317 91-85 0-136-27t-52-76q0-24 15.5-41.5t49-29.5 68-19 91.5-16l57-9q166-27 260.5-103.5T1032 338q0-90-38.5-160.5T889 65 741.5 1.5 568-20q-137 0-264 36T88 120l124 200q162-114 360-114 83 0 135.5 27t52.5 78q0 45-53 67.5T535 417l-57 8q-165 23-258 101.5T127 738q0 159 125.5 255.5T575 1090q229 0 439-116zm1052 97V835h-333V0h-254v835h-333v236h920z"/><glyph glyph-name="j.latn_NLD.sc" horiz-adv-x="927" d="M788 1071V402q0-205-110.5-313.5T381-20q-122 0-211.5 38T26 114l137 192q78-82 200-82 170 0 170 200v647h255zm-52 138H487l201 316h312z"/><glyph glyph-name="b.ordn.sc" horiz-adv-x="854" d="M100 1071h353q155 0 234-59.5T766 840q0-59-30.5-104T654 669q56-20 92-68.5T782 492q0-113-77.5-173.5T474 258H100v813zm363-488H300V425h163q113 0 113 79t-113 79zm-14 321H300V750h148q110 0 110 77t-109 77z"/><glyph glyph-name="d.ordn.sc" horiz-adv-x="944" d="M100 1071h350q191 0 306.5-111.5T872 664 756.5 369 450 258H100v813zm346-185H300V442h146q106 0 161.5 61T663 664q0 101-55 161.5T446 886z"/><glyph glyph-name="e.ordn.sc" horiz-adv-x="811" d="M725 438V258H100v813h623V891H300V758h397V579H300V438h425z"/><glyph glyph-name="h.ordn.sc" horiz-adv-x="932" d="M300 1071V761h332v310h200V258H632v318H300V258H100v813h200z"/><glyph glyph-name="l.ordn.sc" horiz-adv-x="749" d="M705 443V258H100v813h200V443h405z"/><glyph glyph-name="m.ordn.sc" horiz-adv-x="1123" d="M1023 1071V258H823v545L668 335H455L300 802V258H100v813h282l179-510 180 510h282z"/><glyph glyph-name="r.ordn.sc" horiz-adv-x="840" d="M100 1071h355q150 0 230-70t80-192q0-97-58.5-161T541 565l231-307H534L324 559h-24V258H100v813zm353-181H300V726h153q109 0 109 83 0 40-29 60.5T453 890z"/><glyph glyph-name="s.ordn.sc" horiz-adv-x="841" d="M747 1007l-84-165q-114 63-226 63-57 0-93-18.5T308 834q0-40 80-58 23-6 88-15l33-5q260-40 260-231 0-72-29-127.5T661 309t-111-49.5T421 243q-217 0-349 95l95 164q124-78 257-78 58 0 93.5 18.5T553 496q0 34-34 47t-126 27l-40 6q-132 20-196 77T93 816q0 121 92.5 195t241.5 74q100 0 172.5-19t147.5-59z"/><glyph glyph-name="t.ordn.sc" horiz-adv-x="765" d="M721 1071V885H483V258H282v627H44v186h677z"/><glyph glyph-name="egrave.ordn.sc" horiz-adv-x="811" d="M725 438V258H100v813h623V891H300V758h397V579H300V438h425zm-372 695l-162 195h213l124-195H353z"/><glyph glyph-name="parenleft.case" horiz-adv-x="844" d="M697 1581l83-233q-191-90-293-262T385 700t102-386T780 52l-83-233Q431-77 270.5 159T110 700t160.5 541T697 1581z"/><glyph glyph-name="parenright.case" horiz-adv-x="844" d="M147-180L64 53q191 90 293 262t102 386-102 386-293 262l83 233q266-104 426.5-340T734 701 573.5 160 147-180z"/><glyph glyph-name="hyphen.case" horiz-adv-x="813" d="M702 814V586H111v228h591z"/><glyph glyph-name="slash.case" horiz-adv-x="1108" d="M1044 1400L361 0H64l683 1400h297z"/><glyph glyph-name="at.case" horiz-adv-x="1944" d="M1344 1079V648q0-86 21-125t70-39q68 0 107.5 63.5T1582 744q0 166-78 298t-218 206.5-317 74.5-317-78-218-220-78-324q0-183 77.5-326T649 154t313-78q218 0 380 114l119-161q-211-154-499-154-180 0-335.5 62.5T362 109.5 191 372t-62 329q0 175 62.5 327.5t172.5 261 266.5 171T969 1523q181 0 337.5-60.5t266-164.5 171.5-247.5 62-305.5q0-202-103-329.5T1424 288q-186 0-258 133-88-119-246-119-162 0-265 113.5T552 701q0 170 102.5 284.5T912 1100q139 0 222-100v79h210zM955 899q-82 0-132-56.5T773 701t50-141.5T955 503q81 0 132 56t51 142-51 142-132 56z"/><glyph glyph-name="bracketleft.case" horiz-adv-x="766" d="M702 104v-236H159v1663h543v-236H424V104h278z"/><glyph glyph-name="backslash.case" horiz-adv-x="891" d="M634 0L-49 1400h297L931 0H634z"/><glyph glyph-name="bracketright.case" horiz-adv-x="766" d="M64 1295v236h543V-132H64v236h278v1191H64z"/><glyph glyph-name="braceleft.case" horiz-adv-x="881" d="M817 1299h-65q-87 0-136.5-48T570 1116l4-94q11-245-210-322 221-77 210-322l-4-94q-4-87 45.5-135T752 101h65v-232h-86q-214 0-324 115.5T306 301l4 98q4 89-53.5 137.5T95 585v229q104 0 161.5 49t53.5 138l-4 98q-9 201 101 316.5T731 1531h86v-232z"/><glyph glyph-name="braceright.case" horiz-adv-x="881" d="M64 101h65q87 0 136.5 48T311 284l-4 94q-11 245 210 322-221 77-210 322l4 94q4 87-45.5 135T129 1299H64v232h86q214 0 324-115.5T575 1099l-4-98q-4-89 53.5-137.5T786 815V586q-104 0-161.5-49T571 399l4-98q9-201-101-316.5T150-131H64v232z"/><glyph glyph-name="exclamdown.case" horiz-adv-x="555" d="M122 0l36 919h240L434 0H122zm155 1045q-76 0-132.5 56.5T88 1234q0 77 56.5 134t132.5 57q77 0 134-57.5t57-133.5-57-132.5-134-56.5z"/><glyph glyph-name="guillemotleft.case" horiz-adv-x="1087" d="M800 700l193-390H730L537 700l193 390h263zm-449 0l193-390H281L88 700l193 390h263z"/><glyph glyph-name="uni00AD.case" horiz-adv-x="813" d="M702 814V586H111v228h591z"/><glyph glyph-name="periodcentered.case" horiz-adv-x="670" d="M336 894q77 0 135-57.5T529 701q0-79-58-137t-135-58q-78 0-136.5 58T141 701q0 78 58.5 135.5T336 894z"/><glyph glyph-name="guillemotright.case" horiz-adv-x="1087" d="M287 700L94 1090h263l193-390-193-390H94zm449 0l-193 390h263l193-390-193-390H543z"/><glyph glyph-name="questiondown.case" horiz-adv-x="891" d="M478 922h241V582h-96q-145 0-221-45t-76-133q0-81 75.5-123.5T620 238q68 0 152 8l19-263q-91-13-202-13-260 0-405.5 111.5T38 384q0 173 111 281t321 142zm120 122q-76 0-132.5 56.5T409 1233q0 77 56.5 134.5T598 1425t133.5-57.5T789 1234q0-77-57-133.5T598 1044z"/><glyph glyph-name="gravecomb.case" horiz-adv-x="1" d="M-820 1518l-264 315h312l201-315h-249z"/><glyph glyph-name="acutecomb.case" horiz-adv-x="1" d="M-835 1518h-249l201 315h312z"/><glyph glyph-name="uni0302.case" horiz-adv-x="1" d="M-452 1508h-253l-123 153-122-153h-253l218 315h315z"/><glyph glyph-name="tildecomb.case" horiz-adv-x="1" d="M-1082 1531l-138 149q101 131 262 131 61 0 112.5-17.5t88-35 59.5-17.5q52 0 124 67l139-149q-103-132-263-132-60 0-111 17.5t-88 35-61 17.5q-52 0-124-66z"/><glyph glyph-name="uni0304.case" horiz-adv-x="1" d="M-1158 1561v209h661v-209h-661z"/><glyph glyph-name="uni0306.case" horiz-adv-x="1" d="M-1211 1809l199 58q50-164 184-164 132 0 184 164l199-58q-41-153-140-234t-243-81-243 81-140 234z"/><glyph glyph-name="uni0307.case" horiz-adv-x="1" d="M-828 1849q74 0 124.5-51.5T-653 1672t-50.5-124-124.5-50-124 50-50 124q0 75 50 126t124 51z"/><glyph glyph-name="uni0308.case" horiz-adv-x="1" d="M-1044 1834q70 0 119-49t49-119-48.5-118-119.5-48q-70 0-118 48t-48 118q0 71 48 119.5t118 48.5zm431 0q71 0 119.5-49t48.5-119-48.5-118-119.5-48-118.5 48-47.5 118q0 71 48 119.5t118 48.5z"/><glyph glyph-name="uni030A.case" horiz-adv-x="1" d="M-829 1486q-108 0-184.5 75.5T-1090 1744q0 106 77 181.5t184 75.5q109 0 186-75.5t77-181.5q0-107-77-182.5t-186-75.5zm0 149q44 0 75.5 31.5t31.5 77.5q0 45-31.5 76.5T-829 1852q-42 0-73.5-31.5T-934 1744q0-46 31-77.5t74-31.5z"/><glyph glyph-name="uni030B.case" horiz-adv-x="1" d="M-637 1518h-254l217 315h284zm-377 0h-252l193 315h277z"/><glyph glyph-name="uni030C.case" horiz-adv-x="1" d="M-1203 1823h253l122-153 123 153h253l-218-315h-315z"/><glyph glyph-name="dotbelowcomb.case" horiz-adv-x="1" d="M-827-103q70 0 118.5-48.5T-660-271q0-70-48-118t-119-48-118.5 47.5T-993-271t48 119.5 118 48.5z"/><glyph glyph-name="uni0326.case" horiz-adv-x="1" d="M-938-84h265l-92-389h-216z"/><glyph glyph-name="uni0327.case" horiz-adv-x="1" d="M-642 7l-103-328h-267L-900 7h258z"/><glyph glyph-name="uni032E.case" horiz-adv-x="1" d="M-1210-133l199 58q50-164 184-164 132 0 184 164l199-58q-41-153-140-234t-243-81-243 81-140 234z"/><glyph glyph-name="uni0331.case" horiz-adv-x="1" d="M-1158-367v210h662v-210h-662z"/><glyph glyph-name="uni0335.case" horiz-adv-x="1" d="M-428 831V581h-797v250h797z"/><glyph glyph-name="uni2010.case" horiz-adv-x="813" d="M702 814V586H111v228h591z"/><glyph glyph-name="uni2011.case" horiz-adv-x="813" d="M702 814V586H111v228h591z"/><glyph glyph-name="figuredash.case" d="M1084 812V589H116v223h968z"/><glyph glyph-name="endash.case" horiz-adv-x="1158" d="M1063 812V589H95v223h968z"/><glyph glyph-name="emdash.case" horiz-adv-x="1596" d="M1548 812V589H48v223h1500z"/><glyph glyph-name="bullet.case" horiz-adv-x="883" d="M442 1017q131 0 224-92.5T759 700t-93-224.5T442 383q-132 0-224.5 92.5T125 700t92.5 224.5T442 1017z"/><glyph glyph-name="guilsinglleft.case" horiz-adv-x="638" d="M351 700l193-390H281L88 700l193 390h263z"/><glyph glyph-name="guilsinglright.case" horiz-adv-x="638" d="M287 701L94 1091h263l193-390-193-390H94z"/><glyph glyph-name="uni2E17.case" horiz-adv-x="877" d="M733 1085V871L144 656v215zm0-352V519L144 304v214z"/><glyph glyph-name="j.latn_NLD.case" horiz-adv-x="1129" d="M978 1400V510q0-256-138-395.5T476-25Q188-25 29 169l162 203q106-130 272-130 114 0 175 73t61 221v864h279zm-73 118H656l201 315h312z"/><glyph glyph-name="zero.zero" horiz-adv-x="1412" d="M706 1425q125 0 235-50t192-141.5 129.5-229.5 47.5-304-47.5-304T1133 166.5 941 25 706-25q-126 0-235.5 50T279 166.5 150 396t-47 304 47 304 129 229.5T470.5 1375t235.5 50zm0-259q-140 0-231-122.5T384 700q0-91 17-168l525 525q-86 109-220 109zm322-466q0 90-17 167L486 342q86-108 220-108 141 0 231.5 122t90.5 344z"/><glyph glyph-name="zero.osf.zero" horiz-adv-x="1344" d="M672 1095q160 0 290.5-68t208-197 77.5-296q0-166-77.5-294.5T962.5 43 672-25 381.5 43 174 239.5 97 534q0 167 77 296t207.5 197 290.5 68zm311-560q0 86-36 155L515 258q70-38 157-38 134 0 222.5 86T983 535zM672 850q-133 0-221.5-86.5T362 535q0-79 29-142l425 425q-66 32-144 32z"/><glyph glyph-name="zero.tf.zero" d="M604 1425q90 0 170-27t148.5-84.5 118-141.5 77.5-205 28-267q0-152-28-274.5T1040.5 220 922 81 774 0 604-25q-92 0-172.5 25t-151 81T160 220 81.5 425.5 53 700q0 189 43.5 331.5t120.5 227T391 1384t213 41zm264-725q0 69-8 133L394 367q70-133 210-133 55 0 100.5 24t83.5 76 59 145.5T868 700zm-264 466q-57 0-104-24t-86-76-60.5-145.5T332 700q0-72 6-130l464 464q-73 132-198 132z"/><glyph glyph-name="zero.tosf.zero" d="M599 1095q151 0 273.5-67.5T1068 831t73-297-73-297T872.5 40.5 599-27q-150 0-272.5 67.5T131 237 58 534t73 297 195.5 196.5T599 1095zm0-239q-119 0-198-87t-79-235q0-71 20-131l407 408q-67 45-150 45zm277-322q0 71-20 129L450 257q65-44 149-44 120 0 198.5 86.5T876 534z"/><glyph glyph-name="zero.sc.zero" horiz-adv-x="1157" d="M578 1089q102 0 190.5-38.5t154.5-108 104-175 38-232.5q0-169-65.5-296.5T824 45.5 578-20q-101 0-189.5 38.5T234 127 130 302.5 92 535q0 253 138.5 403.5T578 1089zm0-235q-100 0-164.5-84T349 535q0-55 9-102l363 363q-60 58-143 58zm231-319q0 55-9 102L436 273q59-56 142-56 102 0 166.5 83T809 535z"/><glyph glyph-name="a.ss01" horiz-adv-x="1097" d="M518 995q211 0 330.5-108.5T968 571V0H715v98Q596-25 418-25q-158 0-249.5 85.5T77 286q0 139 107.5 218.5T479 584h226q-17 181-216 181-135 0-265-91L122 873q165 122 396 122zm-37-810q64 0 124.5 30T711 297v111H517q-86 0-127.5-32.5T348 296t34-79 99-32z"/><glyph glyph-name="agrave.ss01" horiz-adv-x="1097" d="M518 995q211 0 330.5-108.5T968 571V0H715v98Q596-25 418-25q-158 0-249.5 85.5T77 286q0 139 107.5 218.5T479 584h226q-17 181-216 181-135 0-265-91L122 873q165 122 396 122zm-37-810q64 0 124.5 30T711 297v111H517q-86 0-127.5-32.5T348 296t34-79 99-32zm-21 923l-264 315h312l201-315H460z"/><glyph glyph-name="aacute.ss01" horiz-adv-x="1097" d="M518 995q211 0 330.5-108.5T968 571V0H715v98Q596-25 418-25q-158 0-249.5 85.5T77 286q0 139 107.5 218.5T479 584h226q-17 181-216 181-135 0-265-91L122 873q165 122 396 122zm-37-810q64 0 124.5 30T711 297v111H517q-86 0-127.5-32.5T348 296t34-79 99-32zm133 923H365l201 315h312z"/><glyph glyph-name="acircumflex.ss01" horiz-adv-x="1097" d="M518 995q211 0 330.5-108.5T968 571V0H715v98Q596-25 418-25q-158 0-249.5 85.5T77 286q0 139 107.5 218.5T479 584h226q-17 181-216 181-135 0-265-91L122 873q165 122 396 122zm-37-810q64 0 124.5 30T711 297v111H517q-86 0-127.5-32.5T348 296t34-79 99-32zm434 913H662l-123 153-122-153H164l218 315h315z"/><glyph glyph-name="atilde.ss01" horiz-adv-x="1097" d="M518 995q211 0 330.5-108.5T968 571V0H715v98Q596-25 418-25q-158 0-249.5 85.5T77 286q0 139 107.5 218.5T479 584h226q-17 181-216 181-135 0-265-91L122 873q165 122 396 122zm-37-810q64 0 124.5 30T711 297v111H517q-86 0-127.5-32.5T348 296t34-79 99-32zm-198 936l-138 149q101 131 262 131 61 0 112.5-17.5t88-35T667 1331q52 0 124 67l139-149q-103-132-263-132-60 0-111 17.5t-88 35-61 17.5q-52 0-124-66z"/><glyph glyph-name="adieresis.ss01" horiz-adv-x="1097" d="M518 995q211 0 330.5-108.5T968 571V0H715v98Q596-25 418-25q-158 0-249.5 85.5T77 286q0 139 107.5 218.5T479 584h226q-17 181-216 181-135 0-265-91L122 873q165 122 396 122zm-37-810q64 0 124.5 30T711 297v111H517q-86 0-127.5-32.5T348 296t34-79 99-32zM321 1424q71 0 119.5-49t48.5-119-48.5-118-119.5-48-118.5 48-47.5 118q0 71 48 119.5t118 48.5zm431 0q70 0 119-49t49-119-48.5-118-119.5-48q-70 0-118 48t-48 118q0 71 48 119.5t118 48.5z"/><glyph glyph-name="aring.ss01" horiz-adv-x="1097" d="M518 995q211 0 330.5-108.5T968 571V0H715v98Q596-25 418-25q-158 0-249.5 85.5T77 286q0 139 107.5 218.5T479 584h226q-17 181-216 181-135 0-265-91L122 873q165 122 396 122zm-37-810q64 0 124.5 30T711 297v111H517q-86 0-127.5-32.5T348 296t34-79 99-32zm57 891q-108 0-184.5 75.5T277 1334q0 106 77 181.5t184 75.5q109 0 186-75.5t77-181.5q0-107-77-182.5T538 1076zm0 149q44 0 75.5 31.5T645 1334q0 45-31.5 76.5T538 1442q-42 0-73.5-31.5T433 1334q0-46 31-77.5t74-31.5z"/><glyph glyph-name="J.ss02" horiz-adv-x="829" d="M32-11l38 264q46-11 93-11 114 0 175 73t61 221v864h279V510q0-256-138-395.5T176-25Q99-25 32-11z"/><glyph glyph-name="IJ.ss02" horiz-adv-x="1426" d="M438 1400V0H159v1400h279zM629-11l38 264q46-11 93-11 114 0 175 73t61 221v864h279V510q0-256-138-395.5T773-25q-77 0-144 14z"/><glyph glyph-name="j.sc.ss02" horiz-adv-x="693" d="M29-9l30 240q31-7 68-7 168 0 168 197v650h259V403q0-206-110.5-314.5T146-20Q86-20 29-9z"/><glyph glyph-name="ij.sc.ss02" horiz-adv-x="1242" d="M402 1071V0H147v1071h255zM578-9l30 240q31-7 68-7 168 0 168 197v650h259V403q0-206-110.5-314.5T695-20q-60 0-117 11z"/><glyph glyph-name="j.latn_NLD.sc.ss02" horiz-adv-x="693" d="M29-9l30 240q31-7 68-7 168 0 168 197v650h259V403q0-206-110.5-314.5T146-20Q86-20 29-9zm468 1218H248l201 316h312z"/><glyph glyph-name="j.latn_NLD.case.ss02" horiz-adv-x="829" d="M32-11l38 264q46-11 93-11 114 0 175 73t61 221v864h279V510q0-256-138-395.5T176-25Q99-25 32-11zm572 1529H355l201 315h312z"/><glyph glyph-name="seven.ss03" horiz-adv-x="1100" d="M1049 1400v-211L861 805h154V565H744L469 0H151l287 573H128v240h431l168 335H62v252h987z"/><glyph glyph-name="seven.osf.ss03" horiz-adv-x="1100" d="M1042 1068V861L852 473h174V238H737L459-332H146l292 578H149v235h408l172 339H58v248h984z"/><glyph glyph-name="seven.tf.ss03" d="M1097 1400v-211L909 805h154V565H792L517 0H199l287 573H176v240h431l168 335H110v252h987z"/><glyph glyph-name="seven.tosf.ss03" d="M1106 1068V861L916 473h174V238H801L523-332H210l292 578H213v235h408l172 339H122v248h984z"/><glyph glyph-name="seven.sc.ss03" horiz-adv-x="911" d="M860 1071V877L731 623h116V407H622L417 0H124l219 414H124v216h333l112 212H62v229h798z"/><glyph glyph-name="Z.ss04" horiz-adv-x="1288" d="M1075 822V576H716L466 257h727V0H95v218l296 366H213v246h363l246 313H97v257h1096v-218L904 822h171z"/><glyph glyph-name="z.ss04" horiz-adv-x="1040" d="M875 575V399H600L455 233h489V0H96v188l205 219H166v176h283l136 154H113v232h821V778L749 575h126z"/><glyph glyph-name="Zcaron.ss04" horiz-adv-x="1288" d="M1075 822V576H716L466 257h727V0H95v218l296 366H213v246h363l246 313H97v257h1096v-218L904 822h171zM270 1823h253l122-153 123 153h253l-218-315H488z"/><glyph glyph-name="zcaron.ss04" horiz-adv-x="1040" d="M875 575V399H600L455 233h489V0H96v188l205 219H166v176h283l136 154H113v232h821V778L749 575h126zm-720 838h253l122-153 123 153h253l-218-315H373z"/><glyph glyph-name="z.sc.ss04" horiz-adv-x="1067" d="M898 643V429H601L425 229h554V0H88v195l216 241H170v214h303l167 192H88v229h891V875L773 643h125z"/><glyph glyph-name="zcaron.sc.ss04" horiz-adv-x="1067" d="M898 643V429H601L425 229h554V0H88v195l216 241H170v214h303l167 192H88v229h891V875L773 643h125zm-742 872h253l122-154 123 154h253l-218-316H374z"/><glyph glyph-name="Adieresis.ss05" horiz-adv-x="1472" d="M206 1425q71 0 119.5-48.5T374 1258t-48.5-118-119.5-48q-70 0-118 48t-48 118q0 71 48 119t118 48zm1058 0q71 0 119.5-48t48.5-119q0-70-48.5-118t-119.5-48q-70 0-118 48t-48 118q0 71 48 119t118 48zm-358-25L1451 0h-298l-122 326H434L312 0H21l545 1400h340zm-173-276L530 583h405z"/><glyph glyph-name="Odieresis.ss05" horiz-adv-x="1662" d="M177 1425q52 0 93-28t60-75q-58-42-110-103t-81-121q-58 13-93 57t-35 103q0 71 48 119t118 48zm1307 0q71 0 119-48t48-119q0-59-35-103t-93-57q-30 61-82 121.5T1332 1322q18 47 59.5 75t92.5 28zm-654 1q212 0 380.5-94t262-259.5T1566 700t-93.5-372.5-262-259.5T830-26q-159 0-296 55T300.5 180t-151 230.5T95 700t54.5 289.5 151 230.5T534 1371t296 55zm0-268q-194 0-319-127.5T386 700t125-330.5T830 242q195 0 319.5 127.5T1274 700t-124.5 330.5T830 1158z"/><glyph glyph-name="Udieresis.ss05" horiz-adv-x="1492" d="M746 1425q68 0 114.5-46t46.5-114-46.5-114-114.5-46-113.5 46-45.5 114 46 114 113 46zm0-420q68 0 114.5-46T907 845t-46.5-114T746 685t-113.5 46T587 845t46 114 113 46zm603 395V559q0-189-77-322T1060.5 39.5 746-25 431.5 39.5 220 237t-77 322v841h280V573q0-167 86-249t237-82 237 82 86 249v827h280z"/><glyph glyph-name="hyphen.ss06" horiz-adv-x="877" d="M733 946V732L144 517v215zm0-352V380L144 165v214z"/><glyph glyph-name="hyphen.case.ss06" horiz-adv-x="906" d="M733 1085V871L144 656v215zm0-352V519L144 304v214z"/><glyph glyph-name="f_t" horiz-adv-x="1543" d="M1451 969V737h-351V383q0-86 39.5-125.5T1245 218q78 0 182 63l95-204Q1374-25 1202-25q-179 0-271 99t-92 288v375H483V0H223v737H41v232h182v65q0 110 35.5 194.5t97 135 139 76T661 1465q90 0 167.5-25.5t139-76.5 97-135.5T1100 1033v-64h351zm-968 54v-54h356v54q0 104-48.5 154.5T661 1228t-129.5-50.5T483 1023z"/><glyph glyph-name="longs_t" horiz-adv-x="1451" d="M1359 969V737h-352V383q0-86 40-125.5t106-39.5q78 0 182 63l95-204Q1282-25 1109-25q-178 0-270 99t-92 288v375H585v232h162v54q0 104-48.5 154.5T569 1228t-129.5-50.5T391 1023V0H130v1034q0 110 35.5 194.5t97.5 135 139.5 76T569 1465q90 0 167-25.5t138.5-76.5 97-135.5T1007 1033v-64h352z"/></font>
</defs>
</svg>
