<svg xmlns="http://www.w3.org/2000/svg" xmlns:xlink="http://www.w3.org/1999/xlink" width="80" height="80" viewBox="0 0 80 80">
    <defs>
        <path id="a" d="M0 80h80V0H0z"/>
    </defs>
    <g fill="none" fill-rule="evenodd">
        <path fill="#797C80" d="M39.977 48.076c-2.47 0-7.914-2.892-8.494-7.711-1.072-.367-1.902-1.353-2.224-2.716-.285-1.208-.064-2.33.55-3.035-.178-.776-.47-2.122-.594-3.057-.023-.181-.134-1.144-.024-2.473a.993.993 0 0 1 1.08-.914c.55.046.959.529.913 1.079-.096 1.15.003 1.959.014 2.048.166 1.249.692 3.435.697 3.457.109.453-.108.92-.524 1.129-.153.076-.337.577-.165 1.306.145.615.553 1.332 1.226 1.332a1 1 0 0 1 1 1c0 3.98 4.862 6.555 6.545 6.555a1 1 0 1 1 0 2z"/>
        <path fill="#797C80" d="M40.023 48.076a1 1 0 1 1 0-2c1.682 0 6.545-2.575 6.545-6.555a1 1 0 0 1 1-1c.674 0 1.082-.717 1.227-1.332.172-.73-.013-1.23-.166-1.306a1.002 1.002 0 0 1-.524-1.13c.006-.021.53-2.21.697-3.458.014-.111.139-1.143-.038-2.542a1 1 0 0 1 .867-1.116.992.992 0 0 1 1.118.867c.203 1.61.066 2.824.035 3.05-.123.938-.416 2.284-.593 3.06.614.705.835 1.827.55 3.035-.322 1.363-1.152 2.349-2.224 2.716-.58 4.819-6.025 7.71-8.495 7.71"/>
        <path fill="#00CCAE" d="M32.463 55.807a.607.607 0 1 0 0 1.215.607.607 0 0 0 0-1.215m0 3.214a2.61 2.61 0 0 1-2.607-2.607 2.61 2.61 0 0 1 2.607-2.607 2.61 2.61 0 0 1 2.606 2.607 2.61 2.61 0 0 1-2.606 2.607"/>
        <path fill="#00CCAE" d="M32.463 55.807a1 1 0 0 1-1-1v-4.748a1 1 0 1 1 2 0v4.748a1 1 0 0 1-1 1M47.165 54.736h-.004a1 1 0 0 1-.996-1.004l.016-3.677a1 1 0 0 1 1-.995h.004a1 1 0 0 1 .996 1.004l-.016 3.676a1 1 0 0 1-1 .996"/>
        <path fill="#00CCAE" d="M46.094 59.02c-1.064 0-2.071-.97-2.071-1.994V55.31c0-1.67.5-2.575 3.142-2.575a1 1 0 1 1 0 2c-.697 0-1.006.062-1.131.1-.011.12-.011.32-.011.475v1.635a.27.27 0 0 0 .102.078c.553 0 .985.446.985.998 0 .553-.463.999-1.016.999"/>
        <path fill="#00CCAE" d="M48.236 59.02a1 1 0 0 1-.022-2 .29.29 0 0 0 .093-.074V55.31c0-.155 0-.354-.01-.474-.126-.04-.435-.101-1.132-.101a1 1 0 1 1 0-2c2.641 0 3.142.905 3.142 2.575v1.715c0 1.025-1.007 1.995-2.07 1.995"/>
        <path fill="#797C80" d="M60.206 61.125H19.794a1 1 0 0 1-1-1v-2.22c0-2.822 1.97-5.338 4.9-6.26l9.917-3.137v-4.133a1 1 0 0 1 2 0v4.865a1 1 0 0 1-.698.954l-10.617 3.359c-2.096.658-3.502 2.407-3.502 4.352v1.22h38.412v-1.22c0-1.945-1.406-3.694-3.5-4.351l-10.619-3.36a1 1 0 0 1-.698-.954v-4.865a1 1 0 1 1 2 0v4.133l9.92 3.138c2.927.92 4.897 3.437 4.897 6.259v2.22a1 1 0 0 1-1 1M35.978 31.394c-3.453 0-6.184-1.307-6.23-1.33a1 1 0 0 1 .879-1.795c.289.14 7.118 3.375 12.109-1.594.016-.017.035-.033.053-.049a1 1 0 0 1 1.35-.045c.101.085 2.287 1.892 5.246 1.095a1 1 0 0 1 .52 1.931c-2.873.774-5.197-.283-6.328-.983-2.442 2.137-5.195 2.77-7.599 2.77M39.996 43.214c-1.17 0-2.34-.243-3.253-.729a1 1 0 0 1 .941-1.765c1.254.668 3.375.668 4.631-.002a1.001 1.001 0 0 1 .942 1.765c-.914.487-2.088.731-3.26.731"/>
        <mask id="b" fill="#fff">
            <use xlink:href="#a"/>
        </mask>
        <path fill="#797C80" d="M34.84 34.89h2.4v-.64h-2.4v.64zm3.4 2h-4.4a1 1 0 0 1-1-1v-2.641a1 1 0 0 1 1-1h4.4a1 1 0 0 1 1 1v2.641a1 1 0 0 1-1 1zM42.76 34.89h2.4v-.64h-2.4v.64zm3.4 2h-4.4a1 1 0 0 1-1-1v-2.641a1 1 0 0 1 1-1h4.4a1 1 0 0 1 1 1v2.641a1 1 0 0 1-1 1z" mask="url(#b)"/>
        <path fill="#797C80" d="M41.76 35.57h-3.52a1 1 0 0 1 0-2h3.52a1 1 0 1 1 0 2M46.16 35.57a1.002 1.002 0 0 1-.37-1.93l3.305-1.32a1 1 0 0 1 .742 1.858l-3.306 1.32a.99.99 0 0 1-.37.072M33.84 35.57a.99.99 0 0 1-.371-.072l-3.306-1.32a1 1 0 0 1 .742-1.857l3.306 1.32a.999.999 0 0 1-.371 1.929M39.942 53.635a.993.993 0 0 1-.537-.157l-5.33-3.395a.999.999 0 1 1 1.073-1.686l4.8 3.056 4.911-3.062a1 1 0 0 1 1.06 1.698l-5.448 3.395a.997.997 0 0 1-.529.151" mask="url(#b)"/>
        <path fill="#797C80" d="M39.942 61.125a1 1 0 0 1-1-1v-7.49a1 1 0 1 1 2 0v7.49a1 1 0 0 1-1 1M25.6 44.722c-2.301 0-4.942-1.097-6.318-4.307a.997.997 0 0 1 .919-1.394c2.35 0 3.255-3.913 4.213-8.055 1.097-4.74 2.34-10.114 6.295-11.975 2.424-1.14 5.466-.81 9.29 1.017 3.826-1.826 6.87-2.158 9.292-1.017 3.955 1.861 5.199 7.234 6.295 11.975.958 4.142 1.864 8.055 4.214 8.055a1 1 0 0 1 .919 1.394c-1.672 3.902-5.216 4.682-7.735 4.164-2.992-.614-5.164-2.91-5.164-5.458a1 1 0 1 1 2 0c0 1.816 1.794 3.135 3.566 3.498.797.164 3.273.443 4.883-1.874-2.722-1.07-3.653-5.099-4.632-9.328-.994-4.298-2.12-9.168-5.197-10.616-1.903-.896-4.591-.486-7.992 1.215a1 1 0 0 1-.895 0c-3.4-1.7-6.091-2.11-7.992-1.215-3.077 1.448-4.203 6.318-5.197 10.616-.98 4.23-1.91 8.257-4.632 9.328 1.614 2.32 4.094 2.04 4.894 1.874 1.776-.364 3.573-1.683 3.573-3.498a1 1 0 1 1 2 0c0 2.547-2.175 4.842-5.17 5.457-.45.093-.931.144-1.43.144" mask="url(#b)"/>
        <path fill="#D1D6DC" d="M40 0C17.908 0 0 17.909 0 40c0 22.09 17.908 40 40 40s40-17.91 40-40C80 17.909 62.092 0 40 0m0 2c20.953 0 38 17.047 38 38S60.953 78 40 78 2 60.953 2 40 19.047 2 40 2" mask="url(#b)"/>
    </g>
</svg>
