<svg xmlns="http://www.w3.org/2000/svg" width="60" height="60" viewBox="0 0 60 60">
    <g fill="none" fill-rule="evenodd">
        <path d="M0 0h60v60H0z"/>
        <path stroke="#1F1FFF" d="M19.83 46.889v3.1l5.595 1.599c1.168.333 2.12 1.598 2.12 2.81V55.5H5.5v-1.102c0-1.212.954-2.477 2.119-2.81l5.597-1.6v-3.1"/>
        <path stroke="#1F1FFF" d="M23.137 40.666c0 3.982-2.962 7.212-6.614 7.212-3.654 0-6.614-3.23-6.614-7.212 0-3.982 2.96-7.212 6.614-7.212 3.652 0 6.614 3.23 6.614 7.212z"/>
        <path stroke="#1F1FFF" stroke-linejoin="round" d="M23.068 39.402c-1.103 1.103-4.254 1.05-5.443-1.163-2.204 2.204-5.787 2.204-7.57.946"/>
        <path stroke="#1F1FFF" d="M47.784 46.889v3.1l5.595 1.599c1.167.333 2.121 1.598 2.121 2.81V55.5H33.454v-1.102c0-1.212.954-2.477 2.12-2.81l5.596-1.6v-3.1"/>
        <path stroke="#1F1FFF" d="M51.09 40.666c0 3.982-2.961 7.212-6.613 7.212-3.653 0-6.614-3.23-6.614-7.212 0-3.982 2.96-7.212 6.614-7.212 3.652 0 6.614 3.23 6.614 7.212z"/>
        <path stroke="#1F1FFF" stroke-linejoin="round" d="M50.987 39.397c-1.102 1.102-4.22 1.055-5.408-1.157-2.204 2.203-5.787 2.203-7.57.945"/>
        <path stroke="#292A2E" d="M33.807 18.935v3.1l5.595 1.599c1.168.333 2.12 1.597 2.12 2.81v1.102H19.478v-1.102c0-1.213.954-2.477 2.119-2.81l5.598-1.6v-3.077"/>
        <path stroke="#292A2E" d="M37.114 12.712c0 3.982-2.962 7.212-6.614 7.212-3.653 0-6.614-3.23-6.614-7.212 0-3.982 2.96-7.212 6.614-7.212 3.652 0 6.614 3.23 6.614 7.212z"/>
        <path stroke="#292A2E" stroke-linejoin="round" d="M37.01 11.387c-1.102 1.103-4.22 1.11-5.408-1.102-2.204 2.205-5.787 2.205-7.57.947"/>
    </g>
</svg>
