<?xml version="1.0" encoding="UTF-8"?>
<svg width="265px" height="112px" viewBox="0 0 265 112" version="1.1" xmlns="http://www.w3.org/2000/svg" xmlns:xlink="http://www.w3.org/1999/xlink">
    <!-- Generator: Sketch 63.1 (92452) - https://sketch.com -->
    <title>asset-2</title>
    <desc>Created with Sketch.</desc>
    <defs>
        <path d="M37.9853109,0.088940048 C17.0066651,0.088940048 0,17.0751223 0,38.028705 L0,38.028705 C0,58.9822878 17.0066651,75.96847 37.9853109,75.96847 L37.9853109,75.96847 C58.9639568,75.96847 75.9706218,58.9822878 75.9706218,38.028705 L75.9706218,38.028705" id="path-1"></path>
        <path d="M37.9853109,0.088940048 C17.0066651,0.088940048 0,17.0751223 0,38.028705 L0,38.028705 C0,58.9822878 17.0066651,75.96847 37.9853109,75.96847 L37.9853109,75.96847 C58.9639568,75.96847 75.9706218,58.9822878 75.9706218,38.028705 L75.9706218,38.028705" id="path-3"></path>
        <path d="M37.9853109,0.088940048 C17.0066651,0.088940048 0,17.0751223 0,38.028705 L0,38.028705 C0,58.9822878 17.0066651,75.96847 37.9853109,75.96847 L37.9853109,75.96847 C58.9639568,75.96847 75.9706218,58.9822878 75.9706218,38.028705 L75.9706218,38.028705 C75.9706218,17.0751223 58.9639568,0.088940048 37.9853109,0.088940048 Z" id="path-5"></path>
        <path d="M37.9853109,0.088940048 C17.0066651,0.088940048 0,17.0751223 0,38.028705 L0,38.028705 C0,58.9822878 17.0066651,75.96847 37.9853109,75.96847 L37.9853109,75.96847 C58.9639568,75.96847 75.9706218,58.9822878 75.9706218,38.028705 L75.9706218,38.028705" id="path-7"></path>
        <path d="M37.9853109,0.088940048 C17.0066651,0.088940048 0,17.0751223 0,38.028705 L0,38.028705 C0,58.9822878 17.0066651,75.96847 37.9853109,75.96847 L37.9853109,75.96847 C58.9639568,75.96847 75.9706218,58.9822878 75.9706218,38.028705 L75.9706218,38.028705 C75.9706218,17.0751223 58.9639568,0.088940048 37.9853109,0.088940048 Z" id="path-9"></path>
        <path d="M37.9853109,0.088940048 C17.0066651,0.088940048 0,17.0751223 0,38.028705 L0,38.028705 C0,58.9822878 17.0066651,75.96847 37.9853109,75.96847 L37.9853109,75.96847 C58.9639568,75.96847 75.9706218,58.9822878 75.9706218,38.028705 L75.9706218,38.028705" id="path-11"></path>
        <path d="M37.9853109,0.088940048 C17.0066651,0.088940048 0,17.0751223 0,38.028705 L0,38.028705 C0,58.9822878 17.0066651,75.96847 37.9853109,75.96847 L37.9853109,75.96847 C58.9639568,75.96847 75.9706218,58.9822878 75.9706218,38.028705 L75.9706218,38.028705" id="path-13"></path>
        <path d="M37.9853109,0.088940048 C17.0066651,0.088940048 0,17.0751223 0,38.028705 L0,38.028705 C0,58.9822878 17.0066651,75.96847 37.9853109,75.96847 L37.9853109,75.96847 C58.9639568,75.96847 75.9706218,58.9822878 75.9706218,38.028705 L75.9706218,38.028705" id="path-15"></path>
        <path d="M37.9853109,0.088940048 C17.0066651,0.088940048 0,17.0751223 0,38.028705 L0,38.028705 C0,58.9822878 17.0066651,75.96847 37.9853109,75.96847 L37.9853109,75.96847 C58.9639568,75.96847 75.9706218,58.9822878 75.9706218,38.028705 L75.9706218,38.028705" id="path-17"></path>
        <path d="M37.9853109,0.088940048 C17.0066651,0.088940048 0,17.0751223 0,38.028705 L0,38.028705 C0,58.9822878 17.0066651,75.96847 37.9853109,75.96847 L37.9853109,75.96847 C58.9639568,75.96847 75.9706218,58.9822878 75.9706218,38.028705 L75.9706218,38.028705 C75.9706218,17.0751223 58.9639568,0.088940048 37.9853109,0.088940048 Z" id="path-19"></path>
        <path d="M37.9853109,0.088940048 C17.0066651,0.088940048 0,17.0751223 0,38.028705 L0,38.028705 C0,58.9822878 17.0066651,75.96847 37.9853109,75.96847 L37.9853109,75.96847 C58.9639568,75.96847 75.9706218,58.9822878 75.9706218,38.028705 L75.9706218,38.028705" id="path-21"></path>
        <path d="M37.9853109,0.088940048 C17.0066651,0.088940048 0,17.0751223 0,38.028705 L0,38.028705 C0,58.9822878 17.0066651,75.96847 37.9853109,75.96847 L37.9853109,75.96847 C58.9639568,75.96847 75.9706218,58.9822878 75.9706218,38.028705 L75.9706218,38.028705" id="path-23"></path>
        <path d="M37.9853109,0.088940048 C17.0066651,0.088940048 0,17.0751223 0,38.028705 L0,38.028705 C0,58.9822878 17.0066651,75.96847 37.9853109,75.96847 L37.9853109,75.96847 C58.9639568,75.96847 75.9706218,58.9822878 75.9706218,38.028705 L75.9706218,38.028705 C75.9706218,17.0751223 58.9639568,0.088940048 37.9853109,0.088940048 Z" id="path-25"></path>
        <path d="M37.9853109,0.088940048 C17.0066651,0.088940048 0,17.0751223 0,38.028705 L0,38.028705 C0,58.9822878 17.0066651,75.96847 37.9853109,75.96847 L37.9853109,75.96847 C58.9639568,75.96847 75.9706218,58.9822878 75.9706218,38.028705 L75.9706218,38.028705 C75.9706218,17.0751223 58.9639568,0.088940048 37.9853109,0.088940048 Z" id="path-27"></path>
        <path d="M37.9853109,0.088940048 C17.0066651,0.088940048 0,17.0751223 0,38.028705 L0,38.028705 C0,58.9822878 17.0066651,75.96847 37.9853109,75.96847 L37.9853109,75.96847 C58.9639568,75.96847 75.9706218,58.9822878 75.9706218,38.028705 L75.9706218,38.028705 C75.9706218,17.0751223 58.9639568,0.088940048 37.9853109,0.088940048 Z" id="path-29"></path>
        <path d="M37.9853109,0.088940048 C17.0066651,0.088940048 0,17.0751223 0,38.028705 L0,38.028705 C0,58.9822878 17.0066651,75.96847 37.9853109,75.96847 L37.9853109,75.96847 C58.9639568,75.96847 75.9706218,58.9822878 75.9706218,38.028705 L75.9706218,38.028705 C75.9706218,17.0751223 58.9639568,0.088940048 37.9853109,0.088940048 Z" id="path-31"></path>
        <path d="M37.9853109,0.088940048 C17.0066651,0.088940048 0,17.0751223 0,38.028705 L0,38.028705 C0,58.9822878 17.0066651,75.96847 37.9853109,75.96847 L37.9853109,75.96847 C58.9639568,75.96847 75.9706218,58.9822878 75.9706218,38.028705 L75.9706218,38.028705 C75.9706218,17.0751223 58.9639568,0.088940048 37.9853109,0.088940048 Z" id="path-33"></path>
        <path d="M37.9853109,0.088940048 C17.0066651,0.088940048 0,17.0751223 0,38.028705 L0,38.028705 C0,58.9822878 17.0066651,75.96847 37.9853109,75.96847 L37.9853109,75.96847 C58.9639568,75.96847 75.9706218,58.9822878 75.9706218,38.028705 L75.9706218,38.028705 C75.9706218,17.0751223 58.9639568,0.088940048 37.9853109,0.088940048 Z" id="path-35"></path>
        <path d="M37.9853109,0.088940048 C17.0066651,0.088940048 0,17.0751223 0,38.028705 L0,38.028705 C0,58.9822878 17.0066651,75.96847 37.9853109,75.96847 L37.9853109,75.96847 C58.9639568,75.96847 75.9706218,58.9822878 75.9706218,38.028705 L75.9706218,38.028705 C75.9706218,17.0751223 58.9639568,0.088940048 37.9853109,0.088940048 Z" id="path-37"></path>
        <path d="M37.9853109,0.088940048 C17.0066651,0.088940048 0,17.0751223 0,38.028705 L0,38.028705 C0,58.9822878 17.0066651,75.96847 37.9853109,75.96847 L37.9853109,75.96847 C58.9639568,75.96847 75.9706218,58.9822878 75.9706218,38.028705 L75.9706218,38.028705" id="path-39"></path>
        <path d="M37.9853109,0.088940048 C17.0066651,0.088940048 0,17.0751223 0,38.028705 L0,38.028705 C0,58.9822878 17.0066651,75.96847 37.9853109,75.96847 L37.9853109,75.96847 C58.9639568,75.96847 75.9706218,58.9822878 75.9706218,38.028705 L75.9706218,38.028705" id="path-41"></path>
        <path d="M37.9853109,0.088940048 C17.0066651,0.088940048 0,17.0751223 0,38.028705 L0,38.028705 C0,58.9822878 17.0066651,75.96847 37.9853109,75.96847 L37.9853109,75.96847 C58.9639568,75.96847 75.9706218,58.9822878 75.9706218,38.028705 L75.9706218,38.028705" id="path-43"></path>
        <path d="M37.9853109,0.088940048 C17.0066651,0.088940048 0,17.0751223 0,38.028705 L0,38.028705 C0,58.9822878 17.0066651,75.96847 37.9853109,75.96847 L37.9853109,75.96847 C58.9639568,75.96847 75.9706218,58.9822878 75.9706218,38.028705 L75.9706218,38.028705 C75.9706218,17.0751223 58.9639568,0.088940048 37.9853109,0.088940048 Z" id="path-45"></path>
        <path d="M37.9853109,0.088940048 C17.0066651,0.088940048 0,17.0751223 0,38.028705 L0,38.028705 C0,58.9822878 17.0066651,75.96847 37.9853109,75.96847 L37.9853109,75.96847 C58.9639568,75.96847 75.9706218,58.9822878 75.9706218,38.028705 L75.9706218,38.028705 C75.9706218,17.0751223 58.9639568,0.088940048 37.9853109,0.088940048 Z" id="path-47"></path>
        <path d="M37.9853109,0.088940048 C17.0066651,0.088940048 0,17.0751223 0,38.028705 L0,38.028705 C0,58.9822878 17.0066651,75.96847 37.9853109,75.96847 L37.9853109,75.96847 C58.9639568,75.96847 75.9706218,58.9822878 75.9706218,38.028705 L75.9706218,38.028705" id="path-49"></path>
        <path d="M37.9853109,0.088940048 C17.0066651,0.088940048 0,17.0751223 0,38.028705 L0,38.028705 C0,58.9822878 17.0066651,75.96847 37.9853109,75.96847 L37.9853109,75.96847 C58.9639568,75.96847 75.9706218,58.9822878 75.9706218,38.028705 L75.9706218,38.028705" id="path-51"></path>
        <path d="M37.9853109,0.088940048 C17.0066651,0.088940048 0,17.0751223 0,38.028705 L0,38.028705 C0,58.9822878 17.0066651,75.96847 37.9853109,75.96847 L37.9853109,75.96847 C58.9639568,75.96847 75.9706218,58.9822878 75.9706218,38.028705 L75.9706218,38.028705" id="path-53"></path>
        <path d="M37.9853109,0.088940048 C17.0066651,0.088940048 0,17.0751223 0,38.028705 L0,38.028705 C0,58.9822878 17.0066651,75.96847 37.9853109,75.96847 L37.9853109,75.96847 C58.9639568,75.96847 75.9706218,58.9822878 75.9706218,38.028705 L75.9706218,38.028705" id="path-55"></path>
        <path d="M37.9853109,0.088940048 C17.0066651,0.088940048 0,17.0751223 0,38.028705 L0,38.028705 C0,58.9822878 17.0066651,75.96847 37.9853109,75.96847 L37.9853109,75.96847 C58.9639568,75.96847 75.9706218,58.9822878 75.9706218,38.028705 L75.9706218,38.028705" id="path-57"></path>
        <path d="M37.9853109,0.088940048 C17.0066651,0.088940048 0,17.0751223 0,38.028705 L0,38.028705 C0,58.9822878 17.0066651,75.96847 37.9853109,75.96847 L37.9853109,75.96847 C58.9639568,75.96847 75.9706218,58.9822878 75.9706218,38.028705 L75.9706218,38.028705" id="path-59"></path>
        <path d="M37.9853109,0.088940048 C17.0066651,0.088940048 0,17.0751223 0,38.028705 L0,38.028705 C0,58.9822878 17.0066651,75.96847 37.9853109,75.96847 L37.9853109,75.96847 C58.9639568,75.96847 75.9706218,58.9822878 75.9706218,38.028705 L75.9706218,38.028705" id="path-61"></path>
        <path d="M37.9853109,0.088940048 C17.0066651,0.088940048 0,17.0751223 0,38.028705 L0,38.028705 C0,58.9822878 17.0066651,75.96847 37.9853109,75.96847 L37.9853109,75.96847 C58.9639568,75.96847 75.9706218,58.9822878 75.9706218,38.028705 L75.9706218,38.028705" id="path-63"></path>
        <path d="M37.9853109,0.088940048 C17.0066651,0.088940048 0,17.0751223 0,38.028705 L0,38.028705 C0,58.9822878 17.0066651,75.96847 37.9853109,75.96847 L37.9853109,75.96847 C58.9639568,75.96847 75.9706218,58.9822878 75.9706218,38.028705 L75.9706218,38.028705" id="path-65"></path>
        <path d="M37.9853109,0.088940048 C17.0066651,0.088940048 0,17.0751223 0,38.028705 L0,38.028705 C0,58.9822878 17.0066651,75.96847 37.9853109,75.96847 L37.9853109,75.96847 C58.9639568,75.96847 75.9706218,58.9822878 75.9706218,38.028705 L75.9706218,38.028705" id="path-67"></path>
        <path d="M37.9853109,0.088940048 C17.0066651,0.088940048 0,17.0751223 0,38.028705 L0,38.028705 C0,58.9822878 17.0066651,75.96847 37.9853109,75.96847 L37.9853109,75.96847 C58.9639568,75.96847 75.9706218,58.9822878 75.9706218,38.028705 L75.9706218,38.028705" id="path-69"></path>
        <path d="M37.9853109,0.088940048 C17.0066651,0.088940048 0,17.0751223 0,38.028705 L0,38.028705 C0,58.9822878 17.0066651,75.96847 37.9853109,75.96847 L37.9853109,75.96847 C58.9639568,75.96847 75.9706218,58.9822878 75.9706218,38.028705 L75.9706218,38.028705" id="path-71"></path>
        <path d="M37.9853109,0.088940048 C17.0066651,0.088940048 0,17.0751223 0,38.028705 L0,38.028705 C0,58.9822878 17.0066651,75.96847 37.9853109,75.96847 L37.9853109,75.96847 C58.9639568,75.96847 75.9706218,58.9822878 75.9706218,38.028705 L75.9706218,38.028705" id="path-73"></path>
        <path d="M37.9853109,0.088940048 C17.0066651,0.088940048 0,17.0751223 0,38.028705 L0,38.028705 C0,58.9822878 17.0066651,75.96847 37.9853109,75.96847 L37.9853109,75.96847 C58.9639568,75.96847 75.9706218,58.9822878 75.9706218,38.028705 L75.9706218,38.028705" id="path-75"></path>
        <path d="M37.9853109,0.088940048 C17.0066651,0.088940048 0,17.0751223 0,38.028705 L0,38.028705 C0,58.9822878 17.0066651,75.96847 37.9853109,75.96847 L37.9853109,75.96847 C58.9639568,75.96847 75.9706218,58.9822878 75.9706218,38.028705 L75.9706218,38.028705" id="path-77"></path>
        <path d="M37.9853109,0.088940048 C17.0066651,0.088940048 0,17.0751223 0,38.028705 L0,38.028705 C0,58.9822878 17.0066651,75.96847 37.9853109,75.96847 L37.9853109,75.96847 C58.9639568,75.96847 75.9706218,58.9822878 75.9706218,38.028705 L75.9706218,38.028705" id="path-79"></path>
        <path d="M37.9853109,0.088940048 C17.0066651,0.088940048 0,17.0751223 0,38.028705 L0,38.028705 C0,58.9822878 17.0066651,75.96847 37.9853109,75.96847 L37.9853109,75.96847 C58.9639568,75.96847 75.9706218,58.9822878 75.9706218,38.028705 L75.9706218,38.028705" id="path-81"></path>
        <path d="M37.9853109,0.088940048 C17.0066651,0.088940048 0,17.0751223 0,38.028705 L0,38.028705 C0,58.9822878 17.0066651,75.96847 37.9853109,75.96847 L37.9853109,75.96847 C58.9639568,75.96847 75.9706218,58.9822878 75.9706218,38.028705 L75.9706218,38.028705" id="path-83"></path>
        <path d="M37.9853109,0.088940048 C17.0066651,0.088940048 0,17.0751223 0,38.028705 C0,58.9822878 17.0066651,75.96847 37.9853109,75.96847 C58.9639568,75.96847 75.9706218,58.9822878 75.9706218,38.028705" id="path-85"></path>
    </defs>
    <g id="Home-Page-UPDATES" stroke="none" stroke-width="1" fill="none" fill-rule="evenodd">
        <g id="Artboard" transform="translate(-11.000000, -533.000000)">
            <g id="asset-2" transform="translate(11.000000, 533.000000)">
                <path d="M0.0551437461,72.3966335 C30.4672582,93.3049534 67.3045063,105.542557 107,105.542557 C169.042793,105.542557 224.103266,75.6476875 258.562584,29.4767807" id="Path" stroke="#9BA0A8" transform="translate(129.308864, 67.509669) scale(1, -1) translate(-129.308864, -67.509669) "></path>
                <circle id="Oval-Copy-10" fill="#FBC952" cx="257.023219" cy="104.5" r="7.5"></circle>
                <g id="Icon---Doctor-Copy" transform="translate(50.523219, 0.000000)">
                    <path d="M0,38 C0,58.9867584 17.0131503,76 38,76 C58.9868497,76 76,58.9867584 76,38 C76,17.0131503 58.9868497,0 38,0 C17.0131503,0 0,17.0131503 0,38" id="Fill-1" fill="#B8DAF2"></path>
                    <g id="Group-132">
                        <g id="Group-5">
                            <mask id="mask-2" fill="white">
                                <use xlink:href="#path-1"></use>
                            </mask>
                            <g id="Clip-4"></g>
                            <path d="M44.7886977,29.5029904 C44.818897,31.1163957 44.8057589,32.7313501 44.7116941,34.3425683 C44.6491059,35.417048 44.543819,36.4876091 44.4280399,37.5574412 C44.3303256,38.4594173 44.2341623,39.3617578 44.1960255,40.2685635 C44.1500423,41.3608129 44.187358,42.4541559 44.2769522,43.543307 C44.3989354,45.0251247 44.5685441,46.5206115 44.8880543,47.9739976 C45.1030074,48.9514269 45.3976101,49.9634844 45.9487697,50.8101463 C46.3534036,51.4317242 46.903286,51.9515132 47.5816293,52.2627122 C48.2477469,52.5682614 48.956837,52.7111487 49.677879,52.8181319 C50.5415236,52.9462566 51.4088178,53.0452206 52.2666233,53.2101607 C53.3811683,53.4244916 54.4737253,53.7397914 55.5258646,54.1659017 C55.5944744,54.1936043 55.6623544,54.2236763 55.7313292,54.2505588 C55.5796941,54.1915084 55.7139942,54.2434508 55.7510363,54.2593981 C55.7858886,54.2744341 55.8207409,54.2896523 55.855502,54.3048705 C56.0130675,54.3738537 56.1696293,54.4453885 56.3252788,54.5187458 C56.5790987,54.6383957 56.9170387,54.597753 57.0607361,54.3261031 C57.1869162,54.0876235 57.139382,53.71947 56.8679534,53.5914365 C55.7400879,53.059801 54.5652355,52.633964 53.3515164,52.3458201 C52.4479102,52.131307 51.5303448,51.9975324 50.6108634,51.8731439 C49.8960255,51.7763669 49.1689618,51.688976 48.4797613,51.4676283 C48.402849,51.4429329 48.326484,51.4164149 48.2509402,51.387801 C48.2149018,51.3741319 48.1792283,51.3595516 48.1433724,51.3453357 C48.0551467,51.3103429 48.248933,51.3911727 48.2081503,51.3726739 C48.1872571,51.3632878 48.1660903,51.3544484 48.1451971,51.3449712 C48.0046017,51.2814556 47.8678382,51.2094652 47.7368226,51.1279976 C47.6700375,51.0865348 47.6048034,51.0426115 47.5413028,50.9963189 C47.5267962,50.9858393 47.5126545,50.9749041 47.4982391,50.9643333 C47.4235164,50.9099305 47.6176677,51.0603813 47.5462295,51.0012398 C47.514388,50.9749041 47.481999,50.9492062 47.4506137,50.9222326 C47.326897,50.8157962 47.2114828,50.6997914 47.1049186,50.576223 C47.0774564,50.5445108 47.0506329,50.5122518 47.0243568,50.4795372 C47.0119486,50.4640456 46.9999054,50.4481894 46.987406,50.4326978 C47.1144984,50.589801 47.0418742,50.5033213 47.0140471,50.4656859 C46.9592139,50.3914173 46.9070267,50.3151439 46.8573028,50.2374125 C46.7510122,50.0710144 46.6559438,49.8974173 46.5698166,49.7197194 C46.5470074,49.6726978 46.5249282,49.6252206 46.5033052,49.5776523 C46.4929954,49.5548705 46.4828682,49.5320887 46.4728322,49.5092158 C46.466993,49.4960024 46.4613364,49.4826978 46.4555885,49.4694844 C46.4207361,49.3902038 46.4743832,49.5134077 46.4797661,49.527259 C46.4385273,49.4210048 46.3945513,49.3160264 46.3552283,49.2090432 C46.2657253,48.9647314 46.1876269,48.7164101 46.1175573,48.4659928 C45.9474012,47.8577194 45.8230459,47.2371439 45.7204048,46.6142902 C45.690023,46.4301223 45.6617397,46.2455899 45.6350987,46.0607842 C45.622508,45.9734844 45.6117421,45.8858201 45.5984216,45.7985204 C45.6212307,45.9488801 45.5965969,45.7837578 45.5915789,45.7453933 C45.5847361,45.6929041 45.5778934,45.6404149 45.5712331,45.5880168 C45.5222391,45.206741 45.4770771,44.8250096 45.4368418,44.4427314 C45.3133076,43.26947 45.236304,42.090012 45.2530915,40.9097338 C45.2660471,39.9991007 45.3407697,39.0920216 45.4356557,38.1866739 C45.5400303,37.1920216 45.6535285,36.198554 45.7292547,35.2011679 C45.8383736,33.763729 45.8805248,32.3221894 45.8783352,30.8808321 C45.8776965,30.4215516 45.8724048,29.962271 45.8638286,29.5029904 C45.8586281,29.2223189 45.6203184,28.9528561 45.3262631,28.9660695 C45.0395068,28.9789185 44.7830411,29.2020887 44.7886977,29.5029904" id="Fill-3" fill="#FEFEFE" mask="url(#mask-2)"></path>
                        </g>
                        <g id="Group-8">
                            <mask id="mask-4" fill="white">
                                <use xlink:href="#path-3"></use>
                            </mask>
                            <g id="Clip-7"></g>
                            <path d="M50.686243,60.9720115 L37.2504831,51.3478964 C36.9931962,51.1635463 36.9341661,50.8056902 37.1186463,50.5487118 L49.5584687,33.2238101 C49.7430401,32.9667405 50.1013258,32.9077813 50.358704,33.0921314 L63.7943726,42.7162465 C64.0517508,42.9005966 64.1107808,43.2584528 63.9262094,43.5155223 L51.4864783,60.8403329 C51.3019068,61.0974024 50.9436211,61.1563616 50.686243,60.9720115" id="Fill-6" fill="#A7C3E3" mask="url(#mask-4)"></path>
                        </g>
                        <g id="Group-11">
                            <mask id="mask-6" fill="white">
                                <use xlink:href="#path-5"></use>
                            </mask>
                            <g id="Clip-10"></g>
                            <polygon id="Fill-9" fill="#A7C3E3" mask="url(#mask-6)" points="43.7044615 77.9930681 29.1056187 83.401188 29.1056187 58.9268187 43.7044615 53.5187899"></polygon>
                        </g>
                        <g id="Group-14">
                            <mask id="mask-8" fill="white">
                                <use xlink:href="#path-7"></use>
                            </mask>
                            <g id="Clip-13"></g>
                            <path d="M46.4480615,24.8492753 C48.2421359,27.6652849 48.3050891,29.1602249 47.9045609,34.614364 C48.2341071,35.7224695 46.6621023,39.7750739 45.5461887,39.8713952 L43.0144672,40.1291938 C42.0937998,40.2086566 41.2435669,38.2460523 41.099322,37.3017933 L39.5120807,26.9051938 C39.2537902,25.2131458 40.2773724,23.5991938 41.879394,23.1722633 C43.5492956,22.7272897 45.0549714,22.8680811 46.4480615,24.8492753" id="Fill-12" fill="#FEFEFE" mask="url(#mask-8)"></path>
                        </g>
                        <g id="Group-17">
                            <mask id="mask-10" fill="white">
                                <use xlink:href="#path-9"></use>
                            </mask>
                            <g id="Clip-16"></g>
                            <path d="M30.4403813,28.4450139 L40.1783261,26.0365247 L38.7657114,21.255906 C35.832823,21.2008652 33.7685974,22.1359204 31.2988255,23.8105631 L30.4403813,28.4450139 Z" id="Fill-15" fill="#2A348D" mask="url(#mask-10)"></path>
                        </g>
                        <g id="Group-20">
                            <mask id="mask-12" fill="white">
                                <use xlink:href="#path-11"></use>
                            </mask>
                            <g id="Clip-19"></g>
                            <path d="M24.8985671,64.1483285 C27.6880317,72.7652158 27.1269273,82.2880887 26.358351,91.1843717 C25.7666824,98.0331199 24.1654819,105.029038 24.2232346,111.911595 C24.257357,115.980146 30.590812,115.989806 30.5565983,111.911595 C30.5331505,109.120372 30.9924351,106.308098 31.3300101,103.544578 C31.857722,99.2241511 32.3828792,94.9031775 32.744267,90.5649808 C33.5147592,81.3162182 33.9015107,71.4124341 31.0056643,62.4666691 C29.7569104,58.6091679 23.6395947,60.2592062 24.8985671,64.1483285" id="Fill-18" fill="#85A2BE" mask="url(#mask-12)"></path>
                        </g>
                        <g id="Group-23">
                            <mask id="mask-14" fill="white">
                                <use xlink:href="#path-13"></use>
                            </mask>
                            <g id="Clip-22"></g>
                            <path d="M38.7402291,62.7211324 C40.1354175,67.817142 40.7876672,73.0636024 41.3005988,78.3107918 C41.6017705,81.3915257 42.0147981,84.3882403 41.7038641,87.4687918 C41.0771606,93.6776456 39.9551342,99.9804513 39.9871582,106.232044 C40.0079601,110.301324 46.3413239,110.30989 46.3204307,106.232044 C46.2878593,99.8629885 47.4503035,93.4501012 48.071989,87.1231468 C48.3981594,83.8029309 47.857127,80.4703218 47.5190958,77.1624082 C46.965564,71.746907 46.2876768,66.3004225 44.8473263,61.0394729 C43.7734727,57.1175448 37.6619049,58.7824369 38.7402291,62.7211324" id="Fill-21" fill="#85A2BE" mask="url(#mask-14)"></path>
                        </g>
                        <g id="Group-26">
                            <mask id="mask-16" fill="white">
                                <use xlink:href="#path-15"></use>
                            </mask>
                            <g id="Clip-25"></g>
                            <path d="M40.2169373,71.0836475 L40.2169373,71.0836475 C39.6321114,71.7385779 42.1448557,68.553777 41.3928845,69.0075899 C39.8267188,69.9529424 31.0343491,75.919307 29.2046012,75.9496523 C26.9944884,75.9862854 28.2828389,73.8526355 26.6376624,72.3780168 C25.0766972,70.9790336 24.7092879,68.7063237 24.5569229,66.6171439 C24.5147717,66.0397626 24.4859409,65.4366835 24.7169517,64.905777 C24.9664836,64.3320408 25.4824259,63.9254317 25.981672,63.5478921 C29.8873239,60.5951007 37.5706228,53.2867986 43.0275688,55.6239353 C49.3329229,58.3243046 43.0154343,67.9498777 40.2169373,71.0836475" id="Fill-24" fill="#85A2BE" mask="url(#mask-16)"></path>
                        </g>
                        <g id="Group-29">
                            <mask id="mask-18" fill="white">
                                <use xlink:href="#path-17"></use>
                            </mask>
                            <g id="Clip-28"></g>
                            <path d="M44.8002391,24.3463448 C45.9564792,25.8354528 45.8195333,26.7559276 45.7640615,28.7889731 C45.7099582,30.7767285 44.3612091,32.497117 42.4441479,33.034129 L22.8657085,38.5180667 C22.8657085,38.5180667 21.7405801,30.9950691 25.6024384,28.7305607 C27.6826305,27.5107333 30.9098478,25.5591554 33.4447625,24.0180139 C37.1679414,21.754599 42.1291083,20.9061146 44.8002391,24.3463448" id="Fill-27" fill="#3E6BB3" mask="url(#mask-18)"></path>
                        </g>
                        <g id="Group-32">
                            <mask id="mask-20" fill="white">
                                <use xlink:href="#path-19"></use>
                            </mask>
                            <g id="Clip-31"></g>
                            <path d="M45.8328447,59.6933799 C45.2525806,60.4457252 44.5125613,39.3478882 45.6612288,25.9991353 L23.6225974,36.4723727 C23.7335409,46.5316197 25.0056514,54.4697923 23.7993224,66.7280273 L45.8328447,59.6933799 Z" id="Fill-30" fill="#558DC9" mask="url(#mask-20)"></path>
                        </g>
                        <g id="Group-35">
                            <mask id="mask-22" fill="white">
                                <use xlink:href="#path-21"></use>
                            </mask>
                            <g id="Clip-34"></g>
                            <path d="M31.1521354,68.9163535 C36.5968557,66.9328811 41.7833767,64.76114 44.8311318,61.0283007 C46.3277753,60.1651448 46.1383683,58.6436868 44.4101666,57.6471209 C42.6819649,56.6505549 40.0434968,56.5412935 38.5468533,57.4043583 L24.8678569,65.292411 C23.3711222,66.1554758 23.5606204,67.6770249 25.2887309,68.6735909 L25.2888221,68.6735909 C27.0169325,69.6701568 29.655492,69.7794182 31.1521354,68.9163535" id="Fill-33" fill="#558DC9" mask="url(#mask-22)"></path>
                        </g>
                        <g id="Group-38">
                            <mask id="mask-24" fill="white">
                                <use xlink:href="#path-23"></use>
                            </mask>
                            <g id="Clip-37"></g>
                            <path d="M36.73663,25.8499875 L38.978037,17.5876758 L33.2961018,19.1598005 L31.4730142,25.9065775 C31.0795112,27.0052969 35.0896288,30.0628844 36.73663,25.8499875" id="Fill-36" fill="#A87F6F" mask="url(#mask-24)"></path>
                        </g>
                        <g id="Group-41">
                            <mask id="mask-26" fill="white">
                                <use xlink:href="#path-25"></use>
                            </mask>
                            <g id="Clip-40"></g>
                            <path d="M37.350606,26.6843199 C37.350606,26.6843199 36.6475376,26.9277204 36.0260346,26.7913942 L33.7722194,30.606977 L33.8887285,30.7322767 C34.2504812,31.1212983 34.9147741,31.0793799 35.1548173,30.6524494 L37.350606,26.6843199 Z" id="Fill-39" fill="#3166AF" mask="url(#mask-26)"></path>
                        </g>
                        <g id="Group-44">
                            <mask id="mask-28" fill="white">
                                <use xlink:href="#path-27"></use>
                            </mask>
                            <g id="Clip-43"></g>
                            <path d="M35.0118679,27.4419962 C35.0118679,27.4419962 35.6914886,27.3850417 36.1327995,27.0434974 L39.6892893,29.3765333 L39.6518824,29.5230657 C39.5355558,29.9786101 38.9788307,30.1882935 38.5907107,29.9227492 L35.0118679,27.4419962 Z" id="Fill-42" fill="#3166AF" mask="url(#mask-28)"></path>
                        </g>
                        <g id="Group-47">
                            <mask id="mask-30" fill="white">
                                <use xlink:href="#path-29"></use>
                            </mask>
                            <g id="Clip-46"></g>
                            <path d="M35.4991894,26.895188 C35.4991894,26.895188 37.8972495,26.8858019 38.346133,22.7176484 L39.9429541,22.4949338 C40.1634727,22.6696245 40.6246732,22.551706 40.8392615,23.9458595 C40.9669926,24.7752983 40.9094223,25.6228715 40.7063299,26.4372743 L40.1137489,28.8132312 C39.9809085,29.3460513 39.3271078,29.5889962 38.8785892,29.2723295 L35.4991894,26.895188 Z" id="Fill-45" fill="#62C9F2" mask="url(#mask-30)"></path>
                        </g>
                        <g id="Group-50">
                            <mask id="mask-32" fill="white">
                                <use xlink:href="#path-31"></use>
                            </mask>
                            <g id="Clip-49"></g>
                            <path d="M35.4361998,26.9058225 C35.4361998,26.9058225 36.1158204,26.8488681 36.5571313,26.5072326 L40.1136211,28.8403597 L40.0762142,28.9868921 C39.9598876,29.4423453 39.4030713,29.6520288 39.0149513,29.3865755 L35.4361998,26.9058225 Z" id="Fill-48" fill="#FCFDFE" mask="url(#mask-32)"></path>
                        </g>
                        <g id="Group-53">
                            <mask id="mask-34" fill="white">
                                <use xlink:href="#path-33"></use>
                            </mask>
                            <g id="Clip-52"></g>
                            <path d="M36.7330262,26.7016705 C36.7330262,26.7016705 34.0009493,27.6408264 31.2987981,23.8104811 L29.5215112,26.0169415 C29.3643107,26.355023 29.3456984,26.3953012 29.6203203,26.6937424 L33.2078305,30.5809511 C33.6279745,31.0374067 34.4063131,30.9851909 34.6782891,30.4822604 L36.7330262,26.7016705 Z" id="Fill-51" fill="#62C9F2" mask="url(#mask-34)"></path>
                        </g>
                        <g id="Group-56">
                            <mask id="mask-36" fill="white">
                                <use xlink:href="#path-35"></use>
                            </mask>
                            <g id="Clip-55"></g>
                            <path d="M36.8010521,26.6843199 C36.8010521,26.6843199 36.0980749,26.9277204 35.4764807,26.7913942 L33.2226655,30.606977 L33.3391745,30.7322767 C33.7009273,31.1212983 34.3652202,31.0793799 34.6052634,30.6524494 L36.8010521,26.6843199 Z" id="Fill-54" fill="#FCFDFE" mask="url(#mask-36)"></path>
                        </g>
                        <g id="Group-59">
                            <mask id="mask-38" fill="white">
                                <use xlink:href="#path-37"></use>
                            </mask>
                            <g id="Clip-58"></g>
                            <path d="M37.2707741,24.1771218 C37.2707741,24.1771218 34.9411414,22.9859084 34.9320178,22.9634911 C34.9320178,22.9634911 35.7283299,24.6571794 36.8854824,25.3180331 L37.2707741,24.1771218 Z" id="Fill-57" fill="#A87F6F" mask="url(#mask-38)"></path>
                        </g>
                        <g id="Group-62">
                            <mask id="mask-40" fill="white">
                                <use xlink:href="#path-39"></use>
                            </mask>
                            <g id="Clip-61"></g>
                            <path d="M36.7419309,66.6808053 C34.9654651,67.4892849 33.0761397,68.2154767 31.1521445,68.9163353 C29.6555011,69.7794 27.0170329,69.6701386 25.2888312,68.6735727 C24.318896,68.1142345 23.8339741,67.3895918 23.8595203,66.7087813 L23.7993042,66.7280091 C25.0056331,54.4697741 23.7335227,46.5316014 23.6225791,36.4723544 L24.3895131,36.1079372 C24.8125767,47.7850547 26.6976139,66.2282681 36.7419309,66.6808053" id="Fill-60" fill="#558DC9" mask="url(#mask-40)"></path>
                        </g>
                        <g id="Group-65">
                            <mask id="mask-42" fill="white">
                                <use xlink:href="#path-41"></use>
                            </mask>
                            <g id="Clip-64"></g>
                            <path d="M29.8084043,25.6607439 L32.9107188,30.2589261 C34.2022627,31.8695976 34.7562507,38.1589165 34.7276936,40.1315448 L35.6614079,87.1589597 C35.6614079,87.1589597 22.0259313,87.8888878 22.6196072,81.3025856 C24.3204379,62.4335353 20.3154295,33.0083218 23.62257,29.8712715 C27.4446492,26.245871 29.8084043,25.6607439 29.8084043,25.6607439" id="Fill-63" fill="#FEFEFE" mask="url(#mask-42)"></path>
                        </g>
                        <g id="Group-68">
                            <mask id="mask-44" fill="white">
                                <use xlink:href="#path-43"></use>
                            </mask>
                            <g id="Clip-67"></g>
                            <path d="M41.8888643,31.7536201 L40.1783625,23.6924259 C40.1783625,23.6924259 41.4902521,21.483505 44.3027995,23.0577257 C48.5720288,25.4472604 45.7349388,55.5130974 45.8407731,60.7735914 C45.9466074,66.0340854 49.5955198,74.3521669 48.8835102,80.5522724 C48.8835102,80.5522724 47.7322881,82.4918216 44.3030732,82.7607376 C44.3030732,82.7607376 44.9242113,68.0733276 43.7889556,58.3536201 C42.6536999,48.6340038 41.8888643,31.7536201 41.8888643,31.7536201" id="Fill-66" fill="#FEFEFE" mask="url(#mask-44)"></path>
                        </g>
                        <g id="Group-71">
                            <mask id="mask-46" fill="white">
                                <use xlink:href="#path-45"></use>
                            </mask>
                            <g id="Clip-70"></g>
                            <path d="M27.3880552,26.8636854 C27.3880552,26.8636854 30.8177263,34.0930715 31.4703409,36.1078916 L33.7722377,36.8047405 L33.0702641,39.7380307 L34.8911621,48.3672201 C34.8911621,48.3672201 36.7330444,34.0935271 30.7913589,24.4404336 L27.3880552,26.8636854 Z" id="Fill-69" fill="#E0E4EB" mask="url(#mask-46)"></path>
                        </g>
                        <g id="Group-74">
                            <mask id="mask-48" fill="white">
                                <use xlink:href="#path-47"></use>
                            </mask>
                            <g id="Clip-73"></g>
                            <path d="M43.976255,22.8884844 C43.976255,22.8884844 43.9360197,30.6002974 44.0323654,32.7157218 L42.5648264,34.3157314 L43.7890377,36.5824269 L42.6689273,45.372729 C42.6689273,45.372729 41.630291,33.4043693 39.936303,21.48294 L43.976255,22.8884844 Z" id="Fill-72" fill="#E0E4EB" mask="url(#mask-48)"></path>
                        </g>
                        <g id="Group-77">
                            <mask id="mask-50" fill="white">
                                <use xlink:href="#path-49"></use>
                            </mask>
                            <g id="Clip-76"></g>
                            <path d="M31.8744182,24.1320048 C31.0380533,24.8503597 30.3162814,25.7339281 30.5436427,26.9081918 C30.7190905,27.8149065 31.2146872,28.6028825 31.3467064,29.5326523 C31.605818,31.3573813 31.1195275,33.1724508 31.0684351,34.9928058 C31.0532898,35.5289976 30.2167424,35.5210695 30.2319789,34.9817794 C30.2996764,32.5682782 30.9437148,30.3588106 30.0390137,28.0156595 C29.3365839,26.1963981 29.8257028,24.7927674 31.283297,23.5408633 C31.6898468,23.1916643 32.282884,23.7811655 31.8744182,24.1320048" id="Fill-75" fill="#22225F" mask="url(#mask-50)"></path>
                        </g>
                        <g id="Group-80">
                            <mask id="mask-52" fill="white">
                                <use xlink:href="#path-51"></use>
                            </mask>
                            <g id="Clip-79"></g>
                            <path d="M30.9213345,27.7510173 C32.0159899,29.8191468 34.7006238,31.0821683 34.5628567,33.7700532 C34.5354857,34.3048782 33.6987558,34.2979525 33.7264917,33.7589357 C33.8509383,31.3307631 31.1971424,30.0584465 30.1973729,28.1696552 C29.9461076,27.6947918 30.6695217,27.2752427 30.9213345,27.7510173" id="Fill-78" fill="#22225F" mask="url(#mask-52)"></path>
                        </g>
                        <g id="Group-83">
                            <mask id="mask-54" fill="white">
                                <use xlink:href="#path-53"></use>
                            </mask>
                            <g id="Clip-82"></g>
                            <path d="M31.6894454,35.8785065 L34.4092053,41.7279549 C35.0438463,42.9722043 35.4992077,43.6371588 37.0879088,42.940401 C37.1729412,43.1653026 37.2555102,43.3910245 37.3276783,43.6202091 L37.0837119,43.733389 C35.9305738,44.2682139 34.5531765,43.7790436 34.0176182,42.6273794 L30.758377,35.6177007 C30.22291,34.4659453 31.1641969,34.7488038 31.6894454,35.8785065" id="Fill-81" fill="#62C9F2" mask="url(#mask-54)"></path>
                        </g>
                        <g id="Group-86">
                            <mask id="mask-56" fill="white">
                                <use xlink:href="#path-55"></use>
                            </mask>
                            <g id="Clip-85"></g>
                            <path d="M38.1735227,42.4812662 L36.6298924,42.9975923 C36.5743294,43.0161823 36.5441301,43.0768729 36.5627424,43.1323693 L36.8328024,43.937295 C36.8514146,43.9927914 36.9121782,44.0229544 36.9677412,44.0043645 L38.5110065,43.4880384 C38.5665695,43.4695396 38.59686,43.4088489 38.5782478,43.3533525 L38.3084615,42.5483357 C38.289758,42.4928393 38.2290857,42.4626763 38.1735227,42.4812662" id="Fill-84" fill="#22225F" mask="url(#mask-56)"></path>
                        </g>
                        <g id="Group-89">
                            <mask id="mask-58" fill="white">
                                <use xlink:href="#path-57"></use>
                            </mask>
                            <g id="Clip-88"></g>
                            <path d="M33.7248951,35.063083 L33.7179611,41.5126034 C33.6655914,42.9079415 33.5321124,43.7023875 31.7973417,43.7370158 C31.8147678,43.9767712 31.8349311,44.2162532 31.865769,44.4545506 L32.1347342,44.4548254 C33.406206,44.4561909 34.4503164,43.4342005 34.451685,42.1642532 L34.4598982,34.4356729 C34.4612648,33.1658168 33.7262636,33.8174667 33.7248951,35.063083" id="Fill-87" fill="#62C9F2" mask="url(#mask-58)"></path>
                        </g>
                        <g id="Group-92">
                            <mask id="mask-60" fill="white">
                                <use xlink:href="#path-59"></use>
                            </mask>
                            <g id="Clip-91"></g>
                            <path d="M30.6191592,43.776 L32.2368735,43.596753 C32.2951736,43.590283 32.348182,43.6326571 32.3545685,43.6907962 L32.4483597,44.534542 C32.4548375,44.5926811 32.4124125,44.6455348 32.3542036,44.6520048 L30.7363981,44.8313429 C30.678098,44.8378129 30.6251808,44.79553 30.618703,44.7372998 L30.5250031,43.893554 C30.5185253,43.8353237 30.5608591,43.78247 30.6191592,43.776" id="Fill-90" fill="#22225F" mask="url(#mask-60)"></path>
                        </g>
                        <g id="Group-95">
                            <mask id="mask-62" fill="white">
                                <use xlink:href="#path-61"></use>
                            </mask>
                            <g id="Clip-94"></g>
                            <path d="M31.5099558,35.3886072 L30.410921,35.7039981 C30.3575477,35.7193074 30.3019846,35.6885976 30.2866569,35.6352882 L30.0311947,34.7464345 C30.015867,34.6931252 30.0466137,34.6375376 30.099987,34.6223194 L31.1989306,34.3070197 C31.2522127,34.2918014 31.3077758,34.3225113 31.3231035,34.3758206 L31.5787481,35.2645832 C31.5939846,35.3178014 31.5632379,35.3732978 31.5099558,35.3886072" id="Fill-93" fill="#22225F" mask="url(#mask-62)"></path>
                        </g>
                        <g id="Group-98">
                            <mask id="mask-64" fill="white">
                                <use xlink:href="#path-63"></use>
                            </mask>
                            <g id="Clip-97"></g>
                            <path d="M34.6566387,34.5941429 L33.5164562,34.6806225 C33.4611669,34.6848144 33.412994,34.6434427 33.4087059,34.5882197 L33.338545,33.6661046 C33.3343481,33.6108815 33.3757695,33.5626753 33.4310588,33.5584835 L34.5712413,33.472095 C34.6265306,33.467812 34.6747947,33.5091837 34.6789916,33.5644067 L34.7491525,34.4865218 C34.7533493,34.5417448 34.711928,34.5899511 34.6566387,34.5941429" id="Fill-96" fill="#22225F" mask="url(#mask-64)"></path>
                        </g>
                        <g id="Group-101">
                            <mask id="mask-66" fill="white">
                                <use xlink:href="#path-65"></use>
                            </mask>
                            <g id="Clip-100"></g>
                            <path d="M41.5547016,37.0290317 C41.2478732,33.9020053 41.173698,30.7284129 40.6689777,27.6242595 C40.3377892,25.5866576 39.7391866,23.1539285 37.4027112,22.6948302 C36.9364014,22.6032475 36.9946103,21.8592859 37.4661205,21.951871 C39.6206703,22.3753386 40.6160605,24.0653818 41.1203246,26.0739141 C41.9976547,29.5680916 41.9386247,33.3238038 42.2887904,36.8925233 C42.3354122,37.3672954 41.6015971,37.5067199 41.5547016,37.0290317" id="Fill-99" fill="#22225F" mask="url(#mask-66)"></path>
                        </g>
                        <g id="Group-104">
                            <mask id="mask-68" fill="white">
                                <use xlink:href="#path-67"></use>
                            </mask>
                            <g id="Clip-103"></g>
                            <path d="M43.974339,37.3332048 C44.3761445,38.3597516 43.8686872,39.517248 42.8409993,39.9186628 C41.8132202,40.3199866 40.6543342,39.8131376 40.2526199,38.7865909 C39.8508144,37.7600441 40.3582718,36.6024566 41.3859597,36.2011329 C42.4137388,35.7998091 43.5725335,36.306658 43.974339,37.3332048" id="Fill-102" fill="#62C9F2" mask="url(#mask-68)"></path>
                        </g>
                        <g id="Group-107">
                            <mask id="mask-70" fill="white">
                                <use xlink:href="#path-69"></use>
                            </mask>
                            <g id="Clip-106"></g>
                            <path d="M43.502254,37.0832705 C43.8117282,37.8739803 43.4208711,38.765659 42.629212,39.0747621 C41.8375529,39.3839564 40.9449863,38.9934767 40.6355121,38.2027669 C40.3260379,37.4120571 40.7168038,36.5204695 41.5084629,36.2112753 C42.300122,35.9021722 43.1926886,36.2925607 43.502254,37.0832705" id="Fill-105" fill="#F8F9FC" mask="url(#mask-70)"></path>
                        </g>
                        <g id="Group-110">
                            <mask id="mask-72" fill="white">
                                <use xlink:href="#path-71"></use>
                            </mask>
                            <g id="Clip-109"></g>
                            <path d="M43.4106617,36.4777309 C43.7201359,37.2684408 43.3292788,38.1600283 42.5376197,38.4692225 C41.7459606,38.7783257 40.853394,38.3879372 40.5439198,37.5972273 C40.2344456,36.8064264 40.6253028,35.9148388 41.4168706,35.6057357 C42.2085297,35.2965415 43.1011875,35.6870211 43.4106617,36.4777309" id="Fill-108" fill="#22225F" mask="url(#mask-72)"></path>
                        </g>
                        <g id="Group-113">
                            <mask id="mask-74" fill="white">
                                <use xlink:href="#path-73"></use>
                            </mask>
                            <g id="Clip-112"></g>
                            <path d="M34.1519001,24.0820854 L42.7346084,24.3683156 C43.3034679,24.38727 43.7844667,23.9379223 43.8035352,23.3697448 L44.3104451,8.21257458 C44.3294223,7.644306 43.8795352,7.16388393 43.3105844,7.1449295 L34.7278761,6.8584259 C34.1589253,6.83947146 33.6779265,7.28881918 33.6589493,7.85699664 L33.1521306,23.0145314 C33.1330622,23.5827089 33.5829493,24.0631309 34.1519001,24.0820854" id="Fill-111" fill="#A87F6F" mask="url(#mask-74)"></path>
                        </g>
                        <g id="Group-116">
                            <mask id="mask-76" fill="white">
                                <use xlink:href="#path-75"></use>
                            </mask>
                            <g id="Clip-115"></g>
                            <path d="M37.2219534,13.0778595 C38.9108322,13.8720321 41.0054396,14.3148187 42.87743,13.5934566 C44.9086281,12.8108571 46.344508,9.9609482 44.7506977,8.47976835 C43.8891515,7.67894341 41.6808634,6.9565789 39.8450026,6.21243501 C34.6380447,4.10202254 28.9940639,6.76785468 28.7958982,12.7056964 C28.7958982,12.7056964 28.4077782,19.2890825 31.7843496,21.4836053 C32.3825873,21.8724446 33.1892091,21.5393751 33.3675765,20.8491784 C33.3675765,20.8491784 31.6582607,18.4234662 34.5646905,16.6693607 C35.2332715,16.2657588 35.3866401,15.3314326 35.3315333,14.3599266 C35.2747842,13.3600801 36.314789,12.6512935 37.2219534,13.0778595" id="Fill-114" fill="#22225F" mask="url(#mask-76)"></path>
                        </g>
                        <g id="Group-119">
                            <mask id="mask-78" fill="white">
                                <use xlink:href="#path-77"></use>
                            </mask>
                            <g id="Clip-118"></g>
                            <path d="M31.798327,19.7099803 C32.5223798,20.3112369 33.3508072,20.1036494 33.6486944,19.2463257 C33.9465815,18.3889108 33.6011601,17.2065367 32.8771073,16.6052801 C32.1530545,16.0040235 31.3246271,16.2115199 31.0266487,17.0689348 C30.7287616,17.9262585 31.0742742,19.1086326 31.798327,19.7099803" id="Fill-117" fill="#A87F6F" mask="url(#mask-78)"></path>
                        </g>
                        <g id="Group-122">
                            <mask id="mask-80" fill="white">
                                <use xlink:href="#path-79"></use>
                            </mask>
                            <g id="Clip-121"></g>
                            <path d="M56.908946,58.6539659 L52.7517551,56.5625079 C52.4543241,56.4128772 52.333527,56.0473664 52.4833373,55.750201 L56.0630012,48.6516734 C56.2128115,48.354599 56.5787611,48.2338556 56.8762833,48.3835775 L61.0332917,50.4750355 C61.3307227,50.6246662 61.451611,50.990177 61.3017095,51.2872513 L57.7222281,58.38587 C57.5723265,58.6829444 57.206377,58.8036878 56.908946,58.6539659" id="Fill-120" fill="#A87F6F" mask="url(#mask-80)"></path>
                        </g>
                        <g id="Group-125">
                            <mask id="mask-82" fill="white">
                                <use xlink:href="#path-81"></use>
                            </mask>
                            <g id="Clip-124"></g>
                            <path d="M23.8171774,32.5387074 C21.2610046,40.4147314 21.7240298,48.6365827 22.3561162,56.7710432 C22.7814607,62.2454125 23.3934752,67.6380408 24.291151,73.0304868 C24.2798377,73.229235 24.284582,73.430717 24.3267333,73.634295 L24.7946852,75.8925156 C24.836654,76.1181463 24.8749733,76.3435036 24.9179457,76.5690432 C24.9444043,76.7073741 24.9794391,76.84206 25.0189445,76.9744676 L25.2331678,78.0080312 C25.4950166,79.2716906 26.7443179,80.09147 28.0094031,79.8298441 C29.0074391,79.6235324 29.719175,78.8012926 29.8507381,77.8438201 C30.1808317,77.3779784 30.3569181,76.8242902 30.2487116,76.2571151 C29.0447549,69.9502086 28.2507236,63.6648082 27.7496528,57.2657722 C27.1257777,49.2998058 26.5335616,41.377307 29.0404667,33.6533741 C30.1006348,30.3868321 24.8669445,29.3041511 23.8171774,32.5387074" id="Fill-123" fill="#E0E4EB" mask="url(#mask-82)"></path>
                        </g>
                        <g id="Group-128">
                            <mask id="mask-84" fill="white">
                                <use xlink:href="#path-83"></use>
                            </mask>
                            <g id="Clip-127"></g>
                            <path d="M23.4215395,31.2105938 C20.3046271,38.9238647 20.28492,47.1586561 20.4450401,55.3160806 C20.5763294,62.0064499 20.9936451,68.5914763 21.891686,75.2299031 C22.0864759,76.6693468 23.0221061,77.8801525 24.6537796,77.8966648 C25.997237,77.9101333 27.6089297,76.658047 27.415782,75.2299031 C26.5544182,68.8633995 26.1150233,62.5423683 25.9851025,56.1250158 C25.8233402,48.1361765 25.6915947,40.1927185 28.748291,32.6284403 C30.0409297,29.4293324 24.7015875,28.0429247 23.4215395,31.2105938" id="Fill-126" fill="#FEFEFE" mask="url(#mask-84)"></path>
                        </g>
                        <g id="Group-131">
                            <mask id="mask-86" fill="white">
                                <use xlink:href="#path-85"></use>
                            </mask>
                            <g id="Clip-130"></g>
                            <path d="M24.7369417,82.4440072 L24.7369417,82.4440072 C26.0150737,82.256741 26.9074579,81.0590576 26.7200581,79.782458 L26.0712754,75.3633405 C25.8838756,74.0866499 24.6846631,73.1952446 23.4064399,73.3825108 L23.4064399,73.3825108 C22.1283078,73.569777 21.2359236,74.7674604 21.4233234,76.04406 L22.0721061,80.4631775 C22.2595059,81.7398681 23.4587184,82.6312734 24.7369417,82.4440072" id="Fill-129" fill="#EBBEAE" mask="url(#mask-86)"></path>
                        </g>
                    </g>
                </g>
            </g>
        </g>
    </g>
</svg>