<svg xmlns="http://www.w3.org/2000/svg" xmlns:xlink="http://www.w3.org/1999/xlink" width="60" height="60" viewBox="0 0 60 60">
    <defs>
        <path id="a" d="M.37.112h5.556v18.26H.37z"/>
        <path id="c" d="M0 .058h16.232v21.531H0z"/>
    </defs>
    <g fill="none" fill-rule="evenodd">
        <path fill="#000" d="M25.435 30.092a.373.373 0 0 0-.295.069l-.162.105-.03.02c-2.047 1.362-4.065 2.304-6 2.799-2.062.513-3.137 2.611-2.95 5.757v.032c0 2.016.2 2.85.32 3.17l.02.063c.04.169.247.232.368.232.04 0 .123 0 .154-.009l.054-.022c.1-.03.18-.102.226-.2a.46.46 0 0 0 .006-.362c-.26-.607-.289-2.174-.289-2.82v-.104c-.193-2.586.668-4.4 2.305-4.815 3.295-.867 6.096-2.778 6.405-3.035l.05-.04a.463.463 0 0 0 .195-.307.405.405 0 0 0-.066-.306.466.466 0 0 0-.31-.227"/>
        <g transform="translate(27.222 30.516)">
            <mask id="b" fill="#fff">
                <use xlink:href="#a"/>
            </mask>
            <path fill="#1F1FFF" d="M1.885 3.39l.6.154c.141.037.367.037.585.037.188 0 .291 0 .433-.037l.598-.155.696 12.276-1.828 1.68-1.779-1.627.695-12.329zm-.8-.831L.37 15.771c0 .153.049.281.156.393l2.205 2.082c.131.1.226.126.316.126.091 0 .186-.027.354-.157l2.24-2.072c.086-.09.134-.219.134-.395L5.06 2.739l.157-.164c.445-.463.71-1.168.71-1.886-.02-.259-.152-.577-.454-.577a.465.465 0 0 0-.454.472c0 .582-.227 1.098-.637 1.454l-.172.174c-.29.226-.697.367-1.06.367-1.03 0-1.87-.871-1.87-1.942 0-.228-.173-.473-.454-.473C.55.164.371.35.371.637c0 .654.21 1.281.593 1.767l.122.155z" mask="url(#b)"/>
        </g>
        <path fill="#000" d="M25.969 26.676c-2.115-2.608-1.861-7.312-1.79-8.229h.001v-.04c.096-2.226.756-3.916 1.962-5.046 1.632-1.529 3.684-1.488 4.078-1.46l.021-.002c.367-.023 2.417-.067 4.048 1.462 1.207 1.13 1.867 2.82 1.962 5.023v.077c.072.903.317 5.615-1.948 8.225-1 1.154-2.34 1.743-4.096 1.8h-.117c-1.768 0-3.116-.592-4.121-1.81zm4.323 2.702c1.98-.048 3.513-.73 4.673-2.081 2.67-3.128 2.17-8.706 2.147-8.943-.135-2.842-1.735-7.541-6.902-7.348-2.485-.077-6.701 1.337-6.94 7.318-.024.267-.524 5.845 2.147 8.974 1.141 1.329 2.716 2.03 4.679 2.08h.196zM44.065 35.321a4.507 4.507 0 0 0-.485-.883 3.535 3.535 0 0 0-2.002-1.407c-3.135-.803-5.76-2.588-6.184-2.924l-.001.001c-.099-.076-.223-.065-.288-.05a.545.545 0 0 0-.319.208c-.094.162-.033.486.152.63l.055.048c.281.233 3.083 2.143 6.382 3.012 1.069.27 1.795 1.112 2.124 2.394.179.696.242 1.52.175 2.459l.002.066c.038.588.033 2.166-.241 2.825a.497.497 0 0 0 .009.372c.041.093.11.161.189.189l.067.028c.003-.002.032-.002.065-.002h.062c.15 0 .323-.137.395-.313.11-.314.312-1.178.312-3.152.083-1.383-.082-2.564-.469-3.5M43.927 29.693h-.05c-1.26 0-2.256-.432-2.96-1.285-1.558-1.823-1.453-5.03-1.384-5.97v-.04c.136-3.49 2.28-4.725 4.243-4.725h.151c2.577 0 4.2 1.756 4.343 4.698v.078c.013.11.36 3.945-1.392 5.968-.695.844-1.69 1.276-2.95 1.276m8.567 3.713c-4.068-1.057-5.33-2.384-5.721-3.08l-.22-.392.34-.283c.24-.2.463-.384.629-.6 2.05-2.387 1.628-6.576 1.61-6.754-.237-4.604-3.399-5.673-5.23-5.57-.555-.016-5.054.033-5.28 5.535-.006.078-.437 4.352 1.594 6.772.987 1.074 2.172 1.604 3.61 1.604h.201c.464 0 .853-.081 1.304-.176l.47-.098.18.329c.566 1.029 2.127 2.485 6.35 3.583 1.412.366 1.748 2.052 1.592 3.506a.419.419 0 0 0 .102.302c.078.095.19.156.305.168.247-.002.436-.222.458-.428.18-2.388-.656-4.004-2.294-4.418"/>
        <g transform="translate(5 16.663)">
            <mask id="d" fill="#fff">
                <use xlink:href="#c"/>
            </mask>
            <path fill="#000" d="M7.935 11.755C6.182 9.732 6.529 5.897 6.542 5.787l.001-.08c.143-2.94 1.767-4.697 4.343-4.697h.151c1.962 0 4.107 1.236 4.243 4.725v.04c.07.94.175 4.148-1.385 5.97-.703.853-1.699 1.286-2.959 1.286h-.05c-1.26 0-2.256-.433-2.951-1.276M.024 21.162c.022.205.211.425.458.427a.463.463 0 0 0 .305-.168.419.419 0 0 0 .102-.301c-.156-1.455.18-3.14 1.591-3.507 4.224-1.098 5.786-2.554 6.351-3.583l.181-.328.47.098c.45.094.84.175 1.303.175h.202c1.437 0 2.622-.53 3.609-1.604 2.03-2.42 1.6-6.693 1.593-6.772C15.964.097 11.466.05 10.911.064c-1.832-.103-4.994.966-5.23 5.57-.019.178-.441 4.368 1.61 6.754.165.216.388.4.628.6l.34.284-.22.39c-.39.697-1.653 2.024-5.72 3.081-1.64.414-2.475 2.03-2.295 4.419" mask="url(#d)"/>
        </g>
    </g>
</svg>
