<svg xmlns="http://www.w3.org/2000/svg" xmlns:xlink="http://www.w3.org/1999/xlink" width="80" height="80" viewBox="0 0 80 80">
    <defs>
        <path id="a" d="M0 40v40h80V0H0v40z"/>
    </defs>
    <g fill="none" fill-rule="evenodd">
        <path fill="#00CCAE" d="M40 55.334c-4.429 0-8.42-1.725-10.415-4.501a1 1 0 1 1 1.625-1.167c1.601 2.228 5.051 3.668 8.79 3.668 3.739 0 7.189-1.44 8.79-3.668a1 1 0 1 1 1.625 1.167c-1.995 2.776-5.986 4.5-10.415 4.5"/>
        <path fill="#797C80" d="M39.977 47.75c-2.47 0-7.913-2.893-8.494-7.71-1.072-.367-1.902-1.353-2.224-2.717-.285-1.208-.064-2.329.55-3.035-.178-.775-.47-2.12-.594-3.056-.027-.213-.65-5.247 2.442-8.774 1.896-2.162 4.722-3.258 8.4-3.258a1 1 0 1 1 0 2c-3.077 0-5.397.867-6.896 2.576-2.502 2.853-1.969 7.151-1.963 7.194.166 1.25.692 3.437.697 3.46.109.451-.108.92-.524 1.128-.153.075-.337.577-.165 1.305.145.615.553 1.333 1.226 1.333a1 1 0 0 1 1 1c0 3.98 4.862 6.554 6.545 6.554a1 1 0 1 1 0 2"/>
        <path fill="#797C80" d="M40.023 47.75a1 1 0 1 1 0-2c1.682 0 6.545-2.575 6.545-6.554a1 1 0 0 1 1-1c.674 0 1.082-.718 1.227-1.333.172-.728-.013-1.23-.166-1.305a1.003 1.003 0 0 1-.524-1.129c.006-.022.53-2.21.697-3.46.005-.042.538-4.34-1.963-7.193-1.5-1.709-3.82-2.576-6.896-2.576a1 1 0 1 1 0-2c3.678 0 6.505 1.096 8.4 3.258 3.092 3.527 2.47 8.561 2.441 8.773-.123.936-.416 2.282-.593 3.057.614.706.835 1.827.55 3.035-.322 1.364-1.152 2.35-2.224 2.717-.58 4.817-6.025 7.71-8.495 7.71"/>
        <path fill="#797C80" d="M60.206 60.8H19.794a1 1 0 0 1-1-1v-2.22c0-2.822 1.97-5.338 4.9-6.259l9.917-3.138V44.05a1 1 0 0 1 2 0v4.865a1 1 0 0 1-.698.954l-10.617 3.359c-2.095.658-3.502 2.407-3.502 4.352v1.22h38.412v-1.22c0-1.945-1.406-3.694-3.5-4.351l-10.619-3.36a1 1 0 0 1-.698-.954V44.05a1 1 0 1 1 2 0v4.133l9.92 3.138c2.927.921 4.897 3.437 4.897 6.259v2.22a1 1 0 0 1-1 1M45.6 35.63a.997.997 0 0 1-.706-.293 1.63 1.63 0 0 0-2.301-.002 1 1 0 0 1-1.414-1.414 3.63 3.63 0 0 1 5.129.002.999.999 0 0 1-.707 1.707M38.844 35.63a.997.997 0 0 1-.707-.293 1.622 1.622 0 0 0-1.151-.478h-.001c-.435 0-.842.169-1.15.476a1 1 0 0 1-1.413-1.414 3.597 3.597 0 0 1 2.562-1.062h.003a3.609 3.609 0 0 1 2.564 1.064.999.999 0 0 1-.707 1.707M36.888 31.086c-2.176 0-4.15-.693-5.363-1.387a1 1 0 1 1 .99-1.738c.24.138 5.952 3.283 9.949-1.54l.032-.037a1 1 0 0 1 1.496-.063c.077.08 1.778 1.784 4.048 1.045a1 1 0 0 1 .619 1.902c-2.345.765-4.254-.159-5.283-.876-1.997 2.018-4.341 2.694-6.488 2.694M39.997 42.89c-1.172 0-2.342-.244-3.254-.73a1.001 1.001 0 0 1 .941-1.765c1.255.67 3.376.668 4.631-.002a1 1 0 1 1 .942 1.765c-.914.487-2.088.731-3.26.731"/>
        <mask id="b" fill="#fff">
            <use xlink:href="#a"/>
        </mask>
        <path fill="#D1D6DC" d="M40 0C17.909 0 0 17.908 0 40c0 22.091 17.909 40 40 40 22.092 0 40-17.909 40-40C80 17.908 62.092 0 40 0m0 2c20.953 0 38 17.046 38 38 0 20.953-17.047 38-38 38S2 60.953 2 40C2 19.046 19.047 2 40 2" mask="url(#b)"/>
    </g>
</svg>
