<svg xmlns="http://www.w3.org/2000/svg" width="60" height="37" viewBox="0 0 60 37">
    <g fill="none" fill-rule="evenodd">
        <path fill="#00CCAE" d="M38.736 8.519c3.981 0 6.822 2.828 6.822 6.987v8.668c0 1-.794 1.81-1.772 1.81h-1.179c-.978 0-1.772-.81-1.772-1.81v-7.115c0-2.606-1.249-4.011-3.42-4.011-2.026 0-3.71 1.331-3.71 4.048v7.078c0 1-.792 1.81-1.771 1.81h-1.179c-.979 0-1.772-.81-1.772-1.81V2.084c0-1 .793-1.81 1.772-1.81h1.179c.979 0 1.772.81 1.772 1.81v8.838c1.248-1.775 3.094-2.403 5.03-2.403M47.987 24.173V10.81c0-1 .794-1.81 1.772-1.81h1.18c.978 0 1.771.81 1.771 1.81v13.363c0 1-.793 1.81-1.772 1.81H49.76c-.978 0-1.772-.81-1.772-1.81M55.25 24.173V2.103c0-1 .793-1.81 1.771-1.81H58.2c.979 0 1.772.81 1.772 1.81v22.07c0 1-.793 1.81-1.772 1.81h-1.179c-.978 0-1.772-.81-1.772-1.81M18.579 21.185h-3.84v-3.923c0-2.164 1.722-3.923 3.84-3.923 2.117 0 3.84 1.76 3.84 3.923 0 2.163-1.723 3.923-3.84 3.923m-.213-12.651c-4.586.114-8.333 4.22-8.333 8.907v3.744H1.772c-.979 0-1.772.81-1.772 1.81v1.187c0 1 .793 1.81 1.772 1.81h8.26v8.44c0 1 .794 1.81 1.773 1.81h1.162c.978 0 1.772-.81 1.772-1.81v-8.44h3.664c4.588 0 8.607-3.827 8.72-8.513.118-4.986-3.877-9.067-8.757-8.945"/>
        <path fill="#019990" d="M10.05 26.02h4.68v1.29h-4.68z"/>
        <path fill="#00CCAE" d="M53.344 3.12c0 1.706-1.353 3.088-3.022 3.088-1.67 0-3.022-1.382-3.022-3.087 0-1.705 1.353-3.087 3.022-3.087 1.669 0 3.022 1.382 3.022 3.087"/>
    </g>
</svg>
