<svg xmlns="http://www.w3.org/2000/svg" width="60" height="60" viewBox="0 0 60 60">
    <g fill="none" fill-rule="evenodd">
        <g stroke="#2A2A2E">
            <path stroke-linecap="round" stroke-linejoin="round" d="M33.986 50.672h-19.45c-1.953 0-3.536-1.78-3.536-3.972V8.971C11 6.78 12.583 5 14.536 5h19.45c1.952 0 3.536 1.78 3.536 3.971l-.111 24.824M37.11 13.044H11.416M30.512 41.089H11M20.262 8.982h8.235"/>
            <path d="M26.315 45.977c0-1.05-.866-1.905-1.936-1.905-1.07 0-1.936.855-1.936 1.905s.866 1.905 1.936 1.905c1.07 0 1.936-.855 1.936-1.905z"/>
        </g>
        <path fill="#1F1FFF" d="M26.743 27.274h-1.88v-1.856c0-1.022.845-1.855 1.88-1.855s1.877.833 1.877 1.855a1.869 1.869 0 0 1-1.877 1.856m-.104-5.983c-2.244.054-4.076 1.996-4.076 4.213v1.77H18.52a.862.862 0 0 0-.866.856v.561c0 .473.388.857.866.857h4.042v3.99c0 .474.387.858.866.858h.568c.48 0 .866-.384.866-.857v-3.99h1.794c2.245 0 4.21-1.812 4.266-4.027.058-2.358-1.898-4.288-4.284-4.23"/>
        <g stroke="#2A2A2E" stroke-linecap="round" stroke-linejoin="round">
            <path d="M51.148 54.825l-5.553-7.674v-9.994c0-3.715-3.51-5.57-7.773-9.157M41.139 41.721l-6.101-6.03a2.374 2.374 0 0 0-3.328 0 2.307 2.307 0 0 0 0 3.29l4.992 7.125v3.377c0 1.368.432 2.705 1.238 3.821l1.167 1.612"/>
        </g>
    </g>
</svg>
