<svg xmlns="http://www.w3.org/2000/svg" xmlns:xlink="http://www.w3.org/1999/xlink" width="243" height="155" viewBox="0 0 243 155">
    <defs>
        <path id="a" d="M0 0h240v148H0z"/>
    </defs>
    <g fill="none" fill-rule="evenodd">
        <g transform="translate(0 7)">
            <mask id="b" fill="#fff">
                <use xlink:href="#a"/>
            </mask>
            <path fill="#4A90E2" d="M238.341 18.534c-1.11-1.42-2.494-2.632-3.512-4.116-.616-.906-.772-2.14-1.122-3.232-1.1-3.484-2.382-3.992-5.376-2.104-.554-.288-1.106-.586-2.246-1.188-.57 3.226-1.416 6.062-1.492 8.926-.086 3.97-2.08 7.136-5.896 8.14-2.732.72-5.44 1.628-8.224 2.034-2.532.364-3.926 1.914-5.174 3.776-.794 1.17-1.412 2.462-2.136 3.738.352.702.778 1.546 1.114 2.198-1.862 2.572-4.258 3.084-7.044 2.884-1.002-.072-2.134.32-3.046.798-.476.246-1.012 1.474-.82 1.712 1.496 1.92.114 3.008-1.124 3.97-2.464 1.918-5.122 3.59-7.538 5.554-3.092 2.52-4.74 2.746-8.366.452.906-1.546 1.832-3.108 2.74-4.686.174-.31.41-.71.348-1.004-.442-2.066-.786-4.182-1.502-6.16-.546-1.494-1.704-1.618-2.788-.278-.542.664-1.088 1.324-1.64 1.986-.25-.148-.502-.294-.764-.442.454-.958.864-1.936 1.38-2.864 1.44-2.606.522-5.676-1.886-7.012-.328.014-.65.042-.99.042-4.11 0-7.208-1.55-9.334-3.88-1.94-.294-3.854-.72-5.682-1.404a26.957 26.957 0 0 1-5.61-2.868c-1.336.904-2.674 1.8-4 2.722-2.05 1.424-2.782 1.264-4.022-.92-1.318.582-2.63 1.158-3.948 1.742-.146-.24-.292-.496-.444-.742 1.308-1 2.646-2.028 3.958-3.034-3.77-.224-7.486-2.04-10.106-6.06-.166-.252-.352-.482-.528-.722-.946.142-1.816-.026-2.524-.468a9.844 9.844 0 0 1-3.59-.662c-1.074-.42-2.158-.826-3.25-1.216C87.585 13.94 53.677 9.248 20.27 0v7.012c-.634-.878-1.008-1.87-1.71-2.284-2.086-1.208-4.3-2.19-6.91-3.478.082 1.734.18 3.326.218 4.91.174 7.224-2.282 13.798-5.324 20.14-1.818 3.78-4.452 7.208-3.814 11.756.354 2.52-.792 4.46-2.23 6.436-.618.842-.502 2.332-.466 3.52.032 1.234.924 2.722.476 3.646-1.788 3.72 1.848 6.432 1.502 9.808 0 .004.2.004.204.034.254 1.038.534 2.068.712 3.122.156.938-.172 2.304.352 2.776 1.28 1.176 2.282 1.998.488 3.522-.226.198-.092 1.054.112 1.488.878 1.856 1.978 3.608 2.726 5.508.458 1.152.878 2.656.52 3.732-.68 1.994.166 2.488 1.764 3.06 1.304.458 2.898 1.044 3.586 2.086 1.086 1.648 2.904 2.282 4.174 3.742 1.688 1.936 3.472 3.476 3.406 6.238-.036 1.434.402 2.082 2.084 2.266 4.022.434 8.076.288 11.588 3.428 2.906 2.602 6.928 3.916 10.194 6.178 5.638 3.898 12.22 3.216 18.436 4.57.24-1.076.412-1.856.592-2.64 2.066.27 4.002.368 5.85.806 1.04.248 2.084.914 2.884 1.648 1.668 1.546 3.3 3.17 4.71 4.954.976 1.232 1.542 2.792 2.298 4.198.656 1.224 1.072 2.694 2.024 3.58 1.494 1.392 3.356 2.386 5.298 3.694.706-.798 1.616-1.406 1.92-2.242.542-1.498 1.422-2.634 2.954-2.582 1.474.052 3.31.252 4.298 1.138 1.618 1.444 2.728 3.472 3.968 5.304 1.47 2.172 2.884 4.396 4.284 6.61.276.422.53.902.614 1.382.578 3.242 1.614 6.094 5.218 7.156 1.576.464 3.092 1.134 4.672 1.588.76.212 1.596.146 2.176.19-.496-2.458-1.366-4.472-1.194-6.406.414-4.708 3.168-7.794 7.67-9.408 1.404-.508 2.986-1.184 3.902-2.272 1.214-1.452 2.138-2.67 4.26-3.122 2.942-.63 5.7-1.444 8.744-.416.968.324 2.258-.3 3.404-.496-.002-.248-.014-.492-.016-.742 2.75 1.586 5.12 4.194 9.02 3.142 1.036-2.174 2.656-4.052 4.858-5.302-.042-.386-.274-.814-.822-1.32 2.276-.52 4.962-2.02 6.292-1.238 2.314 1.372 3.772.016 5.464-.39 2.598-.626 4.72.308 6.836 1.406.556.288.822 1.15 1.486 2.14 1.344-.638 3.21-1.046 4.342-2.178 2.086-2.092 3.322-.548 4.732.588.996.81 1.73 2.236 2.826 2.556 2.186.632 2.52 2.39 2.028 3.708-1.01 2.7.538 4.49 1.682 6.358 1.072 1.742 2.626 3.164 3.92 4.768.728.908 1.188 2.476 2.058 2.73 1.862.526 2.5 1.844 3.316 3.236.202.342.908.646 1.302.574 2.036-.378 3.03-1.216 3.232-3.736.26-3.286.532-6.228-1.558-9.078-1.152-1.566-1.856-3.466-2.686-5.25-.408-.874-.378-2.112-1.002-2.708-2.184-2.068-3.158-4.788-4.582-7.304-2.69-4.762.364-11.936 3.362-14.72 1.898-1.758 4.114-3.278 4.75-6.212.234-1.068 1.978-1.796 3-2.712.686-.618 1.322-1.286 1.968-1.946 1.372-1.412 2.706-2.864 4.114-4.246.594-.588 1.312-1.036 1.938-1.512-.676-.894-1.096-1.454-1.586-2.092 2.026-.676 3.508-1.574 3.114-3.768-.2-.15-.386-.316-.572-.48-.556-.19-1.114-.382-1.856-.634.332-.162.584-.276.816-.388-2.13-2.386-3.232-5.574-3.318-8.8-.184-1.13-.382-2.348-.606-3.75.304.266.576.498.822.716.148-.842.384-1.662.678-2.46-.004-.066-.022-.126-.022-.188 0-4.694 2.586-8.846 6.368-11.188-.068-.22-.112-.444-.214-.67 2.516-1.784 4.722-3.344 6.944-4.918-.524-.682-.824-1.078-1.122-1.466.212-.184.31-.29.426-.378 1.45-1.044 2.854-2.158 4.354-3.116 3.264-2.07-.338-2.978-.712-4.428-.092-.37-.352-.71-.378-1.078-.162-2.932-.04-5.726 2.56-7.834 1.34-1.092 2.276-2.682 3.592-3.808 1.79-1.518 3.778-2.804 5.95-4.388-.56-.984-.998-2.004-1.66-2.842" mask="url(#b)"/>
        </g>
        <path fill="#00CCAE" stroke="#FFF" stroke-width=".96" d="M168.906 21c-4.37 0-7.906 3.6-7.906 8.05 0 6.037 7.906 14.95 7.906 14.95s7.906-8.912 7.906-14.95c0-4.45-3.535-8.05-7.906-8.05"/>
        <path fill="#FFF" d="M168.906 31.925c-1.559 0-2.824-1.288-2.824-2.875s1.265-2.875 2.824-2.875c1.558 0 2.823 1.288 2.823 2.875s-1.265 2.875-2.823 2.875"/>
        <path fill="#00CCAE" stroke="#FFF" stroke-width=".96" d="M141.906 22c-4.37 0-7.906 3.6-7.906 8.05 0 6.037 7.906 14.95 7.906 14.95s7.906-8.912 7.906-14.95c0-4.45-3.535-8.05-7.906-8.05"/>
        <path fill="#FFF" d="M141.906 32.925c-1.559 0-2.824-1.288-2.824-2.875s1.265-2.875 2.824-2.875c1.558 0 2.823 1.288 2.823 2.875s-1.265 2.875-2.823 2.875"/>
        <path fill="#00CCAE" stroke="#FFF" stroke-width=".96" d="M129.906 42c-4.37 0-7.906 3.6-7.906 8.05 0 6.037 7.906 14.95 7.906 14.95s7.906-8.912 7.906-14.95c0-4.45-3.535-8.05-7.906-8.05"/>
        <path fill="#FFF" d="M129.906 52.925c-1.559 0-2.824-1.288-2.824-2.875s1.265-2.875 2.824-2.875c1.558 0 2.823 1.288 2.823 2.875s-1.265 2.875-2.823 2.875"/>
        <path fill="#00CCAE" stroke="#FFF" stroke-width=".96" d="M110.906 51c-4.37 0-7.906 3.6-7.906 8.05 0 6.037 7.906 14.95 7.906 14.95s7.906-8.912 7.906-14.95c0-4.45-3.535-8.05-7.906-8.05"/>
        <path fill="#FFF" d="M110.906 61.925c-1.559 0-2.824-1.288-2.824-2.875s1.265-2.875 2.824-2.875c1.558 0 2.823 1.288 2.823 2.875s-1.265 2.875-2.823 2.875"/>
        <path fill="#00CCAE" stroke="#FFF" stroke-width=".96" d="M155.906 36c-4.37 0-7.906 3.6-7.906 8.05 0 6.037 7.906 14.95 7.906 14.95s7.906-8.912 7.906-14.95c0-4.45-3.535-8.05-7.906-8.05"/>
        <path fill="#FFF" d="M155.906 46.925c-1.559 0-2.824-1.288-2.824-2.875s1.265-2.875 2.824-2.875c1.558 0 2.823 1.288 2.823 2.875s-1.265 2.875-2.823 2.875"/>
        <path fill="#00CCAE" stroke="#FFF" stroke-width=".96" d="M233.906 6C229.536 6 226 9.6 226 14.05c0 6.037 7.906 14.95 7.906 14.95s7.906-8.912 7.906-14.95c0-4.45-3.535-8.05-7.906-8.05"/>
        <path fill="#FFF" d="M233.906 16.925c-1.559 0-2.824-1.288-2.824-2.875s1.265-2.875 2.824-2.875c1.558 0 2.823 1.288 2.823 2.875s-1.265 2.875-2.823 2.875"/>
        <path fill="#00CCAE" stroke="#FFF" stroke-width=".96" d="M227.906 18c-4.37 0-7.906 3.6-7.906 8.05 0 6.037 7.906 14.95 7.906 14.95s7.906-8.912 7.906-14.95c0-4.45-3.535-8.05-7.906-8.05"/>
        <path fill="#FFF" d="M227.906 28.925c-1.559 0-2.824-1.288-2.824-2.875s1.265-2.875 2.824-2.875c1.558 0 2.823 1.288 2.823 2.875s-1.265 2.875-2.823 2.875"/>
        <path fill="#00CCAE" stroke="#FFF" stroke-width=".96" d="M209.906 21c-4.37 0-7.906 3.6-7.906 8.05 0 6.037 7.906 14.95 7.906 14.95s7.906-8.912 7.906-14.95c0-4.45-3.535-8.05-7.906-8.05"/>
        <path fill="#FFF" d="M209.906 31.925c-1.559 0-2.824-1.288-2.824-2.875s1.265-2.875 2.824-2.875c1.558 0 2.823 1.288 2.823 2.875s-1.265 2.875-2.823 2.875"/>
        <path fill="#00CCAE" stroke="#FFF" stroke-width=".96" d="M221.906 29c-4.37 0-7.906 3.6-7.906 8.05 0 6.037 7.906 14.95 7.906 14.95s7.906-8.912 7.906-14.95c0-4.45-3.535-8.05-7.906-8.05"/>
        <path fill="#FFF" d="M221.906 39.925c-1.559 0-2.824-1.288-2.824-2.875s1.265-2.875 2.824-2.875c1.558 0 2.823 1.288 2.823 2.875s-1.265 2.875-2.823 2.875"/>
        <path fill="#00CCAE" stroke="#FFF" stroke-width=".96" d="M218.906 42c-4.37 0-7.906 3.6-7.906 8.05 0 6.037 7.906 14.95 7.906 14.95s7.906-8.912 7.906-14.95c0-4.45-3.535-8.05-7.906-8.05"/>
        <path fill="#FFF" d="M218.906 52.925c-1.559 0-2.824-1.288-2.824-2.875s1.265-2.875 2.824-2.875c1.558 0 2.823 1.288 2.823 2.875s-1.265 2.875-2.823 2.875"/>
        <path fill="#00CCAE" stroke="#FFF" stroke-width=".96" d="M205.906 46c-4.37 0-7.906 3.6-7.906 8.05 0 6.037 7.906 14.95 7.906 14.95s7.906-8.912 7.906-14.95c0-4.45-3.535-8.05-7.906-8.05"/>
        <path fill="#FFF" d="M205.906 56.925c-1.559 0-2.824-1.288-2.824-2.875s1.265-2.875 2.824-2.875c1.558 0 2.823 1.288 2.823 2.875s-1.265 2.875-2.823 2.875"/>
        <path fill="#00CCAE" stroke="#FFF" stroke-width=".96" d="M193.906 42c-4.37 0-7.906 3.6-7.906 8.05 0 6.037 7.906 14.95 7.906 14.95s7.906-8.912 7.906-14.95c0-4.45-3.535-8.05-7.906-8.05"/>
        <path fill="#FFF" d="M193.906 52.925c-1.559 0-2.824-1.288-2.824-2.875s1.265-2.875 2.824-2.875c1.558 0 2.823 1.288 2.823 2.875s-1.265 2.875-2.823 2.875"/>
        <path fill="#00CCAE" stroke="#FFF" stroke-width=".96" d="M184.906 53c-4.37 0-7.906 3.6-7.906 8.05 0 6.037 7.906 14.95 7.906 14.95s7.906-8.912 7.906-14.95c0-4.45-3.535-8.05-7.906-8.05"/>
        <path fill="#FFF" d="M184.906 63.925c-1.559 0-2.824-1.288-2.824-2.875s1.265-2.875 2.824-2.875c1.558 0 2.823 1.288 2.823 2.875s-1.265 2.875-2.823 2.875"/>
        <path fill="#00CCAE" stroke="#FFF" stroke-width=".96" d="M167.906 53c-4.37 0-7.906 3.6-7.906 8.05 0 6.037 7.906 14.95 7.906 14.95s7.906-8.912 7.906-14.95c0-4.45-3.535-8.05-7.906-8.05"/>
        <path fill="#FFF" d="M167.906 63.925c-1.559 0-2.824-1.288-2.824-2.875s1.265-2.875 2.824-2.875c1.558 0 2.823 1.288 2.823 2.875s-1.265 2.875-2.823 2.875"/>
        <path fill="#00CCAE" stroke="#FFF" stroke-width=".96" d="M176.906 61c-4.37 0-7.906 3.6-7.906 8.05 0 6.037 7.906 14.95 7.906 14.95s7.906-8.912 7.906-14.95c0-4.45-3.535-8.05-7.906-8.05"/>
        <path fill="#FFF" d="M176.906 71.925c-1.559 0-2.824-1.288-2.824-2.875s1.265-2.875 2.824-2.875c1.558 0 2.823 1.288 2.823 2.875s-1.265 2.875-2.823 2.875"/>
        <path fill="#00CCAE" stroke="#FFF" stroke-width=".96" d="M151.906 61c-4.37 0-7.906 3.6-7.906 8.05 0 6.037 7.906 14.95 7.906 14.95s7.906-8.912 7.906-14.95c0-4.45-3.535-8.05-7.906-8.05"/>
        <path fill="#FFF" d="M151.906 71.925c-1.559 0-2.824-1.288-2.824-2.875s1.265-2.875 2.824-2.875c1.558 0 2.823 1.288 2.823 2.875s-1.265 2.875-2.823 2.875"/>
        <path fill="#00CCAE" stroke="#FFF" stroke-width=".96" d="M138.906 73c-4.37 0-7.906 3.6-7.906 8.05 0 6.037 7.906 14.95 7.906 14.95s7.906-8.912 7.906-14.95c0-4.45-3.535-8.05-7.906-8.05"/>
        <path fill="#FFF" d="M138.906 83.925c-1.559 0-2.824-1.288-2.824-2.875s1.265-2.875 2.824-2.875c1.558 0 2.823 1.288 2.823 2.875s-1.265 2.875-2.823 2.875"/>
        <path fill="#00CCAE" stroke="#FFF" stroke-width=".96" d="M151.906 85c-4.37 0-7.906 3.6-7.906 8.05 0 6.037 7.906 14.95 7.906 14.95s7.906-8.912 7.906-14.95c0-4.45-3.535-8.05-7.906-8.05"/>
        <path fill="#FFF" d="M151.906 95.925c-1.559 0-2.824-1.288-2.824-2.875s1.265-2.875 2.824-2.875c1.558 0 2.823 1.288 2.823 2.875s-1.265 2.875-2.823 2.875"/>
        <path fill="#00CCAE" stroke="#FFF" stroke-width=".96" d="M210.906 58c-4.37 0-7.906 3.6-7.906 8.05 0 6.037 7.906 14.95 7.906 14.95s7.906-8.912 7.906-14.95c0-4.45-3.535-8.05-7.906-8.05"/>
        <path fill="#FFF" d="M210.906 68.925c-1.559 0-2.824-1.288-2.824-2.875s1.265-2.875 2.824-2.875c1.558 0 2.823 1.288 2.823 2.875s-1.265 2.875-2.823 2.875"/>
        <path fill="#00CCAE" stroke="#FFF" stroke-width=".96" d="M205.906 66c-4.37 0-7.906 3.6-7.906 8.05 0 6.037 7.906 14.95 7.906 14.95s7.906-8.912 7.906-14.95c0-4.45-3.535-8.05-7.906-8.05"/>
        <path fill="#FFF" d="M205.906 76.925c-1.559 0-2.824-1.288-2.824-2.875s1.265-2.875 2.824-2.875c1.558 0 2.823 1.288 2.823 2.875s-1.265 2.875-2.823 2.875"/>
        <path fill="#00CCAE" stroke="#FFF" stroke-width=".96" d="M195.906 65c-4.37 0-7.906 3.6-7.906 8.05 0 6.037 7.906 14.95 7.906 14.95s7.906-8.912 7.906-14.95c0-4.45-3.535-8.05-7.906-8.05"/>
        <path fill="#FFF" d="M195.906 75.925c-1.559 0-2.824-1.288-2.824-2.875s1.265-2.875 2.824-2.875c1.558 0 2.823 1.288 2.823 2.875s-1.265 2.875-2.823 2.875"/>
        <path fill="#00CCAE" stroke="#FFF" stroke-width=".96" d="M212.906 71c-4.37 0-7.906 3.6-7.906 8.05 0 6.037 7.906 14.95 7.906 14.95s7.906-8.912 7.906-14.95c0-4.45-3.535-8.05-7.906-8.05"/>
        <path fill="#FFF" d="M212.906 81.925c-1.559 0-2.824-1.288-2.824-2.875s1.265-2.875 2.824-2.875c1.558 0 2.823 1.288 2.823 2.875s-1.265 2.875-2.823 2.875"/>
        <path fill="#00CCAE" stroke="#FFF" stroke-width=".96" d="M201.906 77c-4.37 0-7.906 3.6-7.906 8.05 0 6.037 7.906 14.95 7.906 14.95s7.906-8.912 7.906-14.95c0-4.45-3.535-8.05-7.906-8.05"/>
        <path fill="#FFF" d="M201.906 87.925c-1.559 0-2.824-1.288-2.824-2.875s1.265-2.875 2.824-2.875c1.558 0 2.823 1.288 2.823 2.875s-1.265 2.875-2.823 2.875"/>
        <g>
            <path fill="#00CCAE" stroke="#FFF" stroke-width=".96" d="M183.906 77c-4.37 0-7.906 3.6-7.906 8.05 0 6.037 7.906 14.95 7.906 14.95s7.906-8.912 7.906-14.95c0-4.45-3.535-8.05-7.906-8.05"/>
            <path fill="#FFF" d="M183.906 87.925c-1.559 0-2.824-1.288-2.824-2.875s1.265-2.875 2.824-2.875c1.558 0 2.823 1.288 2.823 2.875s-1.265 2.875-2.823 2.875"/>
        </g>
        <g>
            <path fill="#00CCAE" stroke="#FFF" stroke-width=".96" d="M193.906 87c-4.37 0-7.906 3.6-7.906 8.05 0 6.037 7.906 14.95 7.906 14.95s7.906-8.912 7.906-14.95c0-4.45-3.535-8.05-7.906-8.05"/>
            <path fill="#FFF" d="M193.906 97.925c-1.559 0-2.824-1.288-2.824-2.875s1.265-2.875 2.824-2.875c1.558 0 2.823 1.288 2.823 2.875s-1.265 2.875-2.823 2.875"/>
        </g>
        <g>
            <path fill="#00CCAE" stroke="#FFF" stroke-width=".96" d="M168.906 88c-4.37 0-7.906 3.6-7.906 8.05 0 6.037 7.906 14.95 7.906 14.95s7.906-8.912 7.906-14.95c0-4.45-3.535-8.05-7.906-8.05"/>
            <path fill="#FFF" d="M168.906 98.925c-1.559 0-2.824-1.288-2.824-2.875s1.265-2.875 2.824-2.875c1.558 0 2.823 1.288 2.823 2.875s-1.265 2.875-2.823 2.875"/>
        </g>
        <g>
            <path fill="#00CCAE" stroke="#FFF" stroke-width=".96" d="M183.906 98c-4.37 0-7.906 3.6-7.906 8.05 0 6.037 7.906 14.95 7.906 14.95s7.906-8.912 7.906-14.95c0-4.45-3.535-8.05-7.906-8.05"/>
            <path fill="#FFF" d="M183.906 108.925c-1.559 0-2.824-1.288-2.824-2.875s1.265-2.875 2.824-2.875c1.558 0 2.823 1.288 2.823 2.875s-1.265 2.875-2.823 2.875"/>
        </g>
        <g>
            <path fill="#00CCAE" stroke="#FFF" stroke-width=".96" d="M198.906 119c-4.37 0-7.906 3.6-7.906 8.05 0 6.037 7.906 14.95 7.906 14.95s7.906-8.912 7.906-14.95c0-4.45-3.535-8.05-7.906-8.05"/>
            <path fill="#FFF" d="M198.906 129.925c-1.559 0-2.824-1.288-2.824-2.875s1.265-2.875 2.824-2.875c1.558 0 2.823 1.288 2.823 2.875s-1.265 2.875-2.823 2.875"/>
        </g>
        <g>
            <path fill="#00CCAE" stroke="#FFF" stroke-width=".96" d="M27.906 1C23.536 1 20 4.6 20 9.05 20 15.087 27.906 24 27.906 24s7.906-8.912 7.906-14.95c0-4.45-3.535-8.05-7.906-8.05"/>
            <path fill="#FFF" d="M27.906 11.925c-1.559 0-2.824-1.288-2.824-2.875s1.265-2.875 2.824-2.875c1.558 0 2.823 1.288 2.823 2.875s-1.265 2.875-2.823 2.875"/>
        </g>
        <g>
            <path fill="#00CCAE" stroke="#FFF" stroke-width=".96" d="M41.906 29C37.536 29 34 32.6 34 37.05 34 43.087 41.906 52 41.906 52s7.906-8.912 7.906-14.95c0-4.45-3.535-8.05-7.906-8.05"/>
            <path fill="#FFF" d="M41.906 39.925c-1.559 0-2.824-1.288-2.824-2.875s1.265-2.875 2.824-2.875c1.558 0 2.823 1.288 2.823 2.875s-1.265 2.875-2.823 2.875"/>
        </g>
        <g>
            <path fill="#00CCAE" stroke="#FFF" stroke-width=".96" d="M68.906 20C64.536 20 61 23.6 61 28.05 61 34.087 68.906 43 68.906 43s7.906-8.912 7.906-14.95c0-4.45-3.535-8.05-7.906-8.05"/>
            <path fill="#FFF" d="M68.906 30.925c-1.559 0-2.824-1.288-2.824-2.875s1.265-2.875 2.824-2.875c1.558 0 2.823 1.288 2.823 2.875s-1.265 2.875-2.823 2.875"/>
        </g>
        <g>
            <path fill="#00CCAE" stroke="#FFF" stroke-width=".96" d="M89.906 37C85.536 37 82 40.6 82 45.05 82 51.087 89.906 60 89.906 60s7.906-8.912 7.906-14.95c0-4.45-3.535-8.05-7.906-8.05"/>
            <path fill="#FFF" d="M89.906 47.925c-1.559 0-2.824-1.288-2.824-2.875s1.265-2.875 2.824-2.875c1.558 0 2.823 1.288 2.823 2.875s-1.265 2.875-2.823 2.875"/>
        </g>
        <g>
            <path fill="#00CCAE" stroke="#FFF" stroke-width=".96" d="M10.906 20C6.536 20 3 23.6 3 28.05 3 34.087 10.906 43 10.906 43s7.906-8.912 7.906-14.95c0-4.45-3.535-8.05-7.906-8.05"/>
            <path fill="#FFF" d="M10.906 30.925c-1.559 0-2.824-1.288-2.824-2.875s1.265-2.875 2.824-2.875c1.558 0 2.823 1.288 2.823 2.875s-1.265 2.875-2.823 2.875"/>
        </g>
        <g>
            <path fill="#00CCAE" stroke="#FFF" stroke-width=".96" d="M12.906 53C8.536 53 5 56.6 5 61.05 5 67.087 12.906 76 12.906 76s7.906-8.912 7.906-14.95c0-4.45-3.535-8.05-7.906-8.05"/>
            <path fill="#FFF" d="M12.906 63.925c-1.559 0-2.824-1.288-2.824-2.875s1.265-2.875 2.824-2.875c1.558 0 2.823 1.288 2.823 2.875s-1.265 2.875-2.823 2.875"/>
        </g>
        <g>
            <path fill="#00CCAE" stroke="#FFF" stroke-width=".96" d="M29.906 73C25.536 73 22 76.6 22 81.05 22 87.087 29.906 96 29.906 96s7.906-8.912 7.906-14.95c0-4.45-3.535-8.05-7.906-8.05"/>
            <path fill="#FFF" d="M29.906 83.925c-1.559 0-2.824-1.288-2.824-2.875s1.265-2.875 2.824-2.875c1.558 0 2.823 1.288 2.823 2.875s-1.265 2.875-2.823 2.875"/>
        </g>
        <g>
            <path fill="#00CCAE" stroke="#FFF" stroke-width=".96" d="M85.906 69C81.536 69 78 72.6 78 77.05 78 83.087 85.906 92 85.906 92s7.906-8.912 7.906-14.95c0-4.45-3.535-8.05-7.906-8.05"/>
            <path fill="#FFF" d="M85.906 79.925c-1.559 0-2.824-1.288-2.824-2.875s1.265-2.875 2.824-2.875c1.558 0 2.823 1.288 2.823 2.875s-1.265 2.875-2.823 2.875"/>
        </g>
        <g>
            <path fill="#00CCAE" stroke="#FFF" stroke-width=".96" d="M55.906 58C51.536 58 48 61.6 48 66.05 48 72.087 55.906 81 55.906 81s7.906-8.912 7.906-14.95c0-4.45-3.535-8.05-7.906-8.05"/>
            <path fill="#FFF" d="M55.906 68.925c-1.559 0-2.824-1.288-2.824-2.875s1.265-2.875 2.824-2.875c1.558 0 2.823 1.288 2.823 2.875s-1.265 2.875-2.823 2.875"/>
        </g>
        <g>
            <path fill="#00CCAE" stroke="#FFF" stroke-width=".96" d="M72.906 47C68.536 47 65 50.6 65 55.05 65 61.087 72.906 70 72.906 70s7.906-8.912 7.906-14.95c0-4.45-3.535-8.05-7.906-8.05"/>
            <path fill="#FFF" d="M72.906 57.925c-1.559 0-2.824-1.288-2.824-2.875s1.265-2.875 2.824-2.875c1.558 0 2.823 1.288 2.823 2.875s-1.265 2.875-2.823 2.875"/>
        </g>
        <g>
            <path fill="#00CCAE" stroke="#FFF" stroke-width=".96" d="M134.906 101c-4.37 0-7.906 3.6-7.906 8.05 0 6.037 7.906 14.95 7.906 14.95s7.906-8.912 7.906-14.95c0-4.45-3.535-8.05-7.906-8.05"/>
            <path fill="#FFF" d="M134.906 111.925c-1.559 0-2.824-1.288-2.824-2.875s1.265-2.875 2.824-2.875c1.558 0 2.823 1.288 2.823 2.875s-1.265 2.875-2.823 2.875"/>
        </g>
        <g>
            <path fill="#00CCAE" stroke="#FFF" stroke-width=".96" d="M123.906 90c-4.37 0-7.906 3.6-7.906 8.05 0 6.037 7.906 14.95 7.906 14.95s7.906-8.912 7.906-14.95c0-4.45-3.535-8.05-7.906-8.05"/>
            <path fill="#FFF" d="M123.906 100.925c-1.559 0-2.824-1.288-2.824-2.875s1.265-2.875 2.824-2.875c1.558 0 2.823 1.288 2.823 2.875s-1.265 2.875-2.823 2.875"/>
        </g>
        <g>
            <path fill="#00CCAE" stroke="#FFF" stroke-width=".96" d="M123.906 108c-4.37 0-7.906 3.6-7.906 8.05 0 6.037 7.906 14.95 7.906 14.95s7.906-8.912 7.906-14.95c0-4.45-3.535-8.05-7.906-8.05"/>
            <path fill="#FFF" d="M123.906 118.925c-1.559 0-2.824-1.288-2.824-2.875s1.265-2.875 2.824-2.875c1.558 0 2.823 1.288 2.823 2.875s-1.265 2.875-2.823 2.875"/>
        </g>
        <g>
            <path fill="#00CCAE" stroke="#FFF" stroke-width=".96" d="M107.906 71c-4.37 0-7.906 3.6-7.906 8.05 0 6.037 7.906 14.95 7.906 14.95s7.906-8.912 7.906-14.95c0-4.45-3.535-8.05-7.906-8.05"/>
            <path fill="#FFF" d="M107.906 81.925c-1.559 0-2.824-1.288-2.824-2.875s1.265-2.875 2.824-2.875c1.558 0 2.823 1.288 2.823 2.875s-1.265 2.875-2.823 2.875"/>
        </g>
        <g>
            <path fill="#00CCAE" stroke="#FFF" stroke-width=".96" d="M104.906 92c-4.37 0-7.906 3.6-7.906 8.05 0 6.037 7.906 14.95 7.906 14.95s7.906-8.912 7.906-14.95c0-4.45-3.535-8.05-7.906-8.05"/>
            <path fill="#FFF" d="M104.906 102.925c-1.559 0-2.824-1.288-2.824-2.875s1.265-2.875 2.824-2.875c1.558 0 2.823 1.288 2.823 2.875s-1.265 2.875-2.823 2.875"/>
        </g>
        <g>
            <path fill="#00CCAE" stroke="#FFF" stroke-width=".96" d="M108.906 116c-4.37 0-7.906 3.6-7.906 8.05 0 6.037 7.906 14.95 7.906 14.95s7.906-8.912 7.906-14.95c0-4.45-3.535-8.05-7.906-8.05"/>
            <path fill="#FFF" d="M108.906 126.925c-1.559 0-2.824-1.288-2.824-2.875s1.265-2.875 2.824-2.875c1.558 0 2.823 1.288 2.823 2.875s-1.265 2.875-2.823 2.875"/>
        </g>
        <g>
            <path fill="#00CCAE" stroke="#FFF" stroke-width=".96" d="M58.906 88C54.536 88 51 91.6 51 96.05c0 6.037 7.906 14.95 7.906 14.95s7.906-8.912 7.906-14.95c0-4.45-3.535-8.05-7.906-8.05"/>
            <path fill="#FFF" d="M58.906 98.925c-1.559 0-2.824-1.288-2.824-2.875s1.265-2.875 2.824-2.875c1.558 0 2.823 1.288 2.823 2.875s-1.265 2.875-2.823 2.875"/>
        </g>
    </g>
</svg>
