<svg xmlns="http://www.w3.org/2000/svg" xmlns:xlink="http://www.w3.org/1999/xlink" width="60" height="60" viewBox="0 0 60 60">
    <defs>
        <path id="a" d="M.403.306h22.144v6.462H.403z"/>
    </defs>
    <g fill="none" fill-rule="evenodd">
        <g stroke="#1F1FFF" stroke-linecap="round" stroke-linejoin="round">
            <path d="M37.5 19v4M37.5 33v4M37.5 26v4M37.5 40v4"/>
        </g>
        <g transform="translate(23 10)">
            <mask id="b" fill="#fff">
                <use xlink:href="#a"/>
            </mask>
            <path fill="#292A2E" d="M22.48 5.336a.514.514 0 0 0 .05-.387L21.404.686a.505.505 0 0 0-.617-.363L.777 5.763a.513.513 0 0 0-.122.936.484.484 0 0 0 .361.057l.02-.006 19.526-5.306.015.056.98 3.713a.502.502 0 0 0 .922.123" mask="url(#b)"/>
        </g>
        <path fill="#292A2E" d="M49.983 44.01H9.018v-6.447l.381-.055c3.047-.427 5.344-3.01 5.344-6.008 0-2.997-2.297-5.58-5.344-6.008l-.381-.054V18.99h40.965v6.449l-.382.053c-2.729.378-4.905 2.497-5.293 5.152a5.91 5.91 0 0 0 1.186 4.5 6.228 6.228 0 0 0 4.107 2.364l.382.053v6.45zM51 37.074a.501.501 0 0 0-.508-.495 5.26 5.26 0 0 1-3.69-1.491 4.975 4.975 0 0 1 .002-7.18 5.252 5.252 0 0 1 3.685-1.486.503.503 0 0 0 .511-.495v-7.432a.501.501 0 0 0-.508-.495H8.509a.503.503 0 0 0-.509.495v7.432c0 .273.228.495.509.495 2.876 0 5.216 2.278 5.216 5.078 0 2.8-2.34 5.079-5.216 5.079a.503.503 0 0 0-.509.495v7.43c0 .274.228.496.509.496h41.983a.501.501 0 0 0 .508-.495v-7.43z"/>
    </g>
</svg>
