<svg xmlns="http://www.w3.org/2000/svg" width="60" height="60" viewBox="0 0 60 60">
    <g fill="none" fill-rule="evenodd">
        <rect width="5.05" height="12.05" x="14.475" y="22.475" stroke="#1F1FFF" stroke-width=".95" rx="1"/>
        <rect width="5.05" height="15.05" x="22.475" y="19.475" stroke="#1F1FFF" stroke-width=".95" rx="1"/>
        <rect width="5.05" height="17.05" x="30.475" y="17.475" stroke="#1F1FFF" stroke-width=".95" rx="1"/>
        <rect width="5.05" height="19.05" x="38.475" y="15.475" stroke="#1F1FFF" stroke-width=".95" rx="1"/>
        <path fill="#292A2E" d="M5.82 43.339a.94.94 0 0 1-.94-.939v-4.348h50.754V42.4a.94.94 0 0 1-.939.939H5.82zm29.367 8.413l.529.442H24.801l.53-.442c1.144-.954 1.359-2.135 1.396-2.438l.475-5.095h6.112l.466 4.983c.004.067.1 1.458 1.407 2.55zM4.88 8.82a.94.94 0 0 1 .94-.94h48.875a.94.94 0 0 1 .939.94v28.353H4.88V8.82zM56.514 42.4V8.82c0-1.004-.816-1.82-1.819-1.82H5.82C4.816 7 4 7.816 4 8.82V42.4c0 1.002.816 1.819 1.82 1.819h20.498l-.461 4.959c-.007.114-.224 3.016-5.08 3.016a.44.44 0 0 0 0 .88h18.961a.44.44 0 1 0 0-.88c-4.764 0-5.064-2.746-5.083-3.059l-.458-4.916h20.498a1.822 1.822 0 0 0 1.819-1.819z"/>
    </g>
</svg>
