<?xml version="1.0" encoding="UTF-8"?>
<svg width="702px" height="579px" viewBox="0 0 702 579" version="1.1" xmlns="http://www.w3.org/2000/svg" xmlns:xlink="http://www.w3.org/1999/xlink">
    <!-- Generator: Sketch 64 (93537) - https://sketch.com -->
    <title>link-desktop</title>
    <desc>Created with Sketch.</desc>
    <defs>
        <polygon id="path-1" points="0.108655172 0.141982759 89.8637931 0.141982759 89.8637931 89.8971552 0.108655172 89.8971552"></polygon>
        <path d="M0.10862069,45.0194828 C0.10862069,69.8046552 20.2008621,89.8972414 44.9862069,89.8972414 L44.9862069,89.8972414 C69.7712069,89.8972414 89.8637931,69.8046552 89.8637931,45.0194828 L89.8637931,45.0194828 C89.8637931,20.2344828 69.7712069,0.142068966 44.9862069,0.142068966 L44.9862069,0.142068966 C20.2008621,0.142068966 0.10862069,20.2344828 0.10862069,45.0194828" id="path-3"></path>
        <path d="M0.10862069,45.0194828 C0.10862069,69.8046552 20.2008621,89.8972414 44.9862069,89.8972414 L44.9862069,89.8972414 C69.7712069,89.8972414 89.8637931,69.8046552 89.8637931,45.0194828 L89.8637931,45.0194828 C89.8637931,20.2344828 69.7712069,0.142068966 44.9862069,0.142068966 L44.9862069,0.142068966 C20.2008621,0.142068966 0.10862069,20.2344828 0.10862069,45.0194828 L0.10862069,45.0194828 Z" id="path-5"></path>
        <path d="M44.9862069,89.8972414 C69.7712069,89.8972414 89.8637931,69.8046552 89.8637931,45.0194828 C89.8637931,20.2344828 69.7712069,0.142068966 44.9862069,0.142068966 C20.2008621,0.142068966 0.10862069,20.2344828 0.10862069,45.0194828 C0.10862069,69.8046552 20.2008621,89.8972414 44.9862069,89.8972414 Z" id="path-7"></path>
        <path d="M0.143265306,9.847 C5.77322449,9.847 8.90118367,5.28516667 8.90118367,5.28516667 L8.90118367,5.28516667 L3.27122449,0.152833333 C3.89644898,4.14466667 0.143265306,9.847 0.143265306,9.847 L0.143265306,9.847 Z" id="path-9"></path>
        <path d="M0.14344898,9.84683333 L0.197081633,9.84683333 C5.7932449,9.81816667 8.90118367,5.28516667 8.90118367,5.28516667 L8.90118367,5.28516667 L3.27122449,0.152833333 C3.89479592,4.1335 0.164387755,9.815 0.14344898,9.84683333 L0.14344898,9.84683333 Z" id="path-11"></path>
        <path d="M5.45280912,0.126162437 C2.46624217,0.126162437 0.0225925926,3.50614213 0.0225925926,7.63722843 L0.0225925926,7.63722843 L0.0225925926,26.3603553 C0.0225925926,30.4916142 2.46624217,33.8717665 5.45280912,33.8717665 L5.45280912,33.8717665 L30.4216211,33.8717665 L55.439963,33.8717665 C57.118245,33.8717665 58.6251709,32.8039594 59.623416,31.1355431 L59.623416,31.1355431 C60.4011225,29.8352589 60.8698319,28.1697766 60.8698319,26.3603553 L60.8698319,26.3603553 L60.8698319,7.63722843 C60.8698319,3.50614213 58.4263561,0.126162437 55.439963,0.126162437 L55.439963,0.126162437 L5.45280912,0.126162437 Z" id="path-13"></path>
        <polygon id="path-15" points="0.100204215 0.0669735125 82.874387 0.0669735125 82.874387 83 0.100204215 83"></polygon>
        <path d="M41.4872797,0.0669097889 C18.6296839,0.0669097889 0.100172414,18.6321459 0.100172414,41.5334549 L0.100172414,41.5334549 C0.100172414,64.4347639 18.6296839,83 41.4872797,83 L41.4872797,83 C64.3447165,83 82.874387,64.4347639 82.874387,41.5334549 L82.874387,41.5334549" id="path-17"></path>
        <path d="M41.4872797,0.0669097889 C18.6296839,0.0669097889 0.100172414,18.6321459 0.100172414,41.5334549 L0.100172414,41.5334549 C0.100172414,64.4347639 18.6296839,83 41.4872797,83 L41.4872797,83 C64.3447165,83 82.874387,64.4347639 82.874387,41.5334549 L82.874387,41.5334549 C82.874387,18.6321459 64.3447165,0.0669097889 41.4872797,0.0669097889 Z" id="path-19"></path>
        <path d="M41.4872797,0.0669097889 C18.6296839,0.0669097889 0.100172414,18.6321459 0.100172414,41.5334549 L0.100172414,41.5334549 C0.100172414,64.4347639 18.6296839,83 41.4872797,83 L41.4872797,83 C64.3447165,83 82.874387,64.4347639 82.874387,41.5334549 L82.874387,41.5334549 C82.874387,18.6321459 64.3447165,0.0669097889 41.4872797,0.0669097889 Z" id="path-21"></path>
    </defs>
    <g id="Manufacturerers-Page" stroke="none" stroke-width="1" fill="none" fill-rule="evenodd">
        <g id="Assets" transform="translate(-944.000000, -638.000000)">
            <g id="link-desktop" transform="translate(888.000000, 582.000000)">
                <circle id="Oval-Copy-10" stroke="#9BA0A8" transform="translate(307.000000, 307.000000) scale(1, -1) rotate(-255.000000) translate(-307.000000, -307.000000) " cx="307" cy="307" r="249.5"></circle>
                <path d="M452.241333,723.540139 C463.049533,725.172967 474.115584,726.019453 485.379343,726.019453 C606.881988,726.019453 705.379343,627.522098 705.379343,506.019453 C705.379343,384.516808 606.881988,286.019453 485.379343,286.019453 C433.235901,286.019453 385.329432,304.160088 347.626758,334.474535" id="Path" stroke="#9BA0A8" transform="translate(526.503050, 506.019453) scale(1, -1) rotate(-255.000000) translate(-526.503050, -506.019453) "></path>
                <g id="Icon---Message-Bubble-Copy" transform="translate(268.000000, 509.000000)">
                    <g id="Group-3-Copy-2">
                        <mask id="mask-2" fill="white">
                            <use xlink:href="#path-1"></use>
                        </mask>
                        <g id="Clip-2"></g>
                        <path d="M0.108655172,45.019569 C0.108655172,69.8047414 20.201069,89.8971552 44.9862414,89.8971552 C69.7712414,89.8971552 89.8638276,69.8047414 89.8638276,45.019569 C89.8638276,20.2343966 69.7712414,0.141982759 44.9862414,0.141982759 C20.201069,0.141982759 0.108655172,20.2343966 0.108655172,45.019569" id="Fill-1" fill="#B8DAF2" mask="url(#mask-2)"></path>
                    </g>
                    <g id="Group-13-Copy">
                        <g id="Group-6">
                            <mask id="mask-4" fill="white">
                                <use xlink:href="#path-3"></use>
                            </mask>
                            <g id="Clip-5"></g>
                            <path d="M0.108655172,45.019569 C0.108655172,69.8047414 20.201069,89.8971552 44.9862414,89.8971552 C69.7712414,89.8971552 89.8638276,69.8047414 89.8638276,45.019569 C89.8638276,20.2343966 69.7712414,0.141982759 44.9862414,0.141982759 C20.201069,0.141982759 0.108655172,20.2343966 0.108655172,45.019569" id="Fill-4" fill="#B8DAF2" mask="url(#mask-4)"></path>
                        </g>
                        <g id="Group-9">
                            <mask id="mask-6" fill="white">
                                <use xlink:href="#path-5"></use>
                            </mask>
                            <g id="Clip-8"></g>
                            <polygon id="Fill-7" fill="#B8DAF2" mask="url(#mask-6)" points="33.3526034 71.0781379 7.60691379 89.3905517 6.30156897 85.9872759 32.3651897 66.4457241"></polygon>
                        </g>
                        <g id="Group-12">
                            <mask id="mask-8" fill="white">
                                <use xlink:href="#path-7"></use>
                            </mask>
                            <use id="Clip-11" fill="#6EC9C6" xlink:href="#path-7"></use>
                        </g>
                    </g>
                    <path d="M22,59.2942491 C22,59.2942491 18.7855795,64 13,64 C13,64 16.8571159,58.1177684 16.2144205,54 L22,59.2942491 Z" id="Fill-14-Copy" fill="#F4F4F6"></path>
                    <g id="Group-18-Copy" transform="translate(13.000000, 54.000000)">
                        <mask id="mask-10" fill="white">
                            <use xlink:href="#path-9"></use>
                        </mask>
                        <g id="Clip-17"></g>
                        <polygon id="Fill-16" fill="#F4F4F6" mask="url(#mask-10)" points="-0.0321428571 9.84683333 9.07787755 9.84683333 9.07787755 0.0775 -0.0321428571 0.0775"></polygon>
                    </g>
                    <g id="Group-21-Copy" transform="translate(13.000000, 54.000000)">
                        <mask id="mask-12" fill="white">
                            <use xlink:href="#path-11"></use>
                        </mask>
                        <g id="Clip-20"></g>
                        <polygon id="Fill-19" fill="#F4F4F6" mask="url(#mask-12)" points="-3.99765306 13.6045 13.0419184 13.6045 13.0419184 -3.60466667 -3.99765306 -3.60466667"></polygon>
                    </g>
                    <path d="M21.4436752,61 C18.4496103,61 16,57.5943485 16,53.4320982 L16,34.5677279 C16,30.4054776 18.4496103,27 21.4436752,27 L71.556499,27 C74.5502155,27 77,30.4054776 77,34.5677279 L77,53.4320982 C77,55.2549955 76.5301139,56.9330418 75.7502806,58.2431351 C74.7497037,59.9243115 73.2389945,61 71.556499,61 L46.4751729,61 L21.4436752,61 Z" id="Fill-22-Copy" fill="#F4F4F6"></path>
                    <g id="Group-27-Copy" transform="translate(16.000000, 28.000000)">
                        <mask id="mask-14" fill="white">
                            <use xlink:href="#path-13"></use>
                        </mask>
                        <g id="Clip-25"></g>
                        <polygon id="Fill-24" fill="#F4F4F6" mask="url(#mask-14)" points="-7.05340741 130.822335 68.1305698 130.822335 68.1305698 -54.4673096 -7.05340741 -54.4673096"></polygon>
                        <polygon id="Fill-26" fill="#F4F4F6" mask="url(#mask-14)" points="-1.14839886 35.502731 66.5475242 35.502731 66.5475242 -17.2338579 -1.14839886 -17.2338579"></polygon>
                    </g>
                    <g id="Group-34-Copy" transform="translate(31.000000, 42.000000)" fill="#A2A2A2">
                        <path d="M19.4937486,3.4660907 C19.4937486,5.34746279 17.9068197,6.87248605 15.9490765,6.87248605 C13.9915027,6.87248605 12.4044044,5.34746279 12.4044044,3.4660907 C12.4044044,1.5847186 13.9915027,0.0596953488 15.9490765,0.0596953488 C17.9068197,0.0596953488 19.4937486,1.5847186 19.4937486,3.4660907" id="Fill-28"></path>
                        <path d="M7.09354536,3.4660907 C7.09354536,5.34746279 5.50644699,6.87248605 3.54887322,6.87248605 C1.59129945,6.87248605 0.0042010929,5.34746279 0.0042010929,3.4660907 C0.0042010929,1.5847186 1.59129945,0.0596953488 3.54887322,0.0596953488 C5.50644699,0.0596953488 7.09354536,1.5847186 7.09354536,3.4660907" id="Fill-30"></path>
                        <path d="M30.8910426,3.4660907 C30.8910426,5.34746279 29.3039443,6.87248605 27.3463705,6.87248605 C25.3887967,6.87248605 23.8016984,5.34746279 23.8016984,3.4660907 C23.8016984,1.5847186 25.3887967,0.0596953488 27.3463705,0.0596953488 C29.3039443,0.0596953488 30.8910426,1.5847186 30.8910426,3.4660907" id="Fill-32"></path>
                    </g>
                </g>
                <circle id="Oval-Copy-12" fill="#FBC952" cx="243.202777" cy="65.4551078" r="7.5"></circle>
                <circle id="Oval-Copy-13" fill="#B8DAF2" cx="211.202777" cy="538.455108" r="6.5"></circle>
                <circle id="Oval-Copy-30" fill="#B8DAF2" cx="700.202777" cy="399.455108" r="6.5"></circle>
                <g id="Group-41-Copy" transform="translate(511.000000, 285.000000)">
                    <g id="Group-3">
                        <mask id="mask-16" fill="white">
                            <use xlink:href="#path-15"></use>
                        </mask>
                        <g id="Clip-2"></g>
                        <path d="M0.100204215,41.5335186 C0.100204215,64.4346683 18.6298747,83.0000637 41.4873115,83.0000637 C64.3447483,83.0000637 82.8744188,64.4346683 82.8744188,41.5335186 C82.8744188,18.6322096 64.3447483,0.0669735125 41.4873115,0.0669735125 C18.6298747,0.0669735125 0.100204215,18.6322096 0.100204215,41.5335186" id="Fill-1" fill="#B8DAF2" mask="url(#mask-16)"></path>
                    </g>
                    <g id="Group-13">
                        <g id="Group-6">
                            <mask id="mask-18" fill="white">
                                <use xlink:href="#path-17"></use>
                            </mask>
                            <g id="Clip-5"></g>
                            <path d="M0.100204215,41.5335186 C0.100204215,64.4346683 18.6298747,83.0000637 41.4873115,83.0000637 C64.3447483,83.0000637 82.8744188,64.4346683 82.8744188,41.5335186 C82.8744188,18.6322096 64.3447483,0.0669735125 41.4873115,0.0669735125 C18.6298747,0.0669735125 0.100204215,18.6322096 0.100204215,41.5335186" id="Fill-4" fill="#B8DAF2" mask="url(#mask-18)"></path>
                        </g>
                        <g id="Group-9">
                            <mask id="mask-20" fill="white">
                                <use xlink:href="#path-19"></use>
                            </mask>
                            <g id="Clip-8"></g>
                            <polygon id="Fill-7" fill="#B8DAF2" mask="url(#mask-20)" points="30.7585121 65.6113566 7.01526494 82.5320457 5.81144693 79.3874449 29.8478971 61.3312012"></polygon>
                        </g>
                        <g id="Group-12">
                            <mask id="mask-22" fill="white">
                                <use xlink:href="#path-21"></use>
                            </mask>
                            <g id="Clip-11"></g>
                            <polygon id="Fill-10" fill="#B8DAF2" mask="url(#mask-22)" points="19.0639711 59.580634 -4.67927605 76.5011637 -5.88309406 73.356563 18.1535151 55.3003192"></polygon>
                        </g>
                    </g>
                    <g id="Group-34" transform="translate(16.000000, 9.000000)">
                        <path d="M18.6855828,13.0177348 L19.0120655,12.8190971 L19.0122207,12.8189377 L21.3455483,11.3999377 L25.036169,9.1553 L25.0363241,9.15514058 L33.6876517,3.89363333 C37.1853931,1.76648841 41.7705828,2.90937246 43.8770483,6.43367681 C45.9835138,9.95798116 44.8453241,14.5819667 41.3474276,16.709271 L32.8832379,21.8571116 L32.8829276,21.857271 L30.7162552,23.1750391 L30.3922552,23.372242 L30.3921,23.372242 L29.6114276,23.8469957 L26.3452034,25.8335319 C22.8476172,27.9605174 18.2625828,26.8176333 16.1561172,23.293329 C14.0496517,19.7690246 15.1878414,15.1450391 18.6855828,13.0177348" id="Fill-14" fill="#809EC3"></path>
                        <path d="M38.2933862,14.8474812 L22.9819034,24.3318725 C19.332869,26.5922928 14.5470414,25.3743217 12.3468517,21.6252348 C10.1465069,17.875829 11.3321793,12.958829 14.9815241,10.6982493 L30.2928517,1.21385797 C33.9420414,-1.04656232 38.727869,0.171408696 40.9280586,3.92065507 C43.1282483,7.66990145 41.9425759,12.5869014 38.2933862,14.8474812" id="Fill-16" fill="#FEFEFE"></path>
                        <path d="M14.6406569,10.9093855 L18.8630534,8.29393623 C22.5122431,6.03383478 27.2977603,7.2518058 29.4977948,11.0008928 L29.49795,11.0008928 C31.6981397,14.7501391 30.5124672,19.6671391 26.8632776,21.9277188 L26.0486224,22.4322841 L22.6410362,24.5430087 C18.9918466,26.803429 14.2061741,25.585458 12.0059845,21.836371 C9.80563966,18.0869652 10.9913121,13.1699652 14.6406569,10.9093855" id="Fill-18" fill="#FDD55A"></path>
                        <path d="M15.7933862,10.1954217 L21.2664724,6.80518986 C24.9155069,4.54524783 28.4504897,6.53784203 30.6506793,10.2867696 C32.850869,14.0360159 33.1112483,18.0573928 29.4619034,20.3179725 L27.2013517,21.7181609 L23.7937655,23.8290449 C20.1445759,26.0893058 15.3589034,24.8713348 13.1587138,21.1222478 C10.9585241,17.3730014 12.1440414,12.455842 15.7933862,10.1954217" id="Fill-20" fill="#FDD55A"></path>
                        <path d="M21.7733586,16.3197116 L38.1159621,6.89797246 C38.8708759,6.46275507 39.1422724,5.47195797 38.7188069,4.69605942 C38.2951862,3.91984203 37.3303241,3.64085652 36.5749448,4.07655217 L20.2321862,13.4982913 C19.4772724,13.9335087 19.206031,14.9243058 19.6293414,15.7002043 C20.0529621,16.4764217 21.0178241,16.7552478 21.7733586,16.3197116" id="Fill-22" fill="#F2F2F2"></path>
                        <path d="M34.3617983,49.0505304 L33.9656431,48.8096464 L33.9654879,48.809487 L31.1356086,47.0883855 L26.6596603,44.3662841 L26.6595052,44.3661246 L16.1670569,37.9846899 C11.9249534,35.4047913 6.36403966,36.7911101 3.80928103,41.0653275 C1.25452241,45.3397043 2.63493621,50.9477913 6.87703966,53.5278493 L17.142781,59.7712261 L17.1430914,59.7713855 L19.7709362,61.3695739 L20.1638328,61.6085449 L20.1638328,61.6085449 L21.11085,62.1845304 L25.0720914,64.5936899 C29.3140397,67.1735884 34.8747983,65.7872696 37.4295569,61.5130522 L37.4295569,61.5130522 C39.9843155,57.2386754 38.6039017,51.6305884 34.3617983,49.0505304" id="Fill-24" fill="#809EC3"></path>
                        <path d="M4.68294828,49.3837029 L23.2527414,60.8865145 C27.678569,63.6280652 33.4827931,62.1507174 36.1511379,57.6038913 L36.1511379,57.6038913 C38.8196379,53.056587 37.3818103,47.0931522 32.9558276,44.3516014 L14.3860345,32.8487899 C9.9602069,30.1073986 4.15598276,31.584587 1.48763793,36.1315725 L1.48748276,36.1315725 C-1.18086207,40.6787174 0.256965517,46.6423116 4.68294828,49.3837029" id="Fill-26" fill="#FEFEFE"></path>
                        <path d="M33.3692379,44.6076304 L28.2482379,41.4354855 C23.8225655,38.694413 18.0184966,40.1717609 15.3501517,44.718587 L15.3501517,44.718587 C12.6818069,49.2657319 14.1196345,55.2291667 18.5454621,57.9707174 L19.5334448,58.5827319 L23.6663069,61.1427029 C28.0921345,63.8840942 33.8962034,62.4067464 36.5645483,57.8599203 L36.5647034,57.8599203 C39.2330483,53.3126159 37.7952207,47.3491812 33.3692379,44.6076304" id="Fill-28" fill="#FDD55A"></path>
                        <path d="M31.9711655,43.7416275 L25.3335103,39.6300188 C20.9076828,36.8889464 16.6204241,39.3055986 13.9520793,43.8524246 L13.9520793,43.8525841 C11.2835793,48.3995696 10.9678034,53.2767145 15.393631,56.0184246 L18.1353724,57.716729 L22.2682345,60.2767 C26.6940621,63.0180913 32.498131,61.5407435 35.1664759,56.993758 L35.166631,56.993758 C37.8349759,52.4467725 36.3969931,46.4831783 31.9711655,43.7416275" id="Fill-30" fill="#FDD55A"></path>
                        <path d="M24.7185931,51.1693855 L4.89811034,39.742458 C3.98243793,39.2146174 3.65347241,38.0129072 4.16693793,37.0720087 C4.68071379,36.1304725 5.85086897,35.792342 6.7670069,36.3205014 L26.5876448,47.747429 C27.5033172,48.275429 27.8322828,49.4771391 27.3188172,50.4178783 C26.8050414,51.3594145 25.6348862,51.6975449 24.7185931,51.1693855" id="Fill-32" fill="#F2F2F2"></path>
                    </g>
                </g>
                <path d="M743.702777,633.955108 C743.702777,630.089115 740.568771,626.955108 736.702777,626.955108 C732.836784,626.955108 729.702777,630.089115 729.702777,633.955108" id="Path" fill="#FBC952"></path>
            </g>
        </g>
    </g>
</svg>