<svg xmlns="http://www.w3.org/2000/svg" xmlns:xlink="http://www.w3.org/1999/xlink" width="283" height="186" viewBox="0 0 283 186">
    <defs>
        <path id="a" d="M23.422 8.376c-.727-.999-1.154-2.129-1.958-2.6-2.386-1.374-4.921-2.491-7.907-3.956.092 1.973.205 3.785.25 5.587.198 8.22-2.613 15.701-6.095 22.92-2.08 4.301-5.095 8.202-4.364 13.378.404 2.868-.907 5.076-2.553 7.325-.45.61-.56 1.516-.569 2.445v.305c.003.43.024.857.036 1.255.037 1.405 1.058 3.098.544 4.149-2.046 4.234 2.116 7.32 1.72 11.162 0 .004.23.004.233.038.291 1.181.611 2.354.815 3.554.178 1.067-.197 2.622.403 3.158 1.465 1.34 2.613 2.274.558 4.009-.258.225-.106 1.2.129 1.694 1.005 2.112 2.264 4.105 3.12 6.267.523 1.311 1.005 3.024.594 4.247-.778 2.27.19 2.831 2.02 3.482 1.492.522 3.315 1.189 4.103 2.374 1.244 1.876 3.323 2.598 4.778 4.259 1.93 2.203 3.974 3.955 3.898 7.1-.042 1.63.46 2.368 2.384 2.578 4.604.493 9.243.328 13.262 3.9 3.326 2.962 7.93 4.458 11.668 7.032 6.451 4.436 13.984 3.66 21.098 5.2.274-1.224.473-2.112.678-3.005 2.364.307 4.58.42 6.696.918 1.19.282 2.384 1.04 3.3 1.876 1.908 1.758 3.776 3.606 5.39 5.638 1.118 1.4 1.763 3.176 2.63 4.777.75 1.392 1.227 3.066 2.315 4.073 1.71 1.583 3.841 2.715 6.065 4.204.807-.908 1.848-1.6 2.198-2.55.619-1.705 1.626-3 3.38-2.94 1.688.06 3.788.287 4.92 1.297 1.85 1.642 3.12 3.95 4.538 6.035 1.684 2.472 3.302 5.003 4.905 7.521.314.482.605 1.027.703 1.574.66 3.689 1.846 6.935 5.972 8.143 1.802.528 3.538 1.29 5.346 1.807.87.242 1.826.166 2.49.217-.567-2.797-1.563-5.09-1.366-7.291.473-5.358 3.626-8.87 8.778-10.706 1.607-.578 3.417-1.348 4.465-2.585 1.39-1.652 2.447-3.04 4.876-3.553 3.366-.717 6.524-1.644 10.007-.474 1.107.369 2.583-.342 3.895-.564-.002-.284-.016-.56-.017-.845 3.145 1.805 5.86 4.774 10.322 3.576 1.185-2.474 3.04-4.611 5.56-6.033-.049-.44-.314-.927-.942-1.503 2.605-.592 5.68-2.299 7.202-1.409 2.648 1.562 4.317.02 6.253-.444 2.974-.712 5.402.352 7.823 1.6.638.329.943 1.31 1.701 2.435 1.539-.725 3.674-1.19 4.97-2.478 2.387-2.381 3.802-.624 5.414.67 1.142.921 1.981 2.544 3.235 2.909 2.501.719 2.884 2.72 2.322 4.219-1.155 3.073.615 5.11 1.924 7.236 1.227 1.982 3.006 3.6 4.487 5.425.833 1.034 1.36 2.819 2.356 3.108 2.13.597 2.86 2.098 3.794 3.681.232.39 1.04.735 1.49.654 2.33-.43 3.468-1.384 3.698-4.252.3-3.738.61-7.088-1.781-10.33-1.32-1.783-2.126-3.944-3.076-5.976-.465-.994-.432-2.402-1.146-3.081-2.5-2.353-3.615-5.449-5.243-8.312-3.08-5.419.417-13.583 3.847-16.752 2.172-2.001 4.708-3.73 5.436-7.068.268-1.217 2.262-2.045 3.433-3.087.785-.704 1.513-1.462 2.253-2.215 1.569-1.606 3.096-3.259 4.707-4.831.68-.67 1.502-1.18 2.22-1.721-.775-1.017-1.256-1.655-1.816-2.381 2.318-.77 4.015-1.791 3.565-4.288-.23-.17-.442-.36-.656-.546l-2.124-.723c.38-.182.668-.312.934-.44-2.439-2.716-3.699-6.343-3.798-10.014-.21-1.286-.436-2.673-.693-4.268.348.302.66.566.94.816.17-.959.44-1.893.777-2.8-.005-.076-.025-.143-.025-.216 0-5.34 2.958-10.066 7.287-12.73-.078-.25-.127-.506-.245-.763 2.88-2.031 5.404-3.806 7.949-5.597-.601-.776-.944-1.226-1.285-1.668.242-.21.355-.33.487-.431 1.658-1.189 3.265-2.456 4.983-3.546 3.735-2.357-.386-3.389-.815-5.04-.105-.42-.403-.807-.433-1.226-.185-3.337-.045-6.515 2.93-8.915 1.534-1.242 2.605-3.052 4.11-4.333 2.05-1.727 4.324-3.191 6.81-4.991v-.005c-.641-1.118-1.14-2.28-1.899-3.233-1.27-1.614-2.855-2.994-4.02-4.683-.704-1.03-.883-2.436-1.283-3.679-1.259-3.964-2.727-4.542-6.152-2.392-.636-.329-1.266-.668-2.573-1.354-.65 3.67-1.62 6.9-1.706 10.158-.098 4.519-2.38 8.12-6.748 9.263-3.127.82-6.225 1.854-9.412 2.315-2.898.414-4.494 2.178-5.92 4.297-.91 1.331-1.617 2.802-2.446 4.255.403.797.89 1.76 1.275 2.501-2.131 2.926-4.873 3.51-8.062 3.282-1.147-.082-2.442.365-3.485.91-.546.277-1.16 1.676-.939 1.946 1.712 2.185.13 3.424-1.287 4.517-2.82 2.183-5.861 4.087-8.625 6.322-3.541 2.867-5.426 3.124-9.576.514 1.038-1.76 2.097-3.537 3.137-5.331.198-.354.47-.81.398-1.144-.507-2.35-.9-4.76-1.72-7.01-.625-1.701-1.95-1.841-3.19-.317-.62.755-1.245 1.507-1.877 2.26a35.586 35.586 0 0 0-.876-.502c.521-1.092.99-2.204 1.58-3.26 1.65-2.965.598-6.46-2.158-7.98-.376.015-.744.048-1.132.048-4.704 0-8.25-1.764-10.683-4.415-2.22-.335-4.41-.82-6.503-1.599a30.98 30.98 0 0 1-6.42-3.262c-1.53 1.028-3.061 2.047-4.577 3.096-2.348 1.622-3.185 1.439-4.603-1.046-1.509.662-3.011 1.317-4.519 1.982-.168-.273-.335-.564-.508-.844 1.496-1.138 3.029-2.309 4.53-3.452-4.315-.256-8.569-2.322-11.566-6.897-.19-.288-.402-.55-.604-.822-1.083.162-2.079-.03-2.89-.533a11.304 11.304 0 0 1-4.109-.753c-1.228-.479-2.469-.94-3.718-1.384C100.46 16.26 61.656 10.922 23.422.397v7.979z"/>
        <path id="c" d="M.27 9.463c0 6.958 8.714 17.227 8.714 17.227s8.714-10.27 8.714-17.227c0-5.13-3.896-9.277-8.714-9.277C4.167.186.27 4.334.27 9.463z"/>
        <path id="e" d="M.517 3.364c0 1.838 1.451 3.33 3.24 3.33C5.548 6.695 7 5.203 7 3.365c0-1.84-1.452-3.332-3.241-3.332C1.968.032.517 1.525.517 3.364z"/>
        <path id="g" d="M.392 9.763c0 6.958 8.715 17.229 8.715 17.229s8.714-10.27 8.714-17.229c0-5.127-3.897-9.276-8.714-9.276C4.289.487.392 4.636.392 9.763z"/>
        <path id="i" d="M.68 3.667c0 1.84 1.538 3.332 3.431 3.332s3.431-1.491 3.431-3.332c0-1.84-1.538-3.331-3.43-3.331C2.217.336.68 1.827.68 3.666z"/>
        <path id="k" d="M.148 9.38c0 6.957 8.714 17.229 8.714 17.229s8.714-10.272 8.714-17.228c0-5.13-3.895-9.277-8.714-9.277C4.045.104.148 4.252.148 9.381z"/>
        <path id="m" d="M.388 4.056c0 1.945 1.453 3.525 3.242 3.525 1.79 0 3.243-1.58 3.243-3.525C6.873 2.11 5.419.53 3.63.53S.388 2.11.388 4.056z"/>
        <path id="o" d="M.59 9.294c0 6.958 8.656 17.228 8.656 17.228s8.656-10.27 8.656-17.228c0-5.127-3.87-9.276-8.656-9.276C4.461.018.59 4.167.59 9.294z"/>
        <path id="q" d="M.015 3.973C.015 5.92 1.528 7.5 3.39 7.5c1.865 0 3.376-1.579 3.376-3.526C6.767 2.027 5.256.45 3.39.45 1.528.449.015 2.027.015 3.973z"/>
        <path id="s" d="M.405 9.339c0 6.958 8.716 17.228 8.716 17.228s8.712-10.27 8.712-17.228c0-5.129-3.895-9.276-8.712-9.276C4.3.063.405 4.21.405 9.339z"/>
        <path id="u" d="M.11 4.012c0 1.947 1.451 3.527 3.242 3.527 1.789 0 3.24-1.58 3.24-3.527 0-1.945-1.451-3.526-3.24-3.526C1.56.486.109 2.066.109 4.012z"/>
        <path id="w" d="M.35 9.297c0 6.924 8.714 17.146 8.714 17.146s8.714-10.222 8.714-17.146c0-5.104-3.897-9.232-8.714-9.232C4.246.065.349 4.193.349 9.297z"/>
        <path id="y" d="M.634 3.886c0 1.947 1.535 3.526 3.43 3.526 1.893 0 3.43-1.58 3.43-3.526C7.493 1.939 5.956.36 4.063.36 2.169.361.634 1.94.634 3.886z"/>
        <path id="A" d="M.402 9.467c0 6.957 8.714 17.227 8.714 17.227s8.715-10.27 8.715-17.227c0-5.129-3.897-9.278-8.715-9.278C4.3.19.402 4.338.402 9.467z"/>
        <path id="C" d="M.106 3.368C.106 5.207 1.558 6.7 3.347 6.7c1.79 0 3.241-1.492 3.241-3.33 0-1.842-1.451-3.333-3.24-3.333C1.557.036.105 1.527.105 3.368z"/>
        <path id="E" d="M.319 9.51c0 6.958 8.714 17.228 8.714 17.228s8.714-10.27 8.714-17.228c0-5.129-3.896-9.276-8.714-9.276C4.216.234.32 4.38.32 9.51z"/>
        <path id="G" d="M.02 3.412c0 1.84 1.451 3.332 3.24 3.332 1.79 0 3.243-1.493 3.243-3.332 0-1.838-1.453-3.33-3.242-3.33C1.47.081.02 1.573.02 3.411z"/>
        <path id="I" d="M.276 9.47c0 6.956 8.714 17.228 8.714 17.228s8.716-10.272 8.716-17.228c0-5.13-3.897-9.276-8.716-9.276C4.173.194.276 4.34.276 9.47z"/>
        <path id="K" d="M.566 4.151c0 1.947 1.536 3.525 3.43 3.525 1.894 0 3.43-1.578 3.43-3.525 0-1.945-1.536-3.526-3.43-3.526-1.894 0-3.43 1.58-3.43 3.526z"/>
        <path id="M" d="M.2 9.678c0 6.957 8.715 17.227 8.715 17.227s8.714-10.27 8.714-17.227c0-5.127-3.897-9.276-8.714-9.276C4.096.402.199 4.551.199 9.678z"/>
        <path id="O" d="M.481 3.581c0 1.838 1.538 3.332 3.432 3.332 1.893 0 3.43-1.494 3.43-3.332 0-1.84-1.537-3.33-3.43-3.33C2.019.25.48 1.74.48 3.58z"/>
        <path id="Q" d="M.373 9.549c0 6.957 8.714 17.227 8.714 17.227S17.8 16.506 17.8 9.549c0-5.129-3.897-9.278-8.714-9.278C4.269.271.373 4.421.373 9.55z"/>
        <path id="S" d="M.076 4.236c0 1.945 1.451 3.524 3.24 3.524 1.79 0 3.242-1.58 3.242-3.524C6.558 2.29 5.106.71 3.317.71 1.527.71.076 2.29.076 4.236z"/>
        <path id="U" d="M.008 9.76c0 6.957 8.978 17.229 8.978 17.229s8.977-10.272 8.977-17.228c0-5.128-4.014-9.277-8.977-9.277C4.022.484.008 4.634.008 9.761z"/>
        <path id="W" d="M.244 3.664c0 1.838 1.453 3.332 3.242 3.332 1.79 0 3.241-1.494 3.241-3.332 0-1.84-1.452-3.33-3.241-3.33-1.79 0-3.242 1.49-3.242 3.33z"/>
        <path id="Y" d="M.084 9.339c0 6.958 8.715 17.228 8.715 17.228s8.713-10.27 8.713-17.228C17.512 4.21 13.615.063 8.8.063 3.98.063.084 4.21.084 9.339z"/>
        <path id="aa" d="M.34 4.012c0 1.947 1.48 3.527 3.303 3.527s3.301-1.58 3.301-3.527c0-1.945-1.478-3.526-3.3-3.526C1.82.486.34 2.066.34 4.012z"/>
        <path id="ac" d="M.17 9.297c0 6.958 8.715 17.228 8.715 17.228S17.6 16.255 17.6 9.297C17.6 4.17 13.704.021 8.885.021 4.067.02.17 4.17.17 9.297z"/>
        <path id="ae" d="M.413 3.967c0 1.947 1.452 3.526 3.241 3.526 1.79 0 3.242-1.579 3.242-3.526 0-1.945-1.451-3.524-3.242-3.524-1.79 0-3.241 1.58-3.241 3.524z"/>
        <path id="ag" d="M.045 9.51c0 6.958 8.714 17.228 8.714 17.228s8.714-10.27 8.714-17.228c0-5.129-3.897-9.276-8.714-9.276C3.94.234.045 4.38.045 9.51z"/>
        <path id="ai" d="M.298 3.412c0 1.84 1.48 3.332 3.302 3.332 1.823 0 3.301-1.493 3.301-3.332 0-1.838-1.478-3.33-3.3-3.33C1.777.081.297 1.573.297 3.411z"/>
        <path id="ak" d="M.369 9.3c0 6.925 8.715 17.146 8.715 17.146S17.797 16.225 17.797 9.3c0-5.103-3.897-9.232-8.713-9.232C4.265.068.37 4.197.37 9.3z"/>
        <path id="am" d="M.071 3.889c0 1.947 1.454 3.526 3.243 3.526s3.24-1.58 3.24-3.526c0-1.947-1.451-3.525-3.24-3.525C1.524.364.07 1.942.07 3.89z"/>
        <path id="ao" d="M.167 9.51c0 6.958 8.715 17.228 8.715 17.228s8.714-10.27 8.714-17.228C17.596 4.38 13.7.234 8.882.234 4.063.234.167 4.38.167 9.51z"/>
        <path id="aq" d="M.409 3.412c0 1.84 1.453 3.332 3.242 3.332 1.79 0 3.241-1.493 3.241-3.332 0-1.838-1.452-3.33-3.24-3.33-1.79 0-3.243 1.492-3.243 3.33z"/>
        <path id="as" d="M.208 9.596c0 6.957 8.713 17.227 8.713 17.227s8.716-10.27 8.716-17.227C17.637 4.467 13.74.32 8.92.32 4.104.32.208 4.467.208 9.596z"/>
        <path id="au" d="M.45 3.499c0 1.838 1.453 3.332 3.242 3.332s3.242-1.494 3.242-3.332c0-1.84-1.453-3.331-3.242-3.331C1.902.168.45 1.659.45 3.498z"/>
        <path id="aw" d="M.288 9.596C.288 16.553 9 26.823 9 26.823s8.716-10.27 8.716-17.227C17.716 4.467 13.819.32 9 .32 4.184.32.288 4.467.288 9.596z"/>
        <path id="ay" d="M.564 3.499c0 1.838 1.537 3.332 3.43 3.332 1.893 0 3.431-1.494 3.431-3.332 0-1.84-1.538-3.331-3.43-3.331C2.1.168.564 1.659.564 3.498z"/>
        <path id="aA" d="M.246 9.556c0 6.957 8.715 17.228 8.715 17.228s8.715-10.271 8.715-17.228c0-5.129-3.897-9.278-8.715-9.278S.246 4.428.246 9.556z"/>
        <path id="aC" d="M.491 3.458c0 1.838 1.454 3.33 3.243 3.33s3.24-1.492 3.24-3.33c0-1.84-1.451-3.333-3.24-3.333C1.944.125.49 1.618.49 3.458z"/>
        <path id="aE" d="M.484 9.556c0 6.957 8.716 17.228 8.716 17.228s8.714-10.271 8.714-17.228c0-5.129-3.897-9.278-8.714-9.278C4.38.278.484 4.428.484 9.556z"/>
        <path id="aG" d="M.192 3.458c0 1.838 1.452 3.33 3.242 3.33s3.241-1.492 3.241-3.33c0-1.84-1.452-3.333-3.24-3.333C1.643.125.191 1.618.191 3.458z"/>
        <path id="aI" d="M.279 9.305c0 6.924 8.715 17.145 8.715 17.145s8.714-10.221 8.714-17.145c0-5.105-3.896-9.233-8.714-9.233C4.177.072.28 4.2.28 9.305z"/>
        <path id="aK" d="M.569 3.895C.569 5.84 2.107 7.418 4 7.418S7.43 5.84 7.43 3.895C7.43 1.948 5.893.367 4 .367 2.107.367.569 1.948.569 3.895z"/>
        <path id="aM" d="M.484 9.305c0 6.957 8.716 17.227 8.716 17.227s8.714-10.27 8.714-17.227c0-5.129-3.897-9.277-8.714-9.277C4.38.028.484 4.176.484 9.305z"/>
        <path id="aO" d="M.192 3.985c0 1.945 1.452 3.525 3.242 3.525s3.241-1.58 3.241-3.525C6.675 2.04 5.223.46 3.435.46 1.643.46.191 2.04.191 3.985z"/>
        <path id="aQ" d="M.087 9.303c0 6.956 8.716 17.227 8.716 17.227s8.714-10.27 8.714-17.227c0-5.13-3.897-9.278-8.714-9.278C3.984.025.087 4.172.087 9.303z"/>
        <path id="aS" d="M.326 3.973c0 1.946 1.453 3.525 3.243 3.525 1.789 0 3.242-1.58 3.242-3.525 0-1.946-1.453-3.527-3.242-3.527-1.79 0-3.243 1.58-3.243 3.527z"/>
        <path id="aU" d="M.369 9.615c0 6.815 8.715 16.875 8.715 16.875s8.713-10.06 8.713-16.875c0-5.022-3.897-9.086-8.713-9.086C4.265.53.37 4.593.37 9.615z"/>
        <path id="aW" d="M.071 3.927c0 1.947 1.454 3.528 3.243 3.528s3.24-1.58 3.24-3.528c0-1.945-1.451-3.524-3.24-3.524C1.524.403.07 1.983.07 3.927z"/>
        <path id="aY" d="M.29 9.344c0 6.925 8.714 17.146 8.714 17.146S17.72 16.27 17.72 9.344c0-5.103-3.897-9.232-8.715-9.232C4.188.112.29 4.242.29 9.344z"/>
        <path id="ba" d="M.569 3.936c0 1.947 1.536 3.528 3.43 3.528 1.893 0 3.43-1.581 3.43-3.528 0-1.945-1.537-3.524-3.43-3.524-1.894 0-3.43 1.58-3.43 3.524z"/>
        <path id="bc" d="M.211 9.635c0 6.747 8.714 16.706 8.714 16.706s8.714-9.959 8.714-16.706C17.64 4.662 13.743.64 8.925.64 4.108.64.211 4.662.211 9.635z"/>
        <path id="be" d="M.455 3.759c0 1.945 1.45 3.524 3.241 3.524 1.788 0 3.241-1.58 3.241-3.524 0-1.946-1.453-3.526-3.241-3.526-1.79 0-3.241 1.58-3.241 3.526z"/>
        <path id="bg" d="M.128 9.346c0 6.958 8.714 17.228 8.714 17.228s8.715-10.27 8.715-17.228C17.557 4.218 13.66.07 8.842.07 4.024.07.128 4.218.128 9.346z"/>
        <path id="bi" d="M.368 4.02c0 1.946 1.452 3.525 3.241 3.525 1.79 0 3.241-1.58 3.241-3.526C6.85 2.073 5.398.495 3.61.495 1.82.495.367 2.073.367 4.019z"/>
        <path id="bk" d="M.203 9.346c0 6.958 8.715 17.228 8.715 17.228s8.715-10.27 8.715-17.228c0-5.128-3.897-9.276-8.715-9.276S.203 4.218.203 9.346z"/>
        <path id="bm" d="M.484 4.02c0 1.946 1.538 3.525 3.432 3.525 1.893 0 3.43-1.58 3.43-3.526 0-1.946-1.537-3.524-3.43-3.524C2.022.495.484 2.073.484 4.019z"/>
        <path id="bo" d="M.167 9.432c0 6.957 8.715 17.227 8.715 17.227s8.714-10.27 8.714-17.227c0-5.129-3.896-9.276-8.714-9.276C4.063.156.167 4.303.167 9.432z"/>
        <path id="bq" d="M.409 3.333c0 1.839 1.453 3.331 3.242 3.331 1.79 0 3.241-1.492 3.241-3.33C6.892 1.493 5.44 0 3.652 0 1.861.001.408 1.494.408 3.333z"/>
        <path id="bs" d="M.405 9.432c0 6.957 8.716 17.228 8.716 17.228s8.712-10.271 8.712-17.228c0-5.129-3.895-9.276-8.712-9.276C4.3.156.405 4.303.405 9.432z"/>
        <path id="bu" d="M.11 4.111c0 1.947 1.451 3.525 3.242 3.525 1.789 0 3.24-1.578 3.24-3.525 0-1.947-1.451-3.526-3.24-3.526C1.56.585.109 2.165.109 4.111z"/>
        <path id="bw" d="M.203 9.518c0 6.957 8.715 17.229 8.715 17.229s8.715-10.272 8.715-17.229c0-5.129-3.897-9.277-8.715-9.277S.203 4.389.203 9.518z"/>
        <path id="by" d="M.484 3.42c0 1.838 1.538 3.33 3.432 3.33 1.893 0 3.43-1.492 3.43-3.33 0-1.84-1.537-3.332-3.43-3.332C2.022.088.484 1.58.484 3.42z"/>
        <path id="bA" d="M0 9.101C0 15.925 8.5 26 8.5 26S17 15.925 17 9.101C17 4.068 13.2 0 8.5 0S0 4.068 0 9.101z"/>
        <path id="bC" d="M.254 3.81c0 1.946 1.478 3.525 3.3 3.525 1.823 0 3.302-1.58 3.302-3.525 0-1.946-1.479-3.526-3.301-3.526C1.732.284.254 1.864.254 3.81z"/>
        <path id="bE" d="M.069 9.297c0 6.958 8.714 17.228 8.714 17.228s8.714-10.27 8.714-17.228C17.497 4.17 13.6.021 8.783.021 3.965.02.069 4.17.069 9.297z"/>
        <path id="bG" d="M.305 3.967c0 1.947 1.453 3.526 3.243 3.526 1.789 0 3.242-1.579 3.242-3.526C6.79 2.022 5.337.443 3.548.443 1.758.443.305 2.023.305 3.967z"/>
        <path id="bI" d="M.431 9.297c0 6.958 8.716 17.228 8.716 17.228s8.714-10.27 8.714-17.228c0-5.127-3.897-9.276-8.714-9.276C4.328.02.431 4.17.431 9.297z"/>
        <path id="bK" d="M.724 3.967c0 1.947 1.538 3.526 3.432 3.526 1.893 0 3.43-1.579 3.43-3.526 0-1.945-1.537-3.524-3.43-3.524C2.262.443.724 2.023.724 3.967z"/>
        <path id="bM" d="M.475 9.339c0 6.958 8.714 17.228 8.714 17.228s8.714-10.27 8.714-17.228c0-5.13-3.896-9.276-8.714-9.276C4.372.063.475 4.21.475 9.339z"/>
        <path id="bO" d="M.182 4.02c0 1.947 1.452 3.527 3.241 3.527 1.79 0 3.242-1.58 3.242-3.526 0-1.945-1.453-3.526-3.242-3.526C1.633.495.182 2.075.182 4.02z"/>
        <path id="bQ" d="M.114 9.341c0 6.925 8.716 17.146 8.716 17.146s8.713-10.22 8.713-17.146C17.543 4.237 13.646.11 8.83.11 4.01.11.114 4.237.114 9.34z"/>
        <path id="bS" d="M.354 3.933c0 1.947 1.452 3.526 3.243 3.526 1.789 0 3.24-1.579 3.24-3.526 0-1.945-1.451-3.526-3.24-3.526C1.806.407.354 1.988.354 3.933z"/>
        <path id="bU" d="M.392 9.615c0 6.815 8.715 16.875 8.715 16.875S17.82 16.43 17.82 9.615c0-5.022-3.897-9.086-8.714-9.086C4.289.53.392 4.593.392 9.615z"/>
        <path id="bW" d="M.68 3.927c0 1.947 1.538 3.528 3.431 3.528s3.431-1.58 3.431-3.528c0-1.945-1.538-3.524-3.43-3.524C2.217.403.68 1.983.68 3.927z"/>
        <path id="bY" d="M.4 9.388c0 6.956 8.713 17.228 8.713 17.228s8.715-10.272 8.715-17.228c0-5.13-3.897-9.277-8.715-9.277C4.296.111.4 4.26.4 9.388z"/>
        <path id="ca" d="M.689 4.064c0 1.945 1.535 3.524 3.43 3.524 1.893 0 3.43-1.58 3.43-3.524 0-1.945-1.537-3.526-3.43-3.526-1.895 0-3.43 1.58-3.43 3.526z"/>
        <path id="cc" d="M.273 9.303c0 6.956 8.715 17.227 8.715 17.227s8.715-10.27 8.715-17.227c0-5.13-3.897-9.278-8.715-9.278S.273 4.172.273 9.303z"/>
        <path id="ce" d="M.55 3.973c0 1.946 1.536 3.525 3.43 3.525 1.894 0 3.43-1.58 3.43-3.525C7.41 2.027 5.874.446 3.98.446 2.087.446.55 2.026.55 3.973z"/>
        <path id="cg" d="M.63 9.552c0 6.956 8.656 17.228 8.656 17.228s8.656-10.272 8.656-17.228c0-5.13-3.87-9.278-8.656-9.278C4.5.274.63 4.423.63 9.552z"/>
        <path id="ci" d="M.057 3.454c0 1.84 1.512 3.332 3.377 3.332 1.864 0 3.376-1.493 3.376-3.332C6.81 1.616 5.298.122 3.434.122 1.57.122.057 1.616.057 3.454z"/>
        <path id="ck" d="M.02 9.638c0 6.958 8.655 17.228 8.655 17.228s8.657-10.27 8.657-17.228C17.332 4.509 13.46.36 8.675.36S.02 4.51.02 9.638z"/>
        <path id="cm" d="M.147 3.54c0 1.839 1.513 3.331 3.376 3.331 1.864 0 3.378-1.492 3.378-3.33C6.9 1.7 5.387.207 3.523.207 1.66.207.147 1.701.147 3.541z"/>
        <path id="co" d="M.51 9.47c0 6.956 8.716 17.228 8.716 17.228S17.94 16.426 17.94 9.47c0-5.13-3.896-9.276-8.714-9.276C4.407.194.511 4.34.511 9.47z"/>
        <path id="cq" d="M.081 4.151c0 1.947 1.48 3.525 3.303 3.525 1.822 0 3.3-1.578 3.3-3.525 0-1.945-1.478-3.526-3.3-3.526C1.562.625.08 2.205.08 4.151z"/>
        <path id="cs" d="M.02 9.428c0 6.958 8.655 17.228 8.655 17.228s8.657-10.27 8.657-17.228C17.332 4.3 13.46.152 8.675.152S.02 4.3.02 9.428z"/>
        <path id="cu" d="M.147 4.107c0 1.946 1.513 3.526 3.376 3.526 1.864 0 3.378-1.58 3.378-3.526C6.9 2.16 5.387.582 3.523.582 1.66.582.147 2.16.147 4.107z"/>
        <path id="cw" d="M.194 9.763c0 6.958 8.715 17.229 8.715 17.229s8.714-10.27 8.714-17.229c0-5.127-3.896-9.276-8.714-9.276C4.09.487.194 4.636.194 9.763z"/>
        <path id="cy" d="M.437 3.667c0 1.84 1.452 3.332 3.242 3.332s3.24-1.491 3.24-3.332c0-1.84-1.45-3.331-3.24-3.331C1.89.336.437 1.827.437 3.666z"/>
        <path id="cA" d="M.63 9.388c0 6.956 8.656 17.228 8.656 17.228s8.656-10.272 8.656-17.228c0-5.13-3.87-9.277-8.656-9.277C4.5.111.63 4.26.63 9.388z"/>
        <path id="cC" d="M.057 4.064c0 1.945 1.512 3.524 3.377 3.524 1.864 0 3.376-1.58 3.376-3.524C6.81 2.119 5.298.538 3.434.538 1.57.538.057 2.118.057 4.064z"/>
        <path id="cE" d="M.039 9.308c0 6.924 8.978 17.145 8.978 17.145s8.976-10.221 8.976-17.145c0-5.104-4.014-9.233-8.976-9.233C4.053.075.039 4.204.039 9.308z"/>
        <path id="cG" d="M.274 3.898c0 1.945 1.452 3.524 3.243 3.524 1.789 0 3.24-1.579 3.24-3.524S5.307.372 3.518.372C1.727.372.274 1.952.274 3.898z"/>
        <path id="cI" d="M.482 9.678c0 6.746 8.714 16.706 8.714 16.706s8.714-9.96 8.714-16.706c0-4.973-3.897-8.995-8.714-8.995C4.378.683.482 4.705.482 9.678z"/>
        <path id="cK" d="M.189 3.806c0 1.947 1.452 3.524 3.241 3.524 1.79 0 3.241-1.577 3.241-3.524S5.221.28 3.43.28C1.64.28.189 1.86.189 3.806z"/>
        <path id="cM" d="M.482 9.851c0 6.924 8.714 17.146 8.714 17.146S17.91 16.775 17.91 9.851C17.91 4.747 14.013.62 9.196.62 4.378.62.482 4.747.482 9.851z"/>
        <path id="cO" d="M.189 3.58c0 1.873 1.452 3.391 3.241 3.391 1.79 0 3.241-1.518 3.241-3.392 0-1.874-1.45-3.394-3.241-3.394C1.64.185.189 1.705.189 3.58z"/>
        <path id="cQ" d="M.565 9.635c0 6.747 8.715 16.706 8.715 16.706s8.713-9.959 8.713-16.706C17.993 4.662 14.098.64 9.28.64 4.461.64.565 4.662.565 9.635z"/>
        <path id="cS" d="M.138 3.759c0 1.945 1.48 3.524 3.303 3.524 1.822 0 3.3-1.58 3.3-3.524 0-1.946-1.478-3.526-3.3-3.526C1.617.233.138 1.813.138 3.759z"/>
        <path id="cU" d="M.439 9.687c0 6.955 8.714 17.227 8.714 17.227s8.715-10.272 8.715-17.227c0-5.13-3.896-9.278-8.715-9.278C4.335.41.439 4.557.439 9.687z"/>
        <path id="cW" d="M.143 3.59c0 1.838 1.453 3.33 3.242 3.33 1.79 0 3.243-1.492 3.243-3.33 0-1.84-1.454-3.334-3.243-3.334S.143 1.75.143 3.59z"/>
        <path id="cY" d="M.565 9.436c0 6.957 8.715 17.227 8.715 17.227s8.713-10.27 8.713-17.227c0-5.13-3.895-9.277-8.713-9.277C4.461.159.565 4.306.565 9.436z"/>
        <path id="da" d="M.138 4.116c0 1.945 1.48 3.524 3.303 3.524 1.822 0 3.3-1.58 3.3-3.524 0-1.947-1.478-3.526-3.3-3.526C1.617.59.138 2.169.138 4.116z"/>
        <path id="dc" d="M.397 9.432C.397 16.39 9.11 26.66 9.11 26.66s8.714-10.271 8.714-17.228c0-5.129-3.897-9.276-8.714-9.276C4.29.156.397 4.303.397 9.432z"/>
        <path id="de" d="M.684 4.111c0 1.947 1.537 3.525 3.432 3.525 1.891 0 3.43-1.578 3.43-3.525 0-1.947-1.539-3.526-3.43-3.526C2.22.585.684 2.165.684 4.111z"/>
        <path id="dg" d="M.31 9.346c0 6.958 8.713 17.228 8.713 17.228s8.716-10.27 8.716-17.228c0-5.128-3.897-9.276-8.716-9.276C4.206.07.31 4.218.31 9.346z"/>
        <path id="di" d="M.59 4.02c0 1.946 1.537 3.525 3.43 3.525 1.894 0 3.43-1.58 3.43-3.526C7.45 2.073 5.914.495 4.02.495 2.126.495.59 2.073.59 4.019z"/>
        <path id="dk" d="M.392 9.305c0 6.957 8.715 17.227 8.715 17.227s8.714-10.27 8.714-17.227c0-5.129-3.897-9.277-8.714-9.277C4.289.028.392 4.176.392 9.305z"/>
        <path id="dm" d="M.68 3.985C.68 5.93 2.218 7.51 4.111 7.51s3.431-1.58 3.431-3.525C7.542 2.04 6.004.46 4.112.46 2.217.46.68 2.04.68 3.985z"/>
    </defs>
    <g fill="none" fill-rule="evenodd">
        <g transform="translate(5 17)">
            <mask id="b" fill="#fff">
                <use xlink:href="#a"/>
            </mask>
            <path fill="#D1D3D7" d="M-4.645 173.69h284.41V-4.47H-4.645z" mask="url(#b)"/>
        </g>
        <g transform="translate(28 1)">
            <mask id="d" fill="#fff">
                <use xlink:href="#c"/>
            </mask>
            <path fill="#00CCAE" d="M-4.416 31.543h26.799v-36.21H-4.416z" mask="url(#d)"/>
        </g>
        <path stroke="#FFF" stroke-width=".778" d="M28 10.45C28 17.538 37 28 37 28s9-10.462 9-17.55C46 5.226 41.976 1 37 1s-9 4.226-9 9.45z"/>
        <g transform="translate(34 8)">
            <mask id="f" fill="#fff">
                <use xlink:href="#e"/>
            </mask>
            <path fill="#FFF" d="M-4.364 11.575H11.88V-4.847H-4.364z" mask="url(#f)"/>
        </g>
        <g transform="translate(31 61)">
            <mask id="h" fill="#fff">
                <use xlink:href="#g"/>
            </mask>
            <path fill="#00CCAE" d="M-4.292 31.843h26.799V-4.365H-4.292z" mask="url(#h)"/>
        </g>
        <path stroke="#FFF" stroke-width=".778" d="M31 70.45C31 77.538 40 88 40 88s9-10.462 9-17.55c0-5.224-4.025-9.45-9-9.45s-9 4.226-9 9.45z"/>
        <g transform="translate(35 66)">
            <mask id="j" fill="#fff">
                <use xlink:href="#i"/>
            </mask>
            <path fill="#FFF" d="M-4.481 11.879h17.186V-4.543H-4.48z" mask="url(#j)"/>
        </g>
        <g transform="translate(25 22)">
            <mask id="l" fill="#fff">
                <use xlink:href="#k"/>
            </mask>
            <path fill="#00CCAE" d="M-4.538 31.46h26.799V-4.746H-4.538z" mask="url(#l)"/>
        </g>
        <path stroke="#FFF" stroke-width=".778" d="M25 31.45C25 38.538 34 49 34 49s9-10.462 9-17.55c0-5.224-4.025-9.45-9-9.45s-9 4.226-9 9.45z"/>
        <g transform="translate(31 28)">
            <mask id="n" fill="#fff">
                <use xlink:href="#m"/>
            </mask>
            <path fill="#FFF" d="M-4.491 12.745h16.243V-4.633H-4.491z" mask="url(#n)"/>
        </g>
        <g transform="translate(14 9)">
            <mask id="p" fill="#fff">
                <use xlink:href="#o"/>
            </mask>
            <path fill="#00CCAE" d="M-4.063 31.374h26.62v-36.21h-26.62z" mask="url(#p)"/>
        </g>
        <path stroke="#FFF" stroke-width=".778" d="M14 18.45C14 25.537 23 36 23 36s9-10.463 9-17.55C32 13.226 27.976 9 23 9s-9 4.226-9 9.45z"/>
        <g transform="translate(20 13)">
            <mask id="r" fill="#fff">
                <use xlink:href="#q"/>
            </mask>
            <path fill="#FFF" d="M-5.07 12.662h16.92V-4.716H-5.07z" mask="url(#r)"/>
        </g>
        <g transform="translate(190 33)">
            <mask id="t" fill="#fff">
                <use xlink:href="#s"/>
            </mask>
            <path fill="#00CCAE" d="M-4.28 31.419h26.8V-4.79h-26.8z" mask="url(#t)"/>
        </g>
        <path stroke="#FFF" stroke-width=".778" d="M190 41.45c0 7.088 9 17.55 9 17.55s9-10.462 9-17.55c0-5.225-4.024-9.45-9-9.45s-9 4.225-9 9.45z"/>
        <g transform="translate(196 37)">
            <mask id="v" fill="#fff">
                <use xlink:href="#u"/>
            </mask>
            <path fill="#FFF" d="M-4.77 12.7h16.243V-4.676H-4.77z" mask="url(#v)"/>
        </g>
        <g transform="translate(9 27)">
            <mask id="x" fill="#fff">
                <use xlink:href="#w"/>
            </mask>
            <path fill="#00CCAE" d="M-4.336 31.272h26.798V-4.765H-4.336z" mask="url(#x)"/>
        </g>
        <path stroke="#FFF" stroke-width=".778" d="M9 36.45C9 43.537 18 54 18 54s9-10.463 9-17.55c0-5.224-4.024-9.45-9-9.45s-9 4.226-9 9.45z"/>
        <g transform="translate(13 33)">
            <mask id="z" fill="#fff">
                <use xlink:href="#y"/>
            </mask>
            <path fill="#FFF" d="M-4.53 12.575h17.188V-4.803H-4.53z" mask="url(#z)"/>
        </g>
        <g transform="translate(157 34)">
            <mask id="B" fill="#fff">
                <use xlink:href="#A"/>
            </mask>
            <path fill="#00CCAE" d="M-4.283 31.545h26.798V-4.663H-4.283z" mask="url(#B)"/>
        </g>
        <path stroke="#FFF" stroke-width=".778" d="M157 43.45c0 7.088 9 17.55 9 17.55s9-10.462 9-17.55c0-5.224-4.026-9.45-9-9.45-4.976 0-9 4.226-9 9.45z"/>
        <g transform="translate(163 39)">
            <mask id="D" fill="#fff">
                <use xlink:href="#C"/>
            </mask>
            <path fill="#FFF" d="M-4.774 11.578h16.243V-4.844H-4.774z" mask="url(#D)"/>
        </g>
        <g transform="translate(145 56)">
            <mask id="F" fill="#fff">
                <use xlink:href="#E"/>
            </mask>
            <path fill="#00CCAE" d="M-4.365 31.591h26.798V-4.618H-4.365z" mask="url(#F)"/>
        </g>
        <path stroke="#FFF" stroke-width=".778" d="M145 65.45c0 7.088 9 17.55 9 17.55s9-10.462 9-17.55c0-5.225-4.025-9.45-9-9.45s-9 4.225-9 9.45z"/>
        <g transform="translate(150 62)">
            <mask id="H" fill="#fff">
                <use xlink:href="#G"/>
            </mask>
            <path fill="#FFF" d="M-4.86 11.623h16.243V-4.8H-4.859z" mask="url(#H)"/>
        </g>
        <g transform="translate(122 67)">
            <mask id="J" fill="#fff">
                <use xlink:href="#I"/>
            </mask>
            <path fill="#00CCAE" d="M-4.408 31.55H22.39V-4.658H-4.408z" mask="url(#J)"/>
        </g>
        <path stroke="#FFF" stroke-width=".778" d="M122 76.45c0 7.088 9 17.55 9 17.55s9-10.462 9-17.55c0-5.225-4.024-9.45-9-9.45s-9 4.225-9 9.45z"/>
        <g transform="translate(127 73)">
            <mask id="L" fill="#fff">
                <use xlink:href="#K"/>
            </mask>
            <path fill="#FFF" d="M-4.597 12.839h17.188V-4.538H-4.597z" mask="url(#L)"/>
        </g>
        <g transform="translate(174 48)">
            <mask id="N" fill="#fff">
                <use xlink:href="#M"/>
            </mask>
            <path fill="#00CCAE" d="M-4.485 31.758h26.798V-4.45H-4.485z" mask="url(#N)"/>
        </g>
        <path stroke="#FFF" stroke-width=".778" d="M174 57.45c0 7.087 9 17.55 9 17.55s9-10.463 9-17.55c0-5.224-4.024-9.45-9-9.45s-9 4.226-9 9.45z"/>
        <g transform="translate(179 54)">
            <mask id="P" fill="#fff">
                <use xlink:href="#O"/>
            </mask>
            <path fill="#FFF" d="M-4.681 11.792h17.188V-4.63H-4.681z" mask="url(#P)"/>
        </g>
        <g transform="translate(264 16)">
            <mask id="R" fill="#fff">
                <use xlink:href="#Q"/>
            </mask>
            <path fill="#00CCAE" d="M-4.313 31.628h26.798V-4.58H-4.313z" mask="url(#R)"/>
        </g>
        <path stroke="#FFF" stroke-width=".778" d="M264 25.45c0 7.088 9 17.55 9 17.55s9-10.462 9-17.55c0-5.224-4.025-9.45-9-9.45s-9 4.226-9 9.45z"/>
        <g transform="translate(269 21)">
            <mask id="T" fill="#fff">
                <use xlink:href="#S"/>
            </mask>
            <path fill="#FFF" d="M-4.805 12.923h16.243V-4.455H-4.805z" mask="url(#T)"/>
        </g>
        <g transform="translate(257 30)">
            <mask id="V" fill="#fff">
                <use xlink:href="#U"/>
            </mask>
            <path fill="#00CCAE" d="M-4.817 31.84h27.605V-4.368H-4.817z" mask="url(#V)"/>
        </g>
        <path stroke="#FFF" stroke-width=".778" d="M257 39.45c0 7.087 9 17.55 9 17.55s9-10.463 9-17.55c0-5.224-4.025-9.45-9-9.45s-9 4.226-9 9.45z"/>
        <g transform="translate(263 36)">
            <mask id="X" fill="#fff">
                <use xlink:href="#W"/>
            </mask>
            <path fill="#FFF" d="M-4.635 11.875h16.242V-4.547H-4.635z" mask="url(#X)"/>
        </g>
        <g transform="translate(235 33)">
            <mask id="Z" fill="#fff">
                <use xlink:href="#Y"/>
            </mask>
            <path fill="#00CCAE" d="M-4.6 31.419h26.798V-4.79H-4.601z" mask="url(#Z)"/>
        </g>
        <path stroke="#FFF" stroke-width=".778" d="M235 41.45c0 7.088 9 17.55 9 17.55s9-10.462 9-17.55c0-5.225-4.025-9.45-9-9.45s-9 4.225-9 9.45z"/>
        <g transform="translate(240 37)">
            <mask id="ab" fill="#fff">
                <use xlink:href="#aa"/>
            </mask>
            <path fill="#FFF" d="M-4.629 12.7h16.544V-4.676H-4.629z" mask="url(#ab)"/>
        </g>
        <g transform="translate(250 42)">
            <mask id="ad" fill="#fff">
                <use xlink:href="#ac"/>
            </mask>
            <path fill="#00CCAE" d="M-4.514 31.377h26.799V-4.83H-4.514z" mask="url(#ad)"/>
        </g>
        <path stroke="#FFF" stroke-width=".778" d="M250 51.45c0 7.088 9 17.55 9 17.55s9-10.462 9-17.55c0-5.224-4.024-9.45-9-9.45s-9 4.226-9 9.45z"/>
        <g transform="translate(255 48)">
            <mask id="af" fill="#fff">
                <use xlink:href="#ae"/>
            </mask>
            <path fill="#FFF" d="M-4.466 12.658h16.243V-4.72H-4.466z" mask="url(#af)"/>
        </g>
        <g transform="translate(246 56)">
            <mask id="ah" fill="#fff">
                <use xlink:href="#ag"/>
            </mask>
            <path fill="#00CCAE" d="M-4.64 31.591H22.16V-4.618H-4.64z" mask="url(#ah)"/>
        </g>
        <path stroke="#FFF" stroke-width=".778" d="M246 65.45c0 7.088 9 17.55 9 17.55s9-10.462 9-17.55c0-5.225-4.025-9.45-9-9.45s-9 4.225-9 9.45z"/>
        <g transform="translate(251 62)">
            <mask id="aj" fill="#fff">
                <use xlink:href="#ai"/>
            </mask>
            <path fill="#FFF" d="M-4.67 11.623h16.542V-4.8H-4.67z" mask="url(#aj)"/>
        </g>
        <g transform="translate(231 60)">
            <mask id="al" fill="#fff">
                <use xlink:href="#ak"/>
            </mask>
            <path fill="#00CCAE" d="M-4.316 31.276h26.799V-4.76H-4.316z" mask="url(#al)"/>
        </g>
        <path stroke="#FFF" stroke-width=".778" d="M231 69.45c0 7.087 9 17.55 9 17.55s9-10.463 9-17.55c0-5.224-4.025-9.45-9-9.45s-9 4.226-9 9.45z"/>
        <g transform="translate(238 65)">
            <mask id="an" fill="#fff">
                <use xlink:href="#am"/>
            </mask>
            <path fill="#FFF" d="M-4.808 12.58h16.242V-4.8H-4.808z" mask="url(#an)"/>
        </g>
        <g transform="translate(218 56)">
            <mask id="ap" fill="#fff">
                <use xlink:href="#ao"/>
            </mask>
            <path fill="#00CCAE" d="M-4.518 31.591h26.799V-4.618H-4.518z" mask="url(#ap)"/>
        </g>
        <path stroke="#FFF" stroke-width=".778" d="M218 65.45c0 7.088 9 17.55 9 17.55s9-10.462 9-17.55c0-5.225-4.024-9.45-9-9.45s-9 4.225-9 9.45z"/>
        <g transform="translate(223 62)">
            <mask id="ar" fill="#fff">
                <use xlink:href="#aq"/>
            </mask>
            <path fill="#FFF" d="M-4.47 11.623h16.243V-4.8H-4.47z" mask="url(#ar)"/>
        </g>
        <g transform="translate(209 68)">
            <mask id="at" fill="#fff">
                <use xlink:href="#as"/>
            </mask>
            <path fill="#00CCAE" d="M-4.477 31.676H22.32V-4.533H-4.477z" mask="url(#at)"/>
        </g>
        <path stroke="#FFF" stroke-width=".778" d="M209 77.45c0 7.087 9 17.55 9 17.55s9-10.463 9-17.55c0-5.224-4.025-9.45-9-9.45s-9 4.226-9 9.45z"/>
        <g transform="translate(214 74)">
            <mask id="av" fill="#fff">
                <use xlink:href="#au"/>
            </mask>
            <path fill="#FFF" d="M-4.428 11.71h16.241V-4.712H-4.428z" mask="url(#av)"/>
        </g>
        <g transform="translate(188 68)">
            <mask id="ax" fill="#fff">
                <use xlink:href="#aw"/>
            </mask>
            <path fill="#00CCAE" d="M-4.398 31.676H22.4V-4.533H-4.398z" mask="url(#ax)"/>
        </g>
        <path stroke="#FFF" stroke-width=".778" d="M188 77.45c0 7.087 9 17.55 9 17.55s9-10.463 9-17.55c0-5.224-4.025-9.45-9-9.45s-9 4.226-9 9.45z"/>
        <g transform="translate(194 74)">
            <mask id="az" fill="#fff">
                <use xlink:href="#ay"/>
            </mask>
            <path fill="#FFF" d="M-4.599 11.71h17.187V-4.712H-4.599z" mask="url(#az)"/>
        </g>
        <g transform="translate(198 78)">
            <mask id="aB" fill="#fff">
                <use xlink:href="#aA"/>
            </mask>
            <path fill="#00CCAE" d="M-4.438 31.635H22.36V-4.573H-4.438z" mask="url(#aB)"/>
        </g>
        <path stroke="#FFF" stroke-width=".778" d="M198 87.45c0 7.088 9 17.55 9 17.55s9-10.462 9-17.55c0-5.225-4.024-9.45-9-9.45s-9 4.225-9 9.45z"/>
        <g transform="translate(204 85)">
            <mask id="aD" fill="#fff">
                <use xlink:href="#aC"/>
            </mask>
            <path fill="#FFF" d="M-4.388 11.669h16.243V-4.753H-4.388z" mask="url(#aD)"/>
        </g>
        <g transform="translate(170 78)">
            <mask id="aF" fill="#fff">
                <use xlink:href="#aE"/>
            </mask>
            <path fill="#00CCAE" d="M-4.2 31.635h26.798V-4.573H-4.2z" mask="url(#aF)"/>
        </g>
        <path stroke="#FFF" stroke-width=".778" d="M170 87.45c0 7.088 9 17.55 9 17.55s9-10.462 9-17.55c0-5.225-4.024-9.45-9-9.45s-9 4.225-9 9.45z"/>
        <g transform="translate(175 85)">
            <mask id="aH" fill="#fff">
                <use xlink:href="#aG"/>
            </mask>
            <path fill="#FFF" d="M-4.687 11.669h16.243V-4.753H-4.687z" mask="url(#aH)"/>
        </g>
        <g transform="translate(154 92)">
            <mask id="aJ" fill="#fff">
                <use xlink:href="#aI"/>
            </mask>
            <path fill="#00CCAE" d="M-4.406 31.279h26.799V-4.756H-4.406z" mask="url(#aJ)"/>
        </g>
        <path stroke="#FFF" stroke-width=".778" d="M154 101.45c0 7.088 9 17.55 9 17.55s9-10.462 9-17.55c0-5.224-4.024-9.45-9-9.45s-9 4.226-9 9.45z"/>
        <g transform="translate(160 97)">
            <mask id="aL" fill="#fff">
                <use xlink:href="#aK"/>
            </mask>
            <path fill="#FFF" d="M-4.594 12.582h17.187V-4.796H-4.594z" mask="url(#aL)"/>
        </g>
        <g transform="translate(170 104)">
            <mask id="aN" fill="#fff">
                <use xlink:href="#aM"/>
            </mask>
            <path fill="#00CCAE" d="M-4.2 31.384h26.798V-4.824H-4.2z" mask="url(#aN)"/>
        </g>
        <path stroke="#FFF" stroke-width=".778" d="M170 113.45c0 7.088 9 17.55 9 17.55s9-10.462 9-17.55c0-5.224-4.024-9.45-9-9.45s-9 4.226-9 9.45z"/>
        <g transform="translate(175 110)">
            <mask id="aP" fill="#fff">
                <use xlink:href="#aO"/>
            </mask>
            <path fill="#FFF" d="M-4.687 12.673h16.243V-4.705H-4.687z" mask="url(#aP)"/>
        </g>
        <g transform="translate(238 74)">
            <mask id="aR" fill="#fff">
                <use xlink:href="#aQ"/>
            </mask>
            <path fill="#00CCAE" d="M-4.597 31.381h26.798V-4.827H-4.597z" mask="url(#aR)"/>
        </g>
        <path stroke="#FFF" stroke-width=".778" d="M238 83.45c0 7.088 9 17.55 9 17.55s9-10.462 9-17.55c0-5.224-4.024-9.45-9-9.45s-9 4.226-9 9.45z"/>
        <g transform="translate(242 79)">
            <mask id="aT" fill="#fff">
                <use xlink:href="#aS"/>
            </mask>
            <path fill="#FFF" d="M-4.553 12.66H11.69V-4.716H-4.553z" mask="url(#aT)"/>
        </g>
        <g transform="translate(231 84)">
            <mask id="aV" fill="#fff">
                <use xlink:href="#aU"/>
            </mask>
            <path fill="#00CCAE" d="M-4.316 31.244h26.799V-4.223H-4.316z" mask="url(#aV)"/>
        </g>
        <path stroke="#FFF" stroke-width=".778" d="M231 94.45c0 7.088 9 17.55 9 17.55s9-10.462 9-17.55c0-5.225-4.025-9.45-9-9.45s-9 4.225-9 9.45z"/>
        <g transform="translate(238 89)">
            <mask id="aX" fill="#fff">
                <use xlink:href="#aW"/>
            </mask>
            <path fill="#FFF" d="M-4.808 12.618h16.242V-4.76H-4.808z" mask="url(#aX)"/>
        </g>
        <g transform="translate(222 82)">
            <mask id="aZ" fill="#fff">
                <use xlink:href="#aY"/>
            </mask>
            <path fill="#00CCAE" d="M-4.395 31.319h26.798V-4.716H-4.395z" mask="url(#aZ)"/>
        </g>
        <path stroke="#FFF" stroke-width=".778" d="M222 91.45c0 7.088 9 17.55 9 17.55s9-10.462 9-17.55c0-5.225-4.025-9.45-9-9.45s-9 4.225-9 9.45z"/>
        <g transform="translate(226 88)">
            <mask id="bb" fill="#fff">
                <use xlink:href="#ba"/>
            </mask>
            <path fill="#FFF" d="M-4.596 12.627h17.187V-4.751H-4.596z" mask="url(#bb)"/>
        </g>
        <g transform="translate(240 90)">
            <mask id="bd" fill="#fff">
                <use xlink:href="#bc"/>
            </mask>
            <path fill="#00CCAE" d="M-4.475 31.045h26.799V-4.066H-4.475z" mask="url(#bd)"/>
        </g>
        <path stroke="#FFF" stroke-width=".778" d="M240 100.1c0 6.825 8.84 16.9 8.84 16.9s8.84-10.075 8.84-16.9c0-5.032-3.953-9.1-8.84-9.1-4.887 0-8.84 4.068-8.84 9.1z"/>
        <g transform="translate(245 94)">
            <mask id="bf" fill="#fff">
                <use xlink:href="#be"/>
            </mask>
            <path fill="#FFF" d="M-4.425 12.447h16.241V-4.93H-4.425z" mask="url(#bf)"/>
        </g>
        <g transform="translate(228 96)">
            <mask id="bh" fill="#fff">
                <use xlink:href="#bg"/>
            </mask>
            <path fill="#00CCAE" d="M-4.557 31.427h26.799v-36.21H-4.557z" mask="url(#bh)"/>
        </g>
        <path stroke="#FFF" stroke-width=".778" d="M228 105.45c0 7.087 9 17.55 9 17.55s9-10.463 9-17.55c0-5.224-4.025-9.45-9-9.45s-9 4.226-9 9.45z"/>
        <g transform="translate(234 102)">
            <mask id="bj" fill="#fff">
                <use xlink:href="#bi"/>
            </mask>
            <path fill="#FFF" d="M-4.51 12.708h16.24V-4.67H-4.51z" mask="url(#bj)"/>
        </g>
        <g transform="translate(206 96)">
            <mask id="bl" fill="#fff">
                <use xlink:href="#bk"/>
            </mask>
            <path fill="#00CCAE" d="M-4.481 31.427h26.798v-36.21H-4.48z" mask="url(#bl)"/>
        </g>
        <path stroke="#FFF" stroke-width=".778" d="M206 105.45c0 7.087 9 17.55 9 17.55s9-10.463 9-17.55c0-5.224-4.025-9.45-9-9.45s-9 4.226-9 9.45z"/>
        <g transform="translate(212 102)">
            <mask id="bn" fill="#fff">
                <use xlink:href="#bm"/>
            </mask>
            <path fill="#FFF" d="M-4.677 12.708H12.51V-4.67H-4.677z" mask="url(#bn)"/>
        </g>
        <g transform="translate(218 107)">
            <mask id="bp" fill="#fff">
                <use xlink:href="#bo"/>
            </mask>
            <path fill="#00CCAE" d="M-4.518 31.512h26.799v-36.21H-4.518z" mask="url(#bp)"/>
        </g>
        <path stroke="#FFF" stroke-width=".778" d="M218 116.45c0 7.087 9 17.55 9 17.55s9-10.463 9-17.55c0-5.224-4.024-9.45-9-9.45s-9 4.226-9 9.45z"/>
        <g transform="translate(223 114)">
            <mask id="br" fill="#fff">
                <use xlink:href="#bq"/>
            </mask>
            <path fill="#FFF" d="M-4.47 11.544h16.243V-4.878H-4.47z" mask="url(#br)"/>
        </g>
        <g transform="translate(190 110)">
            <mask id="bt" fill="#fff">
                <use xlink:href="#bs"/>
            </mask>
            <path fill="#00CCAE" d="M-4.28 31.512h26.8v-36.21h-26.8z" mask="url(#bt)"/>
        </g>
        <path stroke="#FFF" stroke-width=".778" d="M190 119.45c0 7.088 9 17.55 9 17.55s9-10.462 9-17.55c0-5.224-4.024-9.45-9-9.45s-9 4.226-9 9.45z"/>
        <g transform="translate(196 115)">
            <mask id="bv" fill="#fff">
                <use xlink:href="#bu"/>
            </mask>
            <path fill="#FFF" d="M-4.77 12.8h16.243V-4.578H-4.77z" mask="url(#bv)"/>
        </g>
        <g transform="translate(206 120)">
            <mask id="bx" fill="#fff">
                <use xlink:href="#bw"/>
            </mask>
            <path fill="#00CCAE" d="M-4.481 31.598h26.798V-4.61H-4.48z" mask="url(#bx)"/>
        </g>
        <path stroke="#FFF" stroke-width=".778" d="M206 129.45c0 7.088 9 17.55 9 17.55s9-10.462 9-17.55c0-5.224-4.025-9.45-9-9.45s-9 4.226-9 9.45z"/>
        <g transform="translate(212 126)">
            <mask id="bz" fill="#fff">
                <use xlink:href="#by"/>
            </mask>
            <path fill="#FFF" d="M-4.677 11.63H12.51V-4.792H-4.677z" mask="url(#bz)"/>
        </g>
        <g transform="translate(222 145)">
            <mask id="bB" fill="#fff">
                <use xlink:href="#bA"/>
            </mask>
            <path fill="#00CCAE" d="M-5 30h27V-5H-5z" mask="url(#bB)"/>
        </g>
        <path stroke="#FFF" stroke-width=".778" d="M222 154.1c0 6.826 8.5 16.9 8.5 16.9s8.5-10.074 8.5-16.9c0-5.03-3.8-9.1-8.5-9.1s-8.5 4.07-8.5 9.1z"/>
        <g transform="translate(227 149)">
            <mask id="bD" fill="#fff">
                <use xlink:href="#bC"/>
            </mask>
            <path fill="#FFF" d="M-4.717 12.498h16.542V-4.88H-4.717z" mask="url(#bD)"/>
        </g>
        <g transform="translate(44 42)">
            <mask id="bF" fill="#fff">
                <use xlink:href="#bE"/>
            </mask>
            <path fill="#00CCAE" d="M-4.617 31.377H22.18V-4.83H-4.617z" mask="url(#bF)"/>
        </g>
        <path stroke="#FFF" stroke-width=".778" d="M44 51.45C44 58.538 53 69 53 69s9-10.462 9-17.55c0-5.224-4.025-9.45-9-9.45s-9 4.226-9 9.45z"/>
        <g transform="translate(50 48)">
            <mask id="bH" fill="#fff">
                <use xlink:href="#bG"/>
            </mask>
            <path fill="#FFF" d="M-4.574 12.658H11.67V-4.72H-4.574z" mask="url(#bH)"/>
        </g>
        <g transform="translate(21 42)">
            <mask id="bJ" fill="#fff">
                <use xlink:href="#bI"/>
            </mask>
            <path fill="#00CCAE" d="M-4.253 31.377h26.799V-4.83H-4.253z" mask="url(#bJ)"/>
        </g>
        <path stroke="#FFF" stroke-width=".778" d="M21 51.45C21 58.538 30 69 30 69s9-10.462 9-17.55c0-5.224-4.024-9.45-9-9.45s-9 4.226-9 9.45z"/>
        <g transform="translate(26 48)">
            <mask id="bL" fill="#fff">
                <use xlink:href="#bK"/>
            </mask>
            <path fill="#FFF" d="M-4.439 12.658H12.75V-4.72H-4.44z" mask="url(#bL)"/>
        </g>
        <g transform="translate(73 30)">
            <mask id="bN" fill="#fff">
                <use xlink:href="#bM"/>
            </mask>
            <path fill="#00CCAE" d="M-4.21 31.419H22.59V-4.79H-4.21z" mask="url(#bN)"/>
        </g>
        <path stroke="#FFF" stroke-width=".778" d="M74 39.45C74 46.538 83 57 83 57s9-10.462 9-17.55c0-5.225-4.025-9.45-9-9.45s-9 4.225-9 9.45z"/>
        <g transform="translate(80 36)">
            <mask id="bP" fill="#fff">
                <use xlink:href="#bO"/>
            </mask>
            <path fill="#FFF" d="M-4.698 12.71h16.241V-4.668H-4.698z" mask="url(#bP)"/>
        </g>
        <g transform="translate(99 50)">
            <mask id="bR" fill="#fff">
                <use xlink:href="#bQ"/>
            </mask>
            <path fill="#00CCAE" d="M-4.57 31.316h26.798V-4.72H-4.57z" mask="url(#bR)"/>
        </g>
        <path stroke="#FFF" stroke-width=".778" d="M99 58.45c0 7.088 9 17.55 9 17.55s9-10.462 9-17.55c0-5.225-4.024-9.45-9-9.45s-9 4.225-9 9.45z"/>
        <g transform="translate(105 56)">
            <mask id="bT" fill="#fff">
                <use xlink:href="#bS"/>
            </mask>
            <path fill="#FFF" d="M-4.525 12.622h16.243V-4.756H-4.525z" mask="url(#bT)"/>
        </g>
        <g transform="translate(31 84)">
            <mask id="bV" fill="#fff">
                <use xlink:href="#bU"/>
            </mask>
            <path fill="#00CCAE" d="M-4.292 31.244h26.799V-4.223H-4.292z" mask="url(#bV)"/>
        </g>
        <path stroke="#FFF" stroke-width=".778" d="M31.5 94.1c0 6.825 8.5 16.9 8.5 16.9s8.5-10.075 8.5-16.9c0-5.032-3.8-9.1-8.5-9.1s-8.5 4.068-8.5 9.1z"/>
        <g transform="translate(35 89)">
            <mask id="bX" fill="#fff">
                <use xlink:href="#bW"/>
            </mask>
            <path fill="#FFF" d="M-4.481 12.618h17.186V-4.76H-4.48z" mask="url(#bX)"/>
        </g>
        <g transform="translate(95 87)">
            <mask id="bZ" fill="#fff">
                <use xlink:href="#bY"/>
            </mask>
            <path fill="#00CCAE" d="M-4.287 31.466h26.799V-4.742H-4.287z" mask="url(#bZ)"/>
        </g>
        <path stroke="#FFF" stroke-width=".778" d="M95 96.45c0 7.088 9 17.55 9 17.55s9-10.462 9-17.55c0-5.225-4.025-9.45-9-9.45s-9 4.225-9 9.45z"/>
        <g transform="translate(100 92)">
            <mask id="cb" fill="#fff">
                <use xlink:href="#ca"/>
            </mask>
            <path fill="#FFF" d="M-4.476 12.751h17.189V-4.625H-4.476z" mask="url(#cb)"/>
        </g>
        <g transform="translate(60 74)">
            <mask id="cd" fill="#fff">
                <use xlink:href="#cc"/>
            </mask>
            <path fill="#00CCAE" d="M-4.412 31.381h26.799V-4.827H-4.412z" mask="url(#cd)"/>
        </g>
        <path stroke="#FFF" stroke-width=".778" d="M60 83.45c0 7.088 9 17.55 9 17.55s9-10.462 9-17.55c0-5.224-4.024-9.45-9-9.45s-9 4.226-9 9.45z"/>
        <g transform="translate(65 79)">
            <mask id="cf" fill="#fff">
                <use xlink:href="#ce"/>
            </mask>
            <path fill="#FFF" d="M-4.613 12.66h17.188V-4.716H-4.613z" mask="url(#cf)"/>
        </g>
        <g transform="translate(5 46)">
            <mask id="ch" fill="#fff">
                <use xlink:href="#cg"/>
            </mask>
            <path fill="#00CCAE" d="M-4.024 31.632h26.619V-4.576h-26.62z" mask="url(#ch)"/>
        </g>
        <path stroke="#FFF" stroke-width=".778" d="M5 55.45C5 62.538 14 73 14 73s9-10.462 9-17.55c0-5.224-4.025-9.45-9-9.45s-9 4.226-9 9.45z"/>
        <g transform="translate(10 52)">
            <mask id="cj" fill="#fff">
                <use xlink:href="#ci"/>
            </mask>
            <path fill="#FFF" d="M-5.025 11.665h16.918V-4.757H-5.025z" mask="url(#cj)"/>
        </g>
        <g transform="translate(18 59)">
            <mask id="cl" fill="#fff">
                <use xlink:href="#ck"/>
            </mask>
            <path fill="#00CCAE" d="M-4.634 31.717h26.62V-4.491h-26.62z" mask="url(#cl)"/>
        </g>
        <path stroke="#FFF" stroke-width=".778" d="M18 68.1c0 6.825 8.5 16.9 8.5 16.9S35 74.925 35 68.1c0-5.032-3.802-9.1-8.5-9.1-4.7 0-8.5 4.068-8.5 9.1z"/>
        <g transform="translate(23 64)">
            <mask id="cn" fill="#fff">
                <use xlink:href="#cm"/>
            </mask>
            <path fill="#FFF" d="M-4.935 11.752h16.92V-4.67h-16.92z" mask="url(#cn)"/>
        </g>
        <g transform="translate(1 67)">
            <mask id="cp" fill="#fff">
                <use xlink:href="#co"/>
            </mask>
            <path fill="#00CCAE" d="M-4.174 31.55h26.799V-4.658H-4.174z" mask="url(#cp)"/>
        </g>
        <path stroke="#FFF" stroke-width=".778" d="M1 76.45C1 83.538 10 94 10 94s9-10.462 9-17.55c0-5.225-4.024-9.45-9-9.45s-9 4.225-9 9.45z"/>
        <g transform="translate(8 73)">
            <mask id="cr" fill="#fff">
                <use xlink:href="#cq"/>
            </mask>
            <path fill="#FFF" d="M-4.888 12.839h16.544V-4.538H-4.888z" mask="url(#cr)"/>
        </g>
        <g transform="translate(18 77)">
            <mask id="ct" fill="#fff">
                <use xlink:href="#cs"/>
            </mask>
            <path fill="#00CCAE" d="M-4.634 31.51h26.62V-4.7h-26.62z" mask="url(#ct)"/>
        </g>
        <path stroke="#FFF" stroke-width=".778" d="M18 86.1c0 6.824 8.5 16.9 8.5 16.9S35 92.924 35 86.1c0-5.03-3.802-9.1-8.5-9.1-4.7 0-8.5 4.07-8.5 9.1z"/>
        <g transform="translate(23 83)">
            <mask id="cv" fill="#fff">
                <use xlink:href="#cu"/>
            </mask>
            <path fill="#FFF" d="M-4.935 12.796h16.92V-4.582h-16.92z" mask="url(#cv)"/>
        </g>
        <g transform="translate(80 61)">
            <mask id="cx" fill="#fff">
                <use xlink:href="#cw"/>
            </mask>
            <path fill="#00CCAE" d="M-4.49 31.843h26.798V-4.365H-4.491z" mask="url(#cx)"/>
        </g>
        <path stroke="#FFF" stroke-width=".778" d="M80 70.45C80 77.538 89 88 89 88s9-10.462 9-17.55c0-5.224-4.024-9.45-9-9.45s-9 4.226-9 9.45z"/>
        <g transform="translate(85 66)">
            <mask id="cz" fill="#fff">
                <use xlink:href="#cy"/>
            </mask>
            <path fill="#FFF" d="M-4.442 11.879H11.8V-4.543H-4.442z" mask="url(#cz)"/>
        </g>
        <g transform="translate(5 87)">
            <mask id="cB" fill="#fff">
                <use xlink:href="#cA"/>
            </mask>
            <path fill="#00CCAE" d="M-4.024 31.466h26.619V-4.742h-26.62z" mask="url(#cB)"/>
        </g>
        <path stroke="#FFF" stroke-width=".778" d="M5 96.45c0 7.088 9 17.55 9 17.55s9-10.462 9-17.55c0-5.225-4.025-9.45-9-9.45s-9 4.225-9 9.45z"/>
        <g transform="translate(10 92)">
            <mask id="cD" fill="#fff">
                <use xlink:href="#cC"/>
            </mask>
            <path fill="#FFF" d="M-5.025 12.751h16.918V-4.625H-5.025z" mask="url(#cD)"/>
        </g>
        <g transform="translate(151 124)">
            <mask id="cF" fill="#fff">
                <use xlink:href="#cE"/>
            </mask>
            <path fill="#00CCAE" d="M-4.787 31.281h27.605V-4.753H-4.787z" mask="url(#cF)"/>
        </g>
        <path stroke="#FFF" stroke-width=".778" d="M151 133.45c0 7.088 9 17.55 9 17.55s9-10.462 9-17.55c0-5.224-4.024-9.45-9-9.45s-9 4.226-9 9.45z"/>
        <g transform="translate(157 130)">
            <mask id="cH" fill="#fff">
                <use xlink:href="#cG"/>
            </mask>
            <path fill="#FFF" d="M-4.605 12.585h16.243V-4.793H-4.605z" mask="url(#cH)"/>
        </g>
        <g transform="translate(138 111)">
            <mask id="cJ" fill="#fff">
                <use xlink:href="#cI"/>
            </mask>
            <path fill="#00CCAE" d="M-4.204 31.09h26.798V-4.023H-4.204z" mask="url(#cJ)"/>
        </g>
        <path stroke="#FFF" stroke-width=".778" d="M138 120.45c0 7.088 9 17.55 9 17.55s9-10.462 9-17.55c0-5.224-4.024-9.45-9-9.45s-9 4.226-9 9.45z"/>
        <g transform="translate(144 117)">
            <mask id="cL" fill="#fff">
                <use xlink:href="#cK"/>
            </mask>
            <path fill="#FFF" d="M-4.691 12.495H11.55V-4.883H-4.69z" mask="url(#cL)"/>
        </g>
        <g transform="translate(138 130)">
            <mask id="cN" fill="#fff">
                <use xlink:href="#cM"/>
            </mask>
            <path fill="#00CCAE" d="M-4.204 31.826h26.798V-4.211H-4.204z" mask="url(#cN)"/>
        </g>
        <path stroke="#FFF" stroke-width=".778" d="M138 140.45c0 7.088 9 17.55 9 17.55s9-10.462 9-17.55c0-5.224-4.024-9.45-9-9.45s-9 4.226-9 9.45z"/>
        <g transform="translate(144 136)">
            <mask id="cP" fill="#fff">
                <use xlink:href="#cO"/>
            </mask>
            <path fill="#FFF" d="M-4.691 11.942H11.55V-4.784H-4.69z" mask="url(#cP)"/>
        </g>
        <g transform="translate(120 90)">
            <mask id="cR" fill="#fff">
                <use xlink:href="#cQ"/>
            </mask>
            <path fill="#00CCAE" d="M-4.12 31.045H22.68V-4.066H-4.12z" mask="url(#cR)"/>
        </g>
        <path stroke="#FFF" stroke-width=".778" d="M121 100.1c0 6.825 8.5 16.9 8.5 16.9s8.5-10.075 8.5-16.9c0-5.032-3.8-9.1-8.5-9.1s-8.5 4.068-8.5 9.1z"/>
        <g transform="translate(126 94)">
            <mask id="cT" fill="#fff">
                <use xlink:href="#cS"/>
            </mask>
            <path fill="#FFF" d="M-4.832 12.447H11.71V-4.93H-4.832z" mask="url(#cT)"/>
        </g>
        <g transform="translate(116 113)">
            <mask id="cV" fill="#fff">
                <use xlink:href="#cU"/>
            </mask>
            <path fill="#00CCAE" d="M-4.246 31.765h26.799V-4.443H-4.246z" mask="url(#cV)"/>
        </g>
        <path stroke="#FFF" stroke-width=".778" d="M116 122.45c0 7.088 9 17.55 9 17.55s9-10.462 9-17.55c0-5.224-4.025-9.45-9-9.45s-9 4.226-9 9.45z"/>
        <g transform="translate(121 118)">
            <mask id="cX" fill="#fff">
                <use xlink:href="#cW"/>
            </mask>
            <path fill="#FFF" d="M-4.735 11.8h16.242V-4.624H-4.735z" mask="url(#cX)"/>
        </g>
        <g transform="translate(120 142)">
            <mask id="cZ" fill="#fff">
                <use xlink:href="#cY"/>
            </mask>
            <path fill="#00CCAE" d="M-4.12 31.515H22.68V-4.693H-4.12z" mask="url(#cZ)"/>
        </g>
        <path stroke="#FFF" stroke-width=".778" d="M120 151.45c0 7.088 9 17.55 9 17.55s9-10.462 9-17.55c0-5.224-4.024-9.45-9-9.45s-9 4.226-9 9.45z"/>
        <g transform="translate(126 147)">
            <mask id="db" fill="#fff">
                <use xlink:href="#da"/>
            </mask>
            <path fill="#FFF" d="M-4.832 12.803H11.71V-4.575H-4.832z" mask="url(#db)"/>
        </g>
        <g transform="translate(63 110)">
            <mask id="dd" fill="#fff">
                <use xlink:href="#dc"/>
            </mask>
            <path fill="#00CCAE" d="M-4.29 31.512h26.8v-36.21h-26.8z" mask="url(#dd)"/>
        </g>
        <path stroke="#FFF" stroke-width=".778" d="M63 119.45c0 7.088 9 17.55 9 17.55s9-10.462 9-17.55c0-5.224-4.025-9.45-9-9.45s-9 4.226-9 9.45z"/>
        <g transform="translate(67 115)">
            <mask id="df" fill="#fff">
                <use xlink:href="#de"/>
            </mask>
            <path fill="#FFF" d="M-4.479 12.8h17.187V-4.578H-4.479z" mask="url(#df)"/>
        </g>
        <g transform="translate(18 96)">
            <mask id="dh" fill="#fff">
                <use xlink:href="#dg"/>
            </mask>
            <path fill="#00CCAE" d="M-4.375 31.427h26.798v-36.21H-4.375z" mask="url(#dh)"/>
        </g>
        <path stroke="#FFF" stroke-width=".778" d="M18 105.45c0 7.087 9 17.55 9 17.55s9-10.463 9-17.55c0-5.224-4.025-9.45-9-9.45s-9 4.226-9 9.45z"/>
        <g transform="translate(23 102)">
            <mask id="dj" fill="#fff">
                <use xlink:href="#di"/>
            </mask>
            <path fill="#FFF" d="M-4.573 12.708h17.186V-4.67H-4.573z" mask="url(#dj)"/>
        </g>
        <g transform="translate(31 104)">
            <mask id="dl" fill="#fff">
                <use xlink:href="#dk"/>
            </mask>
            <path fill="#00CCAE" d="M-4.292 31.384h26.799V-4.824H-4.292z" mask="url(#dl)"/>
        </g>
        <path stroke="#FFF" stroke-width=".778" d="M31 113.45c0 7.088 9 17.55 9 17.55s9-10.462 9-17.55c0-5.224-4.025-9.45-9-9.45s-9 4.226-9 9.45z"/>
        <g transform="translate(35 110)">
            <mask id="dn" fill="#fff">
                <use xlink:href="#dm"/>
            </mask>
            <path fill="#FFF" d="M-4.481 12.673h17.186V-4.705H-4.48z" mask="url(#dn)"/>
        </g>
    </g>
</svg>
