<svg xmlns="http://www.w3.org/2000/svg" width="60" height="60" viewBox="0 0 60 60">
    <g fill="none" fill-rule="evenodd">
        <path d="M0 0h60v60H0z"/>
        <path stroke="#292A2E" stroke-linecap="round" d="M9.853 42.853h40v-24h-40z"/>
        <path stroke="#292A2E" stroke-linecap="round" stroke-linejoin="round" d="M18.55 26.567a.863.863 0 0 1-.87.858.863.863 0 0 1-.87-.858c0-.474.39-.855.87-.855s.87.381.87.855zM42.897 35.14a.862.862 0 0 1-.87.856.863.863 0 0 1-.87-.856c0-.475.39-.857.87-.857s.87.382.87.857z"/>
        <path stroke="#292A2E" stroke-linecap="round" d="M46.375 35.996c0 1.895-1.558 3.43-3.479 3.43H16.81c-1.92 0-3.478-1.535-3.478-3.43V25.711c0-1.894 1.557-3.429 3.478-3.429h26.086c1.921 0 3.48 1.535 3.48 3.43v10.284z"/>
        <path stroke="#292A2E" stroke-linecap="round" stroke-linejoin="round" d="M29.853 35.996v1.715M29.853 23.996v1.715M27.245 33.425c0 1.42 1.168 2.57 2.608 2.57 1.441 0 2.609-1.15 2.609-2.57s-1.168-2.571-2.609-2.571c-1.44 0-2.608-1.153-2.608-2.572 0-1.42 1.168-2.571 2.608-2.571 1.441 0 2.609 1.15 2.609 2.57"/>
        <path stroke="#1F1FFF" d="M52.353 8.354l-45 45"/>
    </g>
</svg>
