<svg width="26" height="22" viewBox="0 0 26 22" fill="none" xmlns="http://www.w3.org/2000/svg">
<path d="M5 6.4001C5 6.18792 5.08429 5.98444 5.23431 5.83441C5.38434 5.68438 5.58783 5.6001 5.8 5.6001H17C17.2122 5.6001 17.4157 5.68438 17.5657 5.83441C17.7157 5.98444 17.8 6.18792 17.8 6.4001C17.8 6.61227 17.7157 6.81575 17.5657 6.96578C17.4157 7.11581 17.2122 7.2001 17 7.2001H5.8C5.58783 7.2001 5.38434 7.11581 5.23431 6.96578C5.08429 6.81575 5 6.61227 5 6.4001Z" fill="#000072"/>
<path d="M13.8 10.4C13.5878 10.4 13.3843 10.4843 13.2343 10.6343C13.0843 10.7844 13 10.9879 13 11.2C13 11.4122 13.0843 11.6157 13.2343 11.7657C13.3843 11.9157 13.5878 12 13.8 12H17C17.2122 12 17.4157 11.9157 17.5657 11.7657C17.7157 11.6157 17.8 11.4122 17.8 11.2C17.8 10.9879 17.7157 10.7844 17.5657 10.6343C17.4157 10.4843 17.2122 10.4 17 10.4H13.8Z" fill="#000072"/>
<path d="M13 16.0001C13 15.7879 13.0843 15.5844 13.2343 15.4344C13.3843 15.2844 13.5878 15.2001 13.8 15.2001H17C17.2122 15.2001 17.4157 15.2844 17.5657 15.4344C17.7157 15.5844 17.8 15.7879 17.8 16.0001C17.8 16.2122 17.7157 16.4157 17.5657 16.5658C17.4157 16.7158 17.2122 16.8001 17 16.8001H13.8C13.5878 16.8001 13.3843 16.7158 13.2343 16.5658C13.0843 16.4157 13 16.2122 13 16.0001Z" fill="#000072"/>
<path d="M5.8 10.4C5.58783 10.4 5.38434 10.4843 5.23431 10.6343C5.08429 10.7844 5 10.9879 5 11.2V16C5 16.2122 5.08429 16.4157 5.23431 16.5657C5.38434 16.7157 5.58783 16.8 5.8 16.8H10.6C10.8122 16.8 11.0157 16.7157 11.1657 16.5657C11.3157 16.4157 11.4 16.2122 11.4 16V11.2C11.4 10.9879 11.3157 10.7844 11.1657 10.6343C11.0157 10.4843 10.8122 10.4 10.6 10.4H5.8ZM6.6 15.2V12H9.8V15.2H6.6Z" fill="#000072"/>
<path d="M0.199951 4.00005C0.199951 3.15136 0.537093 2.33742 1.13721 1.73731C1.73733 1.13719 2.55126 0.800049 3.39995 0.800049H19.4C20.2486 0.800049 21.0626 1.13719 21.6627 1.73731C22.2628 2.33742 22.5999 3.15136 22.5999 4.00005V5.60005C23.4486 5.60005 24.2626 5.93719 24.8627 6.53731C25.4628 7.13742 25.7999 7.95136 25.7999 8.80005V17.6C25.7999 18.6609 25.3785 19.6783 24.6284 20.4285C23.8782 21.1786 22.8608 21.6 21.7999 21.6H4.19995C3.13909 21.6 2.12167 21.1786 1.37152 20.4285C0.621378 19.6783 0.199951 18.6609 0.199951 17.6V4.00005ZM21 4.00005C21 3.5757 20.8314 3.16874 20.5313 2.86868C20.2313 2.56862 19.8243 2.40005 19.4 2.40005H3.39995C2.9756 2.40005 2.56864 2.56862 2.26858 2.86868C1.96852 3.16874 1.79995 3.5757 1.79995 4.00005V17.6C1.79995 18.2366 2.05281 18.847 2.50289 19.2971C2.95298 19.7472 3.56343 20 4.19995 20H21.7999C22.4365 20 23.0469 19.7472 23.497 19.2971C23.9471 18.847 24.1999 18.2366 24.1999 17.6V8.80005C24.1999 8.3757 24.0314 7.96874 23.7313 7.66868C23.4313 7.36862 23.0243 7.20005 22.5999 7.20005V17.6C22.5999 17.8122 22.5157 18.0157 22.3656 18.1657C22.2156 18.3158 22.0121 18.4 21.7999 18.4C21.5878 18.4 21.3843 18.3158 21.2343 18.1657C21.0842 18.0157 21 17.8122 21 17.6V4.00005Z" fill="#000072"/>
</svg>
