<svg xmlns="http://www.w3.org/2000/svg" width="49" height="50" viewBox="0 0 49 50">
    <g fill="none" fill-rule="evenodd">
        <path fill="#1F1FFF" d="M22.64 20.772h-.755v-1.9h.955c.373 0 .666.079.878.235.213.156.32.392.32.707 0 .638-.467.958-1.399.958zm7.436 7.855l-2.195-2.735 1.989-2.646h.913v-1.373h-3.231v1.297h.506l-1.142 1.513-2.319-2.846.273-.036c.977-.425 1.466-1.099 1.466-2.023 0-.587-.212-1.114-.636-1.58-.423-.465-1.115-.698-2.076-.698h-4.84v1.373h.901v5.381h-.902v1.373h3.9v-1.373h-.798V22.07h.458l.946 1.177h-.009l2.062 2.582-2.062 2.8h-.986V30h3.384v-1.32h-.61l1.258-1.666 1.325 1.665h-.585V30h3.967v-1.373h-.957z"/>
        <g fill="#292A2E">
            <path fill-rule="nonzero" d="M24.296 44.627c9.876 0 18.1-7.642 19.092-17.571l.028-.305.035-.415-.813-.072-.035.416c-.817 9.646-8.755 17.114-18.307 17.114-9.457 0-17.331-7.32-18.28-16.828l-.027-.3-.035-.416-.813.071.035.415c.846 10.084 9.139 17.89 19.12 17.89z"/>
            <path d="M46.346 29.168l-.611.624-2.86-2.838-2.86 2.838-.611-.624 3.471-3.542z"/>
        </g>
        <g fill="#292A2E">
            <path fill-rule="nonzero" d="M24.57 5.373c-9.876 0-18.1 7.642-19.092 17.571l-.028.305-.036.415.814.072.035-.416C7.08 13.674 15.018 6.206 24.57 6.206c9.457 0 17.332 7.32 18.28 16.828l.027.3.035.416.814-.071-.035-.415c-.846-10.084-9.14-17.89-19.12-17.89z"/>
            <path d="M2.52 20.832l.611-.624 2.86 2.838 2.86-2.838.611.624-3.471 3.542z"/>
        </g>
    </g>
</svg>
