<svg xmlns="http://www.w3.org/2000/svg" width="64" height="64"><g fill="none" fill-rule="evenodd"><path fill="#D0021B" d="M32 1c-7.913 0-15.828 3.012-21.878 9.038-12.13 12.083-12.167 31.71-.084 43.84C16.096 59.958 24.047 63 32 63c7.913 0 15.828-3.011 21.877-9.038 12.13-12.083 12.168-31.71.085-43.84C47.905 4.043 39.953 1 32 1m0 2c7.768 0 15.063 3.03 20.546 8.534 5.467 5.488 8.47 12.776 8.454 20.522-.015 7.746-3.045 15.023-8.533 20.489C46.993 57.998 39.726 61 32 61c-7.768 0-15.064-3.031-20.546-8.534C5.988 46.979 2.985 39.69 3 31.944c.016-7.745 3.046-15.022 8.534-20.49C17.007 6.004 24.274 3 32 3"/><path stroke="#D0021B" stroke-linecap="round" stroke-linejoin="round" stroke-width="2" d="M19.857 20.23L43.77 44.143m.21-24.076L19.856 44.143"/></g></svg>