<svg width="60" height="60" fill="none" xmlns="http://www.w3.org/2000/svg">
    <path fill-rule="evenodd" clip-rule="evenodd" d="M41.096 27.398h-8.494v-8.494c0-4.684 3.81-8.493 8.494-8.493 4.683 0 8.494 3.809 8.494 8.493 0 4.683-3.81 8.494-8.494 8.494zM40.626.006C30.48.253 22.193 9.143 22.193 19.292v8.106H3.92A3.92 3.92 0 0 0 0 31.318v2.57a3.92 3.92 0 0 0 3.92 3.92h18.273V56.08a3.92 3.92 0 0 0 3.92 3.92h2.57a3.92 3.92 0 0 0 3.92-3.92V37.808h8.105c10.148 0 19.038-8.288 19.286-18.434C60.257 8.58 51.421-.258 40.626.006z" fill="#00CCAE"/>
    <path opacity=".2" fill-rule="evenodd" clip-rule="evenodd" d="M22.198 37.796h10.4v2.794h-10.4v-2.794z" fill="#000"/>
</svg>
