<svg xmlns="http://www.w3.org/2000/svg" width="197" height="15" viewBox="0 0 197 15">
    <g fill="none" fill-rule="evenodd">
        <g fill="#000072" fill-rule="nonzero">
            <g>
                <g>
                    <g>
                        <g>
                            <g>
                                <path d="M.76 11.64V5.624c.288-.459.616-.817.984-1.076.368-.259.768-.388 1.2-.388.592 0 1.043.205 1.352.616.31.41.464 1.003.464 1.776v5.088h.76V6.552c0-.395.057-.741.172-1.04.115-.299.27-.548.464-.748.195-.2.419-.35.672-.452.253-.101.519-.152.796-.152.624 0 1.104.204 1.44.612.336.408.504 1.001.504 1.78v5.088h.768V6.552c0-.48-.059-.907-.176-1.28-.117-.373-.287-.688-.508-.944-.221-.256-.49-.45-.804-.58-.315-.13-.67-.196-1.064-.196-.277 0-.548.039-.812.116-.264.077-.508.195-.732.352-.224.157-.423.356-.596.596s-.308.525-.404.856c-.123-.603-.357-1.073-.704-1.412-.347-.339-.81-.508-1.392-.508-.25 0-.49.036-.716.108-.227.072-.44.173-.64.304-.2.13-.388.287-.564.468-.176.181-.341.381-.496.6L.656 3.88c-.021-.133-.101-.2-.24-.2H0v7.96h.76zm13.656.128c.325 0 .624-.03.896-.092.272-.061.525-.15.76-.268.235-.117.46-.261.676-.432.216-.17.433-.363.652-.576l.112 1.016c.037.15.136.224.296.224h.304V6.456c0-.443-.053-.844-.16-1.204-.107-.36-.265-.667-.476-.92-.21-.253-.476-.448-.796-.584-.32-.136-.693-.204-1.12-.204-.581 0-1.101.107-1.56.32-.459.213-.896.528-1.312.944l.136.232c.053.096.133.144.24.144.08 0 .179-.053.296-.16.117-.107.27-.224.456-.352.187-.128.415-.245.684-.352.27-.107.596-.16.98-.16.624 0 1.095.199 1.412.596.317.397.476.964.476 1.7v.832c-.901.021-1.673.096-2.316.224-.643.128-1.168.299-1.576.512-.408.213-.708.464-.9.752-.192.288-.288.6-.288.936 0 .363.06.673.18.932s.279.47.476.636c.197.165.424.288.68.368.256.08.52.12.792.12zm.192-.552c-.208 0-.408-.03-.6-.088-.192-.059-.36-.15-.504-.276-.144-.125-.26-.285-.348-.48-.088-.195-.132-.425-.132-.692 0-.283.084-.535.252-.756.168-.221.43-.412.784-.572.355-.16.805-.287 1.352-.38.547-.093 1.199-.15 1.956-.172v2.072c-.187.192-.376.37-.568.536-.192.165-.399.308-.62.428-.221.12-.461.213-.72.28-.259.067-.543.1-.852.1zm6.664.424V5.672c.352-.47.752-.839 1.2-1.108.448-.27.933-.404 1.456-.404.704 0 1.227.212 1.568.636.341.424.512 1.01.512 1.756v5.088h.76V6.552c0-.464-.056-.88-.168-1.248-.112-.368-.277-.683-.496-.944-.219-.261-.495-.461-.828-.6-.333-.139-.719-.208-1.156-.208-.592 0-1.13.14-1.612.42-.483.28-.905.65-1.268 1.108l-.072-1.2c-.021-.133-.101-.2-.24-.2h-.416v7.96h.76zm10.344.128c.592 0 1.13-.139 1.612-.416.483-.277.908-.645 1.276-1.104l.072 1.184c.005.139.083.208.232.208h.424V3.68h-.768v5.984c-.357.47-.76.836-1.208 1.1-.448.264-.93.396-1.448.396-.699 0-1.219-.212-1.56-.636-.341-.424-.512-1.01-.512-1.756V3.68h-.768v5.088c0 .464.056.88.168 1.248.112.368.277.683.496.944.219.261.493.461.824.6.33.139.717.208 1.16.208zm7.264-.128V4.496h2.568v-.568h-2.584v-.984c0-.4.044-.737.132-1.012.088-.275.212-.497.372-.668.16-.17.35-.295.572-.372.221-.077.463-.116.724-.116.16 0 .295.008.404.024.11.016.196.024.26.024.096 0 .147-.037.152-.112l.024-.368c-.128-.053-.276-.095-.444-.124-.168-.03-.335-.044-.5-.044-.363 0-.695.057-.996.172-.301.115-.559.287-.772.516-.213.23-.379.516-.496.86-.117.344-.176.743-.176 1.196v1.008h-1.352v.312c0 .123.077.19.232.2l1.12.072v7.128h.76zm5.784.128c.325 0 .624-.03.896-.092.272-.061.525-.15.76-.268.235-.117.46-.261.676-.432.216-.17.433-.363.652-.576l.112 1.016c.037.15.136.224.296.224h.304V6.456c0-.443-.053-.844-.16-1.204-.107-.36-.265-.667-.476-.92-.21-.253-.476-.448-.796-.584-.32-.136-.693-.204-1.12-.204-.581 0-1.101.107-1.56.32-.459.213-.896.528-1.312.944l.136.232c.053.096.133.144.24.144.08 0 .179-.053.296-.16.117-.107.27-.224.456-.352.187-.128.415-.245.684-.352.27-.107.596-.16.98-.16.624 0 1.095.199 1.412.596.317.397.476.964.476 1.7v.832c-.901.021-1.673.096-2.316.224-.643.128-1.168.299-1.576.512-.408.213-.708.464-.9.752-.192.288-.288.6-.288.936 0 .363.06.673.18.932s.279.47.476.636c.197.165.424.288.68.368.256.08.52.12.792.12zm.192-.552c-.208 0-.408-.03-.6-.088-.192-.059-.36-.15-.504-.276-.144-.125-.26-.285-.348-.48-.088-.195-.132-.425-.132-.692 0-.283.084-.535.252-.756.168-.221.43-.412.784-.572.355-.16.805-.287 1.352-.38.547-.093 1.199-.15 1.956-.172v2.072c-.187.192-.376.37-.568.536-.192.165-.399.308-.62.428-.221.12-.461.213-.72.28-.259.067-.543.1-.852.1zm8.736.528c.299 0 .585-.028.86-.084.275-.056.53-.135.764-.236.235-.101.445-.221.632-.36.187-.139.341-.288.464-.448l-.208-.256c-.037-.053-.09-.08-.16-.08-.059 0-.137.045-.236.136-.099.09-.232.19-.4.296-.168.107-.381.205-.64.296-.259.09-.58.136-.964.136-.416 0-.795-.077-1.136-.232-.341-.155-.632-.38-.872-.676-.24-.296-.425-.66-.556-1.092-.13-.432-.196-.928-.196-1.488 0-.539.064-1.024.192-1.456.128-.432.313-.8.556-1.104.243-.304.541-.537.896-.7.355-.163.761-.244 1.22-.244.33 0 .612.036.844.108.232.072.425.15.58.236.155.085.279.164.372.236.093.072.167.108.22.108.043 0 .076-.01.1-.028.024-.019.05-.041.076-.068l.2-.272c-.299-.283-.65-.507-1.052-.672-.403-.165-.863-.248-1.38-.248-.576 0-1.087.1-1.532.3-.445.2-.821.481-1.128.844-.307.363-.54.795-.7 1.296-.16.501-.24 1.056-.24 1.664 0 .645.084 1.221.252 1.728.168.507.403.935.704 1.284.301.35.661.616 1.08.8.419.184.881.276 1.388.276zm6.624.024c.336 0 .66-.068.972-.204.312-.136.57-.316.772-.54l-.208-.336c-.043-.053-.085-.08-.128-.08-.037 0-.088.028-.152.084-.064.056-.147.117-.248.184-.101.067-.221.128-.36.184-.139.056-.304.084-.496.084-.155 0-.299-.024-.432-.072-.133-.048-.25-.123-.348-.224-.099-.101-.176-.23-.232-.388-.056-.157-.084-.345-.084-.564v-5.4h2.504v-.568h-2.504V.888h-.36c-.059 0-.105.019-.14.056-.035.037-.055.08-.06.128L58.52 3.92l-1.36.096v.296c0 .059.019.104.056.136.037.032.085.048.144.048h1.144v5.44c0 .624.15 1.085.452 1.384.301.299.721.448 1.26.448zm5.976 0c.592 0 1.13-.139 1.612-.416.483-.277.908-.645 1.276-1.104l.072 1.184c.005.139.083.208.232.208h.424V3.68h-.768v5.984c-.357.47-.76.836-1.208 1.1-.448.264-.93.396-1.448.396-.699 0-1.219-.212-1.56-.636-.341-.424-.512-1.01-.512-1.756V3.68h-.768v5.088c0 .464.056.88.168 1.248.112.368.277.683.496.944.219.261.493.461.824.6.33.139.717.208 1.16.208zm6.968-.128V6.464c.24-.704.553-1.243.94-1.616.387-.373.881-.56 1.484-.56.165 0 .312.01.44.032.128.021.236.045.324.072.088.027.161.05.22.072.059.021.104.032.136.032.09 0 .144-.043.16-.128l.104-.528c-.181-.096-.373-.17-.576-.22-.203-.05-.424-.076-.664-.076-.624 0-1.15.183-1.576.548-.427.365-.768.87-1.024 1.516l-.064-1.68c-.005-.09-.028-.155-.068-.192-.04-.037-.105-.056-.196-.056h-.4v7.96h.76zm8.64.104c.299 0 .596-.03.892-.088.296-.059.573-.137.832-.236.259-.099.493-.217.704-.356.21-.139.38-.288.508-.448l-.208-.256c-.037-.053-.09-.08-.16-.08-.053 0-.139.044-.256.132-.117.088-.276.187-.476.296-.2.11-.447.208-.74.296s-.64.132-1.04.132c-.448 0-.853-.077-1.216-.232-.363-.155-.672-.385-.928-.692-.256-.307-.453-.687-.592-1.14-.139-.453-.208-.979-.208-1.576v-.152h5.752c.075 0 .13-.021.164-.064.035-.043.052-.123.052-.24 0-.56-.079-1.056-.236-1.488-.157-.432-.376-.796-.656-1.092-.28-.296-.61-.521-.992-.676-.381-.155-.796-.232-1.244-.232-.565 0-1.07.099-1.516.296-.445.197-.821.47-1.128.82-.307.35-.541.765-.704 1.248-.163.483-.244 1.01-.244 1.58 0 .677.087 1.279.26 1.804.173.525.42.97.74 1.332.32.363.704.639 1.152.828.448.19.944.284 1.488.284zm2.392-4.888h-5.248c.048-.416.145-.792.292-1.128.147-.336.339-.624.576-.864.237-.24.519-.424.844-.552.325-.128.693-.192 1.104-.192.363 0 .693.063.992.188.299.125.555.305.768.54.213.235.379.521.496.86.117.339.176.721.176 1.148zm3.496 4.784V6.464c.24-.704.553-1.243.94-1.616.387-.373.881-.56 1.484-.56.165 0 .312.01.44.032.128.021.236.045.324.072.088.027.161.05.22.072.059.021.104.032.136.032.09 0 .144-.043.16-.128l.104-.528c-.181-.096-.373-.17-.576-.22-.203-.05-.424-.076-.664-.076-.624 0-1.15.183-1.576.548-.427.365-.768.87-1.024 1.516l-.064-1.68c-.005-.09-.028-.155-.068-.192-.04-.037-.105-.056-.196-.056h-.4v7.96h.76zm6.2-10.008c.096 0 .187-.019.272-.056.085-.037.16-.088.224-.152s.116-.137.156-.22c.04-.083.06-.172.06-.268 0-.096-.02-.188-.06-.276-.04-.088-.092-.164-.156-.228S94.245.317 94.16.28c-.085-.037-.176-.056-.272-.056-.096 0-.187.019-.272.056-.085.037-.16.088-.224.152s-.115.14-.152.228c-.037.088-.056.18-.056.276 0 .096.019.185.056.268.037.083.088.156.152.22s.139.115.224.152c.085.037.176.056.272.056zm.376 10.008V3.68h-.76v7.96h.76zm3.576 0V5.672c.352-.47.752-.839 1.2-1.108.448-.27.933-.404 1.456-.404.704 0 1.227.212 1.568.636.341.424.512 1.01.512 1.756v5.088h.76V6.552c0-.464-.056-.88-.168-1.248-.112-.368-.277-.683-.496-.944-.219-.261-.495-.461-.828-.6-.333-.139-.719-.208-1.156-.208-.592 0-1.13.14-1.612.42-.483.28-.905.65-1.268 1.108l-.072-1.2c-.021-.133-.101-.2-.24-.2h-.416v7.96h.76zm13.96 2.816V3.68h-.424c-.15 0-.227.067-.232.2l-.072.896c-.288-.405-.633-.712-1.036-.92-.403-.208-.879-.312-1.428-.312-.56 0-1.055.107-1.484.32-.43.213-.792.505-1.088.876-.296.37-.52.808-.672 1.312-.152.504-.228 1.047-.228 1.628 0 1.355.273 2.37.82 3.048.547.677 1.308 1.016 2.284 1.016.576 0 1.097-.136 1.564-.408.467-.272.876-.643 1.228-1.112v4.232h.768zm-3.344-3.328c-.816 0-1.443-.279-1.88-.836-.437-.557-.656-1.428-.656-2.612 0-.523.06-1.001.18-1.436.12-.435.299-.808.536-1.12.237-.312.532-.553.884-.724.352-.17.763-.256 1.232-.256.475 0 .901.096 1.28.288.379.192.712.507 1 .944v4.208c-.336.485-.717.864-1.144 1.136-.427.272-.904.408-1.432.408zm8.464.64c.592 0 1.13-.139 1.612-.416.483-.277.908-.645 1.276-1.104l.072 1.184c.005.139.083.208.232.208h.424V3.68h-.768v5.984c-.357.47-.76.836-1.208 1.1-.448.264-.93.396-1.448.396-.699 0-1.219-.212-1.56-.636-.341-.424-.512-1.01-.512-1.756V3.68h-.768v5.088c0 .464.056.88.168 1.248.112.368.277.683.496.944.219.261.493.461.824.6.33.139.717.208 1.16.208zm6.816-10.136c.096 0 .187-.019.272-.056.085-.037.16-.088.224-.152s.116-.137.156-.22c.04-.083.06-.172.06-.268 0-.096-.02-.188-.06-.276-.04-.088-.092-.164-.156-.228s-.139-.115-.224-.152c-.085-.037-.176-.056-.272-.056-.096 0-.187.019-.272.056-.085.037-.16.088-.224.152s-.115.14-.152.228c-.037.088-.056.18-.056.276 0 .096.019.185.056.268.037.083.088.156.152.22s.139.115.224.152c.085.037.176.056.272.056zm.376 10.008V3.68h-.76v7.96h.76zm3.576 0V6.464c.24-.704.553-1.243.94-1.616.387-.373.881-.56 1.484-.56.165 0 .312.01.44.032.128.021.236.045.324.072.088.027.161.05.22.072.059.021.104.032.136.032.09 0 .144-.043.16-.128l.104-.528c-.181-.096-.373-.17-.576-.22-.203-.05-.424-.076-.664-.076-.624 0-1.15.183-1.576.548-.427.365-.768.87-1.024 1.516l-.064-1.68c-.005-.09-.028-.155-.068-.192-.04-.037-.105-.056-.196-.056h-.4v7.96h.76zm6.984 2.816c.096 0 .17-.024.22-.072.05-.048.092-.11.124-.184l4.576-10.52h-.584c-.059 0-.112.017-.16.052-.048.035-.085.081-.112.14l-2.648 6.192c-.032.08-.063.161-.092.244-.03.083-.057.167-.084.252-.021-.085-.044-.17-.068-.252-.024-.083-.052-.164-.084-.244l-2.68-6.192c-.021-.048-.055-.092-.1-.132-.045-.04-.108-.06-.188-.06h-.632l3.368 7.664-1.4 3.112h.544zm12.248-.912c.875 0 1.67-.107 2.388-.32.717-.213 1.375-.517 1.972-.912l-.12-.296c-.032-.075-.085-.112-.16-.112-.053 0-.099.013-.136.04-.533.347-1.127.61-1.78.792-.653.181-1.375.272-2.164.272-.779 0-1.513-.124-2.204-.372-.69-.248-1.295-.613-1.812-1.096-.517-.483-.927-1.083-1.228-1.8-.301-.717-.452-1.548-.452-2.492 0-.837.145-1.607.436-2.308.29-.701.683-1.305 1.176-1.812.493-.507 1.067-.901 1.72-1.184.653-.283 1.345-.424 2.076-.424.667 0 1.296.096 1.888.288.592.192 1.11.483 1.556.872.445.39.797.879 1.056 1.468.259.59.388 1.279.388 2.068 0 .523-.063.995-.188 1.416-.125.421-.295.78-.508 1.076-.213.296-.459.524-.736.684-.277.16-.568.24-.872.24-.139 0-.272-.015-.4-.044-.128-.03-.241-.087-.34-.172-.099-.085-.177-.201-.236-.348-.059-.147-.088-.337-.088-.572 0-.155.015-.33.044-.524.03-.195.076-.415.14-.66l.728-2.776c-.197-.09-.42-.16-.668-.208-.248-.048-.513-.072-.796-.072-.619 0-1.17.115-1.656.344-.485.23-.895.527-1.228.892-.333.365-.587.776-.76 1.232-.173.456-.26.91-.26 1.364 0 .283.036.547.108.792.072.245.18.459.324.64.144.181.325.324.544.428.219.104.477.156.776.156.437 0 .844-.11 1.22-.332.376-.221.713-.58 1.012-1.076.01.464.135.82.372 1.068.237.248.59.372 1.06.372.41 0 .797-.096 1.16-.288.363-.192.679-.46.948-.804.27-.344.481-.756.636-1.236.155-.48.232-1.01.232-1.592 0-.859-.15-1.613-.452-2.264-.301-.65-.704-1.196-1.208-1.636-.504-.44-1.084-.77-1.74-.992-.656-.221-1.341-.332-2.056-.332-.827 0-1.603.159-2.328.476-.725.317-1.36.756-1.904 1.316-.544.56-.973 1.221-1.288 1.984-.315.763-.472 1.59-.472 2.48 0 1.003.163 1.895.488 2.676.325.781.77 1.44 1.336 1.976.565.536 1.23.944 1.992 1.224.763.28 1.584.42 2.464.42zm-1.328-3.968c-.213 0-.399-.039-.556-.116-.157-.077-.29-.183-.396-.316-.107-.133-.187-.292-.24-.476-.053-.184-.08-.383-.08-.596 0-.4.076-.796.228-1.188.152-.392.365-.745.64-1.06.275-.315.608-.57 1-.764.392-.195.828-.292 1.308-.292.181 0 .34.01.476.028.136.019.268.047.396.084l-.64 2.48c-.112.443-.25.807-.416 1.092-.165.285-.343.512-.532.68-.19.168-.387.284-.592.348-.205.064-.404.096-.596.096zm9.384 4.88v-3.888c.288.39.63.683 1.024.88.395.197.864.296 1.408.296.56 0 1.055-.107 1.484-.32.43-.213.79-.505 1.084-.876.293-.37.516-.808.668-1.312.152-.504.228-1.047.228-1.628 0-1.355-.272-2.37-.816-3.048-.544-.677-1.307-1.016-2.288-1.016-.587 0-1.116.141-1.588.424-.472.283-.884.664-1.236 1.144l-.072-1.232c-.005-.075-.03-.127-.072-.156-.043-.03-.099-.044-.168-.044h-.416v10.776h.76zm2.28-3.312c-.475 0-.897-.093-1.268-.28-.37-.187-.708-.51-1.012-.968V5.72c.33-.49.71-.873 1.14-1.148.43-.275.908-.412 1.436-.412.821 0 1.45.279 1.884.836.435.557.652 1.428.652 2.612 0 .523-.06 1.001-.18 1.436-.12.435-.299.808-.536 1.12-.237.312-.532.553-.884.724-.352.17-.763.256-1.232.256zm6.28.496V5.672c.352-.47.752-.839 1.2-1.108.448-.27.933-.404 1.456-.404.704 0 1.227.212 1.568.636.341.424.512 1.01.512 1.756v5.088h.76V6.552c0-.464-.056-.88-.168-1.248-.112-.368-.277-.683-.496-.944-.219-.261-.495-.461-.828-.6-.333-.139-.719-.208-1.156-.208-.587 0-1.116.135-1.588.404-.472.27-.892.63-1.26 1.084V0h-.76v11.64h.76zm8.504-10.008c.096 0 .187-.019.272-.056.085-.037.16-.088.224-.152s.116-.137.156-.22c.04-.083.06-.172.06-.268 0-.096-.02-.188-.06-.276-.04-.088-.092-.164-.156-.228s-.139-.115-.224-.152c-.085-.037-.176-.056-.272-.056-.096 0-.187.019-.272.056-.085.037-.16.088-.224.152s-.115.14-.152.228c-.037.088-.056.18-.056.276 0 .096.019.185.056.268.037.083.088.156.152.22s.139.115.224.152c.085.037.176.056.272.056zm.376 10.008V3.68h-.76v7.96h.76zm3.8 0V0h-.76v11.64h.76zm3.096.12c.101 0 .197-.019.288-.056.09-.037.17-.09.236-.156.067-.067.12-.144.16-.232.04-.088.06-.185.06-.292 0-.101-.02-.197-.06-.288-.04-.09-.093-.17-.16-.236-.067-.067-.145-.12-.236-.16-.09-.04-.187-.06-.288-.06-.107 0-.204.02-.292.06-.088.04-.165.093-.232.16s-.119.145-.156.236c-.037.09-.056.187-.056.288 0 .208.07.383.212.524.141.141.316.212.524.212zm5.328.008c.592 0 1.13-.139 1.612-.416.483-.277.908-.645 1.276-1.104l.072 1.184c.005.139.083.208.232.208h.424V3.68h-.768v5.984c-.357.47-.76.836-1.208 1.1-.448.264-.93.396-1.448.396-.699 0-1.219-.212-1.56-.636-.341-.424-.512-1.01-.512-1.756V3.68h-.768v5.088c0 .464.056.88.168 1.248.112.368.277.683.496.944.219.261.493.461.824.6.33.139.717.208 1.16.208zm8.16 0c.443 0 .837-.064 1.184-.192s.639-.301.876-.52c.237-.219.419-.477.544-.776.125-.299.188-.621.188-.968 0-.32-.064-.592-.192-.816-.128-.224-.296-.413-.504-.568-.208-.155-.444-.284-.708-.388-.264-.104-.535-.199-.812-.284-.277-.085-.548-.17-.812-.256-.264-.085-.5-.187-.708-.304-.208-.117-.376-.259-.504-.424-.128-.165-.192-.373-.192-.624 0-.203.047-.396.14-.58.093-.184.224-.345.392-.484s.37-.25.608-.332c.237-.083.5-.124.788-.124.32 0 .59.033.812.1.221.067.408.141.56.224.152.083.275.157.368.224.093.067.17.1.228.1.08 0 .139-.037.176-.112l.168-.264c-.315-.288-.66-.501-1.036-.64s-.807-.208-1.292-.208c-.405 0-.77.059-1.096.176-.325.117-.601.275-.828.472-.227.197-.401.427-.524.688-.123.261-.184.533-.184.816 0 .33.064.607.192.828.128.221.296.41.504.564.208.155.444.283.708.384.264.101.536.195.816.28.28.085.552.17.816.256.264.085.5.19.708.312.208.123.376.272.504.448s.192.397.192.664c0 .24-.044.468-.132.684-.088.216-.217.404-.388.564-.17.16-.384.287-.64.38-.256.093-.552.14-.888.14-.357 0-.657-.043-.9-.128s-.445-.177-.608-.276c-.163-.099-.295-.19-.396-.276-.101-.085-.187-.128-.256-.128-.059 0-.104.01-.136.032-.032.021-.061.053-.088.096l-.184.272c.32.288.683.521 1.088.7.405.179.888.268 1.448.268z" transform="translate(-889 -1363) translate(-231 485) translate(230.531 754) translate(728 60) translate(162 64)"/>
                            </g>
                        </g>
                    </g>
                </g>
            </g>
        </g>
    </g>
</svg>
