<svg xmlns="http://www.w3.org/2000/svg" width="60" height="60" viewBox="0 0 60 60">
    <g fill="none" fill-rule="evenodd" stroke-linejoin="round">
        <path stroke="#2A2A2E" stroke-linecap="round" d="M39.793 30.605h9.776l5.431 8.6v6.428h-5.431"/>
        <path stroke="#2A2A2E" stroke-linecap="round" d="M27.85 46l11.983-.013V24.153H27.85M15.868 29.543v16.169h5.454"/>
        <path stroke="#2A2A2E" d="M49.586 46.774c0 1.78-1.46 3.226-3.264 3.226-1.802 0-3.265-1.445-3.265-3.226 0-1.783 1.463-3.226 3.265-3.226 1.804 0 3.264 1.443 3.264 3.226zM27.85 46.774c0 1.78-1.46 3.226-3.264 3.226-1.802 0-3.264-1.445-3.264-3.226 0-1.783 1.462-3.226 3.264-3.226 1.804 0 3.264 1.443 3.264 3.226z"/>
        <path stroke="#1F1FFF" d="M24.586 16.678c0 5.276-4.455 9.678-9.793 9.678C9.455 26.356 5 21.954 5 16.678 5 11.4 9.455 7 14.793 7c5.338 0 9.793 4.4 9.793 9.678z"/>
        <path stroke="#1F1FFF" stroke-linecap="round" d="M13.718 11.288v6.452h4.34"/>
        <path stroke="#2A2A2E" stroke-linecap="round" d="M5 34l6.529.002M8.264 39l3.265.002M10.454 43l1.095.002M41 39.172h13.933M37.475 46h5.108"/>
    </g>
</svg>
