<svg xmlns="http://www.w3.org/2000/svg" width="60" height="60" viewBox="0 0 60 60">
    <g fill="none" fill-rule="nonzero">
        <path fill="#2A2A2E" d="M7 12.553v34.75c0 .271.215.491.48.491h45.65a.478.478 0 0 0 .421-.243.501.501 0 0 0 0-.496.478.478 0 0 0-.421-.243H7.96V24.634 12.553a.497.497 0 0 0-.156-.373.473.473 0 0 0-.376-.126.488.488 0 0 0-.428.499z"/>
        <path fill="#1F1FFF" d="M37.836 19.24c.275 0 .497.213.497.474v2.369a.47.47 0 0 1-.246.416.518.518 0 0 1-.501 0 .47.47 0 0 1-.247-.416v-1.214L15.484 40.407c.138.237.218.504.218.792 0 .91-.785 1.658-1.74 1.658s-1.74-.748-1.74-1.658c0-.422.167-.809.443-1.103.184-.196.469-.361.854-.496a1.774 1.774 0 0 1 1.266.14l21.863-19.552H35.35a.489.489 0 0 1-.52-.452.484.484 0 0 1 .473-.495zM13.962 40.489c-.418 0-.746.313-.746.711 0 .398.328.71.746.71s.746-.312.746-.71c0-.398-.328-.71-.746-.71z"/>
    </g>
</svg>
