<?xml version="1.0" encoding="UTF-8"?>
<svg width="361px" height="151px" viewBox="0 0 361 151" version="1.1" xmlns="http://www.w3.org/2000/svg" xmlns:xlink="http://www.w3.org/1999/xlink">
    <!-- Generator: Sketch 63.1 (92452) - https://sketch.com -->
    <title>asset-3</title>
    <desc>Created with Sketch.</desc>
    <defs>
        <path d="M34,0 C15.2222346,0 0,15.2222346 0,34 L0,34 C0,52.7777654 15.2222346,68 34,68 L34,68 C52.7777654,68 68,52.7777654 68,34 L68,34" id="path-1"></path>
        <path d="M33.9987349,0.00253023256 C15.2216682,0.00253023256 0,15.2241984 0,34.0012651 L0,34.0012651 C0,52.7783318 15.2216682,68 33.9987349,68 L33.9987349,68 C52.7758016,68 67.9974698,52.7783318 67.9974698,34.0012651 L67.9974698,34.0012651 C67.9974698,15.2241984 52.7758016,0.00253023256 33.9987349,0.00253023256 Z" id="path-3"></path>
        <path d="M33.9987349,0.00253023256 C15.2216682,0.00253023256 0,15.2241984 0,34.0012651 L0,34.0012651 C0,52.7783318 15.2216682,68 33.9987349,68 L33.9987349,68 C52.7758016,68 67.9974698,52.7783318 67.9974698,34.0012651 L67.9974698,34.0012651 C67.9974698,15.2241984 52.7758016,0.00253023256 33.9987349,0.00253023256 Z" id="path-5"></path>
        <path d="M33.9987349,0.00253023256 C15.2216682,0.00253023256 0,15.2241984 0,34.0012651 L0,34.0012651 C0,52.7783318 15.2216682,68 33.9987349,68 L33.9987349,68 C52.7758016,68 67.9974698,52.7783318 67.9974698,34.0012651 L67.9974698,34.0012651" id="path-7"></path>
        <path d="M33.9987349,0.00253023256 C15.2216682,0.00253023256 0,15.2241984 0,34.0012651 L0,34.0012651 C0,52.7783318 15.2216682,68 33.9987349,68 L33.9987349,68 C52.7758016,68 67.9974698,52.7783318 67.9974698,34.0012651 L67.9974698,34.0012651" id="path-9"></path>
        <path d="M33.9987349,0.00253023256 C15.2216682,0.00253023256 0,15.2241984 0,34.0012651 L0,34.0012651 C0,52.7783318 15.2216682,68 33.9987349,68 L33.9987349,68 C52.7758016,68 67.9974698,52.7783318 67.9974698,34.0012651 L67.9974698,34.0012651 C67.9974698,15.2241984 52.7758016,0.00253023256 33.9987349,0.00253023256 Z" id="path-11"></path>
        <path d="M33.9987349,0.00253023256 C15.2216682,0.00253023256 0,15.2241984 0,34.0012651 L0,34.0012651 C0,52.7783318 15.2216682,68 33.9987349,68 L33.9987349,68 C52.7758016,68 67.9974698,52.7783318 67.9974698,34.0012651 L67.9974698,34.0012651 C67.9974698,15.2241984 52.7758016,0.00253023256 33.9987349,0.00253023256 Z" id="path-13"></path>
        <path d="M33.9987349,0.00253023256 C15.2216682,0.00253023256 0,15.2241984 0,34.0012651 L0,34.0012651 C0,52.7783318 15.2216682,68 33.9987349,68 L33.9987349,68 C52.7758016,68 67.9974698,52.7783318 67.9974698,34.0012651 L67.9974698,34.0012651 C67.9974698,15.2241984 52.7758016,0.00253023256 33.9987349,0.00253023256 Z" id="path-15"></path>
        <path d="M33.9987349,0.00253023256 C15.2216682,0.00253023256 0,15.2241984 0,34.0012651 L0,34.0012651 C0,52.7783318 15.2216682,68 33.9987349,68 L33.9987349,68 C52.7758016,68 67.9974698,52.7783318 67.9974698,34.0012651 L67.9974698,34.0012651 C67.9974698,15.2241984 52.7758016,0.00253023256 33.9987349,0.00253023256 Z" id="path-17"></path>
        <path d="M33.9987349,0.00253023256 C15.2216682,0.00253023256 0,15.2241984 0,34.0012651 L0,34.0012651 C0,52.7783318 15.2216682,68 33.9987349,68 L33.9987349,68 C52.7758016,68 67.9974698,52.7783318 67.9974698,34.0012651 L67.9974698,34.0012651" id="path-19"></path>
        <path d="M33.9987349,0.00253023256 C15.2216682,0.00253023256 0,15.2241984 0,34.0012651 L0,34.0012651 C0,52.7783318 15.2216682,68 33.9987349,68 L33.9987349,68 C52.7758016,68 67.9974698,52.7783318 67.9974698,34.0012651 L67.9974698,34.0012651" id="path-21"></path>
        <path d="M33.9987349,0.00253023256 C15.2216682,0.00253023256 0,15.2241984 0,34.0012651 L0,34.0012651 C0,52.7783318 15.2216682,68 33.9987349,68 L33.9987349,68 C52.7758016,68 67.9974698,52.7783318 67.9974698,34.0012651 L67.9974698,34.0012651" id="path-23"></path>
        <path d="M33.9987349,0.00253023256 C15.2216682,0.00253023256 0,15.2241984 0,34.0012651 L0,34.0012651 C0,52.7783318 15.2216682,68 33.9987349,68 L33.9987349,68 C52.7758016,68 67.9974698,52.7783318 67.9974698,34.0012651 L67.9974698,34.0012651" id="path-25"></path>
        <path d="M33.9987349,0.00253023256 C15.2216682,0.00253023256 0,15.2241984 0,34.0012651 L0,34.0012651 C0,52.7783318 15.2216682,68 33.9987349,68 L33.9987349,68 C52.7758016,68 67.9974698,52.7783318 67.9974698,34.0012651 L67.9974698,34.0012651" id="path-27"></path>
        <path d="M34,0 C15.2222346,0 0,15.2222346 0,34 L0,34 C0,52.7777654 15.2222346,68 34,68 L34,68 C52.7777654,68 68,52.7777654 68,34 L68,34" id="path-29"></path>
        <path d="M33.9987349,0.00253023256 C15.2216682,0.00253023256 0,15.2241984 0,34.0012651 L0,34.0012651 C0,52.7783318 15.2216682,68 33.9987349,68 L33.9987349,68 C52.7758016,68 67.9974698,52.7783318 67.9974698,34.0012651 L67.9974698,34.0012651 C67.9974698,15.2241984 52.7758016,0.00253023256 33.9987349,0.00253023256 Z" id="path-31"></path>
        <path d="M33.9987349,0.00253023256 C15.2216682,0.00253023256 0,15.2241984 0,34.0012651 L0,34.0012651 C0,52.7783318 15.2216682,68 33.9987349,68 L33.9987349,68 C52.7758016,68 67.9974698,52.7783318 67.9974698,34.0012651 L67.9974698,34.0012651 C67.9974698,15.2241984 52.7758016,0.00253023256 33.9987349,0.00253023256 Z" id="path-33"></path>
        <path d="M33.9987349,0.00253023256 C15.2216682,0.00253023256 0,15.2241984 0,34.0012651 L0,34.0012651 C0,52.7783318 15.2216682,68 33.9987349,68 L33.9987349,68 C52.7758016,68 67.9974698,52.7783318 67.9974698,34.0012651 L67.9974698,34.0012651 C67.9974698,15.2241984 52.7758016,0.00253023256 33.9987349,0.00253023256 Z" id="path-35"></path>
        <path d="M33.9987349,0.00253023256 C15.2216682,0.00253023256 0,15.2241984 0,34.0012651 L0,34.0012651 C0,52.7783318 15.2216682,68 33.9987349,68 L33.9987349,68 C52.7758016,68 67.9974698,52.7783318 67.9974698,34.0012651 L67.9974698,34.0012651" id="path-37"></path>
        <path d="M33.9987349,0.00253023256 C15.2216682,0.00253023256 0,15.2241984 0,34.0012651 C0,52.7783318 15.2216682,68 33.9987349,68 C52.7758016,68 67.9974698,52.7783318 67.9974698,34.0012651 C67.9974698,15.2241984 52.7758016,0.00253023256 33.9987349,0.00253023256 Z" id="path-39"></path>
    </defs>
    <g id="Home-Page-UPDATES" stroke="none" stroke-width="1" fill="none" fill-rule="evenodd">
        <g id="Artboard" transform="translate(-861.000000, -100.000000)">
            <g id="asset-3" transform="translate(861.000000, 100.000000)">
                <path d="M360.31941,0.499988887 L0.67985963,0.50190167 C15.6959915,48.4073058 48.3434116,86.3418985 89.4764747,109.026901 C130.632178,131.724389 180.283,139.155411 229.268526,126.032314 C246.750775,121.34796 262.997678,114.355767 277.768045,105.46935 C317.579886,81.5170264 346.666102,43.8095582 360.31941,0.499988887 Z" id="Combined-Shape" stroke="#9BA0A8"></path>
                <g id="Icon---Truck-Copy" transform="translate(91.000000, 83.000000)">
                    <g id="Group-3" fill="#FBC952">
                        <path d="M67.9974803,34.001244 C67.9974803,52.7782053 52.7757067,67.9999789 33.9987454,67.9999789 C15.2217842,67.9999789 1.05426357e-05,52.7782053 1.05426357e-05,34.001244 C1.05426357e-05,15.2242828 15.2217842,0.00250914729 33.9987454,0.00250914729 C52.7757067,0.00250914729 67.9974803,15.2242828 67.9974803,34.001244" id="Fill-1"></path>
                    </g>
                    <mask id="mask-2" fill="white">
                        <use xlink:href="#path-1"></use>
                    </mask>
                    <g id="Clip-2"></g>
                    <g id="Group-6" mask="url(#mask-2)">
                        <mask id="mask-4" fill="white">
                            <use xlink:href="#path-3"></use>
                        </mask>
                        <g id="Clip-5"></g>
                        <polygon id="Fill-4" fill="#D9E6F5" mask="url(#mask-4)" points="36.5330264 54.9873197 51.1041085 65.1541104 70.6475194 49.1049507 47.7473333 35.7231833"></polygon>
                    </g>
                    <g id="Group-9" mask="url(#mask-2)">
                        <mask id="mask-6" fill="white">
                            <use xlink:href="#path-5"></use>
                        </mask>
                        <g id="Clip-8"></g>
                        <polygon id="Fill-7" fill="#020303" mask="url(#mask-6)" points="16.2637234 42.8507851 32.3082443 53.2091355 34.2237358 48.3508781 16.2637234 37.1705184"></polygon>
                    </g>
                    <g id="Group-12" mask="url(#mask-2)">
                        <mask id="mask-8" fill="white">
                            <use xlink:href="#path-7"></use>
                        </mask>
                        <g id="Clip-11"></g>
                        <path d="M36.2185922,53.362067 L34.7395659,52.4203988 L35.2947411,50.0094034 L38.3136248,51.8494096 C38.3136248,51.8494096 38.4931659,55.3504081 37.5082729,55.658991 L34.7484217,56.4087833 C35.4284217,56.035574 35.9788527,54.8764112 36.2185922,53.362067" id="Fill-10" fill="#252667" mask="url(#mask-8)"></path>
                    </g>
                    <g id="Group-15" mask="url(#mask-2)">
                        <mask id="mask-10" fill="white">
                            <use xlink:href="#path-9"></use>
                        </mask>
                        <g id="Clip-14"></g>
                        <path d="M15.2735485,40.3051076 L13.1699764,38.9658766 L12.938671,37.5044564 L13.638702,34.2728223 C13.638702,34.2728223 16.2302927,35.8288099 17.367316,37.5643386 C18.5044447,39.2998673 17.7856478,43.6927727 17.1278927,43.8481712 C16.9069191,43.9004626 14.059564,44.5863665 14.059564,44.5863665 C14.9123578,44.5055045 15.4356943,42.6160533 15.2735485,40.3051076" id="Fill-13" fill="#252667" mask="url(#mask-10)"></path>
                    </g>
                    <g id="Group-18" mask="url(#mask-2)">
                        <mask id="mask-12" fill="white">
                            <use xlink:href="#path-11"></use>
                        </mask>
                        <g id="Clip-17"></g>
                        <polygon id="Fill-16" fill="#147067" mask="url(#mask-12)" points="30.9525247 27.970635 46.6322704 23.7814133 46.6322704 31.5614567 30.9525247 36.6146474"></polygon>
                    </g>
                    <g id="Group-21" mask="url(#mask-2)">
                        <mask id="mask-14" fill="white">
                            <use xlink:href="#path-13"></use>
                        </mask>
                        <g id="Clip-20"></g>
                        <polygon id="Fill-19" fill="#6EC9C6" mask="url(#mask-14)" points="25.0376843 13.8052546 46.6322704 23.781329 30.9525247 27.9706561 29.7954704 27.3390468 26.0451386 25.2919833 8.86918202 16.7975709"></polygon>
                    </g>
                    <g id="Group-24" mask="url(#mask-2)">
                        <mask id="mask-16" fill="white">
                            <use xlink:href="#path-15"></use>
                        </mask>
                        <g id="Clip-23"></g>
                        <polygon id="Fill-22" fill="#147067" mask="url(#mask-16)" points="41.2062183 48.717435 41.2062183 56.5373296 55.2501687 49.1163684 55.2501687 42.3337637"></polygon>
                    </g>
                    <g id="Group-27" mask="url(#mask-2)">
                        <mask id="mask-18" fill="white">
                            <use xlink:href="#path-17"></use>
                        </mask>
                        <g id="Clip-26"></g>
                        <polygon id="Fill-25" fill="#16A39A" mask="url(#mask-18)" points="31.0174462 36.8163597 46.6971919 31.7632744 46.5672012 31.3597023 30.8875609 36.4127876"></polygon>
                    </g>
                    <g id="Group-30" mask="url(#mask-2)">
                        <mask id="mask-20" fill="white">
                            <use xlink:href="#path-19"></use>
                        </mask>
                        <g id="Clip-29"></g>
                        <path d="M12.018204,38.0141402 L12.0402381,38.0323789 C12.1975343,36.7047448 12.6292552,35.7818425 13.2193265,35.7258611 C14.109125,35.64152 15.0185327,37.5565898 15.2505761,40.0033247 C15.2601699,40.1050611 15.2666009,40.2048998 15.2735591,40.3050549 C15.4357048,42.616106 14.9123684,44.5055572 14.0595746,44.5864192 C13.1696707,44.6707603 12.2602629,42.7556905 12.028325,40.3089557 C11.9577947,39.5651727 11.958849,38.640689 12.018204,38.0141402" id="Fill-28" fill="#6C787F" mask="url(#mask-20)"></path>
                    </g>
                    <g id="Group-33" mask="url(#mask-2)">
                        <mask id="mask-22" fill="white">
                            <use xlink:href="#path-21"></use>
                        </mask>
                        <g id="Clip-32"></g>
                        <path d="M32.2359219,50.8264788 L32.2340242,50.8252136 C32.2359219,50.7990679 32.2391901,50.773871 32.2412986,50.7477253 C32.2429854,50.7241098 32.2446722,50.6997563 32.2463591,50.6778276 L32.247835,50.678671 C32.4434009,48.4672478 33.2747932,46.8023547 34.2753947,46.8023547 C35.4211684,46.8023547 36.35008,48.9815175 36.35008,51.6698896 C36.35008,52.2658648 36.302111,52.8342183 36.2186133,53.3620881 C35.9788738,54.8764322 35.4284428,56.035595 34.7484428,56.4088043 L34.2753947,56.5373191 C33.1296211,56.5373191 32.2007095,54.3581563 32.2007095,51.6698896 C32.2007095,51.4289904 32.2182102,51.091626 32.2359219,50.8264788" id="Fill-31" fill="#6C787F" mask="url(#mask-22)"></path>
                    </g>
                    <g id="Group-36" mask="url(#mask-2)">
                        <mask id="mask-24" fill="white">
                            <use xlink:href="#path-23"></use>
                        </mask>
                        <g id="Clip-35"></g>
                        <path d="M14.2574809,39.765409 C14.418467,41.4287206 14.2123584,42.8097005 13.797084,42.8498679 C13.381915,42.8900353 12.9148763,41.574209 12.7538902,39.9108974 C12.5929042,38.2476912 12.7990127,36.8667113 13.2141817,36.8265439 C13.6294561,36.786271 14.0964949,38.1020974 14.2574809,39.765409" id="Fill-34" fill="#020303" mask="url(#mask-24)"></path>
                    </g>
                    <g id="Group-39" mask="url(#mask-2)">
                        <mask id="mask-26" fill="white">
                            <use xlink:href="#path-25"></use>
                        </mask>
                        <g id="Clip-38"></g>
                        <path d="M35.3113036,51.6790512 C35.2949625,53.5116775 34.7816416,54.9928124 34.1647919,54.9873454 C33.5477315,54.9818481 33.0608726,53.4917519 33.0772136,51.659231 C33.0934493,49.8266047 33.6067702,48.3454698 34.2237253,48.3509368 C34.8406803,48.3564341 35.3275392,49.8465302 35.3113036,51.6790512" id="Fill-37" fill="#020303" mask="url(#mask-26)"></path>
                    </g>
                    <g id="Group-42" mask="url(#mask-2)">
                        <mask id="mask-28" fill="white">
                            <use xlink:href="#path-27"></use>
                        </mask>
                        <g id="Clip-41"></g>
                        <path d="M53.1735541,49.1049085 C53.6759107,49.1049085 54.0830673,48.2701426 54.0830673,47.240338 C54.0830673,46.2106388 53.6759107,45.3758729 53.1735541,45.3758729 C52.6711975,45.3758729 52.2640409,46.2106388 52.2640409,47.240338 C52.2640409,48.2701426 52.6711975,49.1049085 53.1735541,49.1049085" id="Fill-40" fill="#FDCB51" mask="url(#mask-28)"></path>
                    </g>
                    <mask id="mask-30" fill="white">
                        <use xlink:href="#path-29"></use>
                    </mask>
                    <g id="Clip-44"></g>
                    <path d="M43.0000426,55 C43.5523164,55 44,54.1045919 44,53.0000539 C44,51.8954081 43.5523164,51 43.0000426,51 C42.4477688,51 42,51.8954081 42,53.0000539 C42,54.1045919 42.4477688,55 43.0000426,55" id="Fill-43" fill="#FDCB51" mask="url(#mask-30)"></path>
                    <g id="Group-48" mask="url(#mask-30)">
                        <mask id="mask-32" fill="white">
                            <use xlink:href="#path-31"></use>
                        </mask>
                        <g id="Clip-47"></g>
                        <path d="M46.6322809,31.5614146 C46.6322809,31.5614146 52.2640515,33.4764843 54.0830778,36.4289495 C54.1862902,36.5964719 54.2799088,36.7812843 54.3656205,36.9780099 L40.2443926,42.7796223 C39.9314871,41.8852905 39.5187429,41.1103014 38.9718964,40.6581278 C36.8973166,38.9425247 30.9526406,36.6147107 30.9526406,36.6147107 L46.6322809,31.5614146 Z" id="Fill-46" fill="#2EB9A8" mask="url(#mask-32)"></path>
                    </g>
                    <g id="Group-51" mask="url(#mask-30)">
                        <mask id="mask-34" fill="white">
                            <use xlink:href="#path-33"></use>
                        </mask>
                        <g id="Clip-50"></g>
                        <polygon id="Fill-49" fill="#EC2224" mask="url(#mask-34)" points="8.86916093 33.7039101 10.1857253 34.5178016 10.1857253 37.0659566 8.86916093 36.2277116"></polygon>
                    </g>
                    <g id="Group-54" mask="url(#mask-30)">
                        <mask id="mask-36" fill="white">
                            <use xlink:href="#path-35"></use>
                        </mask>
                        <g id="Clip-53"></g>
                        <path d="M26.045107,25.2919938 L29.7954388,27.3390574 L30.952493,27.9706667 L30.952493,36.6145736 C30.952493,36.6145736 36.8972744,38.942493 38.9719597,40.6580961 C39.5188062,41.1102698 39.9315504,41.8852589 40.2444558,42.7795907 L41.2062605,48.717414 L41.2062605,56.537414 L36.218645,53.3620775 C36.3021426,52.8343132 36.3501116,52.2658543 36.3501116,51.6698791 C36.3501116,48.9816124 35.4212,46.8023442 34.2753209,46.8023442 C33.2525798,46.8023442 32.4047411,48.5404031 32.2340558,50.8252031 L30.952493,50.009414 L26.045107,46.8851039 L15.2735907,40.3051287 C15.2665271,40.2048682 15.2602016,40.1050295 15.2505023,40.0033984 C15.0185643,37.5565581 14.1090512,35.6414884 13.2192527,35.7258295 C12.5999783,35.7845519 12.1542357,36.7978047 12.0182357,38.2326574 L10.1857147,37.0660093 L10.1857147,34.5178543 L8.86915039,33.7039628 L8.86915039,16.7975814 L26.045107,25.2919938 Z" id="Fill-52" fill="#16A39A" mask="url(#mask-36)"></path>
                    </g>
                    <g id="Group-57" mask="url(#mask-30)">
                        <mask id="mask-38" fill="white">
                            <use xlink:href="#path-37"></use>
                        </mask>
                        <g id="Clip-56"></g>
                        <path d="M40.2444136,42.7795907 L54.3656416,36.9779783 C55.246795,38.9988961 55.2501687,42.3337426 55.2501687,42.3337426 L41.2062183,48.717414 C41.2062183,48.717414 41.205902,48.7040248 41.2050586,48.6781953 C41.2042152,48.6523659 41.2028447,48.6142016 41.2007361,48.5647566 C41.198733,48.5153116 41.1959919,48.454586 41.1924074,48.3835287 C41.1888229,48.3125767 41.184395,48.2313984 41.1788074,48.1410481 C41.1760664,48.0958202 41.1731144,48.0483783 41.1698462,47.9987225 C41.1600416,47.8498605 41.1477067,47.6816 41.1324198,47.4975256 C41.1221935,47.3748093 41.1104912,47.2450295 41.0974183,47.1093457 C40.9790245,45.8881922 40.7361222,44.1851349 40.2444136,42.7795907" id="Fill-55" fill="#D1D5DB" mask="url(#mask-38)"></path>
                    </g>
                    <g id="Group-60" mask="url(#mask-30)">
                        <g transform="translate(0.000000, -6.000000)">
                            <mask id="mask-40" fill="white">
                                <use xlink:href="#path-39"></use>
                            </mask>
                            <g id="Clip-59" stroke="none" fill="none"></g>
                            <path d="M40.2444136,48.0920907 C41.118609,50.5909062 41.2062183,54.029914 41.2062183,54.029914 L35.3117253,50.4048287 L35.3117253,45.6697093 L40.2444136,48.0920907 Z" id="Fill-58" stroke="none" fill="#DFE1E4" fill-rule="evenodd" mask="url(#mask-40)"></path>
                        </g>
                    </g>
                    <g id="Group-63" mask="url(#mask-30)" fill="#DFE1E4">
                        <g transform="translate(16.000000, 26.000000)" id="Fill-61">
                            <path d="M6.01140949,7.13262251 C6.56406809,6.46834716 7.10668019,5.82396391 7.63211274,5.1592867 C7.749456,5.010096 7.87212391,4.97503367 8.07868019,5.04405321 C8.28212205,5.11216856 8.48978344,5.14230809 8.69975553,5.19012949 C8.78253879,5.39075833 8.74888298,5.46620763 8.53519367,5.46048112 C8.36862251,5.45606065 8.16990251,5.48830995 8.07014065,5.59038251 C7.44384112,6.2280346 6.84125135,6.88387088 6.22740949,7.52925879 C6.70180577,8.32162716 7.16324205,9.0948067 7.62297042,9.8724067 C7.79878437,10.1708886 7.97469879,10.4699732 8.14378158,10.7721723 C8.45612763,11.3323658 8.45401786,11.3331695 8.98829135,11.5953834 L8.98829135,11.8660365 C8.54805321,11.7480904 8.12057414,11.6403918 7.69389879,11.5118969 C7.63211274,11.4933109 7.56038065,11.3806895 7.5158746,11.3027286 C6.96010158,10.3328383 6.40854809,9.36686623 5.85558809,8.40712298 C5.8077667,8.32423926 5.7576346,8.24246065 5.68278809,8.11687926 C5.30262809,8.56706344 4.93221321,8.99032298 4.57636577,9.42423181 C4.33163274,9.72110623 4.103376,10.0319453 3.87562158,10.3416793 C3.80830995,10.4331025 3.73888856,10.4691695 3.59642902,10.4225537 C3.34385972,10.3398709 3.08958251,10.2826058 2.80807926,10.2072569 C2.80195088,10.1201537 2.7964253,10.0401834 2.78818716,9.92344298 C3.34215181,10.1319081 3.54509135,9.77646251 3.79735926,9.50711553 C4.30199553,8.9652067 4.79085879,8.40380763 5.30061879,7.85858344 C5.42710437,7.7227546 5.42780763,7.60330158 5.30212577,7.41322158 C4.47640298,6.17117135 3.65540205,4.93756019 2.83681228,3.71339274 C2.78014995,3.62900205 2.75603833,3.528336 2.71675647,3.4353053 C2.80576856,3.44113228 2.89488112,3.44716019 2.98379274,3.45278623 C3.33300949,3.4744867 3.70412763,3.55505972 4.02682158,3.5047267 C4.72244205,3.39461693 5.02464112,2.642736 4.72425042,1.90913972 C4.54713042,1.47784298 4.20132949,1.19875088 3.79504856,1.07527926 C3.38284019,0.950200186 2.96068577,0.916644837 2.54315274,0.848730419 C2.41063926,0.827130419 2.35749321,0.894542512 2.35538344,1.02293693 C2.34724577,1.50878623 2.32263181,1.99101879 2.32082344,2.47807367 C2.31680484,3.54451088 2.32303367,4.61325879 2.32504298,5.68100205 C2.32514344,5.71917879 2.32564577,5.757456 2.32654995,5.79573321 C2.3388067,6.36044763 2.38331274,6.41510065 2.96761786,6.58368112 C3.25243647,6.66586158 3.25243647,6.66586158 3.21737414,6.93078809 C2.32685135,6.71147274 1.4339174,6.49145414 0.522799256,6.26701507 L0.522799256,6.00861879 C0.702129488,6.0379546 0.881359256,6.06437693 1.06119181,6.09722902 C1.28422437,6.1379174 1.38679926,6.04187274 1.39835274,5.84285135 C1.40880112,5.66382251 1.41934995,5.48459274 1.41934995,5.30295181 C1.41924949,3.93863553 1.41914902,2.57421879 1.41342251,1.20869693 C1.41070995,0.531662512 1.40528484,0.53065786 0.705344372,0.333444837 C0.650490419,0.317973209 0.59573693,0.300592744 0.523201116,0.278691349 L0.523201116,0.0258206512 C0.582877395,0.0339583256 0.644161116,0.0388811163 0.705444837,0.0513387907 C1.6905053,0.251867163 2.67566623,0.445061581 3.66052577,0.658951814 C4.01566995,0.736109023 4.37814809,0.830345302 4.72324577,0.975818791 C5.51430809,1.31046809 5.94640856,2.14372577 5.72548577,2.86667274 C5.50205135,3.59554716 4.90418344,3.82932949 4.15622065,3.85384298 C4.07243274,3.85655553 3.98784112,3.85585228 3.870096,3.85705786 C4.58902437,4.94851088 5.2933853,6.02599926 6.01140949,7.13262251"></path>
                        </g>
                    </g>
                    <g id="Group-66" mask="url(#mask-30)" fill="#FDCB51" fill-opacity="0.46">
                        <g transform="translate(47.000000, 48.000000)" id="Fill-64">
                            <polygon points="0.527230096 4.02575299 16.9273921 17.9806256 17.7588886 15.3871521 1.15617127 0.495676713"></polygon>
                        </g>
                    </g>
                    <g id="Group-69" opacity="0.459349133" mask="url(#mask-30)" fill="#FDCB51">
                        <g transform="translate(51.000000, 45.000000)" id="Fill-67">
                            <polygon points="0.169189457 4.26065873 20.8212453 18.6967338 21.868315 16.0138302 0.961189457 0.608855686"></polygon>
                        </g>
                    </g>
                </g>
                <circle id="Oval-Copy-9" fill="#B8DAF2" cx="232" cy="125" r="7"></circle>
            </g>
        </g>
    </g>
</svg>