<?xml version="1.0" encoding="UTF-8"?>
<svg width="322px" height="310px" viewBox="0 0 322 310" version="1.1" xmlns="http://www.w3.org/2000/svg" xmlns:xlink="http://www.w3.org/1999/xlink">
    <!-- Generator: Sketch 63.1 (92452) - https://sketch.com -->
    <title>asset-1</title>
    <desc>Created with Sketch.</desc>
    <defs>
        <polygon id="path-1" points="0.0736440613 0.0492214971 60.907682 0.0492214971 60.907682 61 0.0736440613 61"></polygon>
        <path d="M30.4906513,0.0491746641 C13.6916954,0.0491746641 0.0736206897,13.6935048 0.0736206897,30.5245873 L0.0736206897,30.5245873 C0.0736206897,47.3556699 13.6916954,61 30.4906513,61 L30.4906513,61 C47.2894904,61 60.907682,47.3556699 60.907682,30.5245873 L60.907682,30.5245873" id="path-3"></path>
        <path d="M30.4906513,0.0491746641 C13.6916954,0.0491746641 0.0736206897,13.6935048 0.0736206897,30.5245873 L0.0736206897,30.5245873 C0.0736206897,47.3556699 13.6916954,61 30.4906513,61 L30.4906513,61 C47.2894904,61 60.907682,47.3556699 60.907682,30.5245873 L60.907682,30.5245873 C60.907682,13.6935048 47.2894904,0.0491746641 30.4906513,0.0491746641 Z" id="path-5"></path>
        <path d="M30.4906513,0.0491746641 C13.6916954,0.0491746641 0.0736206897,13.6935048 0.0736206897,30.5245873 L0.0736206897,30.5245873 C0.0736206897,47.3556699 13.6916954,61 30.4906513,61 L30.4906513,61 C47.2894904,61 60.907682,47.3556699 60.907682,30.5245873 L60.907682,30.5245873 C60.907682,13.6935048 47.2894904,0.0491746641 30.4906513,0.0491746641 Z" id="path-7"></path>
    </defs>
    <g id="Home-Page-UPDATES" stroke="none" stroke-width="1" fill="none" fill-rule="evenodd">
        <g id="Artboard" transform="translate(-24.000000, -35.000000)">
            <g id="asset-1" transform="translate(24.000000, 35.000000)">
                <circle id="Oval-Copy-7" stroke="#9BA0A8" transform="translate(166.152991, 155.000000) scale(1, -1) translate(-166.152991, -155.000000) " cx="166.152991" cy="155" r="154.5"></circle>
                <g id="Group-35-Copy" transform="translate(0.000000, 203.625184)">
                    <g id="Group-3">
                        <mask id="mask-2" fill="white">
                            <use xlink:href="#path-1"></use>
                        </mask>
                        <g id="Clip-2"></g>
                        <path d="M0.0736440613,30.5246342 C0.0736440613,47.3555996 13.6918356,61.0000468 30.4906747,61.0000468 C47.2895138,61.0000468 60.9077054,47.3555996 60.9077054,30.5246342 C60.9077054,13.6935516 47.2895138,0.0492214971 30.4906747,0.0492214971 C13.6918356,0.0492214971 0.0736440613,13.6935516 0.0736440613,30.5246342" id="Fill-1" fill="#B8DAF2" mask="url(#mask-2)"></path>
                    </g>
                    <g id="Group-13">
                        <g id="Group-6">
                            <mask id="mask-4" fill="white">
                                <use xlink:href="#path-3"></use>
                            </mask>
                            <g id="Clip-5"></g>
                            <path d="M0.0736440613,30.5246342 C0.0736440613,47.3555996 13.6918356,61.0000468 30.4906747,61.0000468 C47.2895138,61.0000468 60.9077054,47.3555996 60.9077054,30.5246342 C60.9077054,13.6935516 47.2895138,0.0492214971 30.4906747,0.0492214971 C13.6918356,0.0492214971 0.0736440613,13.6935516 0.0736440613,30.5246342" id="Fill-4" fill="#B8DAF2" mask="url(#mask-4)"></path>
                        </g>
                        <g id="Group-9">
                            <mask id="mask-6" fill="white">
                                <use xlink:href="#path-5"></use>
                            </mask>
                            <g id="Clip-8"></g>
                            <polygon id="Fill-7" fill="#B8DAF2" mask="url(#mask-6)" points="22.6056534 48.2203946 5.15579713 60.6560818 4.27106341 58.3449896 21.9364063 45.0747382"></polygon>
                        </g>
                        <g id="Group-12">
                            <mask id="mask-8" fill="white">
                                <use xlink:href="#path-7"></use>
                            </mask>
                            <g id="Clip-11"></g>
                            <polygon id="Fill-10" fill="#B8DAF2" mask="url(#mask-8)" points="14.0108703 43.7881768 -3.43898602 56.2237468 -4.32371973 53.9126547 13.34174 40.6424033"></polygon>
                        </g>
                    </g>
                    <g id="Group-34" transform="translate(11.000000, 6.000000)">
                        <path d="M14.1179959,9.66468188 L14.3646717,9.51720845 L14.364789,9.5170901 L16.1277476,8.4635901 L18.9162166,6.79711667 L18.9163338,6.79699831 L25.4528924,2.89072778 C28.0956303,1.31148382 31.5599959,2.15998865 33.1515476,4.77651763 C34.7430993,7.39304662 33.8831338,10.8260056 31.2402786,12.4053679 L24.8451131,16.2272495 L24.8448786,16.2273679 L23.2078372,17.2057109 L22.9630372,17.3521191 L22.96292,17.3521191 L22.3730786,17.7045877 L19.9052648,19.1794403 C17.2626441,20.7585659 13.7983959,19.9100611 12.2068441,17.2935321 C10.6152924,14.6770031 11.4752579,11.2440442 14.1179959,9.66468188" id="Fill-14" fill="#809EC3"></path>
                        <path d="M28.9327807,11.02313 L17.3641048,18.064572 C14.6070566,19.7427628 10.9910979,18.8385116 9.32873241,16.0550986 C7.66624966,13.2714488 8.56209103,9.62094879 11.3193738,7.94263961 L22.8879324,0.901197585 C25.6450979,-0.776993237 29.2610566,0.127257971 30.9234221,2.91078937 C32.5857876,5.69432077 31.6899462,9.34482077 28.9327807,11.02313" id="Fill-16" fill="#FEFEFE"></path>
                        <path d="M11.0618297,8.09939227 L14.2520848,6.15761932 C17.0092503,4.47966522 20.6249745,5.38391643 22.2872228,8.16732947 L22.28734,8.16732947 C23.9497055,10.9508609 23.0538641,14.6013609 20.2966986,16.27967 L19.6811814,16.6542715 L17.1065607,18.2213246 C14.3493952,19.8995155 10.7335538,18.9952643 9.07118828,16.2118512 C7.40870552,13.4282014 8.3045469,9.77770145 11.0618297,8.09939227" id="Fill-18" fill="#FDD55A"></path>
                        <path d="M11.9327807,7.56932826 L16.0680014,5.05233792 C18.8250497,3.37450217 21.4959255,4.85385242 23.158291,7.6371471 C24.8206566,10.4206785 25.0173876,13.4062461 22.2601048,15.0845553 L20.5521324,16.1240891 L17.9775117,17.6912606 C15.2203462,19.3693331 11.6045048,18.4650819 9.94213931,15.6816688 C8.27977379,12.8981374 9.17549793,9.24751908 11.9327807,7.56932826" id="Fill-20" fill="#FDD55A"></path>
                        <path d="M16.4509821,12.1161495 L28.7987269,5.12122198 C29.3691062,4.79810604 29.5741614,4.06251425 29.2542097,3.48646836 C28.9341407,2.91018575 28.2051338,2.70306014 27.6344028,3.02653116 L15.2865407,10.0214587 C14.7161614,10.3445746 14.5112234,11.0801664 14.8310579,11.6562123 C15.1511269,12.2324949 15.8801338,12.4395022 16.4509821,12.1161495" id="Fill-22" fill="#F2F2F2"></path>
                        <path d="M25.9622476,36.4163029 L25.6629303,36.2374647 L25.6628131,36.2373464 L23.5246821,34.9595589 L20.1428545,32.9386048 L20.1427372,32.9384865 L12.2151097,28.2007546 C9.00996483,26.2853754 4.80838552,27.3146121 2.87812345,30.4878947 C0.947861379,33.6612957 1.99084069,37.8248754 5.19598552,39.7403729 L12.9523234,44.3756072 L12.9525579,44.3757256 L14.9380407,45.5622594 L15.2348959,45.7396773 L15.2348959,45.7396773 L15.95042,46.1673029 L18.9433579,47.9559213 C22.1483855,49.8713005 26.3498476,48.8420638 28.2801097,45.6687812 L28.2801097,45.6687812 C30.2103717,42.4953802 29.1673924,38.3318005 25.9622476,36.4163029" id="Fill-24" fill="#809EC3"></path>
                        <path d="M3.53822759,36.6636582 L17.5687379,45.2036244 C20.9126966,47.2390181 25.2981103,46.1421993 27.3141931,42.7665254 L27.3141931,42.7665254 C29.3303931,39.3904964 28.2440345,34.9630978 24.8999586,32.9277041 L10.8694483,24.3877379 C7.52548966,22.3524626 3.14007586,23.449163 1.1239931,26.8249553 L1.12387586,26.8249553 C-0.892206897,30.2008659 0.194151724,34.6283829 3.53822759,36.6636582" id="Fill-26" fill="#FEFEFE"></path>
                        <path d="M25.2123131,33.1177862 L21.3431131,30.7627089 C17.9992717,28.7276703 13.6139752,29.8244891 11.5978924,33.200163 L11.5978924,33.200163 C9.58180966,36.5760737 10.6681683,41.0034722 14.0121269,43.0388659 L14.7586028,43.4932403 L17.8812097,45.3938249 C21.2251683,47.4291002 25.6104648,46.3322814 27.6265476,42.9566075 L27.6266648,42.9566075 C29.6427476,39.5805785 28.556389,35.15318 25.2123131,33.1177862" id="Fill-28" fill="#FDD55A"></path>
                        <path d="M24.1559917,32.4748447 L19.1408745,29.4222867 C15.7969159,27.3872481 12.5576538,29.1814292 10.541571,32.5571031 L10.541571,32.5572215 C8.52537103,35.9330138 8.28678483,39.5539244 11.6307434,41.5894365 L13.7022814,42.8502988 L16.8248883,44.7508833 C20.1688469,46.7861587 24.5541434,45.6893399 26.5702262,42.3135476 L26.5703434,42.3135476 C28.5864262,38.9377553 27.4999503,34.5102384 24.1559917,32.4748447" id="Fill-30" fill="#FDD55A"></path>
                        <path d="M18.6762703,37.9893923 L3.70079448,29.5057643 C3.0089531,29.1138826 2.76040138,28.2217039 3.1483531,27.523158 C3.53653931,26.8241386 4.42065655,26.5731024 5.11284966,26.9652208 L20.0884428,35.4488488 C20.7802841,35.8408488 21.0288359,36.7330275 20.6408841,37.4314551 C20.2526979,38.1304744 19.3685807,38.3815106 18.6762703,37.9893923" id="Fill-32" fill="#F2F2F2"></path>
                    </g>
                </g>
                <circle id="Oval-Copy-11" fill="#B8DAF2" cx="14" cy="126.625184" r="7"></circle>
            </g>
        </g>
    </g>
</svg>