<svg xmlns="http://www.w3.org/2000/svg" width="50" height="51" viewBox="0 0 50 51">
    <g fill="none" fill-rule="evenodd">
        <path fill="#292A2E" d="M4.572 36.977a.792.792 0 0 1-.783-.798v-3.695H46.08v3.695c0 .44-.351.798-.783.798H4.572zm24.47 7.15l.442.376h-9.096l.442-.375c.953-.811 1.132-1.815 1.163-2.073l.396-4.33h5.093l.388 4.235c.004.057.084 1.24 1.173 2.168zM3.79 7.64c0-.442.35-.8.783-.8h40.726c.432 0 .783.358.783.8v24.097H3.789V7.64zm43.025 28.54V7.64c0-.854-.68-1.547-1.516-1.547H4.572c-.836 0-1.516.693-1.516 1.547v28.54c0 .852.68 1.546 1.516 1.546h17.08l-.384 4.215c-.005.097-.186 2.563-4.233 2.563a.371.371 0 0 0-.366.375.37.37 0 0 0 .366.373h15.8a.37.37 0 0 0 .367-.373.371.371 0 0 0-.367-.375c-3.97 0-4.22-2.334-4.236-2.6l-.381-4.178h17.08c.836 0 1.516-.694 1.516-1.546z"/>
        <g fill-rule="nonzero" stroke-width=".5">
            <path fill="#2A2A2E" stroke="#2A2A2E" d="M14.167 11.31v16.34c0 .127.099.23.221.23h21.044a.22.22 0 0 0 .195-.114.24.24 0 0 0 0-.233.22.22 0 0 0-.195-.114H14.61V16.99 11.31a.236.236 0 0 0-.071-.175.216.216 0 0 0-.174-.06.228.228 0 0 0-.197.235z"/>
            <path fill="#1F1FFF" stroke="#1F1FFF" d="M28.382 14.455c.127 0 .23.1.23.222v1.114a.222.222 0 0 1-.115.196.235.235 0 0 1-.23 0 .222.222 0 0 1-.114-.196v-.57l-10.075 9.186c.063.112.1.237.1.373 0 .428-.362.78-.802.78a.795.795 0 0 1-.802-.78c0-.199.077-.38.204-.519a.972.972 0 0 1 .394-.233.807.807 0 0 1 .584.066L27.834 14.9h-.598a.227.227 0 0 1-.24-.212.225.225 0 0 1 .219-.233zm-11.006 9.99a.336.336 0 0 0-.344.335c0 .187.152.334.344.334a.336.336 0 0 0 .344-.334.336.336 0 0 0-.344-.334z"/>
        </g>
    </g>
</svg>
