<svg xmlns="http://www.w3.org/2000/svg" width="60" height="60" viewBox="0 0 60 60">
    <g fill="none" fill-rule="evenodd">
        <path d="M0 60L60 60 60 0 0 0z"/>
        <path fill="#FFF" d="M6.25 55L53.75 55 53.75 14.777 6.25 14.777z"/>
        <path stroke="#292A2E" stroke-linecap="round" stroke-linejoin="round" d="M6.25 55L53.75 55 53.75 14.777 6.25 14.777z"/>
        <path stroke="#292A2E" stroke-linecap="round" stroke-linejoin="round" d="M32.329 55L44.829 55 44.829 34.46 32.329 34.46z"/>
        <path fill="#FFF" d="M6.25 5L1.249 15 58.749 15 53.751 5z"/>
        <g>
            <path stroke="#292A2E" stroke-linecap="round" stroke-linejoin="round" d="M52.5 0L5 0 0 10 57.5 10z" transform="translate(1.25 5)"/>
            <path fill="#FFF" d="M57.5 12.5c0 4.142-3.357 7.5-7.5 7.5-2.065 0-3.642-1.15-5-2.5-1.77 2.812-5.182 5-8.75 5-2.991 0-5.666-1.32-7.5-3.401-1.831 2.08-4.509 3.4-7.5 3.4-3.567 0-6.98-2.187-8.75-5-1.355 1.35-2.935 2.5-5 2.5C3.358 20 0 16.643 0 12.5V10h57.5v2.5z" transform="translate(1.25 5)"/>
            <path stroke="#292A2E" stroke-linecap="round" stroke-linejoin="round" d="M57.5 12.5c0 4.142-3.357 7.5-7.5 7.5-2.065 0-3.642-1.15-5-2.5-1.77 2.812-5.182 5-8.75 5-2.991 0-5.666-1.32-7.5-3.401-1.831 2.08-4.509 3.4-7.5 3.4-3.567 0-6.98-2.187-8.75-5-1.355 1.35-2.935 2.5-5 2.5C3.358 20 0 16.643 0 12.5V10h57.5v2.5z" transform="translate(1.25 5)"/>
            <path stroke="#292A2E" stroke-linecap="round" stroke-linejoin="round" d="M12.5 17.5L12.5 10 15 0M28.75 19.101L28.75 10 28.75 0M45 17.5L45 10 42.5 0M38.333 37.938c-.795 0-1.437.644-1.437 1.436 0 .795.642 1.44 1.437 1.44s1.438-.645 1.438-1.44c0-.792-.643-1.436-1.438-1.436z" transform="translate(1.25 5)"/>
            <path fill="#00CCAE" d="M15.91 32.656h-.708v-1.854h.896c.35 0 .625.075.825.228.2.151.3.382.3.691 0 .623-.438.935-1.313.935zm6.982 7.673l-2.061-2.672 1.867-2.585h.858v-1.34h-3.034v1.267h.475l-1.072 1.478-2.178-2.78.256-.036c.918-.415 1.377-1.074 1.377-1.975 0-.574-.2-1.089-.597-1.544-.397-.455-1.047-.682-1.948-.682H12.29v1.342h.846v5.257h-.846v1.34h3.66v-1.34h-.748v-2.135h.429l.889 1.148h-.01l1.937 2.523-1.936 2.734h-.925v1.34h3.176v-1.29h-.572l1.18-1.625 1.245 1.626h-.55v1.29h3.725v-1.341h-.898z" transform="translate(1.25 5)"/>
        </g>
    </g>
</svg>
